<?xml version="1.0" encoding="UTF-8" standalone="no"?>
<!-- Created with Inkscape (http://www.inkscape.org/) -->

<svg
   xmlns:dc="http://purl.org/dc/elements/1.1/"
   xmlns:cc="http://creativecommons.org/ns#"
   xmlns:rdf="http://www.w3.org/1999/02/22-rdf-syntax-ns#"
   xmlns:svg="http://www.w3.org/2000/svg"
   xmlns="http://www.w3.org/2000/svg"
   xmlns:sodipodi="http://sodipodi.sourceforge.net/DTD/sodipodi-0.dtd"
   xmlns:inkscape="http://www.inkscape.org/namespaces/inkscape"
   width="120mm"
   height="150mm"
   viewBox="0 0 120 150"
   version="1.1"
   id="svg8"
   inkscape:version="0.92.5 (2060ec1f9f, 2020-04-08)"
   sodipodi:docname="apollonian.svg">
  <defs
     id="defs2" />
  <sodipodi:namedview
     id="base"
     pagecolor="#ffffff"
     bordercolor="#666666"
     borderopacity="1.0"
     inkscape:pageopacity="0.0"
     inkscape:pageshadow="2"
     inkscape:zoom="0.7"
     inkscape:cx="177.04819"
     inkscape:cy="494.85246"
     inkscape:document-units="mm"
     inkscape:current-layer="layer1"
     showgrid="false"
     inkscape:window-width="1920"
     inkscape:window-height="1016"
     inkscape:window-x="0"
     inkscape:window-y="0"
     inkscape:window-maximized="1" />
  <metadata
     id="metadata5">
    <rdf:RDF>
      <cc:Work
         rdf:about="">
        <dc:format>image/svg+xml</dc:format>
        <dc:type
           rdf:resource="http://purl.org/dc/dcmitype/StillImage" />
        <dc:title></dc:title>
        <cc:license
           rdf:resource="http://creativecommons.org/licenses/by-sa/4.0/" />
      </cc:Work>
      <cc:License
         rdf:about="http://creativecommons.org/licenses/by-sa/4.0/">
        <cc:permits
           rdf:resource="http://creativecommons.org/ns#Reproduction" />
        <cc:permits
           rdf:resource="http://creativecommons.org/ns#Distribution" />
        <cc:requires
           rdf:resource="http://creativecommons.org/ns#Notice" />
        <cc:requires
           rdf:resource="http://creativecommons.org/ns#Attribution" />
        <cc:permits
           rdf:resource="http://creativecommons.org/ns#DerivativeWorks" />
        <cc:requires
           rdf:resource="http://creativecommons.org/ns#ShareAlike" />
      </cc:License>
    </rdf:RDF>
  </metadata>
  <g
     inkscape:label="Layer 1"
     inkscape:groupmode="layer"
     id="layer1"
     transform="translate(0,-147)">
    <path
       style="fill:none;stroke:#dd0000;stroke-width:1.14519686;stroke-miterlimit:4;stroke-dasharray:none"
       d="M 233.59766 122.33789 A 37.126457 37.126457 0 0 0 196.4707 159.46484 A 37.126457 37.126457 0 0 0 233.59766 196.58984 A 37.126457 37.126457 0 0 0 270.72266 159.46484 A 37.126457 37.126457 0 0 0 233.59766 122.33789 z M 172.36328 126.53711 A 19.326746 19.326746 0 0 0 153.03711 145.86328 A 19.326746 19.326746 0 0 0 172.36328 165.18945 A 19.326746 19.326746 0 0 0 191.68945 145.86328 A 19.326746 19.326746 0 0 0 172.36328 126.53711 z M 294.08203 139.14648 A 17.374867 17.374867 0 0 0 276.70703 156.52148 A 17.374867 17.374867 0 0 0 294.08203 173.89648 A 17.374867 17.374867 0 0 0 311.45703 156.52148 A 17.374867 17.374867 0 0 0 294.08203 139.14648 z M 142.42578 171.99609 A 79.402715 79.402715 0 0 0 63.023438 251.39844 A 79.402715 79.402715 0 0 0 142.42578 330.80078 A 79.402715 79.402715 0 0 0 221.82812 251.39844 A 79.402715 79.402715 0 0 0 142.42578 171.99609 z M 307.11328 182.58398 A 68.81568 68.81568 0 0 0 238.29688 251.39844 A 68.81568 68.81568 0 0 0 307.11328 320.21484 A 68.81568 68.81568 0 0 0 375.92773 251.39844 A 68.81568 68.81568 0 0 0 307.11328 182.58398 z M 231.34375 201.63672 A 8.7325973 8.7325973 0 0 0 222.61133 210.36914 A 8.7325973 8.7325973 0 0 0 231.34375 219.10156 A 8.7325973 8.7325973 0 0 0 240.07617 210.36914 A 8.7325973 8.7325973 0 0 0 231.34375 201.63672 z M 231.01367 276.09961 A 4.563439 4.563439 0 0 0 226.44922 280.66211 A 4.563439 4.563439 0 0 0 231.01367 285.22656 A 4.563439 4.563439 0 0 0 235.57617 280.66211 A 4.563439 4.563439 0 0 0 231.01367 276.09961 z M 231.53516 286.96289 A 11.147443 11.147443 0 0 0 220.38867 298.11133 A 11.147443 11.147443 0 0 0 231.53516 309.25781 A 11.147443 11.147443 0 0 0 242.68359 298.11133 A 11.147443 11.147443 0 0 0 231.53516 286.96289 z M 373.46484 301.66992 A 14.871633 14.871633 0 0 0 358.59375 316.54297 A 14.871633 14.871633 0 0 0 373.46484 331.41406 A 14.871633 14.871633 0 0 0 388.33789 316.54297 A 14.871633 14.871633 0 0 0 373.46484 301.66992 z M 246.88086 301.70898 A 4.4455192 4.4455192 0 0 0 242.43555 306.1543 A 4.4455192 4.4455192 0 0 0 246.88086 310.60156 A 4.4455192 4.4455192 0 0 0 251.32617 306.1543 A 4.4455192 4.4455192 0 0 0 246.88086 301.70898 z M 216.88867 303.04492 A 4.563439 4.563439 0 0 0 212.32422 307.60742 A 4.563439 4.563439 0 0 0 216.88867 312.17188 A 4.563439 4.563439 0 0 0 221.45117 307.60742 A 4.563439 4.563439 0 0 0 216.88867 303.04492 z M 72.662109 316.73047 A 19.326746 19.326746 0 0 0 53.335938 336.05664 A 19.326746 19.326746 0 0 0 72.662109 355.38477 A 19.326746 19.326746 0 0 0 91.988281 336.05664 A 19.326746 19.326746 0 0 0 72.662109 316.73047 z M 236.11133 318.02539 A 68.81568 68.81568 0 0 0 167.29688 386.8418 A 68.81568 68.81568 0 0 0 236.11133 455.65625 A 68.81568 68.81568 0 0 0 304.92773 386.8418 A 68.81568 68.81568 0 0 0 236.11133 318.02539 z M 342.13281 325.55078 A 30.536589 30.536589 0 0 0 311.59766 356.08789 A 30.536589 30.536589 0 0 0 342.13281 386.625 A 30.536589 30.536589 0 0 0 372.66992 356.08789 A 30.536589 30.536589 0 0 0 342.13281 325.55078 z M 304.51367 328.67578 A 7.6914901 7.6914901 0 0 0 296.82227 336.36719 A 7.6914901 7.6914901 0 0 0 304.51367 344.05859 A 7.6914901 7.6914901 0 0 0 312.20508 336.36719 A 7.6914901 7.6914901 0 0 0 304.51367 328.67578 z M 159.26562 339.13477 A 8.7325973 8.7325973 0 0 0 150.5332 347.86914 A 8.7325973 8.7325973 0 0 0 159.26562 356.60156 A 8.7325973 8.7325973 0 0 0 167.99805 347.86914 A 8.7325973 8.7325973 0 0 0 159.26562 339.13477 z M 118.68164 341.55273 A 37.126457 37.126457 0 0 0 81.554688 378.67969 A 37.126457 37.126457 0 0 0 118.68164 415.80664 A 37.126457 37.126457 0 0 0 155.80859 378.67969 A 37.126457 37.126457 0 0 0 118.68164 341.55273 z M 327.43359 389.48047 A 14.871633 14.871633 0 0 0 312.5625 404.35352 A 14.871633 14.871633 0 0 0 327.43359 419.22461 A 14.871633 14.871633 0 0 0 342.30664 404.35352 A 14.871633 14.871633 0 0 0 327.43359 389.48047 z M 150.67188 412.72266 A 17.374867 17.374867 0 0 0 133.29688 430.09766 A 17.374867 17.374867 0 0 0 150.67188 447.47266 A 17.374867 17.374867 0 0 0 168.04688 430.09766 A 17.374867 17.374867 0 0 0 150.67188 412.72266 z "
       transform="matrix(0.26458333,0,0,0.26458333,0,147)"
       id="circle1880" />
  </g>
</svg>
