<?xml version="1.0" encoding="UTF-8" standalone="no"?>
<!-- Created with Inkscape (http://www.inkscape.org/) -->

<svg
   xmlns:dc="http://purl.org/dc/elements/1.1/"
   xmlns:cc="http://creativecommons.org/ns#"
   xmlns:rdf="http://www.w3.org/1999/02/22-rdf-syntax-ns#"
   xmlns:svg="http://www.w3.org/2000/svg"
   xmlns="http://www.w3.org/2000/svg"
   xmlns:xlink="http://www.w3.org/1999/xlink"
   xmlns:sodipodi="http://sodipodi.sourceforge.net/DTD/sodipodi-0.dtd"
   xmlns:inkscape="http://www.inkscape.org/namespaces/inkscape"
   width="120mm"
   height="150mm"
   viewBox="0 0 120 150"
   version="1.1"
   id="svg8"
   inkscape:version="0.92.5 (2060ec1f9f, 2020-04-08)"
   sodipodi:docname="circles.svg">
  <defs
     id="defs2">
    <inkscape:perspective
       sodipodi:type="inkscape:persp3d"
       inkscape:vp_x="-1.5961638 : 102.78939 : 1"
       inkscape:vp_y="0 : 444.88275 : 0"
       inkscape:vp_z="163.25172 : 102.78939 : 1"
       inkscape:persp3d-origin="80.827776 : 91.667318 : 1"
       id="perspective1411" />
  </defs>
  <sodipodi:namedview
     id="base"
     pagecolor="#ffffff"
     bordercolor="#666666"
     borderopacity="1.0"
     inkscape:pageopacity="0.0"
     inkscape:pageshadow="2"
     inkscape:zoom="1.4"
     inkscape:cx="67.409518"
     inkscape:cy="295.15979"
     inkscape:document-units="mm"
     inkscape:current-layer="layer1"
     showgrid="false"
     inkscape:window-width="1920"
     inkscape:window-height="1016"
     inkscape:window-x="0"
     inkscape:window-y="0"
     inkscape:window-maximized="1" />
  <metadata
     id="metadata5">
    <rdf:RDF>
      <cc:Work
         rdf:about="">
        <dc:format>image/svg+xml</dc:format>
        <dc:type
           rdf:resource="http://purl.org/dc/dcmitype/StillImage" />
        <dc:title></dc:title>
        <cc:license
           rdf:resource="http://creativecommons.org/licenses/by-sa/4.0/" />
      </cc:Work>
      <cc:License
         rdf:about="http://creativecommons.org/licenses/by-sa/4.0/">
        <cc:permits
           rdf:resource="http://creativecommons.org/ns#Reproduction" />
        <cc:permits
           rdf:resource="http://creativecommons.org/ns#Distribution" />
        <cc:requires
           rdf:resource="http://creativecommons.org/ns#Notice" />
        <cc:requires
           rdf:resource="http://creativecommons.org/ns#Attribution" />
        <cc:permits
           rdf:resource="http://creativecommons.org/ns#DerivativeWorks" />
        <cc:requires
           rdf:resource="http://creativecommons.org/ns#ShareAlike" />
      </cc:License>
    </rdf:RDF>
  </metadata>
  <g
     inkscape:label="Layer 1"
     inkscape:groupmode="layer"
     id="layer1"
     transform="translate(0,-147)">
    <ellipse
       style="fill:none;stroke:#000000;stroke-width:1;stroke-linecap:round;stroke-miterlimit:4;stroke-dasharray:none;stroke-dashoffset:0.62853253;stroke-opacity:1;paint-order:stroke fill markers"
       id="path2737"
       cx="23.90699"
       cy="162.34599"
       rx="5.7641373"
       ry="5.5751486"
       inkscape:tile-cx="-79.658486"
       inkscape:tile-cy="41.804322"
       inkscape:tile-w="12.528275"
       inkscape:tile-h="12.150297"
       inkscape:tile-x0="-85.922623"
       inkscape:tile-y0="35.729173" />
    <use
       x="0"
       y="0"
       inkscape:tiled-clone-of="#path2737"
       xlink:href="#path2737"
       transform="matrix(0.99936808,0,0,0.99936808,0.01510926,0.1025901)"
       id="use2739"
       style="opacity:0.99936805;fill:#000000;stroke:#000000"
       width="100%"
       height="100%" />
    <use
       x="0"
       y="0"
       inkscape:tiled-clone-of="#path2737"
       xlink:href="#path2737"
       transform="matrix(0.99918687,0,0,0.99918687,18.81185,10.981812)"
       id="use2741"
       style="opacity:0.99918686;fill:#000000;stroke:#000000"
       width="100%"
       height="100%" />
    <use
       x="0"
       y="0"
       inkscape:tiled-clone-of="#path2737"
       xlink:href="#path2737"
       transform="matrix(0.99873603,0,0,0.99873603,0.03021816,21.904809)"
       id="use2743"
       style="opacity:0.99873603;fill:#000000;stroke:#000000"
       width="100%"
       height="100%" />
    <use
       x="0"
       y="0"
       inkscape:tiled-clone-of="#path2737"
       xlink:href="#path2737"
       transform="matrix(0.9980304,0,0,0.9980304,18.839498,32.86917)"
       id="use2745"
       style="opacity:0.99803042;fill:#000000;stroke:#000000"
       width="100%"
       height="100%" />
    <use
       x="0"
       y="0"
       inkscape:tiled-clone-of="#path2737"
       xlink:href="#path2737"
       transform="matrix(0.99984351,0,0,0.99984351,0.00373956,43.424622)"
       id="use2747"
       style="opacity:0.99984352;fill:#000000;stroke:#000000"
       width="100%"
       height="100%" />
    <use
       x="0"
       y="0"
       inkscape:tiled-clone-of="#path2737"
       xlink:href="#path2737"
       transform="matrix(0.99862242,0,0,0.99862242,18.825346,54.472665)"
       id="use2749"
       style="opacity:0.9986224;fill:#000000;stroke:#000000"
       width="100%"
       height="100%" />
    <use
       x="0"
       y="0"
       inkscape:tiled-clone-of="#path2737"
       xlink:href="#path2737"
       transform="matrix(0.99868376,0,0,0.99868376,0.03146792,65.31251)"
       id="use2751"
       style="opacity:0.99868373;fill:#000000;stroke:#000000"
       width="100%"
       height="100%" />
    <use
       x="0"
       y="0"
       inkscape:tiled-clone-of="#path2737"
       xlink:href="#path2737"
       transform="matrix(0.9980402,0,0,0.9980402,18.839265,76.266795)"
       id="use2753"
       style="opacity:0.99804017;fill:#000000;stroke:#000000"
       width="100%"
       height="100%" />
    <use
       x="0"
       y="0"
       inkscape:tiled-clone-of="#path2737"
       xlink:href="#path2737"
       transform="matrix(0.99814594,0,0,0.99814594,0.0443212,87.099436)"
       id="use2755"
       style="opacity:0.99814609;fill:#000000;stroke:#000000"
       width="100%"
       height="100%" />
    <use
       x="0"
       y="0"
       inkscape:tiled-clone-of="#path2737"
       xlink:href="#path2737"
       transform="matrix(0.99819634,0,0,0.99819634,18.835532,97.941058)"
       id="use2757"
       style="opacity:0.99819635;fill:#000000;stroke:#000000"
       width="100%"
       height="100%" />
    <use
       x="0"
       y="0"
       inkscape:tiled-clone-of="#path2737"
       xlink:href="#path2737"
       transform="matrix(0.99957513,0,0,0.99957513,0.010161,108.56702)"
       id="use2759"
       style="opacity:0.99957515;fill:#000000;stroke:#000000"
       width="100%"
       height="100%" />
    <use
       x="0"
       y="0"
       inkscape:tiled-clone-of="#path2737"
       xlink:href="#path2737"
       transform="matrix(-0.49910555,0.86447618,0.86447618,0.49910555,-100.37016,58.263849)"
       id="use2761"
       style="opacity:0.99821107;fill:#000000;stroke:#000000"
       width="100%"
       height="100%" />
    <use
       x="0"
       y="0"
       inkscape:tiled-clone-of="#path2737"
       xlink:href="#path2737"
       transform="matrix(-0.49899789,0.86428971,0.86428971,0.49899789,-81.550057,69.135593)"
       id="use2763"
       style="opacity:0.99799577;fill:#000000;stroke:#000000"
       width="100%"
       height="100%" />
    <use
       x="0"
       y="0"
       inkscape:tiled-clone-of="#path2737"
       xlink:href="#path2737"
       transform="matrix(-0.49894696,0.86420148,0.86420148,0.49894696,-100.32936,79.995777)"
       id="use2765"
       style="opacity:0.99789393;fill:#000000;stroke:#000000"
       width="100%"
       height="100%" />
    <use
       x="0"
       y="0"
       inkscape:tiled-clone-of="#path2737"
       xlink:href="#path2737"
       transform="matrix(-0.49912032,0.86450176,0.86450176,0.49912032,-81.581552,90.810252)"
       id="use2767"
       style="opacity:0.99824063;fill:#000000;stroke:#000000"
       width="100%"
       height="100%" />
    <use
       x="0"
       y="0"
       inkscape:tiled-clone-of="#path2737"
       xlink:href="#path2737"
       transform="matrix(-0.49970981,0.86552278,0.86552278,0.49970981,-100.52562,101.53995)"
       id="use2769"
       style="opacity:0.99941963;fill:#000000;stroke:#000000"
       width="100%"
       height="100%" />
    <use
       x="0"
       y="0"
       inkscape:tiled-clone-of="#path2737"
       xlink:href="#path2737"
       transform="matrix(-0.4998799,0.86581738,0.86581738,0.4998799,-81.77698,112.3551)"
       id="use2771"
       style="opacity:0.99975981;fill:#000000;stroke:#000000"
       width="100%"
       height="100%" />
    <use
       x="0"
       y="0"
       inkscape:tiled-clone-of="#path2737"
       xlink:href="#path2737"
       transform="matrix(-0.49914303,0.8645411,0.8645411,0.49914303,-100.3798,123.35504)"
       id="use2773"
       style="opacity:0.99828605;fill:#000000;stroke:#000000"
       width="100%"
       height="100%" />
    <use
       x="0"
       y="0"
       inkscape:tiled-clone-of="#path2737"
       xlink:href="#path2737"
       transform="matrix(-0.49965997,0.86543645,0.86543645,0.49965997,-81.720391,134.09952)"
       id="use2775"
       style="opacity:0.99931994;fill:#000000;stroke:#000000"
       width="100%"
       height="100%" />
    <use
       x="0"
       y="0"
       inkscape:tiled-clone-of="#path2737"
       xlink:href="#path2737"
       transform="matrix(-0.49944599,0.86506584,0.86506584,0.49944599,-100.45775,144.99292)"
       id="use2777"
       style="opacity:0.99889203;fill:#000000;stroke:#000000"
       width="100%"
       height="100%" />
    <use
       x="0"
       y="0"
       inkscape:tiled-clone-of="#path2737"
       xlink:href="#path2737"
       transform="matrix(-0.49930865,0.86482795,0.86482795,0.49930865,-81.630014,155.87071)"
       id="use2779"
       style="opacity:0.99861731;fill:#000000;stroke:#000000"
       width="100%"
       height="100%" />
    <use
       x="0"
       y="0"
       inkscape:tiled-clone-of="#path2737"
       xlink:href="#path2737"
       transform="matrix(-0.49914541,0.86454521,0.86454521,0.49914541,-100.38041,166.75378)"
       id="use2781"
       style="opacity:0.99829084;fill:#000000;stroke:#000000"
       width="100%"
       height="100%" />
    <use
       x="0"
       y="0"
       inkscape:tiled-clone-of="#path2737"
       xlink:href="#path2737"
       transform="matrix(-0.49937097,0.86493589,-0.86493589,-0.49937097,190.92177,226.42667)"
       id="use2783"
       style="opacity:0.9987419;fill:#000000;stroke:#000000"
       width="100%"
       height="100%" />
    <use
       x="0"
       y="0"
       inkscape:tiled-clone-of="#path2737"
       xlink:href="#path2737"
       transform="matrix(-0.49909024,0.86444965,-0.86444965,-0.49909024,209.62852,237.24252)"
       id="use2785"
       style="opacity:0.99818043;fill:#000000;stroke:#000000"
       width="100%"
       height="100%" />
    <use
       x="0"
       y="0"
       inkscape:tiled-clone-of="#path2737"
       xlink:href="#path2737"
       transform="matrix(-0.49909141,0.86445168,-0.86445168,-0.49909141,190.83647,248.09247)"
       id="use2787"
       style="opacity:0.99818283;fill:#000000;stroke:#000000"
       width="100%"
       height="100%" />
    <use
       x="0"
       y="0"
       inkscape:tiled-clone-of="#path2737"
       xlink:href="#path2737"
       transform="matrix(-0.49901729,0.8643233,-0.8643233,-0.49901729,209.60626,258.93331)"
       id="use2789"
       style="opacity:0.99803461;fill:#000000;stroke:#000000"
       width="100%"
       height="100%" />
    <use
       x="0"
       y="0"
       inkscape:tiled-clone-of="#path2737"
       xlink:href="#path2737"
       transform="matrix(-0.49931142,0.86483275,-0.86483275,-0.49931142,190.9036,269.81869)"
       id="use2791"
       style="opacity:0.99862282;fill:#000000;stroke:#000000"
       width="100%"
       height="100%" />
    <use
       x="0"
       y="0"
       inkscape:tiled-clone-of="#path2737"
       xlink:href="#path2737"
       transform="matrix(-0.499719,0.8655387,-0.8655387,-0.499719,209.82036,280.71778)"
       id="use2793"
       style="opacity:0.999438;fill:#000000;stroke:#000000"
       width="100%"
       height="100%" />
    <use
       x="0"
       y="0"
       inkscape:tiled-clone-of="#path2737"
       xlink:href="#path2737"
       transform="matrix(-0.49992512,0.86589571,-0.86589571,-0.49992512,191.09083,291.59251)"
       id="use2795"
       style="opacity:0.99985022;fill:#000000;stroke:#000000"
       width="100%"
       height="100%" />
    <use
       x="0"
       y="0"
       inkscape:tiled-clone-of="#path2737"
       xlink:href="#path2737"
       transform="matrix(-0.49953981,0.86522833,-0.86522833,-0.49953981,209.76569,302.39572)"
       id="use2797"
       style="opacity:0.99907963;fill:#000000;stroke:#000000"
       width="100%"
       height="100%" />
    <use
       x="0"
       y="0"
       inkscape:tiled-clone-of="#path2737"
       xlink:href="#path2737"
       transform="matrix(-0.49902791,0.8643417,-0.8643417,-0.49902791,190.8171,313.18361)"
       id="use2799"
       style="opacity:0.99805579;fill:#000000;stroke:#000000"
       width="100%"
       height="100%" />
    <use
       x="0"
       y="0"
       inkscape:tiled-clone-of="#path2737"
       xlink:href="#path2737"
       transform="matrix(-0.49953475,0.86521957,-0.86521957,-0.49953475,209.76414,324.09472)"
       id="use2801"
       style="opacity:0.99906951;fill:#000000;stroke:#000000"
       width="100%"
       height="100%" />
    <use
       x="0"
       y="0"
       inkscape:tiled-clone-of="#path2737"
       xlink:href="#path2737"
       transform="matrix(-0.49894389,0.86419617,-0.86419617,-0.49894389,190.79146,334.87307)"
       id="use2803"
       style="opacity:0.99788765;fill:#000000;stroke:#000000"
       width="100%"
       height="100%" />
    <use
       x="0"
       y="0"
       inkscape:tiled-clone-of="#path2737"
       xlink:href="#path2737"
       transform="matrix(-0.49990369,-0.8658586,-0.8658586,0.49990369,191.08429,110.35118)"
       id="use2805"
       style="opacity:0.99980744;fill:#000000;stroke:#000000"
       width="100%"
       height="100%" />
    <use
       x="0"
       y="0"
       inkscape:tiled-clone-of="#path2737"
       xlink:href="#path2737"
       transform="matrix(-0.4991688,-0.86458572,-0.86458572,0.4991688,209.65249,121.28986)"
       id="use2807"
       style="opacity:0.99833757;fill:#000000;stroke:#000000"
       width="100%"
       height="100%" />
    <use
       x="0"
       y="0"
       inkscape:tiled-clone-of="#path2737"
       xlink:href="#path2737"
       transform="matrix(-0.49976225,-0.86561361,-0.86561361,0.49976225,191.04115,132.06789)"
       id="use2809"
       style="opacity:0.99952452;fill:#000000;stroke:#000000"
       width="100%"
       height="100%" />
    <use
       x="0"
       y="0"
       inkscape:tiled-clone-of="#path2737"
       xlink:href="#path2737"
       transform="matrix(-0.49898668,-0.86427028,-0.86427028,0.49898668,209.59693,143.0115)"
       id="use2811"
       style="opacity:0.99797339;fill:#000000;stroke:#000000"
       width="100%"
       height="100%" />
    <use
       x="0"
       y="0"
       inkscape:tiled-clone-of="#path2737"
       xlink:href="#path2737"
       transform="matrix(-0.49993512,-0.86591303,-0.86591303,0.49993512,191.09388,153.7466)"
       id="use2813"
       style="opacity:0.99987027;fill:#000000;stroke:#000000"
       width="100%"
       height="100%" />
    <use
       x="0"
       y="0"
       inkscape:tiled-clone-of="#path2737"
       xlink:href="#path2737"
       transform="matrix(-0.49947259,-0.86511191,-0.86511191,0.49947259,209.74518,164.65234)"
       id="use2815"
       style="opacity:0.99894517;fill:#000000;stroke:#000000"
       width="100%"
       height="100%" />
    <use
       x="0"
       y="0"
       inkscape:tiled-clone-of="#path2737"
       xlink:href="#path2737"
       transform="matrix(-0.49981292,-0.86570138,-0.86570138,0.49981292,191.05661,175.46099)"
       id="use2817"
       style="opacity:0.99962589;fill:#000000;stroke:#000000"
       width="100%"
       height="100%" />
    <use
       x="0"
       y="0"
       inkscape:tiled-clone-of="#path2737"
       xlink:href="#path2737"
       transform="matrix(-0.49964434,-0.86540937,-0.86540937,0.49964434,209.79758,186.33118)"
       id="use2819"
       style="opacity:0.9992887;fill:#000000;stroke:#000000"
       width="100%"
       height="100%" />
    <use
       x="0"
       y="0"
       inkscape:tiled-clone-of="#path2737"
       xlink:href="#path2737"
       transform="matrix(-0.49914747,-0.86454878,-0.86454878,0.49914747,190.85357,197.24106)"
       id="use2821"
       style="opacity:0.99829496;fill:#000000;stroke:#000000"
       width="100%"
       height="100%" />
    <use
       x="0"
       y="0"
       inkscape:tiled-clone-of="#path2737"
       xlink:href="#path2737"
       transform="matrix(-0.49937365,-0.86494054,-0.86494054,0.49937365,209.71499,208.06352)"
       id="use2823"
       style="opacity:0.99874728;fill:#000000;stroke:#000000"
       width="100%"
       height="100%" />
    <use
       x="0"
       y="0"
       inkscape:tiled-clone-of="#path2737"
       xlink:href="#path2737"
       transform="matrix(-0.49985623,-0.86577638,-0.86577638,0.49985623,191.06981,218.85496)"
       id="use2825"
       style="opacity:0.99971248;fill:#000000;stroke:#000000"
       width="100%"
       height="100%" />
    <use
       x="0"
       y="0"
       inkscape:tiled-clone-of="#path2737"
       xlink:href="#path2737"
       transform="matrix(-0.49958984,-0.86531499,0.86531499,-0.49958984,-100.49476,278.67711)"
       id="use2827"
       style="opacity:0.99917968;fill:#000000;stroke:#000000"
       width="100%"
       height="100%" />
    <use
       x="0"
       y="0"
       inkscape:tiled-clone-of="#path2737"
       xlink:href="#path2737"
       transform="matrix(-0.49926584,-0.86475381,0.86475381,-0.49926584,-81.618996,289.46088)"
       id="use2829"
       style="opacity:0.99853169;fill:#000000;stroke:#000000"
       width="100%"
       height="100%" />
    <use
       x="0"
       y="0"
       inkscape:tiled-clone-of="#path2737"
       xlink:href="#path2737"
       transform="matrix(-0.499471,-0.86510915,0.86510915,-0.499471,-100.46418,300.35249)"
       id="use2831"
       style="opacity:0.998942;fill:#000000;stroke:#000000"
       width="100%"
       height="100%" />
    <use
       x="0"
       y="0"
       inkscape:tiled-clone-of="#path2737"
       xlink:href="#path2737"
       transform="matrix(-0.49929141,-0.86479809,0.86479809,-0.49929141,-81.625574,311.16571)"
       id="use2833"
       style="opacity:0.99858285;fill:#000000;stroke:#000000"
       width="100%"
       height="100%" />
    <use
       x="0"
       y="0"
       inkscape:tiled-clone-of="#path2737"
       xlink:href="#path2737"
       transform="matrix(-0.49981356,-0.86570249,0.86570249,-0.49981356,-100.55233,322.12189)"
       id="use2835"
       style="opacity:0.99962709;fill:#000000;stroke:#000000"
       width="100%"
       height="100%" />
    <use
       x="0"
       y="0"
       inkscape:tiled-clone-of="#path2737"
       xlink:href="#path2737"
       transform="matrix(-0.49978058,-0.86564536,0.86564536,-0.49978058,-81.751422,332.96498)"
       id="use2837"
       style="opacity:0.99956115;fill:#000000;stroke:#000000"
       width="100%"
       height="100%" />
    <use
       x="0"
       y="0"
       inkscape:tiled-clone-of="#path2737"
       xlink:href="#path2737"
       transform="matrix(-0.49962983,-0.86538425,0.86538425,-0.49962983,-100.50505,343.78407)"
       id="use2839"
       style="opacity:0.99925968;fill:#000000;stroke:#000000"
       width="100%"
       height="100%" />
    <use
       x="0"
       y="0"
       inkscape:tiled-clone-of="#path2737"
       xlink:href="#path2737"
       transform="matrix(-0.49974878,-0.86559027,0.86559027,-0.49974878,-81.743244,354.65811)"
       id="use2841"
       style="opacity:0.99949754;fill:#000000;stroke:#000000"
       width="100%"
       height="100%" />
    <use
       x="0"
       y="0"
       inkscape:tiled-clone-of="#path2737"
       xlink:href="#path2737"
       transform="matrix(-0.49986682,-0.86579473,0.86579473,-0.49986682,-100.56602,365.53197)"
       id="use2843"
       style="opacity:0.9997336;fill:#000000;stroke:#000000"
       width="100%"
       height="100%" />
    <use
       x="0"
       y="0"
       inkscape:tiled-clone-of="#path2737"
       xlink:href="#path2737"
       transform="matrix(-0.4998964,-0.86584597,0.86584597,-0.4998964,-81.781224,376.38781)"
       id="use2845"
       style="opacity:0.99979284;fill:#000000;stroke:#000000"
       width="100%"
       height="100%" />
    <use
       x="0"
       y="0"
       inkscape:tiled-clone-of="#path2737"
       xlink:href="#path2737"
       transform="matrix(-0.49893727,-0.86418471,0.86418471,-0.49893727,-100.32687,387.04218)"
       id="use2847"
       style="opacity:0.99787454;fill:#000000;stroke:#000000"
       width="100%"
       height="100%" />
    <use
       x="0"
       y="0"
       inkscape:tiled-clone-of="#path2737"
       xlink:href="#path2737"
       transform="matrix(0.99972125,0,0,-0.99972125,0.00666577,336.79702)"
       id="use2849"
       style="opacity:0.99972121;fill:#000000;stroke:#000000"
       width="100%"
       height="100%" />
    <use
       x="0"
       y="0"
       inkscape:tiled-clone-of="#path2737"
       xlink:href="#path2737"
       transform="matrix(0.99907037,0,0,-0.99907037,18.814636,347.54116)"
       id="use2851"
       style="opacity:0.99907035;fill:#000000;stroke:#000000"
       width="100%"
       height="100%" />
    <use
       x="0"
       y="0"
       inkscape:tiled-clone-of="#path2737"
       xlink:href="#path2737"
       transform="matrix(0.99853607,0,0,-0.99853607,0.03499374,358.30422)"
       id="use2853"
       style="opacity:0.99853605;fill:#000000;stroke:#000000"
       width="100%"
       height="100%" />
    <use
       x="0"
       y="0"
       inkscape:tiled-clone-of="#path2737"
       xlink:href="#path2737"
       transform="matrix(0.99930284,0,0,-0.99930284,18.809078,369.27851)"
       id="use2855"
       style="opacity:0.99930288;fill:#000000;stroke:#000000"
       width="100%"
       height="100%" />
    <use
       x="0"
       y="0"
       inkscape:tiled-clone-of="#path2737"
       xlink:href="#path2737"
       transform="matrix(0.99938365,0,0,-0.99938365,0.01473337,380.14143)"
       id="use2857"
       style="opacity:0.9993836;fill:#000000;stroke:#000000"
       width="100%"
       height="100%" />
    <use
       x="0"
       y="0"
       inkscape:tiled-clone-of="#path2737"
       xlink:href="#path2737"
       transform="matrix(0.99999169,0,0,-0.99999169,18.79261,391.08995)"
       id="use2859"
       style="opacity:0.99999174;fill:#000000;stroke:#000000"
       width="100%"
       height="100%" />
    <use
       x="0"
       y="0"
       inkscape:tiled-clone-of="#path2737"
       xlink:href="#path2737"
       transform="matrix(0.99945111,0,0,-0.99945111,0.01311788,401.85199)"
       id="use2861"
       style="opacity:0.9994511;fill:#000000;stroke:#000000"
       width="100%"
       height="100%" />
    <use
       x="0"
       y="0"
       inkscape:tiled-clone-of="#path2737"
       xlink:href="#path2737"
       transform="matrix(0.99849991,0,0,-0.99849991,18.828274,412.54738)"
       id="use2863"
       style="opacity:0.99849991;fill:#000000;stroke:#000000"
       width="100%"
       height="100%" />
    <use
       x="0"
       y="0"
       inkscape:tiled-clone-of="#path2737"
       xlink:href="#path2737"
       transform="matrix(0.99784951,0,0,-0.99784951,0.05141324,423.29158)"
       id="use2865"
       style="opacity:0.99784953;fill:#000000;stroke:#000000"
       width="100%"
       height="100%" />
    <use
       x="0"
       y="0"
       inkscape:tiled-clone-of="#path2737"
       xlink:href="#path2737"
       transform="matrix(0.9981406,0,0,-0.9981406,18.836864,434.18864)"
       id="use2867"
       style="opacity:0.99814058;fill:#000000;stroke:#000000"
       width="100%"
       height="100%" />
    <use
       x="0"
       y="0"
       inkscape:tiled-clone-of="#path2737"
       xlink:href="#path2737"
       transform="matrix(0.99889958,0,0,-0.99889958,0.02630634,445.16167)"
       id="use2869"
       style="opacity:0.99889957;fill:#000000;stroke:#000000"
       width="100%"
       height="100%" />
    <use
       x="0"
       y="0"
       inkscape:tiled-clone-of="#path2737"
       xlink:href="#path2737"
       transform="matrix(0.99868411,0,0,0.99868411,37.616282,0.21363)"
       id="use2871"
       style="opacity:0.99868409;fill:#000000;stroke:#000000"
       width="100%"
       height="100%" />
    <use
       x="0"
       y="0"
       inkscape:tiled-clone-of="#path2737"
       xlink:href="#path2737"
       transform="matrix(0.9987174,0,0,0.9987174,56.407899,11.058029)"
       id="use2873"
       style="opacity:0.99871742;fill:#000000;stroke:#000000"
       width="100%"
       height="100%" />
    <use
       x="0"
       y="0"
       inkscape:tiled-clone-of="#path2737"
       xlink:href="#path2737"
       transform="matrix(0.99914961,0,0,0.99914961,37.605153,21.837665)"
       id="use2875"
       style="opacity:0.99914964;fill:#000000;stroke:#000000"
       width="100%"
       height="100%" />
    <use
       x="0"
       y="0"
       inkscape:tiled-clone-of="#path2737"
       xlink:href="#path2737"
       transform="matrix(0.99926113,0,0,0.99926113,56.394899,32.669365)"
       id="use2877"
       style="opacity:0.99926112;fill:#000000;stroke:#000000"
       width="100%"
       height="100%" />
    <use
       x="0"
       y="0"
       inkscape:tiled-clone-of="#path2737"
       xlink:href="#path2737"
       transform="matrix(0.99781675,0,0,0.99781675,37.637019,43.753657)"
       id="use2879"
       style="opacity:0.99781674;fill:#000000;stroke:#000000"
       width="100%"
       height="100%" />
    <use
       x="0"
       y="0"
       inkscape:tiled-clone-of="#path2737"
       xlink:href="#path2737"
       transform="matrix(0.99817509,0,0,0.99817509,56.420864,54.545286)"
       id="use2881"
       style="opacity:0.99817511;fill:#000000;stroke:#000000"
       width="100%"
       height="100%" />
    <use
       x="0"
       y="0"
       inkscape:tiled-clone-of="#path2737"
       xlink:href="#path2737"
       transform="matrix(0.99804435,0,0,0.99804435,37.631577,65.416316)"
       id="use2883"
       style="opacity:0.99804436;fill:#000000;stroke:#000000"
       width="100%"
       height="100%" />
    <use
       x="0"
       y="0"
       inkscape:tiled-clone-of="#path2737"
       xlink:href="#path2737"
       transform="matrix(0.99929729,0,0,0.99929729,56.394034,76.062708)"
       id="use2885"
       style="opacity:0.99929726;fill:#000000;stroke:#000000"
       width="100%"
       height="100%" />
    <use
       x="0"
       y="0"
       inkscape:tiled-clone-of="#path2737"
       xlink:href="#path2737"
       transform="matrix(0.99891181,0,0,0.99891181,37.610838,86.975093)"
       id="use2887"
       style="opacity:0.99891178;fill:#000000;stroke:#000000"
       width="100%"
       height="100%" />
    <use
       x="0"
       y="0"
       inkscape:tiled-clone-of="#path2737"
       xlink:href="#path2737"
       transform="matrix(0.99922959,0,0,0.99922959,56.395653,97.773311)"
       id="use2889"
       style="opacity:0.9992294;fill:#000000;stroke:#000000"
       width="100%"
       height="100%" />
    <use
       x="0"
       y="0"
       inkscape:tiled-clone-of="#path2737"
       xlink:href="#path2737"
       transform="matrix(0.99880736,0,0,0.99880736,37.613336,108.69167)"
       id="use2891"
       style="opacity:0.99880736;fill:#000000;stroke:#000000"
       width="100%"
       height="100%" />
    <use
       x="0"
       y="0"
       inkscape:tiled-clone-of="#path2737"
       xlink:href="#path2737"
       transform="matrix(-0.49934746,0.86489516,0.86489516,0.49934746,-62.84758,58.214568)"
       id="use2893"
       style="opacity:0.99869492;fill:#000000;stroke:#000000"
       width="100%"
       height="100%" />
    <use
       x="0"
       y="0"
       inkscape:tiled-clone-of="#path2737"
       xlink:href="#path2737"
       transform="matrix(-0.49958292,0.865303,0.865303,0.49958292,-44.115745,69.01639)"
       id="use2895"
       style="opacity:0.99916585;fill:#000000;stroke:#000000"
       width="100%"
       height="100%" />
    <use
       x="0"
       y="0"
       inkscape:tiled-clone-of="#path2737"
       xlink:href="#path2737"
       transform="matrix(-0.4995767,0.86529222,0.86529222,0.4995767,-62.906554,79.867461)"
       id="use2897"
       style="opacity:0.99915335;fill:#000000;stroke:#000000"
       width="100%"
       height="100%" />
    <use
       x="0"
       y="0"
       inkscape:tiled-clone-of="#path2737"
       xlink:href="#path2737"
       transform="matrix(-0.49984838,0.86576279,0.86576279,0.49984838,-44.184044,90.661908)"
       id="use2899"
       style="opacity:0.99969674;fill:#000000;stroke:#000000"
       width="100%"
       height="100%" />
    <use
       x="0"
       y="0"
       inkscape:tiled-clone-of="#path2737"
       xlink:href="#path2737"
       transform="matrix(-0.49978894,0.86565984,0.86565984,0.49978894,-62.96117,101.52383)"
       id="use2901"
       style="opacity:0.9995779;fill:#000000;stroke:#000000"
       width="100%"
       height="100%" />
    <use
       x="0"
       y="0"
       inkscape:tiled-clone-of="#path2737"
       xlink:href="#path2737"
       transform="matrix(-0.4997619,0.865613,0.865613,0.4997619,-44.1618,112.37914)"
       id="use2903"
       style="opacity:0.99952381;fill:#000000;stroke:#000000"
       width="100%"
       height="100%" />
    <use
       x="0"
       y="0"
       inkscape:tiled-clone-of="#path2737"
       xlink:href="#path2737"
       transform="matrix(-0.49987173,0.86580323,0.86580323,0.49987173,-62.982473,123.20657)"
       id="use2905"
       style="opacity:0.99974347;fill:#000000;stroke:#000000"
       width="100%"
       height="100%" />
    <use
       x="0"
       y="0"
       inkscape:tiled-clone-of="#path2737"
       xlink:href="#path2737"
       transform="matrix(-0.49919788,0.86463609,0.86463609,0.49919788,-44.016683,134.19367)"
       id="use2907"
       style="opacity:0.99839573;fill:#000000;stroke:#000000"
       width="100%"
       height="100%" />
    <use
       x="0"
       y="0"
       inkscape:tiled-clone-of="#path2737"
       xlink:href="#path2737"
       transform="matrix(-0.49954591,0.8652389,0.8652389,0.49954591,-62.898634,144.97257)"
       id="use2909"
       style="opacity:0.99909183;fill:#000000;stroke:#000000"
       width="100%"
       height="100%" />
    <use
       x="0"
       y="0"
       inkscape:tiled-clone-of="#path2737"
       xlink:href="#path2737"
       transform="matrix(-0.49966688,0.86544842,0.86544842,0.49966688,-44.137347,155.79772)"
       id="use2911"
       style="opacity:0.99933376;fill:#000000;stroke:#000000"
       width="100%"
       height="100%" />
    <use
       x="0"
       y="0"
       inkscape:tiled-clone-of="#path2737"
       xlink:href="#path2737"
       transform="matrix(-0.49916519,0.86457946,0.86457946,0.49916519,-62.800677,166.74975)"
       id="use2913"
       style="opacity:0.99833033;fill:#000000;stroke:#000000"
       width="100%"
       height="100%" />
    <use
       x="0"
       y="0"
       inkscape:tiled-clone-of="#path2737"
       xlink:href="#path2737"
       transform="matrix(-0.4993553,0.86490875,-0.86490875,-0.4993553,228.50181,226.42477)"
       id="use2915"
       style="opacity:0.9987106;fill:#000000;stroke:#000000"
       width="100%"
       height="100%" />
    <use
       x="0"
       y="0"
       inkscape:tiled-clone-of="#path2737"
       xlink:href="#path2737"
       transform="matrix(-0.4991341,0.86452562,-0.86452562,-0.4991341,247.22672,237.24783)"
       id="use2917"
       style="opacity:0.99826816;fill:#000000;stroke:#000000"
       width="100%"
       height="100%" />
    <use
       x="0"
       y="0"
       inkscape:tiled-clone-of="#path2737"
       xlink:href="#path2737"
       transform="matrix(-0.49961375,0.8653564,-0.8653564,-0.49961375,228.58066,248.15564)"
       id="use2919"
       style="opacity:0.99922755;fill:#000000;stroke:#000000"
       width="100%"
       height="100%" />
    <use
       x="0"
       y="0"
       inkscape:tiled-clone-of="#path2737"
       xlink:href="#path2737"
       transform="matrix(-0.49932569,0.86485747,-0.86485747,-0.49932569,247.28519,258.97061)"
       id="use2921"
       style="opacity:0.99865136;fill:#000000;stroke:#000000"
       width="100%"
       height="100%" />
    <use
       x="0"
       y="0"
       inkscape:tiled-clone-of="#path2737"
       xlink:href="#path2737"
       transform="matrix(-0.49905941,0.86439626,-0.86439626,-0.49905941,228.41153,269.78821)"
       id="use2923"
       style="opacity:0.9981188;fill:#000000;stroke:#000000"
       width="100%"
       height="100%" />
    <use
       x="0"
       y="0"
       inkscape:tiled-clone-of="#path2737"
       xlink:href="#path2737"
       transform="matrix(-0.49967504,0.86546255,-0.86546255,-0.49967504,247.39177,280.71247)"
       id="use2925"
       style="opacity:0.9993501;fill:#000000;stroke:#000000"
       width="100%"
       height="100%" />
    <use
       x="0"
       y="0"
       inkscape:tiled-clone-of="#path2737"
       xlink:href="#path2737"
       transform="matrix(-0.4990044,0.86430098,-0.86430098,-0.4990044,228.39475,291.48116)"
       id="use2927"
       style="opacity:0.99800876;fill:#000000;stroke:#000000"
       width="100%"
       height="100%" />
    <use
       x="0"
       y="0"
       inkscape:tiled-clone-of="#path2737"
       xlink:href="#path2737"
       transform="matrix(-0.49947495,0.86511599,-0.86511599,-0.49947495,247.33072,302.38787)"
       id="use2929"
       style="opacity:0.9989499;fill:#000000;stroke:#000000"
       width="100%"
       height="100%" />
    <use
       x="0"
       y="0"
       inkscape:tiled-clone-of="#path2737"
       xlink:href="#path2737"
       transform="matrix(-0.49896781,0.8642376,-0.8642376,-0.49896781,228.38358,313.17634)"
       id="use2931"
       style="opacity:0.99793558;fill:#000000;stroke:#000000"
       width="100%"
       height="100%" />
    <use
       x="0"
       y="0"
       inkscape:tiled-clone-of="#path2737"
       xlink:href="#path2737"
       transform="matrix(-0.49947628,0.86511829,-0.86511829,-0.49947628,247.33113,324.08764)"
       id="use2933"
       style="opacity:0.99895259;fill:#000000;stroke:#000000"
       width="100%"
       height="100%" />
    <use
       x="0"
       y="0"
       inkscape:tiled-clone-of="#path2737"
       xlink:href="#path2737"
       transform="matrix(-0.49896255,0.86422849,-0.86422849,-0.49896255,228.38198,334.87532)"
       id="use2935"
       style="opacity:0.9979251;fill:#000000;stroke:#000000"
       width="100%"
       height="100%" />
    <use
       x="0"
       y="0"
       inkscape:tiled-clone-of="#path2737"
       xlink:href="#path2737"
       transform="matrix(-0.49991899,-0.86588509,-0.86588509,0.49991899,228.67379,110.34934)"
       id="use2937"
       style="opacity:0.99983802;fill:#000000;stroke:#000000"
       width="100%"
       height="100%" />
    <use
       x="0"
       y="0"
       inkscape:tiled-clone-of="#path2737"
       xlink:href="#path2737"
       transform="matrix(-0.49953501,-0.86522002,-0.86522002,0.49953501,247.34905,121.24557)"
       id="use2939"
       style="opacity:0.99907005;fill:#000000;stroke:#000000"
       width="100%"
       height="100%" />
    <use
       x="0"
       y="0"
       inkscape:tiled-clone-of="#path2737"
       xlink:href="#path2737"
       transform="matrix(-0.49922267,-0.86467902,-0.86467902,0.49922267,228.46134,132.13315)"
       id="use2941"
       style="opacity:0.99844534;fill:#000000;stroke:#000000"
       width="100%"
       height="100%" />
    <use
       x="0"
       y="0"
       inkscape:tiled-clone-of="#path2737"
       xlink:href="#path2737"
       transform="matrix(-0.49918147,-0.86460767,-0.86460767,0.49918147,247.24118,142.98794)"
       id="use2943"
       style="opacity:0.99836294;fill:#000000;stroke:#000000"
       width="100%"
       height="100%" />
    <use
       x="0"
       y="0"
       inkscape:tiled-clone-of="#path2737"
       xlink:href="#path2737"
       transform="matrix(-0.49938331,-0.86495726,-0.86495726,0.49938331,228.51035,153.81334)"
       id="use2945"
       style="opacity:0.99876661;fill:#000000;stroke:#000000"
       width="100%"
       height="100%" />
    <use
       x="0"
       y="0"
       inkscape:tiled-clone-of="#path2737"
       xlink:href="#path2737"
       transform="matrix(-0.49939123,-0.86497098,-0.86497098,0.49939123,247.30518,164.66217)"
       id="use2947"
       style="opacity:0.99878247;fill:#000000;stroke:#000000"
       width="100%"
       height="100%" />
    <use
       x="0"
       y="0"
       inkscape:tiled-clone-of="#path2737"
       xlink:href="#path2737"
       transform="matrix(-0.49994702,-0.86593365,-0.86593365,0.49994702,228.68234,175.44477)"
       id="use2949"
       style="opacity:0.99989403;fill:#000000;stroke:#000000"
       width="100%"
       height="100%" />
    <use
       x="0"
       y="0"
       inkscape:tiled-clone-of="#path2737"
       xlink:href="#path2737"
       transform="matrix(-0.49973777,-0.86557121,-0.86557121,0.49973777,247.41091,186.31987)"
       id="use2951"
       style="opacity:0.99947552;fill:#000000;stroke:#000000"
       width="100%"
       height="100%" />
    <use
       x="0"
       y="0"
       inkscape:tiled-clone-of="#path2737"
       xlink:href="#path2737"
       transform="matrix(-0.49998531,-0.86599996,-0.86599996,0.49998531,228.69402,197.13974)"
       id="use2953"
       style="opacity:0.99997062;fill:#000000;stroke:#000000"
       width="100%"
       height="100%" />
    <use
       x="0"
       y="0"
       inkscape:tiled-clone-of="#path2737"
       xlink:href="#path2737"
       transform="matrix(-0.49985027,-0.86576607,-0.86576607,0.49985027,247.44524,208.00588)"
       id="use2955"
       style="opacity:0.99970057;fill:#000000;stroke:#000000"
       width="100%"
       height="100%" />
    <use
       x="0"
       y="0"
       inkscape:tiled-clone-of="#path2737"
       xlink:href="#path2737"
       transform="matrix(-0.4994428,-0.86506031,-0.86506031,0.4994428,228.52851,218.90496)"
       id="use2957"
       style="opacity:0.99888557;fill:#000000;stroke:#000000"
       width="100%"
       height="100%" />
    <use
       x="0"
       y="0"
       inkscape:tiled-clone-of="#path2737"
       xlink:href="#path2737"
       transform="matrix(-0.49890632,-0.8641311,0.8641311,-0.49890632,-62.734082,278.53783)"
       id="use2959"
       style="opacity:0.99781261;fill:#000000;stroke:#000000"
       width="100%"
       height="100%" />
    <use
       x="0"
       y="0"
       inkscape:tiled-clone-of="#path2737"
       xlink:href="#path2737"
       transform="matrix(-0.49951954,-0.86519322,0.86519322,-0.49951954,-44.099439,289.51259)"
       id="use2961"
       style="opacity:0.99903906;fill:#000000;stroke:#000000"
       width="100%"
       height="100%" />
    <use
       x="0"
       y="0"
       inkscape:tiled-clone-of="#path2737"
       xlink:href="#path2737"
       transform="matrix(-0.49978496,-0.86565295,0.86565295,-0.49978496,-62.960138,300.41646)"
       id="use2963"
       style="opacity:0.99956994;fill:#000000;stroke:#000000"
       width="100%"
       height="100%" />
    <use
       x="0"
       y="0"
       inkscape:tiled-clone-of="#path2737"
       xlink:href="#path2737"
       transform="matrix(-0.4999556,-0.8659485,0.8659485,-0.4999556,-44.211626,311.30103)"
       id="use2965"
       style="opacity:0.9999112;fill:#000000;stroke:#000000"
       width="100%"
       height="100%" />
    <use
       x="0"
       y="0"
       inkscape:tiled-clone-of="#path2737"
       xlink:href="#path2737"
       transform="matrix(-0.4990727,-0.86441927,0.86441927,-0.4990727,-62.776885,321.97094)"
       id="use2967"
       style="opacity:0.99814543;fill:#000000;stroke:#000000"
       width="100%"
       height="100%" />
    <use
       x="0"
       y="0"
       inkscape:tiled-clone-of="#path2737"
       xlink:href="#path2737"
       transform="matrix(-0.49989617,-0.86584556,0.86584556,-0.49989617,-44.196342,332.98853)"
       id="use2969"
       style="opacity:0.99979236;fill:#000000;stroke:#000000"
       width="100%"
       height="100%" />
    <use
       x="0"
       y="0"
       inkscape:tiled-clone-of="#path2737"
       xlink:href="#path2737"
       transform="matrix(-0.49892222,-0.86415863,0.86415863,-0.49892222,-62.738171,343.63989)"
       id="use2971"
       style="opacity:0.99784444;fill:#000000;stroke:#000000"
       width="100%"
       height="100%" />
    <use
       x="0"
       y="0"
       inkscape:tiled-clone-of="#path2737"
       xlink:href="#path2737"
       transform="matrix(-0.49943225,-0.86504204,0.86504204,-0.49943225,-44.076979,354.59362)"
       id="use2973"
       style="opacity:0.99886451;fill:#000000;stroke:#000000"
       width="100%"
       height="100%" />
    <use
       x="0"
       y="0"
       inkscape:tiled-clone-of="#path2737"
       xlink:href="#path2737"
       transform="matrix(-0.49981844,-0.86571094,0.86571094,-0.49981844,-62.96876,365.52211)"
       id="use2975"
       style="opacity:0.9996369;fill:#000000;stroke:#000000"
       width="100%"
       height="100%" />
    <use
       x="0"
       y="0"
       inkscape:tiled-clone-of="#path2737"
       xlink:href="#path2737"
       transform="matrix(-0.49988825,-0.86583185,0.86583185,-0.49988825,-44.194298,376.38614)"
       id="use2977"
       style="opacity:0.9997765;fill:#000000;stroke:#000000"
       width="100%"
       height="100%" />
    <use
       x="0"
       y="0"
       inkscape:tiled-clone-of="#path2737"
       xlink:href="#path2737"
       transform="matrix(-0.49908755,-0.86444499,0.86444499,-0.49908755,-62.780706,387.07279)"
       id="use2979"
       style="opacity:0.99817511;fill:#000000;stroke:#000000"
       width="100%"
       height="100%" />
  </g>
</svg>
