<?xml version="1.0" encoding="UTF-8" standalone="no"?>
<svg
   xmlns:dc="http://purl.org/dc/elements/1.1/"
   xmlns:cc="http://creativecommons.org/ns#"
   xmlns:rdf="http://www.w3.org/1999/02/22-rdf-syntax-ns#"
   xmlns:svg="http://www.w3.org/2000/svg"
   xmlns="http://www.w3.org/2000/svg"
   id="svg307"
   version="1.1"
   height="100.20833mm"
   width="100.20833mm"
   style="font-style:normal;font-weight:normal;font-size:12px;font-family:Dialog;color-interpolation:auto;fill:#000000;fill-opacity:1;stroke:#000000;stroke-width:1;stroke-linecap:square;stroke-linejoin:miter;stroke-miterlimit:10;stroke-dasharray:none;stroke-dashoffset:0;stroke-opacity:1;color-rendering:auto;image-rendering:auto;shape-rendering:auto;text-rendering:auto">
  <metadata
     id="metadata311">
    <rdf:RDF>
      <cc:Work
         rdf:about="">
        <dc:format>image/svg+xml</dc:format>
        <dc:type
           rdf:resource="http://purl.org/dc/dcmitype/StillImage" />
        <dc:title></dc:title>
      </cc:Work>
    </rdf:RDF>
  </metadata>
  <!--Generated by the Batik Graphics2D SVG Generator-->
  <defs
     id="genericDefs" />
  <g
     transform="translate(0,-321.25982)"
     id="g305">
    <g
       transform="matrix(0.55084746,0,0,0.55084746,-2.9660992,320.33899)"
       id="g5"
       style="fill:#ffffff;stroke:#ffffff">
      <rect
         id="rect3"
         style="stroke:none"
         y="0"
         height="700"
         width="700"
         x="0" />
    </g>
    <g
       id="g15"
       transform="matrix(0.55084746,0,0,0.55084746,189.83051,513.1356)">
      <circle
         id="circle7"
         cy="0"
         cx="0"
         style="fill:none"
         r="250" />
      <circle
         id="circle9"
         cy="0"
         cx="0"
         r="125"
         style="fill:none;stroke:#ff0000"
         transform="translate(0,-125)" />
      <circle
         id="circle11"
         cy="0"
         cx="0"
         r="62.5"
         style="fill:none;stroke:#ff0000"
         transform="translate(0,-187.5)" />
      <circle
         id="circle13"
         cy="0"
         cx="0"
         r="31.25"
         style="fill:none;stroke:#ff0000"
         transform="translate(0,-218.75)" />
    </g>
    <g
       id="g19"
       transform="matrix(0.55084746,0,0,0.55084746,189.83051,427.06569)"
       style="fill:#0000ff;stroke:#0000ff">
      <circle
         id="circle17"
         cy="0"
         cx="0"
         style="fill:none"
         r="31.25" />
    </g>
    <g
       id="g23"
       transform="matrix(0.55084746,0,0,0.55084746,207.04449,409.8517)"
       style="fill:#00ff00;stroke:#00ff00">
      <circle
         id="circle21"
         cy="0"
         cx="0"
         style="fill:none"
         r="31.25" />
    </g>
    <g
       id="g27"
       transform="matrix(0.55084746,0,0,0.55084746,172.61653,409.8517)">
      <circle
         id="circle25"
         cy="0"
         cx="0"
         style="fill:none"
         r="31.25" />
    </g>
    <g
       id="g33"
       transform="matrix(0.55084746,0,0,0.55084746,189.83051,478.70764)"
       style="fill:#0000ff;stroke:#0000ff">
      <circle
         id="circle29"
         cy="0"
         cx="0"
         style="fill:none"
         r="62.5" />
      <circle
         id="circle31"
         cy="0"
         cx="0"
         r="31.25"
         style="fill:none;stroke:#ff0000"
         transform="translate(0,-31.25)" />
    </g>
    <g
       id="g37"
       transform="matrix(0.55084746,0,0,0.55084746,189.83051,495.92162)"
       style="fill:#0000ff;stroke:#0000ff">
      <circle
         id="circle35"
         cy="0"
         cx="0"
         style="fill:none"
         r="31.25" />
    </g>
    <g
       id="g41"
       transform="matrix(0.55084746,0,0,0.55084746,207.04449,478.70764)"
       style="fill:#00ff00;stroke:#00ff00">
      <circle
         id="circle39"
         cy="0"
         cx="0"
         style="fill:none"
         r="31.25" />
    </g>
    <g
       id="g45"
       transform="matrix(0.55084746,0,0,0.55084746,172.61653,478.70764)">
      <circle
         id="circle43"
         cy="0"
         cx="0"
         style="fill:none"
         r="31.25" />
    </g>
    <g
       id="g51"
       transform="matrix(0.55084746,0,0,0.55084746,224.25845,444.27967)"
       style="fill:#00ff00;stroke:#00ff00">
      <circle
         id="circle47"
         cy="0"
         cx="0"
         style="fill:none"
         r="62.5" />
      <circle
         id="circle49"
         cy="0"
         cx="0"
         r="31.25"
         style="fill:none;stroke:#ff0000"
         transform="translate(0,-31.25)" />
    </g>
    <g
       id="g55"
       transform="matrix(0.55084746,0,0,0.55084746,224.25845,461.49365)"
       style="fill:#0000ff;stroke:#0000ff">
      <circle
         id="circle53"
         cy="0"
         cx="0"
         style="fill:none"
         r="31.25" />
    </g>
    <g
       id="g59"
       transform="matrix(0.55084746,0,0,0.55084746,241.47243,444.27967)"
       style="fill:#00ff00;stroke:#00ff00">
      <circle
         id="circle57"
         cy="0"
         cx="0"
         style="fill:none"
         r="31.25" />
    </g>
    <g
       id="g63"
       transform="matrix(0.55084746,0,0,0.55084746,207.04449,444.27967)">
      <circle
         id="circle61"
         cy="0"
         cx="0"
         style="fill:none"
         r="31.25" />
    </g>
    <g
       id="g69"
       transform="matrix(0.55084746,0,0,0.55084746,155.40254,444.27967)">
      <circle
         id="circle65"
         cy="0"
         cx="0"
         style="fill:none"
         r="62.5" />
      <circle
         id="circle67"
         cy="0"
         cx="0"
         r="31.25"
         style="fill:none;stroke:#ff0000"
         transform="translate(0,-31.25)" />
    </g>
    <g
       id="g73"
       transform="matrix(0.55084746,0,0,0.55084746,155.40254,461.49365)"
       style="fill:#0000ff;stroke:#0000ff">
      <circle
         id="circle71"
         cy="0"
         cx="0"
         style="fill:none"
         r="31.25" />
    </g>
    <g
       id="g77"
       transform="matrix(0.55084746,0,0,0.55084746,172.61653,444.27967)"
       style="fill:#00ff00;stroke:#00ff00">
      <circle
         id="circle75"
         cy="0"
         cx="0"
         style="fill:none"
         r="31.25" />
    </g>
    <g
       id="g81"
       transform="matrix(0.55084746,0,0,0.55084746,138.18856,444.27967)">
      <circle
         id="circle79"
         cy="0"
         cx="0"
         style="fill:none"
         r="31.25" />
    </g>
    <g
       id="g89"
       transform="matrix(0.55084746,0,0,0.55084746,189.83051,581.99153)"
       style="fill:#0000ff;stroke:#0000ff">
      <circle
         id="circle83"
         cy="0"
         cx="0"
         style="fill:none"
         r="125" />
      <circle
         id="circle85"
         cy="0"
         cx="0"
         r="62.5"
         style="fill:none;stroke:#ff0000"
         transform="translate(0,-62.5)" />
      <circle
         id="circle87"
         cy="0"
         cx="0"
         r="31.25"
         style="fill:none;stroke:#ff0000"
         transform="translate(0,-93.75)" />
    </g>
    <g
       id="g93"
       transform="matrix(0.55084746,0,0,0.55084746,189.83051,564.77755)"
       style="fill:#0000ff;stroke:#0000ff">
      <circle
         id="circle91"
         cy="0"
         cx="0"
         style="fill:none"
         r="31.25" />
    </g>
    <g
       id="g97"
       transform="matrix(0.55084746,0,0,0.55084746,207.04449,547.56357)"
       style="fill:#00ff00;stroke:#00ff00">
      <circle
         id="circle95"
         cy="0"
         cx="0"
         style="fill:none"
         r="31.25" />
    </g>
    <g
       id="g101"
       transform="matrix(0.55084746,0,0,0.55084746,172.61653,547.56357)">
      <circle
         id="circle99"
         cy="0"
         cx="0"
         style="fill:none"
         r="31.25" />
    </g>
    <g
       id="g107"
       transform="matrix(0.55084746,0,0,0.55084746,189.83051,616.4195)"
       style="fill:#0000ff;stroke:#0000ff">
      <circle
         id="circle103"
         cy="0"
         cx="0"
         style="fill:none"
         r="62.5" />
      <circle
         id="circle105"
         cy="0"
         cx="0"
         r="31.25"
         style="fill:none;stroke:#ff0000"
         transform="translate(0,-31.25)" />
    </g>
    <g
       id="g111"
       transform="matrix(0.55084746,0,0,0.55084746,189.83051,633.63348)"
       style="fill:#0000ff;stroke:#0000ff">
      <circle
         id="circle109"
         cy="0"
         cx="0"
         style="fill:none"
         r="31.25" />
    </g>
    <g
       id="g115"
       transform="matrix(0.55084746,0,0,0.55084746,207.04449,616.4195)"
       style="fill:#00ff00;stroke:#00ff00">
      <circle
         id="circle113"
         cy="0"
         cx="0"
         style="fill:none"
         r="31.25" />
    </g>
    <g
       id="g119"
       transform="matrix(0.55084746,0,0,0.55084746,172.61653,616.4195)">
      <circle
         id="circle117"
         cy="0"
         cx="0"
         style="fill:none"
         r="31.25" />
    </g>
    <g
       id="g125"
       transform="matrix(0.55084746,0,0,0.55084746,224.25845,581.99153)"
       style="fill:#00ff00;stroke:#00ff00">
      <circle
         id="circle121"
         cy="0"
         cx="0"
         style="fill:none"
         r="62.5" />
      <circle
         id="circle123"
         cy="0"
         cx="0"
         r="31.25"
         style="fill:none;stroke:#ff0000"
         transform="translate(0,-31.25)" />
    </g>
    <g
       id="g129"
       transform="matrix(0.55084746,0,0,0.55084746,224.25845,599.20552)"
       style="fill:#0000ff;stroke:#0000ff">
      <circle
         id="circle127"
         cy="0"
         cx="0"
         style="fill:none"
         r="31.25" />
    </g>
    <g
       id="g133"
       transform="matrix(0.55084746,0,0,0.55084746,241.47243,581.99153)"
       style="fill:#00ff00;stroke:#00ff00">
      <circle
         id="circle131"
         cy="0"
         cx="0"
         style="fill:none"
         r="31.25" />
    </g>
    <g
       id="g137"
       transform="matrix(0.55084746,0,0,0.55084746,207.04449,581.99153)">
      <circle
         id="circle135"
         cy="0"
         cx="0"
         style="fill:none"
         r="31.25" />
    </g>
    <g
       id="g143"
       transform="matrix(0.55084746,0,0,0.55084746,155.40254,581.99153)">
      <circle
         id="circle139"
         cy="0"
         cx="0"
         style="fill:none"
         r="62.5" />
      <circle
         id="circle141"
         cy="0"
         cx="0"
         r="31.25"
         style="fill:none;stroke:#ff0000"
         transform="translate(0,-31.25)" />
    </g>
    <g
       id="g147"
       transform="matrix(0.55084746,0,0,0.55084746,155.40254,599.20552)"
       style="fill:#0000ff;stroke:#0000ff">
      <circle
         id="circle145"
         cy="0"
         cx="0"
         style="fill:none"
         r="31.25" />
    </g>
    <g
       id="g151"
       transform="matrix(0.55084746,0,0,0.55084746,172.61653,581.99153)"
       style="fill:#00ff00;stroke:#00ff00">
      <circle
         id="circle149"
         cy="0"
         cx="0"
         style="fill:none"
         r="31.25" />
    </g>
    <g
       id="g155"
       transform="matrix(0.55084746,0,0,0.55084746,138.18856,581.99153)">
      <circle
         id="circle153"
         cy="0"
         cx="0"
         style="fill:none"
         r="31.25" />
    </g>
    <g
       id="g163"
       transform="matrix(0.55084746,0,0,0.55084746,258.68642,513.1356)"
       style="fill:#00ff00;stroke:#00ff00">
      <circle
         id="circle157"
         cy="0"
         cx="0"
         style="fill:none"
         r="125" />
      <circle
         id="circle159"
         cy="0"
         cx="0"
         r="62.5"
         style="fill:none;stroke:#ff0000"
         transform="translate(0,-62.5)" />
      <circle
         id="circle161"
         cy="0"
         cx="0"
         r="31.25"
         style="fill:none;stroke:#ff0000"
         transform="translate(0,-93.75)" />
    </g>
    <g
       id="g167"
       transform="matrix(0.55084746,0,0,0.55084746,258.68642,495.92162)"
       style="fill:#0000ff;stroke:#0000ff">
      <circle
         id="circle165"
         cy="0"
         cx="0"
         style="fill:none"
         r="31.25" />
    </g>
    <g
       id="g171"
       transform="matrix(0.55084746,0,0,0.55084746,275.9004,478.70764)"
       style="fill:#00ff00;stroke:#00ff00">
      <circle
         id="circle169"
         cy="0"
         cx="0"
         style="fill:none"
         r="31.25" />
    </g>
    <g
       id="g175"
       transform="matrix(0.55084746,0,0,0.55084746,241.47243,478.70764)">
      <circle
         id="circle173"
         cy="0"
         cx="0"
         style="fill:none"
         r="31.25" />
    </g>
    <g
       id="g181"
       transform="matrix(0.55084746,0,0,0.55084746,258.68642,547.56357)"
       style="fill:#0000ff;stroke:#0000ff">
      <circle
         id="circle177"
         cy="0"
         cx="0"
         style="fill:none"
         r="62.5" />
      <circle
         id="circle179"
         cy="0"
         cx="0"
         r="31.25"
         style="fill:none;stroke:#ff0000"
         transform="translate(0,-31.25)" />
    </g>
    <g
       id="g185"
       transform="matrix(0.55084746,0,0,0.55084746,258.68642,564.77755)"
       style="fill:#0000ff;stroke:#0000ff">
      <circle
         id="circle183"
         cy="0"
         cx="0"
         style="fill:none"
         r="31.25" />
    </g>
    <g
       id="g189"
       transform="matrix(0.55084746,0,0,0.55084746,275.9004,547.56357)"
       style="fill:#00ff00;stroke:#00ff00">
      <circle
         id="circle187"
         cy="0"
         cx="0"
         style="fill:none"
         r="31.25" />
    </g>
    <g
       id="g193"
       transform="matrix(0.55084746,0,0,0.55084746,241.47243,547.56357)">
      <circle
         id="circle191"
         cy="0"
         cx="0"
         style="fill:none"
         r="31.25" />
    </g>
    <g
       id="g199"
       transform="matrix(0.55084746,0,0,0.55084746,293.11438,513.1356)"
       style="fill:#00ff00;stroke:#00ff00">
      <circle
         id="circle195"
         cy="0"
         cx="0"
         style="fill:none"
         r="62.5" />
      <circle
         id="circle197"
         cy="0"
         cx="0"
         r="31.25"
         style="fill:none;stroke:#ff0000"
         transform="translate(0,-31.25)" />
    </g>
    <g
       id="g203"
       transform="matrix(0.55084746,0,0,0.55084746,293.11438,530.34959)"
       style="fill:#0000ff;stroke:#0000ff">
      <circle
         id="circle201"
         cy="0"
         cx="0"
         style="fill:none"
         r="31.25" />
    </g>
    <g
       id="g207"
       transform="matrix(0.55084746,0,0,0.55084746,310.32836,513.1356)"
       style="fill:#00ff00;stroke:#00ff00">
      <circle
         id="circle205"
         cy="0"
         cx="0"
         style="fill:none"
         r="31.25" />
    </g>
    <g
       id="g211"
       transform="matrix(0.55084746,0,0,0.55084746,275.9004,513.1356)">
      <circle
         id="circle209"
         cy="0"
         cx="0"
         style="fill:none"
         r="31.25" />
    </g>
    <g
       id="g217"
       transform="matrix(0.55084746,0,0,0.55084746,224.25845,513.1356)">
      <circle
         id="circle213"
         cy="0"
         cx="0"
         style="fill:none"
         r="62.5" />
      <circle
         id="circle215"
         cy="0"
         cx="0"
         r="31.25"
         style="fill:none;stroke:#ff0000"
         transform="translate(0,-31.25)" />
    </g>
    <g
       id="g221"
       transform="matrix(0.55084746,0,0,0.55084746,224.25845,530.34959)"
       style="fill:#0000ff;stroke:#0000ff">
      <circle
         id="circle219"
         cy="0"
         cx="0"
         style="fill:none"
         r="31.25" />
    </g>
    <g
       id="g225"
       transform="matrix(0.55084746,0,0,0.55084746,241.47243,513.1356)"
       style="fill:#00ff00;stroke:#00ff00">
      <circle
         id="circle223"
         cy="0"
         cx="0"
         style="fill:none"
         r="31.25" />
    </g>
    <g
       id="g229"
       transform="matrix(0.55084746,0,0,0.55084746,207.04449,513.1356)">
      <circle
         id="circle227"
         cy="0"
         cx="0"
         style="fill:none"
         r="31.25" />
    </g>
    <g
       id="g237"
       transform="matrix(0.55084746,0,0,0.55084746,120.97458,513.1356)">
      <circle
         id="circle231"
         cy="0"
         cx="0"
         style="fill:none"
         r="125" />
      <circle
         id="circle233"
         cy="0"
         cx="0"
         r="62.5"
         style="fill:none;stroke:#ff0000"
         transform="translate(0,-62.5)" />
      <circle
         id="circle235"
         cy="0"
         cx="0"
         r="31.25"
         style="fill:none;stroke:#ff0000"
         transform="translate(0,-93.75)" />
    </g>
    <g
       id="g241"
       transform="matrix(0.55084746,0,0,0.55084746,120.97458,495.92162)"
       style="fill:#0000ff;stroke:#0000ff">
      <circle
         id="circle239"
         cy="0"
         cx="0"
         style="fill:none"
         r="31.25" />
    </g>
    <g
       id="g245"
       transform="matrix(0.55084746,0,0,0.55084746,138.18856,478.70764)"
       style="fill:#00ff00;stroke:#00ff00">
      <circle
         id="circle243"
         cy="0"
         cx="0"
         style="fill:none"
         r="31.25" />
    </g>
    <g
       id="g249"
       transform="matrix(0.55084746,0,0,0.55084746,103.7606,478.70764)">
      <circle
         id="circle247"
         cy="0"
         cx="0"
         style="fill:none"
         r="31.25" />
    </g>
    <g
       id="g255"
       transform="matrix(0.55084746,0,0,0.55084746,120.97458,547.56357)"
       style="fill:#0000ff;stroke:#0000ff">
      <circle
         id="circle251"
         cy="0"
         cx="0"
         style="fill:none"
         r="62.5" />
      <circle
         id="circle253"
         cy="0"
         cx="0"
         r="31.25"
         style="fill:none;stroke:#ff0000"
         transform="translate(0,-31.25)" />
    </g>
    <g
       id="g259"
       transform="matrix(0.55084746,0,0,0.55084746,120.97458,564.77755)"
       style="fill:#0000ff;stroke:#0000ff">
      <circle
         id="circle257"
         cy="0"
         cx="0"
         style="fill:none"
         r="31.25" />
    </g>
    <g
       id="g263"
       transform="matrix(0.55084746,0,0,0.55084746,138.18856,547.56357)"
       style="fill:#00ff00;stroke:#00ff00">
      <circle
         id="circle261"
         cy="0"
         cx="0"
         style="fill:none"
         r="31.25" />
    </g>
    <g
       id="g267"
       transform="matrix(0.55084746,0,0,0.55084746,103.7606,547.56357)">
      <circle
         id="circle265"
         cy="0"
         cx="0"
         style="fill:none"
         r="31.25" />
    </g>
    <g
       id="g273"
       transform="matrix(0.55084746,0,0,0.55084746,155.40254,513.1356)"
       style="fill:#00ff00;stroke:#00ff00">
      <circle
         id="circle269"
         cy="0"
         cx="0"
         style="fill:none"
         r="62.5" />
      <circle
         id="circle271"
         cy="0"
         cx="0"
         r="31.25"
         style="fill:none;stroke:#ff0000"
         transform="translate(0,-31.25)" />
    </g>
    <g
       id="g277"
       transform="matrix(0.55084746,0,0,0.55084746,155.40254,530.34959)"
       style="fill:#0000ff;stroke:#0000ff">
      <circle
         id="circle275"
         cy="0"
         cx="0"
         style="fill:none"
         r="31.25" />
    </g>
    <g
       id="g281"
       transform="matrix(0.55084746,0,0,0.55084746,172.61653,513.1356)"
       style="fill:#00ff00;stroke:#00ff00">
      <circle
         id="circle279"
         cy="0"
         cx="0"
         style="fill:none"
         r="31.25" />
    </g>
    <g
       id="g285"
       transform="matrix(0.55084746,0,0,0.55084746,138.18856,513.1356)">
      <circle
         id="circle283"
         cy="0"
         cx="0"
         style="fill:none"
         r="31.25" />
    </g>
    <g
       id="g291"
       transform="matrix(0.55084746,0,0,0.55084746,86.546612,513.1356)">
      <circle
         id="circle287"
         cy="0"
         cx="0"
         style="fill:none"
         r="62.5" />
      <circle
         id="circle289"
         cy="0"
         cx="0"
         r="31.25"
         style="fill:none;stroke:#ff0000"
         transform="translate(0,-31.25)" />
    </g>
    <g
       id="g295"
       transform="matrix(0.55084746,0,0,0.55084746,86.546612,530.34959)"
       style="fill:#0000ff;stroke:#0000ff">
      <circle
         id="circle293"
         cy="0"
         cx="0"
         style="fill:none"
         r="31.25" />
    </g>
    <g
       id="g299"
       transform="matrix(0.55084746,0,0,0.55084746,103.7606,513.1356)"
       style="fill:#00ff00;stroke:#00ff00">
      <circle
         id="circle297"
         cy="0"
         cx="0"
         style="fill:none"
         r="31.25" />
    </g>
    <g
       id="g303"
       transform="matrix(0.55084746,0,0,0.55084746,69.332629,513.1356)">
      <circle
         id="circle301"
         cy="0"
         cx="0"
         style="fill:none"
         r="31.25" />
    </g>
  </g>
</svg>
