<?xml version="1.0" encoding="UTF-8" standalone="no"?>
<!-- Created with Inkscape (http://www.inkscape.org/) -->

<svg
   xmlns:dc="http://purl.org/dc/elements/1.1/"
   xmlns:cc="http://creativecommons.org/ns#"
   xmlns:rdf="http://www.w3.org/1999/02/22-rdf-syntax-ns#"
   xmlns:svg="http://www.w3.org/2000/svg"
   xmlns="http://www.w3.org/2000/svg"
   xmlns:sodipodi="http://sodipodi.sourceforge.net/DTD/sodipodi-0.dtd"
   xmlns:inkscape="http://www.inkscape.org/namespaces/inkscape"
   width="150mm"
   height="150mm"
   viewBox="0 0 150 150"
   version="1.1"
   id="svg8"
   inkscape:version="0.92.5 (2060ec1f9f, 2020-04-08)"
   sodipodi:docname="outline_text.svg">
  <sodipodi:namedview
     id="base"
     pagecolor="#ffffff"
     bordercolor="#666666"
     borderopacity="1.0"
     inkscape:pageopacity="0.0"
     inkscape:pageshadow="2"
     inkscape:zoom="0.98994949"
     inkscape:cx="-7.6906699"
     inkscape:cy="196.01945"
     inkscape:document-units="mm"
     inkscape:current-layer="layer1"
     showgrid="false"
     inkscape:window-width="1920"
     inkscape:window-height="1016"
     inkscape:window-x="0"
     inkscape:window-y="0"
     inkscape:window-maximized="1" />
  <defs
     id="defs2">
    <inkscape:path-effect
       effect="knot"
       id="path-effect1540"
       is_visible="true"
       interruption_width="3"
       prop_to_stroke_width="true"
       add_stroke_width="true"
       add_other_stroke_width="true"
       switcher_size="15"
       crossing_points_vector="" />
    <inkscape:path-effect
       effect="knot"
       id="path-effect1538"
       is_visible="true"
       interruption_width="0.7"
       prop_to_stroke_width="true"
       add_stroke_width="true"
       add_other_stroke_width="true"
       switcher_size="15"
       crossing_points_vector="" />
    <inkscape:path-effect
       effect="skeletal"
       id="path-effect1498"
       is_visible="true"
       pattern="m 75.784233,204.39583 c 34.362847,6.11175 17.521313,38.54613 -7.205267,40.51105 -27.553826,2.18958 -47.818347,-24.21572 -46.621186,-50.08459 1.537503,-33.22316 32.96366,-56.86588 65.131433,-53.98782 37.758277,3.37824 64.327327,39.32428 60.213467,76.28158 -4.6339,41.62913 -44.4888,70.75062 -85.457323,65.65002 C 29.725289,278.7671 2.8020163,254.98192 -6.1217975,224.01916"
       copytype="repeated"
       prop_scale="0.05"
       scale_y_rel="false"
       spacing="0"
       normal_offset="0"
       tang_offset="0"
       prop_units="false"
       vertical_pattern="false"
       fuse_tolerance="0" />
    <inkscape:path-effect
       effect="skeletal"
       id="path-effect1471"
       is_visible="true"
       pattern="m 75.784233,204.39583 c 34.362847,6.11175 17.521313,38.54613 -7.205267,40.51105 -27.553826,2.18958 -47.818347,-24.21572 -46.621186,-50.08459 1.537503,-33.22316 32.96366,-56.86588 65.131433,-53.98782 37.758277,3.37824 64.327327,39.32428 60.213467,76.28158 -4.6339,41.62913 -44.4888,70.75062 -85.457323,65.65002 C 29.725289,278.7671 2.8020163,254.98192 -6.1217975,224.01916"
       copytype="repeated"
       prop_scale="1"
       scale_y_rel="false"
       spacing="0"
       normal_offset="0"
       tang_offset="0"
       prop_units="false"
       vertical_pattern="false"
       fuse_tolerance="0" />
    <inkscape:path-effect
       effect="skeletal"
       id="path-effect1385"
       is_visible="true"
       pattern="m 115.22503,243.18801 c 0,0 -0.64935,12.54925 -3.7233,17.93587 -1.73498,3.04028 -2.39893,-2.36359 -3.29198,-8.81885 -0.89816,-6.49222 -2.04791,-14.02764 -4.17534,-15.43525 -2.50427,-1.65694 -3.65269,6.91847 -4.93749,16.00803 -1.284919,9.09042 -2.715749,18.66141 -4.579318,18.99998 -1.993408,0.36216 -2.419539,-9.99556 -2.917354,-20.57519 -0.498794,-10.60046 -1.071392,-21.33145 -1.807726,-21.81995 -0.93209,-0.61837 -1.163507,10.11757 -1.884631,21.11715 -0.720445,10.98922 -1.932667,22.16778 -3.116316,22.38287 -1.295648,0.23545 -1.316433,-11.98694 -2.014608,-24.47067 -0.698981,-12.49814 -2.079273,-25.17296 -3.956967,-25.91444 -2.178952,-0.86045 -2.836452,10.99518 -3.940905,23.1881 -1.104197,12.1901 -2.660564,24.65345 -4.533242,24.99435 -1.964181,0.35756 -2.354904,-12.75803 -3.420587,-25.85844 -1.064102,-13.08098 -2.802097,-26.15367 -5.000418,-25.6131 -2.499869,0.61471 -3.364412,13.70779 -4.247726,25.253 -0.899723,11.75967 -1.716,21.43469 -2.133855,16.2856 -0.561087,-6.91411 -0.774744,-20.58551 -1.562296,-32.46063 -0.787429,-11.87328 -2.022325,-21.95583 -2.943206,-21.68298 -1.160778,0.34392 -1.127616,10.47659 -1.481684,20.43459 -0.354254,9.96324 -1.092991,19.79389 -2.418301,19.55993 -1.462197,-0.25812 -2.196517,-9.17959 -3.082377,-17.95003 -0.885761,-8.76946 -1.922515,-17.41767 -2.913428,-17.12441 -1.234355,0.36531 -1.41129,8.91924 -1.830525,17.30575 -0.419434,8.39048 -1.0791,16.64372 -2.303762,16.4275 -1.374693,-0.24272 -2.144713,-7.97483 -3.262616,-15.49048 -1.117934,-7.51586 -2.582153,-14.83579 -4.544465,-14.25519 -2.323062,0.68734 -3.05034,10.39535 -3.924087,20.74582 -0.88453,10.47822 -1.90283,21.25607 -3.60594,24.72178 -1.856086,3.77701 -2.402877,-3.77537 -2.96908,-11.8396 -0.565357,-8.05217 -1.178056,-16.76033 -2.065109,-15.23459 -1.122621,1.93091 -1.681079,8.00039 -2.104779,13.15203 -0.427192,5.19409 -0.714356,9.54765 -0.972218,8.25899 -0.407579,-2.03687 -0.589171,-7.18108 -0.834259,-11.32887 -0.250132,-4.23313 -0.570135,-7.71181 -1.073262,-6.84435 -1.475034,2.54317 -0.987978,6.549 -0.987978,6.549 0,0 0.507242,-4.30848 0.997048,-5.149 0.381477,-0.65462 0.626094,2.44937 0.870539,6.39239 0.23959,3.86473 0.485453,8.78813 0.999172,11.38083 0.680421,3.43403 1.256479,-1.14138 1.720491,-7.04288 0.455793,-5.79697 0.773328,-12.88985 1.403198,-13.96814 0.770736,-1.31944 1.2908,7.43398 1.832761,15.39915 0.542559,7.97395 1.14049,15.33512 3.143639,11.27504 2.257535,-4.57569 3.504389,-15.31613 4.398221,-25.45973 0.88231,-10.01282 1.401021,-19.06419 3.240054,-19.60787 1.840393,-0.54408 3.216301,6.66468 4.314123,14.06599 1.097794,7.40113 1.915988,15.01483 3.415517,15.27968 1.723035,0.30432 2.650042,-7.92154 3.08941,-16.27049 0.43917,-8.34518 0.388984,-16.84267 1.133258,-17.06276 0.868389,-0.2568 1.812374,8.2802 2.674798,16.93517 0.862523,8.65595 1.642987,17.45902 3.229998,17.73927 1.823357,0.32199 2.832737,-9.48114 3.210642,-19.40277 0.377714,-9.91665 0.121654,-19.99275 0.793849,-20.19175 0.793811,-0.23501 1.905628,9.22171 2.673833,20.72605 0.768226,11.50466 1.0691,25.0579 1.699438,33.01756 0.701444,8.85755 1.829483,0.16915 2.878019,-13.04021 0.993265,-12.51305 1.627787,-27.61346 3.601214,-28.09839 2.075755,-0.51008 3.710922,12.47397 4.744217,25.45316 1.03482,12.99835 1.467262,25.99914 3.559672,25.61838 2.377402,-0.43262 4.196275,-12.69633 5.32909,-24.71309 1.133128,-12.02008 1.583938,-23.72924 3.253149,-23.06936 1.747978,0.69101 3.030637,13.27809 3.702069,25.69411 0.670668,12.40189 0.733991,24.54952 2.157098,24.291 1.687853,-0.30661 3.156385,-11.2175 3.902248,-21.99915 0.745391,-10.77483 0.742245,-21.39994 1.192219,-21.10087 0.60721,0.40357 1.089418,11.04747 1.565828,21.57401 0.475498,10.50638 0.9471,20.8063 3.067897,20.42113 2.368022,-0.43006 4.052763,-9.73539 5.356987,-18.61933 1.304309,-8.88456 2.234849,-17.31176 4.230909,-15.98868 1.99838,1.32463 3.06561,8.8772 3.94759,15.34918 0.87655,6.43218 1.59265,11.78293 3.46972,8.50492 4.15537,-7.25673 3.76322,-18.93587 3.76322,-18.93587 z"
       copytype="repeated_stretched"
       prop_scale="1"
       scale_y_rel="false"
       spacing="0"
       normal_offset="0"
       tang_offset="0"
       prop_units="false"
       vertical_pattern="false"
       fuse_tolerance="0" />
    <inkscape:path-effect
       effect="rough_hatches"
       id="path-effect1381"
       is_visible="true"
       direction="64.822913,236.24851 , 27.308778,0"
       dist_rdm="73.2;1"
       growth="0"
       do_bend="true"
       bender="64.822913,241.24851 , 5,0"
       bottom_edge_variation="7.14375;1"
       top_edge_variation="7.14375;1"
       bottom_tgt_variation="0;1"
       top_tgt_variation="0;1"
       scale_bf="1"
       scale_bb="1"
       scale_tf="0.9"
       scale_tb="1"
       top_smth_variation="0;1"
       bottom_smth_variation="0;1"
       fat_output="true"
       stroke_width_top="1"
       stroke_width_bottom="1.4"
       front_thickness="1"
       back_thickness="0.25" />
    <inkscape:path-effect
       effect="skeletal"
       id="path-effect1385-3"
       is_visible="true"
       pattern="m 115.22503,243.18801 c 0,0 -0.64935,12.54925 -3.7233,17.93587 -1.73498,3.04028 -2.39893,-2.36359 -3.29198,-8.81885 -0.89816,-6.49222 -2.04791,-14.02764 -4.17534,-15.43525 -2.50427,-1.65694 -3.65269,6.91847 -4.93749,16.00803 -1.284919,9.09042 -2.715749,18.66141 -4.579318,18.99998 -1.993408,0.36216 -2.419539,-9.99556 -2.917354,-20.57519 -0.498794,-10.60046 -1.071392,-21.33145 -1.807726,-21.81995 -0.93209,-0.61837 -1.163507,10.11757 -1.884631,21.11715 -0.720445,10.98922 -1.932667,22.16778 -3.116316,22.38287 -1.295648,0.23545 -1.316433,-11.98694 -2.014608,-24.47067 -0.698981,-12.49814 -2.079273,-25.17296 -3.956967,-25.91444 -2.178952,-0.86045 -2.836452,10.99518 -3.940905,23.1881 -1.104197,12.1901 -2.660564,24.65345 -4.533242,24.99435 -1.964181,0.35756 -2.354904,-12.75803 -3.420587,-25.85844 -1.064102,-13.08098 -2.802097,-26.15367 -5.000418,-25.6131 -2.499869,0.61471 -3.364412,13.70779 -4.247726,25.253 -0.899723,11.75967 -1.716,21.43469 -2.133855,16.2856 -0.561087,-6.91411 -0.774744,-20.58551 -1.562296,-32.46063 -0.787429,-11.87328 -2.022325,-21.95583 -2.943206,-21.68298 -1.160778,0.34392 -1.127616,10.47659 -1.481684,20.43459 -0.354254,9.96324 -1.092991,19.79389 -2.418301,19.55993 -1.462197,-0.25812 -2.196517,-9.17959 -3.082377,-17.95003 -0.885761,-8.76946 -1.922515,-17.41767 -2.913428,-17.12441 -1.234355,0.36531 -1.41129,8.91924 -1.830525,17.30575 -0.419434,8.39048 -1.0791,16.64372 -2.303762,16.4275 -1.374693,-0.24272 -2.144713,-7.97483 -3.262616,-15.49048 -1.117934,-7.51586 -2.582153,-14.83579 -4.544465,-14.25519 -2.323062,0.68734 -3.05034,10.39535 -3.924087,20.74582 -0.88453,10.47822 -1.90283,21.25607 -3.60594,24.72178 -1.856086,3.77701 -2.402877,-3.77537 -2.96908,-11.8396 -0.565357,-8.05217 -1.178056,-16.76033 -2.065109,-15.23459 -1.122621,1.93091 -1.681079,8.00039 -2.104779,13.15203 -0.427192,5.19409 -0.714356,9.54765 -0.972218,8.25899 -0.407579,-2.03687 -0.589171,-7.18108 -0.834259,-11.32887 -0.250132,-4.23313 -0.570135,-7.71181 -1.073262,-6.84435 -1.475034,2.54317 -0.987978,6.549 -0.987978,6.549 0,0 0.507242,-4.30848 0.997048,-5.149 0.381477,-0.65462 0.626094,2.44937 0.870539,6.39239 0.23959,3.86473 0.485453,8.78813 0.999172,11.38083 0.680421,3.43403 1.256479,-1.14138 1.720491,-7.04288 0.455793,-5.79697 0.773328,-12.88985 1.403198,-13.96814 0.770736,-1.31944 1.2908,7.43398 1.832761,15.39915 0.542559,7.97395 1.14049,15.33512 3.143639,11.27504 2.257535,-4.57569 3.504389,-15.31613 4.398221,-25.45973 0.88231,-10.01282 1.401021,-19.06419 3.240054,-19.60787 1.840393,-0.54408 3.216301,6.66468 4.314123,14.06599 1.097794,7.40113 1.915988,15.01483 3.415517,15.27968 1.723035,0.30432 2.650042,-7.92154 3.08941,-16.27049 0.43917,-8.34518 0.388984,-16.84267 1.133258,-17.06276 0.868389,-0.2568 1.812374,8.2802 2.674798,16.93517 0.862523,8.65595 1.642987,17.45902 3.229998,17.73927 1.823357,0.32199 2.832737,-9.48114 3.210642,-19.40277 0.377714,-9.91665 0.121654,-19.99275 0.793849,-20.19175 0.793811,-0.23501 1.905628,9.22171 2.673833,20.72605 0.768226,11.50466 1.0691,25.0579 1.699438,33.01756 0.701444,8.85755 1.829483,0.16915 2.878019,-13.04021 0.993265,-12.51305 1.627787,-27.61346 3.601214,-28.09839 2.075755,-0.51008 3.710922,12.47397 4.744217,25.45316 1.03482,12.99835 1.467262,25.99914 3.559672,25.61838 2.377402,-0.43262 4.196275,-12.69633 5.32909,-24.71309 1.133128,-12.02008 1.583938,-23.72924 3.253149,-23.06936 1.747978,0.69101 3.030637,13.27809 3.702069,25.69411 0.670668,12.40189 0.733991,24.54952 2.157098,24.291 1.687853,-0.30661 3.156385,-11.2175 3.902248,-21.99915 0.745391,-10.77483 0.742245,-21.39994 1.192219,-21.10087 0.60721,0.40357 1.089418,11.04747 1.565828,21.57401 0.475498,10.50638 0.9471,20.8063 3.067897,20.42113 2.368022,-0.43006 4.052763,-9.73539 5.356987,-18.61933 1.304309,-8.88456 2.234849,-17.31176 4.230909,-15.98868 1.99838,1.32463 3.06561,8.8772 3.94759,15.34918 0.87655,6.43218 1.59265,11.78293 3.46972,8.50492 4.15537,-7.25673 3.76322,-18.93587 3.76322,-18.93587 z"
       copytype="repeated_stretched"
       prop_scale="1"
       scale_y_rel="false"
       spacing="0"
       normal_offset="0"
       tang_offset="0"
       prop_units="false"
       vertical_pattern="false"
       fuse_tolerance="0" />
    <inkscape:path-effect
       effect="skeletal"
       id="path-effect1385-7"
       is_visible="true"
       pattern="m 115.22503,243.18801 c 0,0 -0.64935,12.54925 -3.7233,17.93587 -1.73498,3.04028 -2.39893,-2.36359 -3.29198,-8.81885 -0.89816,-6.49222 -2.04791,-14.02764 -4.17534,-15.43525 -2.50427,-1.65694 -3.65269,6.91847 -4.93749,16.00803 -1.284919,9.09042 -2.715749,18.66141 -4.579318,18.99998 -1.993408,0.36216 -2.419539,-9.99556 -2.917354,-20.57519 -0.498794,-10.60046 -1.071392,-21.33145 -1.807726,-21.81995 -0.93209,-0.61837 -1.163507,10.11757 -1.884631,21.11715 -0.720445,10.98922 -1.932667,22.16778 -3.116316,22.38287 -1.295648,0.23545 -1.316433,-11.98694 -2.014608,-24.47067 -0.698981,-12.49814 -2.079273,-25.17296 -3.956967,-25.91444 -2.178952,-0.86045 -2.836452,10.99518 -3.940905,23.1881 -1.104197,12.1901 -2.660564,24.65345 -4.533242,24.99435 -1.964181,0.35756 -2.354904,-12.75803 -3.420587,-25.85844 -1.064102,-13.08098 -2.802097,-26.15367 -5.000418,-25.6131 -2.499869,0.61471 -3.364412,13.70779 -4.247726,25.253 -0.899723,11.75967 -1.716,21.43469 -2.133855,16.2856 -0.561087,-6.91411 -0.774744,-20.58551 -1.562296,-32.46063 -0.787429,-11.87328 -2.022325,-21.95583 -2.943206,-21.68298 -1.160778,0.34392 -1.127616,10.47659 -1.481684,20.43459 -0.354254,9.96324 -1.092991,19.79389 -2.418301,19.55993 -1.462197,-0.25812 -2.196517,-9.17959 -3.082377,-17.95003 -0.885761,-8.76946 -1.922515,-17.41767 -2.913428,-17.12441 -1.234355,0.36531 -1.41129,8.91924 -1.830525,17.30575 -0.419434,8.39048 -1.0791,16.64372 -2.303762,16.4275 -1.374693,-0.24272 -2.144713,-7.97483 -3.262616,-15.49048 -1.117934,-7.51586 -2.582153,-14.83579 -4.544465,-14.25519 -2.323062,0.68734 -3.05034,10.39535 -3.924087,20.74582 -0.88453,10.47822 -1.90283,21.25607 -3.60594,24.72178 -1.856086,3.77701 -2.402877,-3.77537 -2.96908,-11.8396 -0.565357,-8.05217 -1.178056,-16.76033 -2.065109,-15.23459 -1.122621,1.93091 -1.681079,8.00039 -2.104779,13.15203 -0.427192,5.19409 -0.714356,9.54765 -0.972218,8.25899 -0.407579,-2.03687 -0.589171,-7.18108 -0.834259,-11.32887 -0.250132,-4.23313 -0.570135,-7.71181 -1.073262,-6.84435 -1.475034,2.54317 -0.987978,6.549 -0.987978,6.549 0,0 0.507242,-4.30848 0.997048,-5.149 0.381477,-0.65462 0.626094,2.44937 0.870539,6.39239 0.23959,3.86473 0.485453,8.78813 0.999172,11.38083 0.680421,3.43403 1.256479,-1.14138 1.720491,-7.04288 0.455793,-5.79697 0.773328,-12.88985 1.403198,-13.96814 0.770736,-1.31944 1.2908,7.43398 1.832761,15.39915 0.542559,7.97395 1.14049,15.33512 3.143639,11.27504 2.257535,-4.57569 3.504389,-15.31613 4.398221,-25.45973 0.88231,-10.01282 1.401021,-19.06419 3.240054,-19.60787 1.840393,-0.54408 3.216301,6.66468 4.314123,14.06599 1.097794,7.40113 1.915988,15.01483 3.415517,15.27968 1.723035,0.30432 2.650042,-7.92154 3.08941,-16.27049 0.43917,-8.34518 0.388984,-16.84267 1.133258,-17.06276 0.868389,-0.2568 1.812374,8.2802 2.674798,16.93517 0.862523,8.65595 1.642987,17.45902 3.229998,17.73927 1.823357,0.32199 2.832737,-9.48114 3.210642,-19.40277 0.377714,-9.91665 0.121654,-19.99275 0.793849,-20.19175 0.793811,-0.23501 1.905628,9.22171 2.673833,20.72605 0.768226,11.50466 1.0691,25.0579 1.699438,33.01756 0.701444,8.85755 1.829483,0.16915 2.878019,-13.04021 0.993265,-12.51305 1.627787,-27.61346 3.601214,-28.09839 2.075755,-0.51008 3.710922,12.47397 4.744217,25.45316 1.03482,12.99835 1.467262,25.99914 3.559672,25.61838 2.377402,-0.43262 4.196275,-12.69633 5.32909,-24.71309 1.133128,-12.02008 1.583938,-23.72924 3.253149,-23.06936 1.747978,0.69101 3.030637,13.27809 3.702069,25.69411 0.670668,12.40189 0.733991,24.54952 2.157098,24.291 1.687853,-0.30661 3.156385,-11.2175 3.902248,-21.99915 0.745391,-10.77483 0.742245,-21.39994 1.192219,-21.10087 0.60721,0.40357 1.089418,11.04747 1.565828,21.57401 0.475498,10.50638 0.9471,20.8063 3.067897,20.42113 2.368022,-0.43006 4.052763,-9.73539 5.356987,-18.61933 1.304309,-8.88456 2.234849,-17.31176 4.230909,-15.98868 1.99838,1.32463 3.06561,8.8772 3.94759,15.34918 0.87655,6.43218 1.59265,11.78293 3.46972,8.50492 4.15537,-7.25673 3.76322,-18.93587 3.76322,-18.93587 z"
       copytype="repeated_stretched"
       prop_scale="1"
       scale_y_rel="false"
       spacing="0"
       normal_offset="0"
       tang_offset="0"
       prop_units="false"
       vertical_pattern="false"
       fuse_tolerance="0" />
  </defs>
  <g
     inkscape:label="Layer 1"
     inkscape:groupmode="layer"
     id="layer1"
     transform="translate(0,-147)">
    <path
       style="font-style:normal;font-variant:normal;font-weight:bold;font-stretch:normal;font-size:64px;line-height:1.25;font-family:'padmaa-Bold.1.1';-inkscape-font-specification:'padmaa-Bold.1.1 Bold';letter-spacing:0px;word-spacing:0px;fill:none;fill-opacity:1;stroke:#000000;stroke-width:0.99999994;stroke-opacity:1"
       d="M 221.23438 395.73828 C 214.98437 395.73828 209.73438 397.77996 205.48438 401.86328 C 201.23438 405.90496 199.10938 411.25912 199.10938 417.92578 C 199.10938 424.50911 201.17188 429.86328 205.29688 433.98828 C 209.46354 438.07161 214.77604 440.11328 221.23438 440.11328 C 227.65104 440.11328 232.94271 438.05078 237.10938 433.92578 C 241.27604 429.80078 243.35938 424.46744 243.35938 417.92578 C 243.35938 411.25912 241.17187 405.84246 236.79688 401.67578 C 232.63021 397.71746 227.44271 395.73828 221.23438 395.73828 z M 24.546875 396.67578 L 24.546875 398.23828 C 26.380208 398.40496 27.609375 398.67578 28.234375 399.05078 C 29.317708 399.67576 29.859375 400.88411 29.859375 402.67578 L 29.859375 432.92578 C 29.859375 434.96743 29.130208 436.2591 27.671875 436.80078 C 27.255208 436.96741 26.213542 437.1549 24.546875 437.36328 L 24.546875 438.92578 L 45.609375 438.92578 L 45.609375 437.36328 C 43.567707 437.11328 42.213541 436.80079 41.546875 436.42578 C 40.505207 435.80077 39.984375 434.6341 39.984375 432.92578 L 39.984375 418.55078 L 55.046875 418.55078 L 55.046875 432.92578 C 55.046875 434.67578 54.526043 435.86327 53.484375 436.48828 C 52.901043 436.82166 51.546877 437.11333 49.421875 437.36328 L 49.421875 438.92578 L 70.671875 438.92578 L 70.671875 437.36328 C 68.671875 437.11328 67.338541 436.77996 66.671875 436.36328 C 65.671875 435.7383 65.171875 434.59245 65.171875 432.92578 L 65.171875 402.67578 C 65.171875 400.84246 65.755208 399.59244 66.921875 398.92578 C 67.71354 398.46743 68.963541 398.23828 70.671875 398.23828 L 70.671875 396.67578 L 49.421875 396.67578 L 49.421875 398.23828 C 51.671876 398.23828 53.213542 398.65495 54.046875 399.48828 C 54.713543 400.15496 55.046875 401.21746 55.046875 402.67578 L 55.046875 415.61328 L 39.984375 415.61328 L 39.984375 402.67578 C 39.984375 400.80078 40.58854 399.52994 41.796875 398.86328 C 42.546874 398.4466 43.817708 398.23828 45.609375 398.23828 L 45.609375 396.67578 L 24.546875 396.67578 z M 72.859375 396.67578 L 72.859375 398.23828 C 74.651042 398.23828 75.942708 398.46743 76.734375 398.92578 C 77.817709 399.55076 78.359375 400.80078 78.359375 402.67578 L 78.359375 432.92578 C 78.359375 434.71745 77.880209 435.90495 76.921875 436.48828 C 76.338543 436.86324 74.984377 437.1549 72.859375 437.36328 L 72.859375 438.92578 L 109.42188 438.92578 L 111.92188 425.92578 L 110.17188 425.92578 C 108.33854 430.30076 105.88021 433.34243 102.79688 435.05078 C 100.46354 436.34245 97.442709 436.98828 93.734375 436.98828 C 91.692709 436.98828 90.296874 436.75911 89.546875 436.30078 C 88.838541 435.80077 88.484375 434.86327 88.484375 433.48828 L 88.484375 418.36328 C 91.776041 418.36328 94.192708 419.05076 95.734375 420.42578 C 97.276042 421.7591 98.234375 424.30078 98.609375 428.05078 L 100.23438 428.05078 L 100.23438 406.92578 L 98.609375 406.92578 C 98.151042 410.59245 97.088541 413.11329 95.421875 414.48828 C 94.005207 415.65495 91.692708 416.23828 88.484375 416.23828 L 88.484375 401.73828 C 88.484375 400.44662 88.776043 399.63414 89.359375 399.30078 C 89.984375 398.96745 91.213542 398.80078 93.046875 398.80078 C 97.63021 398.80078 100.90104 399.42577 102.85938 400.67578 C 105.19271 402.17577 106.69271 405.02995 107.35938 409.23828 L 108.92188 409.23828 L 108.92188 396.67578 L 72.859375 396.67578 z M 114.73438 396.67578 L 114.73438 398.23828 C 116.48437 398.23828 117.73437 398.46743 118.48438 398.92578 C 119.56771 399.59244 120.10937 400.84246 120.10938 402.67578 L 120.10938 432.92578 C 120.10937 434.67578 119.65104 435.84245 118.73438 436.42578 C 118.15104 436.80084 116.81771 437.11333 114.73438 437.36328 L 114.73438 438.92578 L 150.85938 438.92578 L 153.42188 424.73828 L 151.60938 424.73828 C 149.94271 428.86328 148.13021 431.80078 146.17188 433.55078 C 143.63021 435.84246 140.17187 436.98828 135.79688 436.98828 C 133.58854 436.98828 132.10937 436.77996 131.35938 436.36328 C 130.60938 435.90495 130.23438 434.9466 130.23438 433.48828 L 130.23438 403.98828 C 130.23438 401.40495 130.73438 399.75912 131.73438 399.05078 C 132.48437 398.5091 134.08854 398.23828 136.54688 398.23828 L 136.54688 396.67578 L 114.73438 396.67578 z M 156.42188 396.67578 L 156.42188 398.23828 C 158.17187 398.23828 159.42188 398.46743 160.17188 398.92578 C 161.25521 399.59244 161.79687 400.84246 161.79688 402.67578 L 161.79688 432.92578 C 161.79688 434.67578 161.33854 435.84245 160.42188 436.42578 C 159.83854 436.80084 158.50521 437.11333 156.42188 437.36328 L 156.42188 438.92578 L 192.54688 438.92578 L 195.10938 424.73828 L 193.29688 424.73828 C 191.63021 428.86328 189.81771 431.80078 187.85938 433.55078 C 185.31771 435.84246 181.85937 436.98828 177.48438 436.98828 C 175.27604 436.98828 173.79687 436.77996 173.04688 436.36328 C 172.29687 435.90495 171.92188 434.9466 171.92188 433.48828 L 171.92188 403.98828 C 171.92188 401.40495 172.42188 399.75912 173.42188 399.05078 C 174.17188 398.5091 175.77604 398.23828 178.23438 398.23828 L 178.23438 396.67578 L 156.42188 396.67578 z M 221.23438 397.80078 C 225.23438 397.80078 228.17188 400.00913 230.04688 404.42578 C 231.54688 407.9258 232.29688 412.42579 232.29688 417.92578 C 232.29688 422.84244 231.77604 426.88412 230.73438 430.05078 C 228.98438 435.38412 225.81771 438.05078 221.23438 438.05078 C 217.60937 438.05078 214.85938 436.40495 212.98438 433.11328 C 211.10938 429.82162 210.17187 424.75912 210.17188 417.92578 C 210.17188 412.38411 210.92188 407.88412 212.42188 404.42578 C 214.33854 400.00913 217.27604 397.80078 221.23438 397.80078 z M 110.04688 475.73828 C 103.79687 475.73828 98.546876 477.77993 94.296875 481.86328 C 90.046877 485.90493 87.921875 491.25912 87.921875 497.92578 C 87.921875 504.50914 89.984376 509.8633 94.109375 513.98828 C 98.276042 518.07163 103.58854 520.11328 110.04688 520.11328 C 116.46354 520.11328 121.75521 518.05078 125.92188 513.92578 C 130.08854 509.80078 132.17188 504.46746 132.17188 497.92578 C 132.17187 491.25912 129.98437 485.84243 125.60938 481.67578 C 121.44271 477.71743 116.25521 475.73828 110.04688 475.73828 z M 24.421875 476.67578 L 24.421875 478.23828 C 25.755208 478.44661 26.671875 478.77995 27.171875 479.23828 C 27.671875 479.69661 28.192708 480.69661 28.734375 482.23828 L 41.984375 519.86328 L 43.734375 519.86328 L 55.109375 490.61328 L 55.546875 490.61328 L 66.046875 519.86328 L 67.734375 519.86328 L 80.234375 482.23828 C 80.609375 481.02997 81.151041 480.09246 81.859375 479.42578 C 82.567709 478.71752 83.463544 478.32168 84.546875 478.23828 L 84.546875 476.67578 L 73.171875 476.67578 L 73.171875 478.23828 C 74.505207 478.23828 75.546876 478.40495 76.296875 478.73828 C 77.088542 479.07161 77.484375 479.82162 77.484375 480.98828 C 77.484375 481.52996 77.421877 482.07162 77.296875 482.61328 C 77.171873 483.11341 77.088551 483.44673 77.046875 483.61328 L 69.984375 504.86328 L 63.296875 484.05078 L 62.546875 481.67578 C 62.463549 481.30078 62.421875 480.94661 62.421875 480.61328 C 62.421875 479.61327 62.776041 478.96743 63.484375 478.67578 C 64.234374 478.3841 65.380208 478.23828 66.921875 478.23828 L 66.921875 476.67578 L 47.421875 476.67578 L 47.421875 478.23828 C 48.546874 478.23828 49.421875 478.36333 50.046875 478.61328 C 50.713541 478.82161 51.33854 479.42577 51.921875 480.42578 L 54.109375 486.42578 L 46.671875 505.48828 L 39.234375 482.92578 C 39.109373 482.5508 39.005201 482.17579 38.921875 481.80078 C 38.838549 481.42573 38.796875 481.11323 38.796875 480.86328 C 38.796875 479.82162 39.130209 479.13411 39.796875 478.80078 C 40.505209 478.42578 41.505209 478.23828 42.796875 478.23828 L 42.796875 476.67578 L 24.421875 476.67578 z M 135.98438 476.67578 L 135.98438 478.23828 C 138.02604 478.23828 139.40104 478.52995 140.10938 479.11328 C 141.02604 479.86329 141.48438 481.4883 141.48438 483.98828 L 141.48438 511.61328 C 141.48438 513.98829 141.08854 515.52995 140.29688 516.23828 C 139.75521 516.69661 138.31771 517.07163 135.98438 517.36328 L 135.98438 518.92578 L 157.10938 518.92578 L 157.10938 517.36328 C 154.85937 517.07163 153.42188 516.65496 152.79688 516.11328 C 152.00521 515.44662 151.60938 513.94661 151.60938 511.61328 L 151.60938 499.36328 L 153.29688 499.36328 L 166.23438 518.92578 L 179.04688 518.92578 L 179.04688 517.36328 C 178.54687 517.36328 178.08854 517.30076 177.67188 517.17578 C 177.25521 517.00913 176.85937 516.67579 176.48438 516.17578 L 163.92188 498.36328 C 166.71354 497.48827 168.77604 496.52994 170.10938 495.48828 C 172.52604 493.61328 173.73438 491.0091 173.73438 487.67578 C 173.73438 484.13411 172.23438 481.42578 169.23438 479.55078 C 166.23438 477.63411 161.85938 476.67578 156.10938 476.67578 L 135.98438 476.67578 z M 180.67188 476.67578 L 180.67188 478.23828 C 182.42188 478.23828 183.67188 478.46745 184.42188 478.92578 C 185.50521 479.59244 186.04688 480.84243 186.04688 482.67578 L 186.04688 512.92578 C 186.04688 514.6758 185.58854 515.84245 184.67188 516.42578 C 184.08854 516.80081 182.75521 517.11333 180.67188 517.36328 L 180.67188 518.92578 L 216.79688 518.92578 L 219.35938 504.73828 L 217.54688 504.73828 C 215.88021 508.86328 214.06771 511.80078 212.10938 513.55078 C 209.56771 515.84243 206.10937 516.98828 201.73438 516.98828 C 199.52604 516.98828 198.04688 516.77994 197.29688 516.36328 C 196.54688 515.90495 196.17188 514.94662 196.17188 513.48828 L 196.17188 483.98828 C 196.17188 481.40495 196.67188 479.75912 197.67188 479.05078 C 198.42187 478.50912 200.02604 478.23828 202.48438 478.23828 L 202.48438 476.67578 L 180.67188 476.67578 z M 222.04688 476.67578 L 222.04688 478.23828 C 223.79687 478.40496 224.96354 478.65495 225.54688 478.98828 C 226.67188 479.61326 227.23438 480.75911 227.23438 482.42578 L 227.23438 513.23828 C 227.23438 514.48827 226.81771 515.48827 225.98438 516.23828 C 225.19271 516.98827 223.88021 517.36328 222.04688 517.36328 L 222.04688 518.92578 L 241.79688 518.92578 C 249.25521 518.92578 254.98437 516.73826 258.98438 512.36328 C 262.52604 508.48828 264.29688 503.42578 264.29688 497.17578 C 264.29688 491.59244 262.60937 486.96745 259.23438 483.30078 C 255.15104 478.88413 249.10938 476.67578 241.10938 476.67578 L 222.04688 476.67578 z M 110.04688 477.80078 C 114.04687 477.80078 116.98438 480.00913 118.85938 484.42578 C 120.35938 487.92577 121.10937 492.42579 121.10938 497.92578 C 121.10938 502.84247 120.58854 506.88412 119.54688 510.05078 C 117.79688 515.3841 114.63021 518.05078 110.04688 518.05078 C 106.42187 518.05078 103.67188 516.40495 101.79688 513.11328 C 99.921877 509.82162 98.984375 504.75912 98.984375 497.92578 C 98.984375 492.38414 99.734376 487.88412 101.23438 484.42578 C 103.15104 480.00913 106.08854 477.80078 110.04688 477.80078 z M 155.48438 478.80078 C 158.06771 478.80078 159.96354 479.52996 161.17188 480.98828 C 162.42187 482.40495 163.04688 484.67577 163.04688 487.80078 C 163.04688 491.71746 162.15104 494.34246 160.35938 495.67578 C 158.85937 496.8008 155.94271 497.36328 151.60938 497.36328 L 151.60938 481.42578 C 151.77604 480.30079 152.04688 479.59246 152.42188 479.30078 C 152.83854 478.96745 153.85937 478.80078 155.48438 478.80078 z M 241.23438 478.80078 C 245.90104 478.80078 249.27604 481.25912 251.35938 486.17578 C 252.73437 489.46745 253.42188 493.34245 253.42188 497.80078 C 253.42187 504.80079 252.21354 509.84247 249.79688 512.92578 C 247.79687 515.46746 244.83854 516.73828 240.92188 516.73828 C 239.46354 516.73828 238.50521 516.46746 238.04688 515.92578 C 237.58854 515.38412 237.35938 514.44662 237.35938 513.11328 L 237.35938 481.73828 C 237.35938 480.73829 237.50521 480.07161 237.79688 479.73828 C 238.33854 479.11327 239.48438 478.80078 241.23438 478.80078 z "
       transform="matrix(0.26458333,0,0,0.26458333,0,147)"
       id="path1552" />
  </g>
  <metadata
     id="metadata5">
    <rdf:RDF>
      <cc:Work
         rdf:about="">
        <dc:format>image/svg+xml</dc:format>
        <dc:type
           rdf:resource="http://purl.org/dc/dcmitype/StillImage" />
        <dc:title></dc:title>
        <dc:description>D3D Plotter Template</dc:description>
        <cc:license
           rdf:resource="http://creativecommons.org/licenses/by-sa/4.0/" />
      </cc:Work>
      <cc:License
         rdf:about="http://creativecommons.org/licenses/by-sa/4.0/">
        <cc:permits
           rdf:resource="http://creativecommons.org/ns#Reproduction" />
        <cc:permits
           rdf:resource="http://creativecommons.org/ns#Distribution" />
        <cc:requires
           rdf:resource="http://creativecommons.org/ns#Notice" />
        <cc:requires
           rdf:resource="http://creativecommons.org/ns#Attribution" />
        <cc:permits
           rdf:resource="http://creativecommons.org/ns#DerivativeWorks" />
        <cc:requires
           rdf:resource="http://creativecommons.org/ns#ShareAlike" />
      </cc:License>
    </rdf:RDF>
  </metadata>
</svg>
