<?xml version="1.0"?>
<svg xmlns:rdf="http://www.w3.org/1999/02/22-rdf-syntax-ns#" xmlns="http://www.w3.org/2000/svg" xmlns:cc="http://creativecommons.org/ns#" xmlns:dc="http://purl.org/dc/elements/1.1/" xmlns:svg="http://www.w3.org/2000/svg" id="svg2" viewBox="0 0 275.21 502.59" version="1.0">
  <path id="path2313" d="m207.99 501.99c-0.27-0.43 0.38-2.68 1.44-5s2.49-8.25 3.17-13.19 1.94-12.81 2.79-17.49c1.39-7.63 2.03-20.03 1.08-20.98-0.2-0.2-1.5 1.57-2.88 3.93-1.97 3.36-3.07 4.31-5.08 4.37-1.41 0.04-3.41 0.27-4.45 0.52s-2.74 0.54-3.78 0.66c-1.04 0.11-4.31 0.79-7.26 1.5-4.74 1.15-5.75 1.12-8.56-0.21-4.08-1.94-5.86-3.95-8.22-9.28-3.43-7.75-4.03-12.78-2.54-21.26 1.36-7.76 2.75-11.35 8.37-21.62 7.45-13.59 11.81-17.91 19.26-19.09 2.02-0.31 4.88-1.57 6.35-2.79 1.55-1.29 3.93-2.23 5.67-2.24 5.13-0.02 5.21-0.32 3.36-13.69-6.6-47.76-10.66-66.73-15.43-72.14-1.38-1.57-1.94-3.5-1.94-6.72 0-4.35-0.18-4.64-4.48-7.49-2.46-1.63-4.89-2.96-5.39-2.96s-2.22-1.91-3.83-4.24c-4.53-6.59-7.73-7.59-13.83-4.33-4.94 2.65-9.56 10.21-13.14 21.48-2.77 8.74-8.5 19.99-9.61 18.88-0.47-0.46 1.22-3.66 3.73-7.1 0.91-1.24 2.95-6.46 4.53-11.6 3.89-12.59 9.3-21.21 14.8-23.57 5.6-2.4 8.97-1.54 13.3 3.37 1.94 2.2 4.88 4.69 6.55 5.55 4.84 2.5 4.92 1.77 0.13-1.24-4.07-2.56-6.42-4.76-5.07-4.76 0.31 0 1.79 0.9 3.28 2s3.14 1.73 3.67 1.4c0.54-0.33 1.28-0.1 1.66 0.51 0.45 0.74 0.27 0.85-0.56 0.34-0.82-0.51-1.01-0.39-0.55 0.34 0.38 0.61 1.08 0.87 1.56 0.57 0.49-0.3 0.88-0.1 0.88 0.45 0 0.56 0.39 0.9 0.85 0.77 0.47-0.13 0.79 0.04 0.71 0.37-0.07 0.34 0.55 1.4 1.39 2.37 1.55 1.77 1.64 3.51 0.41 8.03-0.54 1.98-0.11 3.13 2.08 5.58 3.66 4.1 5.32 3.11 4.61-2.76l-0.54-4.38 1.43 2.84 1.44 2.83-0.5-4.48c-0.58-5.21-0.03-5.83 1.24-1.42 0.66 2.26 0.91 2.53 0.98 1 0.04-1.13-0.32-3.12-0.82-4.42-0.64-1.68-0.57-2.47 0.24-2.74 0.83-0.28 0.75-0.85-0.28-2.1-0.78-0.95-1.3-2.45-1.15-3.35 0.16-0.89-0.35-1.87-1.13-2.17-1.02-0.39-1.24-0.1-0.81 1.07 0.52 1.37 0.39 1.43-0.93 0.36-1.56-1.27-1.88-4.95-0.52-5.9 0.42-0.29 0.13-1.35-0.63-2.36-1.27-1.69-1.39-1.38-1.42 3.65-0.02 3.59-0.37 5.28-1.02 4.88-0.55-0.34-0.36 0.91 0.42 2.78 0.78 1.86 1.24 3.39 1.03 3.39s-2.35-1.9-4.75-4.23c-2.59-2.53-5.85-4.64-8.07-5.24-2.04-0.55-3.71-1.38-3.71-1.84 0-0.47-0.95-1.17-2.12-1.56-8.15-2.74-14.04-2.81-19.21-0.22-4.64 2.31-9.18 8.66-10.39 14.5-1.02 4.88-5.43 16.85-7.69 20.8-2.79 4.91-2.73 4.06 0.23-3.23 1.33-3.26 3.5-9.36 4.82-13.56 1.33-4.21 2.65-8.32 2.94-9.13 0.89-2.52-5.92 6.82-7.53 10.33-0.83 1.82-2.14 5.46-2.92 8.1-2.18 7.46-5.77 13.77-10.07 17.75-2.17 2-3.78 3.8-3.58 4s1.82-0.1 3.6-0.66c8.84-2.77 8.92-2.79 7.46-1.45-2.08 1.91-13.43 4.6-16.33 3.88-3.48-0.88-3.18-2.32 0.49-2.32 2.4 0 4-1.02 7.87-5.01 3.84-3.97 5.39-6.57 7.48-12.52 4.72-13.51 6.34-16.77 11.57-23.32 6.87-8.62 10.92-11.22 18.27-11.72 4.65-0.32 6.9 0.08 11.62 2.03 3.22 1.34 6.64 2.6 7.61 2.82 0.96 0.21 2.35 0.89 3.09 1.5 0.74 0.62 1.52 0.95 1.72 0.74 0.5-0.5-6.31-23.91-9.51-32.71-2.22-6.08-6.98-14.3-6.98-12.05 0 1.49-2.87-3.15-3.95-6.39-1.68-5.01-5.3-9.09-10.32-11.64-5.97-3.02-8.41-5.48-8.41-8.46 0-1.48-0.54-2.36-1.43-2.36-1.98 0-9.91-8.45-9.91-10.54 0-1.02-1.44-2.44-3.55-3.52-1.95-1-4.57-2.92-5.82-4.26-2.56-2.75-4.81-1.96-4.81 1.69 0 1.12-0.74 2.74-1.65 3.6-0.91 0.87-2.51 2.69-3.55 4.07-2.21 2.91-8.3 7.07-10.37 7.07-0.99 0-1.44-0.95-1.44-3.04v-3.05l-2.72 2.98c-1.55 1.69-4.41 3.43-6.63 4.03-2.16 0.58-5.884 1.9-8.287 2.93s-4.551 1.69-4.773 1.46c-0.223-0.22 0.498-2.17 1.601-4.33 1.955-3.83 1.958-3.91 0.128-2.93-1.033 0.55-2.756 1.01-3.83 1.01s-1.968 0.32-1.987 0.7c-0.018 0.39-1.069 1.98-2.335 3.53-2.25 2.75-2.333 2.78-3.68 0.95-1.345-1.83-1.448-1.8-4.392 1.2-3.555 3.62-5.367 3.87-6.496 0.9-0.452-1.19-1.492-2.72-2.31-3.4-1.247-1.03-1.893-0.91-4.006 0.75-3.097 2.44-3.337 2.44-6.045 0.09-1.199-1.04-2.585-1.89-3.081-1.89s-0.673-0.59-0.393-1.32c0.391-1.02-0.185-1.22-2.498-0.85-1.654 0.26-3.751 0.87-4.66 1.35-1.378 0.74-1.654 0.48-1.654-1.57 0-1.35 0.451-3.3 1.003-4.33s0.871-2.87 0.709-4.09l-0.295-2.21-5.997 2.84c-5.278 2.5-6.271 2.7-8.27 1.63-1.25-0.67-2.272-1.74-2.272-2.37 0-0.64-0.744-1.1-1.654-1.02-1.31 0.1-1.62-0.55-1.492-3.15l0.162-3.28-1.686 2.23c-2.469 3.27-4.19 1.73-3.52-3.16 0.297-2.17 0.837-4.71 1.199-5.66 0.598-1.56 0.271-1.65-3.499-1.03-2.288 0.37-4.831 1.27-5.651 1.99-3.373 2.98-5.256-0.13-2.158-3.55 1.316-1.45 1.355-1.94 0.264-3.26-1.117-1.34-0.919-1.84 1.523-3.79l2.808-2.25h-3.072c-1.834-0.01-3.071-0.49-3.071-1.2 0-0.82 1.288-1.08 4.253-0.85 2.339 0.19 4.253 0.71 4.253 1.16 0 0.46-1.267 1.76-2.816 2.91-1.898 1.4-2.527 2.43-1.929 3.15 0.575 0.69 0.242 2.13-0.951 4.09-1.732 2.85-1.436 4.03 0.545 2.18 0.494-0.46 3.27-1.52 6.169-2.34 2.9-0.83 6.853-2.58 8.785-3.89 1.931-1.31 3.853-2.38 4.269-2.38 1.215 0 3.809-3.25 4.193-5.25 0.194-1.01 0.682-2.6 1.084-3.54 1.321-3.06-0.35-2.88-2.072 0.22-2.932 5.29-4.218 6.49-2.613 2.44 0.821-2.07 2.272-4.63 3.226-5.67 1.619-1.78 3.313-8.42 1.93-7.56-0.347 0.21-2.255 3.17-4.241 6.56-1.985 3.4-4.425 6.91-5.421 7.81-0.996 0.91 0.132-1.51 2.508-5.36 2.375-3.85 4.108-7.22 3.85-7.48-0.258-0.25-1.818 0.78-3.466 2.3l-2.996 2.77 1.922-2.75c1.932-2.76 6.079-5.63 13.051-9.02 2.986-1.45 3.424-1.96 2.126-2.46-0.9-0.34-2.273-0.38-3.053-0.08s-1.418 0.18-1.418-0.27c0-1.18 2.494-1.96 6.457-2l3.467-0.04-2.714-1.47c-1.493-0.81-3.957-1.28-5.476-1.06-3.139 0.46-4.299-0.64-2.706-2.56 0.871-1.05 0.704-1.2-0.864-0.79-1.186 0.31-1.944 0.05-1.944-0.66 0-0.72 0.864-1 2.256-0.73 1.287 0.25 3.202-0.28 4.461-1.23l2.207-1.67-3.281 0.4c-8.394 1.03-17.081 3.08-20.799 4.92-2.298 1.14-3.49 1.43-2.729 0.67 0.742-0.74 3.011-2.16 5.042-3.14l3.693-1.8-4.876-1.62c-2.682-0.89-4.876-2-4.876-2.46s-0.739-0.55-1.642-0.21c-0.903 0.35-0.265-0.71 1.418-2.36 3.629-3.55 3.734-4 0.932-3.99-2.856 0-7.963 3.21-8.673 5.45-0.315 0.99-1.585 2.34-2.8223 3-2.9588 1.59-6.9334 7.75-7.7276 11.98-0.5481 2.92-0.4041 3.33 1.0757 3.05 0.9549-0.19 2.0404-1.57 2.4608-3.15 0.7043-2.63 4.0208-6.09 5.8834-6.14 0.456-0.01 0.616 2.2 0.354 4.92-0.56 5.83 0.608 8.89 4.084 10.69 2.771 1.43 4.03 0.64 6.463-4.06 0.607-1.17 3.286-3.86 5.954-5.97 3.854-3.05 5.353-3.71 7.288-3.23 5.683 1.42 7.667 6.4 3.225 8.08-1.386 0.53-4.682 3.2-7.325 5.94-5.978 6.18-15.233 13.21-16.742 12.71-0.622-0.21 0.47-1.32 2.427-2.48 5.427-3.2 12.651-9.59 14.829-13.11 1.073-1.74 3.217-3.82 4.763-4.61 2.173-1.13 2.575-1.74 1.77-2.71-2.496-3.01-5.608-2.31-10.225 2.29-2.454 2.44-5.408 5.74-6.564 7.31-2.789 3.82-5.49 4.45-7.901 1.86-3.33-3.57-4.5088-6.94-3.935-11.24 0.479-3.59 0.3732-3.91-0.9386-2.83-0.8128 0.67-1.7373 2.26-2.0543 3.52-0.7888 3.14-3.9324 4.78-5.7294 2.98-1.0576-1.06-1.1432-2.1-0.39481-4.81 1.0524-3.81 4.4487-10.1 5.9988-11.11 2.5133-1.64 4.6783-3.63 3.8243-3.51-3.4806 0.46-3.8421-0.12-4.0286-6.41-0.2128-7.18 0.6635-8.78 4.8536-8.89 2.912-0.07 10.666-2.548 8.412-2.688-0.638-0.039-1.858-1.137-2.711-2.439-2.512-3.833-0.633-5.072 6.788-4.476 5.424 0.435 6.54 0.229 9.137-1.691 2.066-1.528 3.076-1.833 3.35-1.013 0.258 0.774 0.856 0.51 1.756-0.775 1.286-1.836 1.561-1.867 4.74-0.539 4.153 1.735 5.847 1.845 4.279 0.276-0.624-0.623-1.134-1.878-1.134-2.788s-0.68-2.034-1.51-2.499c-1.313-0.735-1.18-1.2 1.03-3.584l2.538-2.739-2.809-1.146c-1.545-0.631-5.729-1.36-9.299-1.622-3.569-0.261-6.632-0.493-6.805-0.515-0.174-0.022 1.466-1.701 3.644-3.732l3.96-3.693-2.699-1.72c-4.69-2.988-5.464-5.509-1.991-6.488 4.79-1.351 7.325-2.658 7.325-3.777 0-0.871 2.129-1.137 8.033-1.005 4.419 0.099 8.034 0.094 8.034-0.01 0-0.105-0.624-1.393-1.386-2.862-0.985-1.898-1.082-2.858-0.337-3.319 0.577-0.356 0.819-1.527 0.538-2.6-0.639-2.444 1.437-4.264 4.251-3.729 1.801 0.343 2.148-0.021 2.237-2.351 0.058-1.517 0.643-3.089 1.298-3.494 1.735-1.072 7.607 0.795 10.71 3.406 1.475 1.241 3.088 2.256 3.585 2.256 0.514 0 0.788-2.838 0.636-6.582-0.209-5.146 0.077-6.927 1.312-8.162 1.477-1.477 1.728-1.421 3.83 0.847 2.176 2.349 2.286 2.368 3.39 0.601 0.704-1.128 2.196-1.826 3.904-1.826 1.958 0 2.943-0.566 3.38-1.942 0.765-2.412 2.716-1.913 3.116 0.798 0.274 1.857 0.524 1.758 3.169-1.255 3.419-3.898 4.769-4.071 6.859-0.879 0.87 1.316 2 2.13 2.52 1.809s1.5-0.118 2.19 0.451c0.99 0.821 1.36 0.191 1.81-3.056 0.85-6.228 2.23-9.157 4.33-9.157 1.01 0 1.98 0.744 2.16 1.653 0.24 1.217 1.07 0.531 3.17-2.592 3.37-5.0177 6.1-6.1081 6.1-2.4386 0 3.0736 0.67 3.0536 3.98-0.1201 2.35-2.2569 2.83-2.3898 4.07-1.149 1.66 1.666 4.57 11.493 4.59 15.515 0.01 1.56-0.34 4.061-0.78 5.558-0.61 2.12-0.5 2.627 0.51 2.292 0.71-0.237 1.54-1.682 1.86-3.213 0.31-1.53 1.95-4.688 3.64-7.018 2.85-3.933 3.03-4.605 2.47-9.433-0.33-2.8585-0.79-5.8492-1.02-6.6456-0.64-2.2429 3.95-2.2255 5.52 0.0209 1.24 1.77 1.37 1.7062 2.86-1.4318 1.73-3.627 2.96-4.1443 3.87-1.6304 0.33 0.9097 1.13 2.5625 1.79 3.6729l1.2 2.019 3.06-2.7278c3.2-2.8652 5.8-3.5403 5.94-1.5464 0.2 2.8751-0.23 10.781-0.67 12.28-0.35 1.202-0.08 1.494 1 1.08 1.06-0.406 1.48 0.008 1.48 1.457 0 1.709 0.28 1.872 1.82 1.047 3.55-1.896 5.08-1.255 4.46 1.857-0.48 2.394-0.27 2.835 1.32 2.835 1.15 0 2.25 0.93 2.79 2.363 0.93 2.438 4.94 3.364 6.15 1.417 0.81-1.32 2.93-1.178 4.42 0.296 0.68 0.683 2.52 1.214 4.08 1.182 2.58-0.055 2.86 0.246 3.12 3.28 0.15 1.838-0.1 4.379-0.57 5.647-0.58 1.565-0.44 3.299 0.43 5.396 0.71 1.699 1.38 4.124 1.48 5.39 0.11 1.265 0.57 2.067 1.04 1.782 0.46-0.286 0.59-1.727 0.3-3.203-0.3-1.477-0.11-2.95 0.42-3.275 1.48-0.914 3.71 1.443 3.71 3.921 0 2.027 0.2 2.131 2.34 1.158 1.29-0.587 2.59-1.854 2.9-2.815 0.91-2.861 3.26-1.992 4.84 1.791 1.46 3.505 1.35 10.754-0.23 14.766-0.62 1.591-0.47 1.652 1.58 0.619 1.25-0.629 3.18-2.221 4.29-3.538 2.28-2.705 4.12-2.195 4.12 1.145 0 1.604 0.61 2.327 2.13 2.543 1.62 0.231 2.13 0.937 2.16 2.989 0.03 1.52 0.75 3.08 1.66 3.591 0.89 0.498 1.61 1.318 1.61 1.823 0 2.208-11.42 12.947-14.44 13.582-2.85 0.598-4.46 1.803-4.46 3.332 0 1.277 0.57 1.55 2.46 1.188 3.25-0.621 4.42 1.344 2.53 4.234-1.37 2.08-1.33 2.395 0.58 4.42 2.56 2.734 1.77 5.214-1.91 5.944-1.7 0.35-2.71 1.14-2.71 2.14 0 2.32-5.91 4.79-11.42 4.79-2.62 0-6.1 0.71-7.77 1.59l-3.02 1.59 3.54 0.87c3.95 0.96 4.53 2.71 1.6 4.76-1.93 1.36-1.93 1.37 0.55 3.32 3.74 2.94 2.82 5.65-3.33 9.81-5.34 3.61-8.46 4.26-12.7 2.65-2.2-0.83-2.42-0.7-2.42 1.42 0 2.45-1.72 3.08-3.51 1.29-0.76-0.76-1.96-0.74-4.47 0.09-3.29 1.08-3.4 1.26-2.8 4.59 1.2 6.67 3.45 11.9 6.95 16.17 4.82 5.88 7.77 13.19 7.14 17.74-0.27 1.96-0.51 9.74-0.52 17.28-0.03 12.7 0.11 13.82 1.91 15.28 1.96 1.59 4.75 8.14 4.75 11.13 0 0.88 0.7 3.91 1.57 6.73l1.56 5.13 1.17-7.56c1.98-12.79 5.79-20.88 13.84-29.4 2.51-2.66 6.11-7.97 8-11.81 2.9-5.91 3.44-8.01 3.51-13.6 0.05-3.64-0.28-8-0.72-9.69-1-3.78 0.56-4.16 2.82-0.7 2 3.05 3.59 24.02 2.36 31.03-1.76 10.02-7.22 23.43-11.21 27.56-4.9 5.06-7.57 10.86-8.7 18.9-0.92 6.52-0.81 8.99 0.79 17.96 1.14 6.33 2.8 12.13 4.26 14.84 3.51 6.53 4.51 11.08 3.55 16.22-0.46 2.43-0.48 4.62-0.06 4.88 0.91 0.57 1.87 5.17 5.62 26.91 1.56 9.09 3.69 21.21 4.72 26.93 1.04 5.72 2.32 14.22 2.85 18.9 0.54 4.68 1.37 11.49 1.86 15.12 0.49 3.64 0.91 9.61 0.93 13.27l0.03 6.64 6.85-0.38c4.85-0.28 7.52-0.91 9.13-2.18 2.6-2.05 4.79-1.67 9.15 1.6 3.61 2.7 7.81 11.34 12.56 25.82 6.19 18.87 7.04 22.89 6.3 29.84l-0.67 6.25-3.05-0.2c-1.68-0.12-4.02 0.47-5.2 1.3-1.56 1.09-2.91 1.29-4.86 0.73-1.49-0.42-2.83-0.46-2.99-0.09-0.49 1.17-16.3 4.6-17.25 3.74-0.5-0.44-1.91-0.8-3.14-0.8-2.74 0-4.94-2.05-4.94-4.61 0-1.04-0.35-2.11-0.78-2.38-0.44-0.27-1.31 2.79-1.94 6.8-1.86 11.75-4.81 35.21-4.58 36.36 0.24 1.24-8.22 2.09-10.55 1.06-1.78-0.78-1.83-0.78-4.52 0.03-1.12 0.34-2.27 0.26-2.53-0.17zm13.43-9.11l0.96-6.72-0.36 7.09c-0.27 5.3-0.15 6.25 0.45 3.78 1.47-5.99 3.74-21.14 4.18-27.88l0.43-6.62-1.19 6.86c-1.25 7.18-3.07 11.04-2.12 4.49 0.31-2.08 0.77-6.76 1.03-10.4 0.61-8.5-0.9-4.09-2.1 6.14-0.73 6.26-0.83 5.27-0.85-8.5 0-8.58-0.4-21.13-0.87-27.88l-0.86-12.29-0.76 6.9c-0.43 3.8-0.75 11.88-0.72 17.96 0.02 6.08-0.37 13.39-0.87 16.25-0.51 2.86-1.82 11.15-2.91 18.43-1.1 7.28-2.55 14.55-3.22 16.17l-1.23 2.94h10.04l0.97-6.72zm-2.56 1.32c0-1.3 0.22-1.84 0.48-1.19s0.26 1.72 0 2.37-0.48 0.12-0.48-1.18zm0.91-7.17c0.06-2.56 0.45-5.92 0.87-7.48 0.47-1.73 0.56-0.08 0.24 4.25-0.6 8.14-1.28 10.1-1.11 3.23zm2.88-2.76c0.02-1.04 0.37-2.95 0.79-4.25l0.75-2.36 0.03 2.36c0.02 1.3-0.34 3.21-0.78 4.25-0.82 1.89-0.82 1.89-0.79 0zm22-23.31c1.84-4.59 3.14-14.11 2.76-20.21-0.17-2.68 0.09-4.05 0.69-3.68 1.72 1.07 0.69 16.73-1.61 24.28-0.27 0.91-0.06 1.66 0.47 1.66 2.7 0 4.36-19.52 2.75-32.14l-0.67-5.19 1.4 5.19c1.01 3.74 1.32 8.91 1.12 18.37-0.27 12.27-0.2 12.89 0.98 8.98 1.57-5.15 0.93-23.84-1.04-30.18-1.84-5.94-2.74-10.99-1.77-9.9 0.45 0.51 1.62 3.9 2.59 7.54 1.37 5.07 1.78 9.96 1.81 21.02 0.02 14.51 0.76 18.19 1.99 9.97 1.91-12.7-1.53-37.09-6.45-45.86-1.1-1.95-1.76-3.78-1.48-4.06 0.67-0.67 3.88 6.15 6.51 13.85 2.67 7.81 4.53 22.92 4 32.48-0.34 6.25-0.2 7.35 0.83 6.34 1.6-1.59 1.59-18.46-0.02-25.61-1.68-7.47-0.66-6.98 1.18 0.56 0.86 3.54 1.68 10.65 1.82 15.82 0.18 6.88 0.6 9.5 1.53 9.81 1.05 0.35 1.17-1.21 0.69-8.44-0.51-7.6-1.41-12.87-5.05-29.43-0.31-1.43-0.33-2.6-0.05-2.6 0.71 0 6.21 23.59 7.28 31.19 0.79 5.67 0.83 5.42 0.48-3.31-0.22-5.71-1.14-12.06-2.32-16.06-2.8-9.56-2.25-9.82 1-0.48 1.92 5.55 2.97 10.76 3.38 16.82 0.49 7.34 0.84 8.74 2.1 8.5 4.35-0.83 0.61-18.48-9.11-42.98-4.95-12.49-11.14-18.33-15.15-14.31-0.61 0.6-3.02 1.1-5.35 1.1-5.09 0-5.9 1.32-3.43 5.59 2.56 4.41 5.62 22.62 6.24 37.1 0.14 3.19-0.54 8.93-1.56 13.12-2.05 8.5-2.11 9.09-0.95 9.09 0.46 0 1.55-1.78 2.41-3.94zm-8.36-3.29c-2.83-8.33-3.87-20.19-2.59-29.78 0.63-4.76 1.57-9.34 2.08-10.16 0.64-1.03 0.7-0.32 0.2 2.27-1.44 7.47-0.8 26.07 1.1 32.14 0.98 3.12 2.13 6.07 2.57 6.57 1.28 1.43 0.95-0.78-0.69-4.71-1.95-4.67-3.1-17.27-2.28-25.02l0.65-6.14 0.17 7.56c0.17 7.27 1.66 15.34 3.73 20.32 1.71 4.09 1.17-0.21-0.83-6.57-1.45-4.63-1.78-7.56-1.37-12.23 0.58-6.66 1.42-8.96 1.42-3.88 0 4.13 1.96 15.36 2.58 14.74 0.57-0.57-1.28-17.76-2.72-25.29-0.84-4.38-1.41-5.41-3.15-5.75-1.95-0.37-2.25 0.18-3.66 6.77-2.48 11.53-2.77 17.82-1.29 27.49 1.24 8.02 4.25 17.53 5.24 16.54 0.21-0.21-0.31-2.4-1.16-4.87zm-8.5 1.81c-0.32-0.31-0.54 0.25-0.5 1.24 0.05 1.1 0.27 1.33 0.57 0.57 0.28-0.68 0.24-1.49-0.07-1.81zm-34.66-4.98c0.91 0 3.24-1.53 5.17-3.41 3.59-3.48 6.03-3.8 2.93-0.38-1.12 1.24-1.3 1.9-0.53 1.9 1.61 0 6.43-5.28 7.17-7.84 0.94-3.26 5.57-12 6.35-12 1.09-0.01 0.9 0.63-1.65 5.66-1.3 2.57-2.36 5.22-2.36 5.9 0 0.67-1.15 2.92-2.54 4.99-1.53 2.26-1.88 3.22-0.88 2.41 0.91-0.75 2.49-2.98 3.5-4.96 1.02-1.99 2.28-3.61 2.8-3.61 1.07 0-0.09 2.55-3.22 7.09-1.63 2.36-1.67 2.6-0.25 1.46 3.7-2.97 7.18-10.69 7.19-15.93 0.01-3.11-0.35-4.8-0.93-4.43-0.52 0.32-0.95-0.13-0.95-0.99 0-1.02 0.51-1.38 1.42-1.04 1.12 0.43 1.42-0.29 1.46-3.44 0.02-2.19 0.41-5.9 0.86-8.24s0.67-4.41 0.48-4.6c-0.66-0.66-2.9 2.25-6.09 7.91-1.76 3.12-3.77 6.02-4.46 6.44-0.7 0.42-1.03 1.16-0.73 1.64s0.08 1.41-0.48 2.07c-0.56 0.65-3.02 4.38-5.46 8.28-5.54 8.85-10.36 14.18-12.82 14.18-2.79 0-8.04-6.41-9.64-11.75-0.77-2.57-1.35-6.82-1.28-9.45l0.12-4.79 0.73 5.05c1.52 10.45 6.45 18.12 11.63 18.09 1.99-0.02 1.98-0.05-0.22-1.18-1.25-0.65-3.5-2.7-5-4.56-3.29-4.09-5.36-14.13-3.92-19.05 0.83-2.87 0.9-2.7 1.05 2.38 0.21 7.27 1.68 12.37 4.47 15.55l2.29 2.62-1.99-4.09c-3.01-6.2-2.96-19.89 0.12-29.86 2.88-9.32 3.72-7.9 1.06 1.79-2.53 9.24-2.57 19.37-0.09 24.83 2 4.41 3.46 5.59 1.75 1.42-0.58-1.43-1.11-7.28-1.16-12.99-0.09-10.13 0-10.59 3.41-17.73 1.92-4.02 3.71-7.32 3.97-7.32s-0.85 3.08-2.47 6.85c-2.25 5.24-3.05 8.69-3.38 14.65-0.24 4.29-0.07 7.8 0.39 7.8 0.45 0 0.86-1.6 0.9-3.55 0.22-9.75 0.52-12.07 1.34-10.16 0.75 1.74 0.82 1.75 0.88 0.15 0.04-0.96 0.67-3.09 1.4-4.73 0.74-1.64 1.85-4.6 2.46-6.58 1.68-5.4 1.85-3.84 0.4 3.6-1.57 8.09-1.66 10.87-0.36 10.87 0.56 0 0.76-0.4 0.46-0.88-0.78-1.26 1.32-14.08 2.94-18 1.08-2.61 1.55-3 2.24-1.89 0.49 0.77 0.66 2.25 0.39 3.29-0.37 1.43-0.14 1.31 0.93-0.47 2.1-3.48 1.81-6.1-1.04-9.49-2.25-2.67-2.94-2.95-6.25-2.51-5.47 0.74-10.01 4.94-14.59 13.49-6.1 11.4-8.08 18.71-7.62 28.05 0.39 7.78 3.5 16.86 6.62 19.32 1.86 1.48 6.74 3.02 8.15 2.57 0.69-0.22 2.01-0.4 2.93-0.4zm36.29-0.43c1.49-1.13 1.63-2.08 1.03-6.82-1.12-8.75-0.7-21.02 0.95-28.09 1.46-6.24 1.52-10.13 0.08-4.63-0.64 2.42-0.76 2.48-1.47 0.75-0.64-1.58-0.78-1.41-0.84 1.05-0.11 5.06-1.23 11.68-1.9 11.27-0.8-0.49 1.16-15.62 2.27-17.55 0.43-0.76 1.69-2.4 2.78-3.64 1.36-1.55 1.54-2.12 0.57-1.82-4.07 1.26-6.56 9.49-7.97 26.28-0.19 2.34-0.22-1.06-0.06-7.56 0.31-12.63 1.02-15.69 4.37-18.81 1.75-1.63 1.84-1.98 0.55-1.98-1.98 0-4.84 5.55-6.23 12.1-1.47 6.94-1.33 23.88 0.26 30.29 0.73 2.94 1.58 6.51 1.91 7.94 0.66 2.92 1.22 3.1 3.7 1.22zm-32.45-10.61c0-0.36-0.81-1.53-1.81-2.6-1-1.08-2.27-3.44-2.83-5.26l-1.01-3.31 0.38 4.09c0.21 2.25 1.13 4.91 2.03 5.91 1.65 1.81 3.24 2.39 3.24 1.17zm0.83-5.43c-1.22-1.27-2.4-2.12-2.62-1.9-0.56 0.56 2.84 4.19 3.93 4.19 0.49 0-0.1-1.03-1.31-2.29zm1.68-3.38c-2.23-2.64-2.88-5.09-3.77-14.17-0.18-1.82-0.39-0.68-0.48 2.53-0.15 6.15 0.88 10.06 3.37 12.82 2.6 2.87 3.39 1.8 0.88-1.18zm-5.29-3.35c-0.46-1.53-0.87-2.08-0.92-1.21-0.09 1.76 0.92 4.82 1.43 4.32 0.18-0.18-0.05-1.58-0.51-3.11zm8.45 1.77c0-0.34-0.7-1.41-1.56-2.36s-1.88-3.33-2.26-5.27c-0.59-3.08-0.7-3.19-0.79-0.85-0.12 2.94 2.44 9.12 3.78 9.12 0.46 0 0.83-0.29 0.83-0.64zm2.84-3.14c0-0.52-0.35-0.95-0.79-0.95-0.43 0-1.35-1.06-2.04-2.36-0.7-1.3-1.45-2.18-1.67-1.95-0.57 0.56 2.85 6.2 3.76 6.2 0.41 0 0.74-0.42 0.74-0.94zm6.11-9.21c3.53-5.57 6.2-10.76 5.2-10.15-0.41 0.26-0.97-0.07-1.23-0.72s-0.51-0.16-0.55 1.1c-0.11 3.21-1.23 1.71-2.6-3.51-1.46-5.52-1.49-6.12-0.33-5.4 0.51 0.31 1.32 1.93 1.81 3.6 0.58 2.01 0.9 2.38 0.96 1.1 0.04-1.06-1.43-4.83-3.28-8.38-3.72-7.13-3.83-9.71-0.15-3.24 4.76 8.34 4.62 8.15 3.91 5.51-0.36-1.3-1.66-4.38-2.9-6.85s-1.86-4.49-1.37-4.49c1.05 0 6.71 11.01 6.71 13.07 0 0.78 0.25 1.17 0.56 0.85 0.31-0.31 0.06-2.11-0.56-3.99-1.03-3.12-1.63-5.52-1.82-7.29-0.16-1.43-8.29-5.4-11.42-5.58-2.99-0.17-10.39 2.18-10.39 3.3 0 0.26 1.46 0.23 3.24-0.06 6.57-1.07 10.75 4.28 12.88 16.52 0.67 3.79 1.56 7.11 1.99 7.38 0.44 0.26 0.79 0.95 0.79 1.52 0 2.42-3.79-2.65-4.32-5.77-1.19-7.11-1.52-7.49-2.96-3.41-1.84 5.25-0.16 19.45 2.3 19.34 0.4-0.02 1.99-2.02 3.53-4.45zm-8.86-6.39l-0.93-3.78 0.36 4.73c0.51 6.87 0.72 7.84 1.14 5.2 0.2-1.3-0.05-4.07-0.57-6.15zm19.2-0.94c0.45-2.71 0.36-3.38-0.33-2.36-0.54 0.78-0.98 2.65-0.98 4.17-0.02 3.63 0.52 2.88 1.31-1.81zm-18.71-6.83c-0.32-0.32-0.54 0.24-0.5 1.24 0.04 1.1 0.27 1.32 0.57 0.57 0.27-0.68 0.24-1.5-0.07-1.81zm20.1-17.53c0.46-18.77 2.06-18.22 2.13 0.73 0.03 8.56 0.28 10.76 0.99 8.98 0.58-1.44 0.7-6.55 0.32-13.1-0.5-8.41-0.38-10.58 0.53-10.01 0.86 0.53 1 0.12 0.54-1.55-0.35-1.25-1.05-6.49-1.56-11.64-1.08-10.9-2.32-13.71-1.6-3.63 0.29 4.02 0.13 6.64-0.37 6.33-0.48-0.3-0.89-2.53-0.92-4.97s-0.45-6.56-0.94-9.16-1.51-8.76-2.27-13.7-1.78-10.47-2.27-12.29l-0.89-3.31-0.17 3.31c-0.11 2.08-0.83-0.32-1.94-6.5-0.97-5.4-1.56-10.93-1.31-12.29s0.01-3.75-0.52-5.31c-0.93-2.7-0.95-2.65-0.54 0.95 0.57 5.02-1.11 2.22-2.21-3.69-0.67-3.55-0.55-4.33 0.72-4.67 1.18-0.31 1.11-0.43-0.29-0.51-2.27-0.14-5.27 2.49-5.27 4.61 0 0.88 0.61 2.84 1.36 4.35 1.85 3.75 6.49 28.3 10.59 56.14 2.73 18.47 3.41 25.82 3.35 36.29-0.06 10.04 0.18 12.87 1.03 12.02 0.73-0.72 1.25-6.69 1.51-17.38zm2.16-18.64c0-1.3 0.21-1.83 0.47-1.18 0.27 0.64 0.27 1.71 0 2.36-0.26 0.65-0.47 0.12-0.47-1.18zm-4.16-4.26c-0.38-2.08-0.65-6.12-0.59-8.98l0.1-5.19 0.85 5.67c0.47 3.12 0.74 7.16 0.59 8.98l-0.25 3.3-0.7-3.78zm3.81 37.21c-0.24-0.71-0.67-0.28-1 0.99-0.41 1.58-0.29 1.95 0.41 1.24 0.55-0.54 0.81-1.55 0.59-2.23zm3.94-17.94c-0.48-2.98-0.67-1.37-0.66 5.78 0.01 8.68 0.09 9.2 0.67 4.14 0.36-3.17 0.36-7.64-0.01-9.92zm-15.08 0.11c-1.33-2.48-0.55-2.4 1.85 0.18 2.27 2.43 2.58 1.17 0.45-1.86-1.66-2.38-4.87-2.72-7.5-0.8-1.68 1.22-1.6 1.34 1.22 1.96 1.66 0.37 3.25 1.06 3.55 1.54 1.05 1.7 1.42 0.83 0.43-1.02zm10.02-37.55c-0.32-0.31-0.54 0.24-0.5 1.24 0.05 1.1 0.27 1.33 0.57 0.57 0.28-0.68 0.24-1.5-0.07-1.81zm-0.95-4.73c-0.31-0.31-0.53 0.25-0.49 1.24 0.04 1.11 0.27 1.33 0.57 0.58 0.27-0.69 0.24-1.5-0.08-1.82zm-0.86-6.64c-0.24-0.91-0.43 0.06-0.42 2.14 0.02 2.07 0.21 2.81 0.44 1.64 0.22-1.18 0.21-2.88-0.02-3.78zm-1.03-6.59c-0.31-0.31-0.53 0.25-0.49 1.24 0.04 1.1 0.27 1.33 0.57 0.57 0.27-0.68 0.24-1.49-0.08-1.81zm-2.43-13.6c-2.83-15.72-3.74-19.98-4.4-20.6-0.7-0.65-0.34 1.77 2.28 15.04 1.08 5.46 2.23 11.57 2.56 13.57s0.8 3.44 1.05 3.19-0.42-5.29-1.49-11.2zm-2.24 0.82c-0.26-0.65-0.47-0.11-0.47 1.19s0.21 1.83 0.47 1.18 0.26-1.72 0-2.37zm-1.15-6.8c-0.35-1.89-0.84-3.25-1.07-3.02s-0.13 1.97 0.23 3.86c0.36 1.9 0.84 3.26 1.07 3.03s0.13-1.97-0.23-3.87zm-3.26-30.49c-1.03-1.61-1.06-1.61-0.54 0.04 0.3 0.95 0.58 2.23 0.62 2.83 0.05 0.8 0.2 0.79 0.54-0.04 0.26-0.63-0.02-1.9-0.62-2.83zm0.01-5c-0.61-1.13-1.32-1.84-1.58-1.58s0.03 1.4 0.63 2.53c0.6 1.12 1.31 1.84 1.57 1.58s-0.02-1.4-0.62-2.53zm-3.67-6.87c-0.93-0.92-1.04-0.82-0.53 0.53 0.36 0.93 0.89 1.46 1.18 1.17s0-1.06-0.65-1.7zm-5.88-4.23c-0.07-3.58-0.24-4.02-0.81-2.13-0.86 2.8-1.1 2.27-3.26-7.03-0.83-3.61-1.15-6.8-0.7-7.09 0.44-0.29 0.25-2.23-0.43-4.31-1.14-3.45-1.2-3.5-0.71-0.59 0.83 4.96-1.19 2.75-2.51-2.75-0.93-3.89-1.45-4.66-2.83-4.22-1.26 0.4-1.94-0.22-2.73-2.47-1.61-4.63-1.18-5.45 0.94-1.78 1.05 1.81 1.63 2.45 1.29 1.41s-0.72-2.47-0.84-3.17c-0.25-1.5-3.26-3.41-4.08-2.59-0.3 0.3 0.56 3.43 1.92 6.94s4.24 12.41 6.41 19.78c2.76 9.34 4.31 13.25 5.15 12.93 0.66-0.26 1.48-0.01 1.83 0.55 1.14 1.85 1.46 1.04 1.36-3.48zm2.88-9.96c-0.6-2.38-0.94-8.09-0.76-12.69 0.29-7.11 0.79-9.27 3.37-14.47 1.67-3.37 4.03-7.19 5.25-8.49 2.71-2.9 5.73-8.52 7.61-14.17 0.78-2.34 2.07-5.96 2.88-8.04 0.87-2.25 1.45-6.64 1.43-10.86l-0.03-7.09-1.25 5.67c-1.74 7.86-5.88 16.14-12.21 24.4-2.95 3.86-6.2 9.29-7.22 12.08-2.62 7.18-2.23 8.05 0.63 1.4 1.32-3.08 4.06-7.33 6.09-9.45 2.02-2.12 4.64-5.67 5.82-7.88s2.47-4.01 2.87-4.01c1.26 0-3.05 7.53-7.25 12.69-6.46 7.94-8.05 12.16-9.15 24.28-0.87 9.7-0.53 19.85 0.75 21.94 0.27 0.44 0.89 0.39 1.38-0.09 0.55-0.56 0.47-2.52-0.21-5.22zm-4.5-16.65c-0.45-12.54 3.01-22.63 10.76-31.41 6.63-7.5 11.84-21.71 12.25-33.42l0.31-8.51-0.8 8.03c-0.95 9.57-4.04 15.95-12.64 26.08-5.61 6.6-11 16.29-11 19.76 0 1.26 0.63 0.63 1.89-1.89 1.03-2.08 2.95-5.06 4.26-6.61 1.74-2.09 1.32-0.84-1.6 4.67-3.86 7.3-3.98 7.82-4.38 18.15-0.35 9.2-0.04 13.56 0.98 13.56 0.15 0.01 0.13-3.78-0.03-8.41zm-5.85-1.71c-1.03-1.61-1.06-1.61-0.54 0.04 0.3 0.95 0.58 2.23 0.62 2.83 0.05 0.8 0.2 0.79 0.54-0.04 0.25-0.63-0.03-1.9-0.62-2.83zm-2.11-5.77c-0.63-1.66-1.47-3.01-1.87-3.01-1.06 0-0.93 0.67 0.75 3.92 1.88 3.64 2.62 3.05 1.12-0.91zm5.52-4.64c-0.31-0.32-0.54 0.24-0.5 1.24 0.05 1.1 0.27 1.32 0.57 0.57 0.28-0.69 0.24-1.5-0.07-1.81zm-11.61-0.4c2.44-1.29 3.45-2.64 3.43-4.59-0.01-1.14-0.25-1.09-1.27 0.24-0.69 0.91-1.64 1.65-2.12 1.65s-1.6 0.86-2.49 1.89c-1.8 2.11-0.7 2.47 2.45 0.81zm1.63-6.55c1.21-2.26 1.29-2.02-1.93-6.07-2.82-3.54-2.84-3.66-2.99-16.43l-0.15-12.87-0.69 8.51c-0.39 4.68-0.47 11.2-0.19 14.49 0.43 5.06 0.84 6.1 2.61 6.78 3.51 1.33 3.89 5.46 0.46 4.97-0.26-0.04-0.78 0.42-1.16 1.02-0.41 0.64-0.72 0.11-0.74-1.27-0.03-1.3-0.67-3.19-1.44-4.2-0.85-1.12-1.38-3.96-1.38-7.32 0-4.25-0.32-5.49-1.42-5.49-1.64 0-1.97-5.25-0.47-7.56 0.69-1.08 0.95-0.62 1.06 1.89 0.08 1.82 0.52-0.52 0.98-5.2s0.6-11.2 0.31-14.49c-0.36-4.01-0.21-5.79 0.45-5.38 0.54 0.33 1.01 2.17 1.04 4.09 0.04 1.92 0.44 4.34 0.88 5.38 0.63 1.47 0.83 1 0.88-2.1 0.06-3.74-2.75-10.89-4.77-12.15-0.5-0.3-0.82 2.23-0.75 5.92 0.14 7.7-0.58 12.2-3.11 19.36-1.89 5.34-1.89 5.37-0.03 10.39 1.37 3.71 1.74 6.49 1.4 10.47-0.55 6.46 0.95 10.87 3.88 11.33 2.37 0.37 5.97-1.64 7.27-4.07zm-15.93-14.26c-3.86-4.06-4.69-6.38-1.12-3.15 3.35 3.04 2.92 0.93-0.49-2.38-3.22-3.12-4.7-6.11-1.85-3.74 2.04 1.69 2.35 0.93 1.39-3.33-0.98-4.33-0.48-5.54 0.94-2.27 0.79 1.82 0.87 1.39 0.44-2.22-0.64-5.19 0.03-5.86 1.42-1.42 0.86 2.77 0.9 2.63 0.44-1.42-0.6-5.19 0.06-5.84 1.45-1.41 0.85 2.73 0.9 2.56 0.42-1.52-0.4-3.45-0.25-4.42 0.61-3.89 0.73 0.45 0.98 0.23 0.7-0.61-0.31-0.95-2.23-1.31-6.97-1.31h-6.54l-0.27 5.14c-0.14 2.83-0.6 5.59-1.01 6.14-1.48 2.01-3.13 8.69-2.82 11.43 0.27 2.37 1.26 3.3 6.25 5.94 3.26 1.73 6.64 4.23 7.51 5.56 1.56 2.38 1.61 2.39 2.47 0.47 0.72-1.62 0.19-2.68-2.97-6.01zm-94.945-6.67c2.695-2.61 3.402-2.88 4.959-1.91 1.577 0.98 2.095 0.73 3.949-1.92 2.79-3.98 12.407-14.98 17.897-20.46 4.91-4.9 8.01-9.3 7.15-10.16-0.32-0.32-1.2-0.06-1.97 0.58s-2.24 0.89-3.27 0.56c-1.48-0.47-2.67 0.49-5.74 4.65-3.983 5.39-6.494 7.49-2.873 2.41 1.111-1.56 1.798-2.84 1.527-2.84-1.917 0-5.221 2.52-6.608 5.04-0.909 1.65-3.395 4.91-5.524 7.25-2.951 3.24-3.305 3.47-1.488 0.94 5.599-7.78 7.368-10.76 7.368-12.41 0-2.82-1.75-2.04-3.199 1.43-0.734 1.76-1.802 3.48-2.375 3.84-1.468 0.9-1.295-0.1 0.485-2.81 1.477-2.26 1.453-2.33-0.765-2.33-1.772 0-2.711 0.91-4.152 4.02-4.111 8.86-8.557 16.33-10.968 18.42l-2.545 2.21 1.929 3.27c1.061 1.8 2.186 3.27 2.5 3.27s1.985-1.37 3.713-3.05zm3.09-15.15c0-0.26 0.638-1 1.418-1.65s1.418-0.96 1.418-0.7-0.638 1-1.418 1.64c-0.78 0.65-1.418 0.97-1.418 0.71zm-11.847 9.36c6.6-6.6 10.026-12.53 11.828-20.46 1.285-5.66 3.302-11.08 2.411-6.49-0.754 3.89 2.692 4.25 7.417 0.77 4.516-3.32 5.147-3.4 6.107-0.81 0.729 1.97 0.752 1.97 3.579-0.41 3.07-2.58 8.71-4.57 7.53-2.65-2.03 3.27 7.78-2.69 10.9-6.63 4.92-6.21 6.69-11.5 6.24-18.58-0.22-3.47-0.73-7.27-1.13-8.44-0.87-2.55 1.12-3.01 2.06-0.47 0.33 0.91 0.96 1.89 1.39 2.18 1.75 1.19 3.9 11.37 4.28 20.25 0.23 5.19 0.09 9.12-0.3 8.73s-0.61-4.58-0.49-9.32c0.19-7.46 0.02-8.54-1.25-8.05-0.82 0.31-1.5 0.05-1.54-0.59-0.03-0.63-0.41-0.3-0.84 0.74-0.42 1.04-0.6 3.16-0.38 4.72 0.27 2.04 0.16 2.35-0.39 1.1-0.69-1.56-0.9-1.46-1.97 0.94-2.18 4.88-6.02 9.76-9.25 11.75-1.75 1.08-2.94 2.35-2.66 2.81 0.29 0.47-0.13 2.79-0.93 5.15-2.04 5.99-1.78 7.08 0.89 3.81 2.56-3.14 3.63-2.76 3.63 1.29 0 3.24 1.75 3.01 3.32-0.44 1.35-2.96 2.62-2.94 3.37 0.06 0.32 1.3 1.11 2.36 1.75 2.36 2.13-0.01 7.13-3.62 7.76-5.61 0.8-2.49 3.96-2.54 4.75-0.06 0.76 2.41 3.47 2.43 5.64 0.03 2.25-2.48 8.06-5.44 12.25-6.22 3.5-0.66 7.15-4.46 7.15-7.46 0-2.85-5.8-16.6-8.2-19.47-1.32-1.56-4.62-3.89-7.35-5.18-5.71-2.7-6.88-2.91-5.24-0.92 0.65 0.78 0.88 1.41 0.52 1.41s-1.29-0.63-2.07-1.41c-1.09-1.1-1.13-1.43-0.17-1.45 0.78-0.02 0.57-0.55-0.58-1.42-2.43-1.83-0.06-1.87 3.42-0.05 2.66 1.39 3.61 1.1 3.61-1.08 0-0.72-0.43-1.05-0.95-0.73-2.01 1.24-0.81-1.19 1.63-3.31 3.04-2.64 5.88-2.78 14.91-0.7 8.59 1.97 10.27 1.17 13.28-6.33 1.24-3.08 3.33-6.53 4.65-7.67 2.6-2.23 3.17-5.59 1.09-6.39-1.74-0.67-2.8-6.778-1.57-9.081 0.79-1.468 0.61-2.11-0.83-3.124-1-0.701-1.75-2.109-1.66-3.127 0.13-1.446-0.52-1.917-2.95-2.151-2.42-0.233-3-0.653-2.61-1.89 0.97-3.07 2.16-10.514 1.74-10.927-0.6-0.602-17.42 6.923-19.54 8.746-2.2 1.879-5.56 9.349-7.09 15.711-0.62 2.6-1.84 6.213-2.71 8.033-0.88 1.82-1.6 5.63-1.62 8.47-0.02 4.55-0.39 5.53-3.13 8.27-3.51 3.51-4.2 3.71-5.91 1.65-0.91-1.1-0.94-1.72-0.11-2.55s1.09-0.71 1.09 0.51c0 0.88 0.47 1.61 1.03 1.61 1.6 0 4.58-4.04 4.55-6.15-0.03-1.75-0.11-1.73-1.06 0.24-0.57 1.17-1.6 2.13-2.3 2.13-2.29 0-1.34-3.42 2.26-8.14 3.17-4.15 3.57-5.3 3.87-11.238 0.34-6.552 0.31-6.648-3.03-9.688-3.87-3.515-5.78-3.847-7.17-1.244-2.25 4.192-8.71 3.161-11.57-1.846-2.33-4.07-3.19-3.486-3.19 2.173 0 5.867-2.23 9.543-6.54 10.791-2.35 0.678-2.89 1.384-3.15 4.092-0.27 2.81 0.19 3.7 3.28 6.29 4.38 3.68 3.86 4.71-1.15 2.27-2.03-0.98-4.02-1.6-4.41-1.36-1.49 0.93-4.52 1.14-3.99 0.29 0.3-0.5 1.22-0.9 2.04-0.9 2.29 0-5.429-4.91-8.989-5.73-2.677-0.61-3.241-0.42-3.871 1.28-0.405 1.1-0.601 3.16-0.435 4.58 0.166 1.43-0.305 4.05-1.046 5.82-1.642 3.93-9.496 11.86-12.491 12.61-2.182 0.55-3.065 2.23-1.17 2.23 0.554 0 2.464 1.11 4.243 2.47 3.926 3 7.464 2.56 8.366-1.04 0.787-3.13 2.248-3.02 2.623 0.19l0.299 2.57 2.605-2.61c2.574-2.59 6.926-10.08 5.858-10.08-0.304 0-1.376 0.44-2.382 0.98-1.005 0.53-1.828 0.76-1.828 0.49 0-0.26 1.276-1.14 2.835-1.94 1.56-0.81 2.833-1.18 2.833-0.83 0 0.36 0.75-0.02 1.66-0.84s2.82-1.79 4.26-2.15c1.43-0.35 2.84-1.03 3.13-1.49 0.78-1.26-0.5-1.03-6.09 1.09-2.79 1.06-5.559 1.77-6.145 1.57-0.586-0.19 0.636-0.9 2.715-1.57 2.08-0.66 4.21-1.62 4.73-2.12 1.4-1.35-8.212 0.18-9.928 1.58-0.78 0.64-2.055 1.52-2.835 1.96-1.26 0.71-1.26 0.6 0-0.95 4.515-5.56 19.813-5.62 23.793-0.1 0.37 0.52 1.3 0.33 2.25-0.45 1.5-1.24 1.46-1.38-0.57-1.86-3.59-0.84-3.48-2.91 0.12-2.19 2.19 0.43 2.86 0.3 2.38-0.49-0.37-0.6-1.22-1.09-1.89-1.09s-2.03-0.9-3.02-2c-1.37-1.52-0.55-1.27 3.4 1.06 2.86 1.67 5.54 3.53 5.97 4.12 0.46 0.64 0.57 0.3 0.29-0.82-1.74-6.87-2.36-10.05-2.88-14.645-0.41-3.635-0.3-4.772 0.36-3.78 0.53 0.78 0.96 2.184 0.97 3.121s0.72 4.764 1.57 8.504l1.56 6.8 1.21-3.3c0.66-1.82 1.24-5.23 1.29-7.56 0.05-2.343 0.54-4.895 1.09-5.675 1.5-2.106 0.36 9.895-1.41 14.885-0.79 2.21-1.25 4.02-1.03 4.02 0.21 0 1.47-1.59 2.79-3.53s2.4-3.07 2.4-2.5c0 0.56-1.28 2.78-2.84 4.93s-2.83 4.75-2.83 5.76c0 1.64-0.33 1.55-3-0.89-2.52-2.31-3.29-2.56-4.96-1.66-1.86 1-1.81 1.1 1.1 1.86 1.69 0.45 3.08 0.92 3.08 1.06s-2.66 0.23-5.91 0.21-7.18 0.3-8.74 0.73c-1.88 0.51-2.52 0.46-1.89-0.16 0.52-0.52 2.43-1.36 4.25-1.87 2.48-0.7 2.76-0.96 1.13-1.02-4.65-0.18-10.42 3.53-14.111 9.08-3.522 5.29-10.742 11.47-13.483 11.53-0.78 0.02 0.213-0.97 2.207-2.19 1.993-1.23 3.213-2.48 2.71-2.79-0.503-0.32-1.921 0.21-3.152 1.17-2.827 2.19-4.501 1.62-9.715-3.3-1.507-1.42-7.844-0.97-17.455 1.25-6.337 1.47-8.29 2.34-9.767 4.37-1.833 2.51-4.288 3.61-3.033 1.35 0.361-0.65-0.491-0.08-1.894 1.26-2.043 1.96-2.611 3.47-2.852 7.56-0.165 2.82-0.609 5.86-0.986 6.77-0.984 2.38 0.43 2.04 3.405-0.81 2.733-2.62 4.618-2.37 4.618 0.6 0 1.22 0.462 1.63 1.417 1.26 1.878-0.72 1.828 1.49-0.096 4.24-0.833 1.19-1.258 2.42-0.945 2.73s0.569 0.16 0.569-0.34c0-1.45 9.641-8.4 11.276-8.13 0.926 0.15 2.47-1.52 4.113-4.45 4.032-7.2 7.273-9.06 15.563-8.92 3.769 0.06 6.852-0.26 6.852-0.71s0.441-0.82 0.979-0.82c0.662 0 0.673 0.57 0.033 1.76-1.926 3.6 0.062 2.43 6.363-3.73 6.994-6.84 13.954-11.11 15.534-9.53 0.62 0.62 1.93 0.33 3.9-0.87 1.63-0.99 3.99-1.81 5.25-1.81 2.44 0 2 1.16-0.59 1.54-2.97 0.44-7.72 3.56-8.96 5.89-0.79 1.49-1.21 5.48-1.15 10.92 0.05 5.11-0.2 7.63-0.62 6.22-0.39-1.3-0.75-4.91-0.82-8.03l-0.11-5.67-1.99 4.25c-1.09 2.34-2.99 7.02-4.21 10.4-1.359 3.74-2.225 5.22-2.222 3.78 0.003-1.3 1.263-5.31 2.802-8.92 1.54-3.6 2.66-6.69 2.49-6.85-0.17-0.17-1.44 1.28-2.82 3.23-1.385 1.94-2.517 3.07-2.517 2.51 0-1.31 5.447-8.88 6.387-8.88 0.38 0 1.89-1.48 3.34-3.3 2.47-3.1 2.52-3.31 0.71-3.31-1.06 0-1.93 0.61-1.93 1.35s-1.43 2.55-3.17 4.01c-1.74 1.47-3.92 3.84-4.836 5.27-0.915 1.43-2.069 2.6-2.565 2.6-1.286 0 2.783-5.59 6.741-9.25l3.36-3.12-4.86 3.37c-6.438 4.45-12.551 11.75-16.657 19.87-1.839 3.64-4.449 7.89-5.8 9.45-1.35 1.56-2.456 3.14-2.457 3.5-0.001 0.9-12.315 12.99-14.334 14.07-2.418 1.29-3.46 0.97-1.14-0.36 2.274-1.29 10.939-11.19 10.332-11.8-0.217-0.21-1.742 1.03-3.389 2.77l-2.994 3.16 1.999-3c2.024-3.05 1.482-4.57-1.255-3.52-1.243 0.48-1.407 0.04-0.959-2.59l0.54-3.17-5.462 5.67c-6.292 6.53-5.902 5.28 0.785-2.53 5.676-6.62 4.41-8.24-2.132-2.72-2.558 2.16-4.407 3.37-4.108 2.69 0.298-0.67 2.601-2.93 5.118-5.01 2.516-2.07 4.606-4.18 4.643-4.67 0.038-0.5-0.442-0.39-1.065 0.23-0.624 0.63-1.876 1.14-2.783 1.14-2.962 0-8.172 5.89-10.3 11.64-2.364 6.39-3.315 6.76-1.451 0.57l1.274-4.23-2.372 0.1c-1.46 0.07-2.859 0.98-3.639 2.39-0.696 1.26-1.281 1.79-1.299 1.18-0.019-0.61 1.411-3.01 3.178-5.32 3.205-4.2 3.207-4.21 0.92-4.21-1.32 0-3.081 1.01-4.156 2.38-1.026 1.3-1.866 1.93-1.866 1.4 0-0.54 1.276-2.34 2.835-4.01 3.584-3.84 3.737-5.95 0.185-2.54-1.458 1.39-3.006 2.54-3.44 2.54-1.003 0-2.962 2.5-4.803 6.14-0.789 1.56-2.318 3.9-3.398 5.2-1.819 2.19-1.81 2.1 0.129-1.23 1.151-1.98 1.87-3.82 1.598-4.09-0.545-0.55-8.203 4.28-8.269 5.21-0.023 0.32-0.389 2.38-0.813 4.57-0.897 4.64-0.339 5.76 1.532 3.09 0.726-1.03 1.938-1.88 2.695-1.88 1.083 0 1.247 0.85 0.771 4.02-0.5 3.31-0.386 3.81 0.65 2.83 1.683-1.58 3.091-1.5 2.459 0.15-0.28 0.73 0.253 2.02 1.185 2.86 1.701 1.54 3.625 1.21 7.629-1.29 1.701-1.07 7.679-3.85 8.27-3.85 0.577 0-0.31 8.52-1.15 11.03-0.638 1.91-0.476 2 2.478 1.29 1.739-0.42 3.974-1.09 4.967-1.5 1.52-0.62 1.721-0.41 1.27 1.31-0.362 1.39-0.105 2.05 0.793 2.05 0.731 0 1.329 0.85 1.329 1.89 0 3.34 2.77 2.06 8.945-4.11zm1.451-11.84c0-0.52 0.426-1.21 0.945-1.53 0.52-0.32 0.946-0.16 0.946 0.36s-0.426 1.21-0.946 1.53c-0.519 0.32-0.945 0.16-0.945-0.36zm5.21-4.82c-0.662-1.07 1.295-5.17 2.09-4.38 0.292 0.29 0.008 1.16-0.631 1.93-0.638 0.77-0.886 1.85-0.551 2.39s0.397 0.98 0.137 0.98-0.73-0.41-1.045-0.92zm-13.716-4.04c0-0.26 0.638-1 1.418-1.65s1.418-0.97 1.418-0.71-0.638 1.01-1.418 1.65c-0.78 0.65-1.418 0.97-1.418 0.71zm62.457-15.83c0.03-0.78 0.42-2.27 0.87-3.31 0.81-1.89 0.81-1.89 0.86 0 0.03 1.04-0.36 2.53-0.86 3.31-0.82 1.26-0.91 1.26-0.87 0zm27.5-3.97c-2.73-4.41-6.67-7.9-10.88-9.63-1.99-0.81-3.45-1.17-3.25-0.79 6.2 11.94 4.41 11.56-2.59-0.55-7.43-12.85-9.12-17.63-2.94-8.32 2.69 4.05 4.59 5.72 8.72 7.67 2.9 1.38 5.55 2.22 5.89 1.87 0.68-0.69-6.37-7.03-7.83-7.06-1.27-0.02-9.03-8.38-9.03-9.72 0-0.62 1.31 0.47 2.91 2.41 1.59 1.94 4.7 4.58 6.91 5.87 4.84 2.84 8.36 6.43 8.01 8.18-0.14 0.7 1.36 3.76 3.32 6.8 1.97 3.03 3.38 5.71 3.14 5.95-0.25 0.25-1.31-0.96-2.38-2.68zm-17.6-2.22c-0.36-1.9-0.46-3.64-0.23-3.87s0.71 1.13 1.07 3.03c0.35 1.89 0.45 3.63 0.22 3.86-0.23 0.24-0.71-1.13-1.06-3.02zm-42.113-1.37c0.556-1.04 1.224-1.89 1.484-1.89s0.017 0.85-0.539 1.89-1.224 1.89-1.484 1.89-0.018-0.85 0.539-1.89zm-32.108-3.47c1.285-0.88 3.905-2.98 5.822-4.67 1.917-1.7 5.185-3.6 7.262-4.22 3.237-0.97 3.997-0.91 5.324 0.42 0.852 0.85 1.128 1.54 0.613 1.54-0.514 0-1.714 0.26-2.666 0.57-1.406 0.45-1.47 0.37-0.341-0.42 2.173-1.54 0.721-2.07-2.909-1.07-1.816 0.5-5.548 2.83-8.294 5.17-2.745 2.34-5.476 4.26-6.069 4.26s-0.027-0.71 1.258-1.58zm51.011-4.91c0-1.98 4.8-10.35 6.26-10.91 1.74-0.67 1.67 1.04-0.09 2.02-0.77 0.43-2.46 2.89-3.78 5.48-1.31 2.59-2.38 4.12-2.39 3.41zm-46.311-3.41c0-0.84 5.568-3.33 7.277-3.26 1.002 0.04 0.467 0.53-1.303 1.18-1.652 0.61-3.317 1.43-3.701 1.82-0.776 0.79-2.273 0.96-2.273 0.26zm30.243-2.2c0-0.46 1.09-1.32 2.423-1.93 1.384-0.63 2.172-0.7 1.838-0.16-0.858 1.39-4.261 3.06-4.261 2.09zm8.978-7.76c3.45-2.3 8.36-3.75 12.68-3.76 4.47-0.01 3.35 0.68-2.17 1.33-2.53 0.3-5.98 1.39-7.66 2.44-4 2.47-6.55 2.46-2.85-0.01zm36.91-2.6c0.49-0.4 2.12-1.78 3.62-3.07 2.62-2.26 2.69-2.27 1.63-0.25-0.6 1.16-1.9 2.54-2.9 3.08-2.11 1.13-3.65 1.29-2.35 0.24zm0.87-4.31c0.82-1.24 1.22-3.07 0.9-4.05-0.48-1.47-0.4-1.53 0.44-0.37 0.6 0.84 1.02 0.97 1.03 0.32 0.01-0.61 0.27-1.89 0.58-2.84 0.48-1.47 0.39-1.52-0.54-0.31-0.92 1.19-1.01 1.11-0.61-0.48 0.27-1.04 1.18-4.65 2.03-8.03 0.85-3.378 1.99-6.568 2.55-7.087 0.7-0.655 0.84-0.456 0.45 0.649-0.52 1.488-2.08 7.298-3.12 11.638-0.25 1.04 0.99-1.09 2.76-4.73 3.03-6.247 9.23-13.701 11.4-13.701 0.54 0-0.97 2.021-3.37 4.49-4.1 4.237-6.3 7.651-8.29 12.901-0.7 1.84-0.09 1.52 3.18-1.66 3.97-3.86 13.22-9.115 16.04-9.115 2.74 0 2.38 1.605-0.37 1.684-6.22 0.177-15.45 7.251-19.62 15.041-1.62 3.02-3.84 6.03-4.93 6.7-1.94 1.19-1.95 1.16-0.51-1.05zm-11.79-0.58c0-0.49 0.43-1.15 0.95-1.48 0.52-0.32 0.94 0.08 0.94 0.89s-0.42 1.48-0.94 1.48-0.95-0.4-0.95-0.89zm18.49-3.17c0.36-0.93 0.88-1.46 1.18-1.17 0.29 0.3 0 1.06-0.65 1.7-0.93 0.93-1.04 0.82-0.53-0.53zm9.86-1.98c0-0.19 1.07-0.56 2.37-0.81s2.36-0.08 2.36 0.36c0 0.45-1.06 0.82-2.36 0.82s-2.37-0.17-2.37-0.37zm-5.67-2.71c0-0.26 0.64-1 1.42-1.65s1.42-0.96 1.42-0.7-0.64 1-1.42 1.65c-0.78 0.64-1.42 0.96-1.42 0.7zm-33.21-3.3c-0.75-0.91-1.98-2.51-2.73-3.55-1.35-1.88-1.35-1.88 0.84-0.01 2.04 1.74 4.45 5.21 3.62 5.21-0.2 0-0.97-0.74-1.73-1.65zm13.31-2.6c1.61-5.351 1.8-5.669 1.87-3.25 0.04 1.33-0.56 3.24-1.33 4.25-1.3 1.7-1.34 1.63-0.54-1zm-7.43-0.87c-0.04-0.99 0.18-1.55 0.5-1.24 0.31 0.32 0.34 1.13 0.07 1.81-0.3 0.76-0.52 0.53-0.57-0.57zm29.7-6.22c0.94-1.039 1.92-1.89 2.18-1.89s-0.3 0.851-1.24 1.89c-0.94 1.04-1.92 1.89-2.18 1.89s0.3-0.85 1.24-1.89zm-51.94 96.75c4.09-1.64 7.08-3.58 8.76-5.67 3.29-4.13 4.9-4.09 4.9 0.12 0 1.82 0.33 3.31 0.73 3.31 2.21 0 10.53-7.99 10.58-10.16 0.02-0.65 0.46-1.18 0.98-1.18s0.94-0.58 0.94-1.29c0-0.7 1.06-2.85 2.36-4.76l2.36-3.48-4.1 2.4c-5.24 3.08-8.85 3.18-9.39 0.28-0.34-1.86-0.49-1.74-1.11 0.88-0.4 1.65-1.84 3.99-3.21 5.19-2.01 1.77-2.17 1.82-0.84 0.23 2.1-2.51 2.07-3.23-0.12-3.23-0.98 0-2.78 1.48-4.02 3.3s-2.54 3.31-2.89 3.31c-0.36 0 0.81-2.16 2.6-4.82 4.35-6.47 4.14-8.93-0.27-3.11-4.06 5.36-5.56 6.99-6.43 6.99-0.34 0 0.48-1.31 1.82-2.91 1.35-1.6 2.45-3.3 2.45-3.78 0-1.93-1.92-0.63-5.67 3.85-2.18 2.6-4.396 4.73-4.931 4.73-0.544 0-0.401-0.73 0.324-1.65 1.166-1.49 1.136-1.53-0.304-0.4-1.266 0.99-1.396 1.7-0.62 3.4 0.767 1.68 0.549 3.05-0.998 6.25-1.088 2.25-1.979 4.23-1.979 4.39 0 0.74 2.34 0.11 8.078-2.19zm54.71-1.19c0.28-0.46-0.33-1.06-1.37-1.33-1.03-0.27-1.88-0.97-1.88-1.55 0-0.79 0.52-0.8 1.98-0.02 1.08 0.58 2.25 0.75 2.59 0.38 0.35-0.37 0.1-0.87-0.55-1.1s-1.18-0.8-1.18-1.26 0.58-0.61 1.29-0.34c1.55 0.59 2.93-2.38 1.69-3.62-0.96-0.96-11.49 1.15-11.49 2.3 0 0.39 1.32 2.2 2.94 4.04 2.88 3.29 4.96 4.15 5.98 2.5zm-64.206-2.94c0.322-0.52-0.053-0.94-0.833-0.94s-1.681 0.42-2.002 0.94 0.054 0.95 0.834 0.95c0.779 0 1.68-0.43 2.001-0.95zm64.606-17.02c-2.57-4.15-4.7-6.61-5.75-6.61-1.9 0-2.12 1.19-0.7 3.85 0.54 1 0.77 1.82 0.5 1.82-0.26 0-1.11-1.17-1.88-2.6-0.82-1.51-1.43-1.98-1.45-1.13-0.02 0.81 1.54 2.94 3.47 4.73 1.92 1.79 2.93 2.51 2.24 1.6s-0.92-1.65-0.5-1.65c1.04 0 4.2 2.95 4.2 3.93 0 0.44 0.75 1.56 1.66 2.49 3.12 3.2 2.28 0.17-1.79-6.43zm-4.33-2.12c-1.42-1.83-2.31-3.54-1.84-3.54 0.23 0 1.11 1.06 1.96 2.36 1.6 2.43 1.51 3.29-0.12 1.18zm-51.52 7.8c0.65-1.04 1.03-1.89 0.85-1.89s-1.1 0.85-2.04 1.89c-0.95 1.04-1.326 1.89-0.85 1.89 0.47 0 1.39-0.85 2.04-1.89zm43.26-1.85c-3.65-3.74-6.88-4.41-3.64-0.75 1.31 1.48 1.38 1.83 0.3 1.5-0.78-0.24-1.84-1.37-2.35-2.51-1.11-2.45-2.58-2.8-1.73-0.41 1.06 2.99 2.49 4.15 4.48 3.66 1.08-0.26 2.79 0.14 3.79 0.89 3.24 2.4 2.91 1.46-0.85-2.38zm6.58 1.61c-1.56-1.14-3.97-3.26-5.36-4.72s-2.78-2.25-3.08-1.76c-0.52 0.84 4.42 5.22 8.44 7.49 3.06 1.72 3.06 1.22 0-1.01zm-1.53-4.49c-2.93-3.64-4.61-4.71-4.61-2.92 0 0.71 6.47 6.57 7.37 6.67 0.15 0.02-1.09-1.67-2.76-3.75zm11.9-3.07c-0.83-3.31-3.92-6.44-5.68-5.76-1.28 0.49-1.26 0.85 0.16 3.04 0.88 1.37 2.24 3.46 3.01 4.66 1.73 2.68 3.35 1.42 2.51-1.94zm-4.09-2.36c-1.03-2.41-1.01-2.47 0.32-0.76 0.79 1 1.43 2.17 1.43 2.59 0 1.44-0.64 0.77-1.75-1.83zm17.68 2.36c-0.07-1.17 0.21-3.36 0.62-4.86 0.53-1.97 0.44-2.56-0.34-2.07-0.6 0.36-1.08 1.18-1.08 1.8s-1.07 2.28-2.37 3.68c-3.01 3.25-2.97 3.58 0.47 3.58 2.33 0 2.8-0.37 2.7-2.13zm-10.87-0.27c-0.31-0.81-0.77-1.26-1.01-1.01-0.25 0.25-0.17 0.9 0.17 1.46 0.93 1.5 1.48 1.21 0.84-0.45zm0.62-5.63c-1.17-3.52-1.57-3.79-3.74-2.41-1.18 0.74-1.19 1.21-0.08 3.29 0.71 1.33 1.47 2.24 1.69 2.03 0.21-0.21-0.11-1.33-0.73-2.48-0.61-1.14-0.7-1.83-0.2-1.51 0.51 0.31 1.48 1.92 2.17 3.58 1.61 3.88 2.33 1.86 0.89-2.5zm6.24-0.22c-0.32-0.32-0.54 0.24-0.5 1.24 0.05 1.1 0.27 1.32 0.57 0.57 0.27-0.68 0.24-1.5-0.07-1.81zm-95.019-2.1c1.955-2.06 5.242-6.96 7.305-10.9 3.727-7.11 3.738-7.16 1.734-8.24-1.109-0.59-4.513-1.15-7.564-1.23-4.87-0.14-5.902 0.17-8.446 2.49-3.888 3.55-4.131 4.81-3.258 16.89 0.422 5.82 5.189 6.29 10.229 0.99zm2.38-13.46c2.009-2.82 5.726-5.19 6.666-4.25 0.336 0.33-0.195 0.89-1.18 1.24-0.984 0.35-3.027 1.74-4.541 3.09l-2.753 2.46 1.808-2.54zm-3.563-4.07c1.544-1.3 3.171-2.36 3.616-2.36 1.009 0.01-4.571 4.64-5.643 4.69-0.43 0.02 0.482-1.03 2.027-2.33zm93.332 17.72c-1.6-6.85-7.54-19.07-8.7-17.91-0.21 0.21 0.9 2.97 2.46 6.13 1.64 3.3 2.62 6.48 2.3 7.46-0.48 1.47-0.39 1.51 0.56 0.3 0.93-1.18 1.04-1.06 0.65 0.71-0.26 1.17-0.1 1.9 0.36 1.62s1.1 0.57 1.43 1.89 0.82 2.4 1.08 2.4 0.2-1.17-0.14-2.6zm5.13-5.32c0-1.02-3-7.35-3.33-7.02-0.64 0.63 1.69 7.38 2.54 7.38 0.44 0 0.79-0.16 0.79-0.36zm-6.54-9.9c-1.32-2.47-1.39-5-0.07-2.97 0.55 0.85 0.92 0.96 0.93 0.29 0.02-1.88-1.64-2.29-3.15-0.78-0.78 0.78-1.59 1.1-1.8 0.71-0.22-0.38-0.31-0.27-0.2 0.25s0.69 0.83 1.28 0.7c0.6-0.13 1.51 0.88 2.04 2.26 0.52 1.37 1.18 2.26 1.47 1.98 0.29-0.29 0.06-1.39-0.5-2.44zm0.15-8.62c3.35-2.63 6.06-8.51 4.4-9.54-0.98-0.6-0.85-1.2 0.61-2.86l1.85-2.08-2.65 0.64c-2.71 0.66-14.54-1.75-16.2-3.3-1.81-1.69-6.11-0.9-7.62 1.4-1.2 1.84-1.27 2.7-0.34 4.73 0.93 2.04 1.81 2.5 4.99 2.62 2.94 0.11 3.23 0.24 1.21 0.54-2.18 0.33-2.46 0.64-1.54 1.75 0.62 0.74 2.45 1.41 4.08 1.48 2.24 0.1 2.44 0.23 0.81 0.54-3.18 0.61-1.56 2.16 2.25 2.16 1.99 0 3.08 0.39 2.72 0.96-0.32 0.52-1.6 0.77-2.83 0.54-1.65-0.3-2.11-0.05-1.73 0.94 0.78 2.03 7.18 1.69 9.99-0.52zm-16.04-11.94c0.32-0.31 1.13-0.34 1.82-0.07 0.75 0.3 0.53 0.52-0.57 0.57-1 0.04-1.56-0.18-1.25-0.5zm26.37 9.76c1.72-0.01 2.69-0.61 3.02-1.89 0.36-1.36 0.95-1.69 2.2-1.2 4.92 1.95 7.73 1.67 12.88-1.27 7.31-4.19 7.67-5.97 1.83-8.97-3.01-1.54-4.23-4.2-1.9-4.11 5.54 0.21 5.95-1.41 0.75-2.96-2.56-0.77-3.58-1.54-3.23-2.45 0.94-2.45-2.92-0.53-4.87 2.42-1.36 2.07-3.31 3.25-7.29 4.43-5.25 1.56-7.65 3.31-3.31 2.42 1.91-0.4 1.87-0.29-0.36 1-1.37 0.8-2.76 2.16-3.1 3.03-0.51 1.34-0.38 1.39 0.89 0.34 0.82-0.68 3.27-1.54 5.45-1.9 2.19-0.37 5.56-1.36 7.51-2.22 1.95-0.85 3.55-1.37 3.55-1.16 0 1.12-8.74 5.3-11.06 5.3-2.84 0-6.9 2.29-6.9 3.89 0 0.52 0.53 0.64 1.18 0.26s0.01 0.5-1.42 1.96c-3.17 3.24-3.36 4.76-0.47 3.8 1.17-0.39 3.27-0.71 4.65-0.72zm1.73-6.44c0-0.47 0.85-0.86 1.89-0.86s1.89 0.17 1.89 0.37-0.85 0.58-1.89 0.85-1.89 0.11-1.89-0.36zm6.87-1.43c0.32-0.31 1.13-0.34 1.82-0.07 0.75 0.3 0.53 0.52-0.58 0.57-0.99 0.04-1.55-0.18-1.24-0.5zm-5.92-6.21c0-0.43 1.27-0.78 2.83-0.78s2.84 0.17 2.84 0.37-1.28 0.55-2.84 0.78-2.83 0.06-2.83-0.37zm-116.25 6.78c0.707-1.32 1.979-1.89 4.23-1.89 1.77 0 3.447-0.36 3.725-0.81s-0.76-0.68-2.307-0.5-2.813-0.09-2.813-0.59c0-0.51 1.191-0.93 2.646-0.93 3.04 0 4.915-1.52 4.915-3.97 0-2.11-3.361-2.55-9.924-1.3-2.054 0.39-2.444 0.28-1.417-0.39 0.779-0.51 2.48-0.97 3.78-1.02s1.869-0.29 1.265-0.54c-0.603-0.24-3.877-0.07-7.276 0.38-8.009 1.08-7.251-0.15 1.037-1.68 7.047-1.3 10.582-2.68 7.337-2.88-1.04-0.06-4.017-0.1-6.616-0.09l-4.726 0.03 4.034-0.95 4.033-0.94-2.881-4.01c-2.428-3.38-3.441-4.05-6.451-4.22-4.426-0.26-10.894 2.26-9.97 3.89 0.36 0.63 1.245 1.84 1.967 2.68 1.169 1.37 0.715 1.85-4.121 4.37-2.988 1.56-5.587 3.3-5.774 3.86-0.199 0.6 1.672 1.29 4.47 1.66 2.647 0.35 5.067 1.05 5.379 1.56 0.311 0.5-1.081 2.35-3.093 4.11l-3.659 3.19 3.308 0.1c1.819 0.05 5.221 0.64 7.56 1.31 6.641 1.9 10.167 1.77 11.342-0.43zm-7.305-5.29c0.314-0.32 1.129-0.35 1.811-0.08 0.754 0.3 0.53 0.53-0.571 0.57-0.996 0.04-1.554-0.18-1.24-0.49zm4.942-1.16c2.67-1.19 11.814-1.94 11.814-0.97 0 0.45-2.02 0.81-4.49 0.82-2.469 0.01-5.552 0.23-6.852 0.5-1.996 0.41-2.069 0.36-0.472-0.35zm-3.308-13.39c0-0.52 0.957-0.94 2.127-0.93 1.719 0.01 1.855 0.19 0.708 0.93-1.832 1.18-2.835 1.18-2.835 0zm-0.945-2.31c0-0.23 0.425-0.68 0.945-1s0.945-0.13 0.945 0.42-0.425 1-0.945 1-0.945-0.19-0.945-0.42zm23.157 14.53c1.039-1.18 1.291-1.8 0.561-1.37-0.896 0.53-1.108 0.43-0.653-0.31 0.371-0.6 1.245-1.09 1.943-1.09 1.869 0 5.379-6.51 5.049-9.35-0.246-2.12-0.74-2.47-3.509-2.47s-3.53 0.54-5.394 3.78c-1.193 2.08-2.203 5.06-2.244 6.62s-0.683 3.9-1.426 5.2c-0.742 1.3-1.365 2.69-1.384 3.09-0.054 1.18 4.996-1.76 7.057-4.1zm2.361-9.75c0-0.2 0.851-0.59 1.891-0.86 1.041-0.27 1.654-0.11 1.362 0.37-0.508 0.82-3.253 1.24-3.253 0.49zm-45.232 7.68c-1.722-1.72 0.124-4.28 4.605-6.38 4.562-2.14 4.577-2.16 3.048-4.49-1.409-2.15-1.972-2.3-6.788-1.85-3.229 0.31-4.523 0.19-3.361-0.29 1.039-0.44 3.485-0.82 5.434-0.86 1.95-0.03 3.544-0.49 3.544-1.01s0.957-0.95 2.127-0.96c1.719-0.01 1.855-0.19 0.709-0.93-2.302-1.49-16.247-1.11-18.374 0.5-1.009 0.77-2.285 1.38-2.836 1.38-0.55-0.01 0.441-0.94 2.203-2.07 2.432-1.56 5.112-2.15 11.123-2.47 6.97-0.363 7.718-0.571 6.247-1.726-1.5-1.179-1.381-1.249 1.164-0.693 1.56 0.341 4.043 1.229 5.52 1.973 1.476 0.746 3.284 1.126 4.017 0.846 1.778-0.686 1.71-3.41-0.086-3.41-0.779 0-1.417-0.412-1.417-0.915 0-0.504 0.638-0.671 1.417-0.372 2.151 0.826 1.695-1.476-0.709-3.576-2.114-1.848-2.114-1.853-0.062-0.861 2.801 1.355 3.134 1.275 3.134-0.745 0-0.959-0.851-2.514-1.89-3.454-3.373-3.053-1.999-3.473 2.126-0.651 5.704 3.901 10.16 6.063 10.16 4.928 0-0.533-0.613-0.969-1.362-0.969s-1.653-0.471-2.008-1.047c-0.441-0.713 0.068-0.84 1.598-0.399 1.721 0.496 1.524 0.19-0.846-1.314-1.7-1.079-3.57-3.013-4.155-4.297s-1.379-2.141-1.764-1.903-1.28-0.28-1.988-1.151c-1.12-1.378-1.081-1.507 0.305-0.988 1.466 0.549 1.485 0.29 0.236-3.25-0.746-2.115-1.335-4.75-1.308-5.854s1.031 0.635 2.231 3.864c2.977 8.013 4.502 10.085 9.09 12.355l3.936 1.948-0.34-3.571c-0.311-3.26-0.134-3.576 2.037-3.637 1.939-0.055 2.726 0.724 4.265 4.22 1.766 4.013 8.12 9.749 10.8 9.749 0.556 0 1.011 0.386 1.011 0.857s-0.851 0.634-1.891 0.362c-1.039-0.272-1.89-0.87-1.89-1.329s-0.425-0.835-0.945-0.835-0.944 0.319-0.943 0.709c0.003 0.858 8.985 5.506 12.284 6.356l2.363 0.61-2.363-1.92c-1.299-1.065-2.87-1.942-3.49-1.954-0.621-0.011-1.882-1.297-2.803-2.856s-1.902-2.837-2.18-2.84-1.781-1.085-3.34-2.406l-2.836-2.402 2.854 1.373 2.854 1.373 0.096-3.692c0.054-2.031-0.239-3.692-0.651-3.692-1.154 0-11.296-9.517-11.296-10.6 0-0.527 2.78 1.642 6.178 4.821 3.398 3.178 6.561 5.779 7.029 5.779s0.62 1.422 0.338 3.161c-0.549 3.383 1.212 7.811 4.031 10.139 1.253 1.034 1.726 1.075 2.029 0.175 0.291-0.866 0.882-0.913 2.252-0.18 1.022 0.547 3.218 0.849 4.888 0.67l3.03-0.324-3.97-1.172c-4.452-1.318-10.697-7.75-10.662-10.986 0.017-1.512 0.373-1.244 1.568 1.182 2.011 4.08 6.544 7.464 10.694 7.992 1.82 0.231 2.66 0.249 1.86 0.04s-2.71-1.443-4.25-2.743l-2.805-2.364 3.975 1.931c2.19 1.061 4.45 1.93 5.02 1.93 2.15 0-2.47-5.783-5.88-7.352-1.95-0.895-3.55-2.11-3.563-2.701s-1.95-1.363-4.302-1.715c-4.82-0.723-11.818-6.432-11.751-9.587 0.031-1.476 0.279-1.357 1.376 0.663 0.737 1.355 2.48 3.211 3.874 4.124l2.534 1.661-0.688-2.707c-0.378-1.488-0.77-4.407-0.87-6.487-0.426-8.813-2.629-13.639-8.044-17.621l-3.879-2.853-1.038 2.676c-0.571 1.472-1.237 3.73-1.481 5.018-0.596 3.147-1.047 3.453-3.151 2.139-1.626-1.015-1.819-0.793-2.084 2.398-0.228 2.756 0.399 4.499 2.898 8.047 1.754 2.491 2.877 4.831 2.495 5.198-0.381 0.368-1.391-0.393-2.244-1.692-3.871-5.895-9.802-8.665-11.132-5.2-0.694 1.808-2.232 1.846-2.232 0.056 0-1.837 1.422-2.592 5.075-2.696 3.592-0.102 4.366-2.706 1.734-5.839-1.602-1.907-1.6-1.907 0.516-0.117l2.126 1.801v-3.454c0-1.9 0.425-3.455 0.945-3.455s0.959-0.744 0.977-1.654c0.026-1.387 0.331-1.294 1.89 0.578 1.365 1.638 1.859 1.838 1.859 0.753 0-3.003 2.178-6.385 3.712-5.766 0.817 0.33 2.067 0.836 2.777 1.125 2.941 1.196-0.996-3.595-4.394-5.347-1.932-0.996-4.503-2.745-5.712-3.888-2.862-2.703-7.985-3.04-8.493-0.56-0.226 1.108 0.652 2.611 2.329 3.983 2.142 1.752 2.348 2.209 1.008 2.236-0.926 0.019-3.234-0.613-5.129-1.405-4.038-1.687-5.718-0.722-4.077 2.343 0.822 1.537 0.828 2.378 0.022 3.349-0.838 1.01-0.329 2.408 2.297 6.307 1.855 2.755 3.373 5.27 3.373 5.589s-3.296 0.373-7.324 0.12l-7.325-0.459 2.6 2.621c2.847 2.87 5.079 8.911 4.168 11.283-0.317 0.827-1.624 1.902-2.906 2.389-1.281 0.487-2.834 1.829-3.451 2.982-0.944 1.763-0.84 2.304 0.646 3.391 1.502 1.098 1.561 1.422 0.388 2.147-1.175 0.727-1.06 1.425 0.774 4.688 1.185 2.109 2.022 3.828 1.858 3.821-0.837-0.041-7.181-2.556-8.981-3.561-2.684-1.499-3.903 0.209-1.804 2.527 2.83 3.127 1.628 4.197-1.788 1.592-3.185-2.429-3.437-2.47-7.325-1.173-2.214 0.738-6.05 1.228-8.523 1.089-2.474-0.139-4.708 0.087-4.965 0.502-0.257 0.416 0.81 1.83 2.371 3.144 1.561 1.313 2.838 2.784 2.838 3.274 0 0.48-1.808 1.15-4.017 1.49-11.09 1.67-10.897 1.59-11.412 4.22-0.271 1.38-0.0999 2.91 0.3799 3.4 0.4798 0.5 0.8724 2.09 0.8724 3.55 0 1.72 0.4951 2.64 1.4177 2.64 0.78 0 1.418-0.38 1.418-0.85s1.382-1.78 3.071-2.92c1.69-1.14 2.305-1.83 1.369-1.52-0.937 0.3-1.464 0.16-1.171-0.32 0.293-0.47 1.821-1.14 3.394-1.49 2.201-0.48 2.738-1.02 2.324-2.32-0.34-1.07 0.044-1.92 1.043-2.3 2.117-0.81 2.789 0.02 1.385 1.71-0.922 1.11-0.767 1.58 0.81 2.42 2.472 1.32 2.499 3.97 0.061 6.17-2.331 2.11-2.45 4.26-0.236 4.26 0.909 0.01 2.918 0.78 4.463 1.71 2.328 1.42 3.506 1.55 6.876 0.78 2.443-0.56 3.724-1.27 3.207-1.79zm-1.945-8.65c0.749-0.73 7.383-0.97 8.062-0.29 0.374 0.37-1.375 0.68-3.888 0.68-2.512 0-4.39-0.18-4.174-0.39zm-2.205-12.525c0.65-0.263 1.713-0.263 2.363 0 0.649 0.262 0.118 0.476-1.182 0.476-1.299 0-1.831-0.214-1.181-0.476zm-1.398-1.836c0.314-0.314 1.129-0.347 1.811-0.074 0.754 0.301 0.53 0.525-0.571 0.571-0.996 0.041-1.554-0.183-1.24-0.497zm20.416-8.562c-1.176-1.426-1.099-1.467 0.829-0.439 2.199 1.172 2.741 2.011 1.297 2.011-0.456 0-1.413-0.707-2.126-1.572zm7.13-2.77c-2.428-2.228-2.688-2.635-0.757-1.182 1.62 1.219 3.746 2.723 4.726 3.342 0.979 0.62 1.32 1.151 0.756 1.182-0.563 0.03-2.689-1.474-4.725-3.342zm19.727-4.061c-2.477-2.242-6.044-4.232-9.451-5.272-5.48-1.674-7.835-3.472-7.835-5.985 0-0.94 0.495-0.769 1.654 0.573 0.91 1.053 4.098 2.6 7.084 3.438 5.317 1.491 11.154 5.584 13.069 9.163 1.454 2.717-0.153 2.035-4.521-1.917zm103.88 36.914c3.73-1.49 5.51-4.84 7.99-15.1 1.22-5.036 2.22-9.421 2.22-9.742 0-0.854-6.91-1.641-9.71-1.105-2.54 0.486-3.67 2.818-2.86 5.92 0.41 1.572 0.81 1.703 2.51 0.829 1.67-0.855 1.82-0.818 0.84 0.212-0.65 0.687-1.17 2.336-1.16 3.656 0.01 2.33 0.13 2.27 3.27-1.37 1.79-2.076 3.27-3.279 3.29-2.67s-2.74 3.97-6.13 7.46c-6.48 6.68-7.66 9.68-1.61 4.13l3.53-3.25-3.3 3.59c-1.81 1.97-4.21 3.81-5.34 4.09-1.8 0.45-3.61 4.33-2.52 5.42 0.47 0.47 5.51-0.69 8.98-2.07zm-6.39-1.62c2.04-1.52 3.76-1.84 2.96-0.54-0.28 0.46-1.47 1.07-2.65 1.37-2.07 0.52-2.08 0.49-0.31-0.83zm-100.6-4.19c0-0.51-1.032-1.19-2.293-1.5-1.261-0.32-2.995-1.35-3.852-2.3-1.422-1.57-1.225-1.56 2.255 0.16 3.463 1.72 5.81 1.73 5.762 0.02-0.011-0.36-2.137-1.91-4.726-3.45-6.41-3.8-5.979-4.8 0.547-1.26 2.89 1.56 5.474 2.62 5.743 2.36 0.268-0.27-1.458-2.29-3.837-4.48-2.378-2.191-4.324-4.44-4.324-4.996 0-0.555 1.382 0.302 3.071 1.905 2.92 2.771 8.251 5.981 9.877 5.951 0.415-0.01-0.627-0.91-2.316-1.99s-3.072-2.38-3.072-2.886 1.121-0.039 2.491 1.036c2.786 2.19 5.103 2.5 6.721 0.88 0.816-0.82 0.175-1.75-2.586-3.746-2.561-1.855-4.675-4.735-6.991-9.523-3.098-6.406-3.378-6.708-4.189-4.527-0.478 1.286-0.686 3.507-0.463 4.937 0.43 2.759-0.488 3.331-2.354 1.464-0.883-0.882-1.135-0.567-1.135 1.418 0 3.248-1.832 3.302-6.412 0.189-1.913-1.299-3.863-2.363-4.334-2.363-0.474 0-0.63 2.507-0.35 5.597 0.75 8.264 6.033 15.624 12.284 17.114 4.329 1.02 4.483 1.02 4.483-0.01zm122.16-2.36c3.59-0.59 11.1-6.59 11.1-8.88 0-0.61-1.29-1.369-2.86-1.683-3.63-0.726-4.34-1.898-2.44-4.005 2.09-2.302 1.89-3.257-0.53-2.623-1.12 0.293-2.87 0.088-3.89-0.456-1.5-0.803-1.76-1.68-1.36-4.64 0.76-5.635-0.85-6.047-7.13-1.826-2.99 2.006-6.6 3.824-8.02 4.041-1.43 0.216 0.38 0.464 4.02 0.549 6.7 0.159 10.14 1.185 8.13 2.428-0.58 0.355-1.05 1.501-1.05 2.545 0 1.486 0.46 1.789 2.13 1.397 1.57-0.369 1.47-0.222-0.38 0.56-1.66 0.7-2.71 2.028-3.08 3.893-0.75 3.72-0.39 3.93 3.37 1.99 2.85-1.48 3.03-1.48 1.86-0.07-0.71 0.86-1.88 1.56-2.59 1.56-1.93 0-5.09 3.51-5.09 5.65 0 1.57 0.35 1.73 2.13 1.01 1.17-0.48 3.72-1.13 5.68-1.44zm-4.97-7.49c0-0.19 1.06-1.04 2.36-1.89 1.3-0.856 2.36-1.186 2.36-0.738s-1.06 1.298-2.36 1.888c-1.3 0.6-2.36 0.93-2.36 0.74zm-1.89-13.796c1.85-1.196 3.1-1.196 2.36 0-0.32 0.52-1.3 0.939-2.18 0.931-1.38-0.013-1.4-0.141-0.18-0.931zm-168.23 21.736c-0.78-0.5-1.843-0.91-2.363-0.91s-0.307 0.41 0.473 0.91c0.78 0.51 1.843 0.92 2.363 0.92 0.519 0 0.307-0.41-0.473-0.92zm188.25-1.74c2.39-0.82 3.58-1.85 3.78-3.27 0.19-1.35 0.96-2.08 2.19-2.08 1.04 0 2.49-0.38 3.23-0.86 1.07-0.69 0.8-1.29-1.39-3.03l-2.72-2.17 2.09-2.227c3.06-3.256 2.68-4.445-1.21-3.813-2.15 0.349-3.31 0.162-3.31-0.532 0-0.588-1.17-1.073-2.6-1.079-4.03-0.016-9.69-1.106-9.69-1.866 0-0.377 2.92-0.929 6.48-1.228 7.71-0.646 15.99-4.579 21.49-10.212 3.4-3.485 3.5-3.756 1.85-4.967-1.19-0.865-1.58-1.965-1.21-3.386 0.45-1.696 0.03-2.288-2.15-3.049-1.71-0.595-2.53-1.425-2.21-2.244 0.99-2.588-0.73-3.451-2.83-1.422-7.03 6.773-15.47 14.036-18.43 15.857-1.9 1.167-2.93 2.124-2.28 2.126 0.65 0.003 1.18 0.431 1.18 0.95 0 0.52-0.63 0.945-1.41 0.945s-1.42-0.33-1.42-0.733c0-1.307-7.41-0.075-7.95 1.321-0.41 1.087-0.14 1.147 1.43 0.308 1.06-0.571 3.5-0.783 5.41-0.471 3.66 0.597 10.34-2.142 18.59-7.623l3.78-2.51-2.2 2.404c-2.74 2.973-12.88 8.558-16.7 9.195-2.49 0.415-2.87 0.901-3.13 4.016-0.31 3.731-0.09 3.895 4.79 3.573 2.03-0.134 2.6 0.244 2.6 1.735 0 1.048-0.43 2.168-0.95 2.489-1.51 0.936-1.09 2.361 0.71 2.393 1.87 0.034 4.96 2.123 4.96 3.35 0 0.44-1.92 2.76-4.26 5.14-3.77 3.82-4.02 4.32-2.13 4.25 1.18-0.04 3.71-0.62 5.62-1.28zm-1.12-11.861c0-0.204 0.66-0.625 1.47-0.934 0.84-0.323 1.22-0.165 0.89 0.371-0.56 0.898-2.36 1.328-2.36 0.563zm-1.5-2.591c-0.27-0.45 0.8-0.818 2.39-0.818s2.89 0.163 2.89 0.362c0 0.802-4.81 1.218-5.28 0.456zm3.72-12.27c1.99-1.054 3.83-1.717 4.07-1.474 0.54 0.535-5.21 3.492-6.67 3.433-0.57-0.023 0.6-0.904 2.6-1.959zm-5.54-4.603c0.86-1.387 4.27-3.054 4.27-2.087 0 0.454-1.09 1.323-2.43 1.93-1.38 0.631-2.17 0.698-1.84 0.157zm-103.09 25.135c-0.32-0.81-1.28-1.11-2.52-0.78-1.94 0.5-1.95 0.55-0.18 1.24 2.75 1.08 3.25 0.99 2.7-0.46zm-1.15-3.11c-0.69-0.273-1.5-0.239-1.82 0.075-0.31 0.314 0.25 0.535 1.24 0.495 1.11-0.044 1.33-0.268 0.58-0.57zm-3.962-1.245c-0.78-0.504-1.843-0.916-2.363-0.916s-0.307 0.412 0.472 0.916c0.78 0.504 1.843 0.917 2.363 0.917s0.31-0.413-0.472-0.917zm47.122-14.666c0.11 1.505 0.6 1.184 2.51-1.63 1.31-1.927 3.23-3.955 4.26-4.506 1.3-0.697 1.87-1.979 1.87-4.213 0-2.802-0.33-3.251-2.6-3.511-2.41-0.277-2.63-0.675-3.07-5.395-0.39-4.217-0.85-5.232-2.63-5.887-1.78-0.653-2.34-0.377-3.23 1.574-1.53 3.344-5.34 4.121-7.45 1.518-0.9-1.118-2.05-2.033-2.56-2.033-0.5 0-1.86 2.215-3.03 4.923-2.54 5.914-3.15 16.915-1.05 18.887 1.09 1.02 1.2 1.012 0.59-0.047-0.54-0.953-0.26-1.134 1.11-0.702 1.61 0.514 1.85 0.057 2.06-3.891 0.32-6.236 1.05-6.359 1.13-0.189 0.05 3.417 0.31 4.502 0.8 3.263 0.64-1.648 0.8-1.542 1.47 0.946 0.73 2.7 0.82 2.598 2.51-2.87 0.96-3.119 1.79-7.372 1.84-9.451 0.09-3.413 0.17-3.536 0.85-1.269 0.47 1.531 0.22 5.151-0.63 9.273-1.28 6.205-1.11 10.613 0.35 9.153 0.33-0.328 0.95-2.197 1.37-4.152 0.67-3.11 0.72-2.94 0.38 1.355-0.22 2.699-0.12 6.527 0.23 8.506 0.57 3.303 0.71 2.979 1.7-3.964 0.6-4.159 1.15-6.718 1.22-5.688zm-33.71 10.177c1.91-2.221 2.82-4.962 1.65-4.962-0.52 0-2.44-1.488-4.26-3.308-2.69-2.688-3.96-3.281-6.82-3.166-2.51 0.101-2.82 0.249-1.11 0.516 1.32 0.207 3.64 1.36 5.15 2.564 2.21 1.764 2.76 2.949 2.8 6.097 0.05 4.322 0.49 4.705 2.59 2.259zm1.71-8.739c-0.9-1.676-0.81-2.259 0.49-3.209 1.47-1.077 1.45-1.397-0.39-4.412-1.09-1.788-1.98-3.889-1.97-4.669 0.01-0.779 0.68-0.079 1.49 1.556s2.56 3.974 3.91 5.198c2.2 2.001 2.37 2.035 1.69 0.335-3.27-8.164-5.05-13.94-3.81-12.342 0.78 1.009 1.42 2.278 1.42 2.82 0 1.71 7.84 17.555 8.69 17.555 0.44 0-0.07-1.715-1.14-3.812-2.32-4.549-3.87-8.474-3.34-8.474 0.22 0 1.36 1.945 2.55 4.322 1.18 2.377 2.55 4.569 3.04 4.871 0.49 0.303 0.61 0.096 0.27-0.458-0.34-0.555-0.78-4.069-0.98-7.809-0.42-7.915-1.8-10.313-8.5-14.749-2.45-1.625-5.08-3.752-5.83-4.726-1.34-1.728-1.41-1.727-2.79 0.064-3.52 4.558-1.69 15.318 3.6 21.096 1.4 1.536 1.66 2.428 0.93 3.164-0.74 0.735-2-0.721-4.49-5.165-1.9-3.404-4.18-6.405-5.06-6.67-1.71-0.517-14.314 0.035-14.934 0.654-0.205 0.206 0.282 1.685 1.081 3.288 1.866 3.74 7.14 6.843 11.633 6.843 1.93 0 4.56 0.678 5.85 1.507 1.38 0.891 0.89 0.119-1.19-1.891-1.95-1.868-3.28-3.396-2.98-3.396 1.32 0 8.03 6.035 9.52 8.547 1.84 3.116 2.91 3.084 1.24-0.038zm15.12 1.359c0-0.229-0.42-0.417-0.94-0.417s-0.95 0.45-0.95 1.001c0 0.55 0.43 0.738 0.95 0.417 0.52-0.322 0.94-0.772 0.94-1.001zm62.08-5.589c3.26-3.57 4.06-5.202 4.59-9.43 0.86-6.932 0.46-7.696-2.75-5.171-3.02 2.374-4.34 1.468-4.36-3.003-0.02-2.266-0.57-1.932-7.11 4.317-3.89 3.725-7.08 7.276-7.08 7.891 0 1.581 0.38 1.452 4.92-1.643 2.23-1.517 4.26-2.546 4.52-2.285 0.63 0.629-2.43 2.819-6.76 4.833-1.92 0.896-3.7 2.374-3.95 3.285-0.24 0.91-0.1 1.439 0.33 1.175s0.94 0.021 1.15 0.634c0.38 1.165 11.13-4.672 11.13-6.048 0-0.398 0.41-0.724 0.91-0.724 1.92 0-0.15 2.471-4.23 5.051-2.33 1.476-4.24 2.998-4.24 3.384 0 1.694 1.44 1.851 3.7 0.4l2.44-1.567-1.8 2.036c-0.99 1.121-2.37 2.037-3.07 2.037s-1.27 0.405-1.27 0.9c0 0.51 1.94 0.324 4.49-0.428 3.16-0.937 5.65-2.599 8.44-5.644zm-15.3-1.439c0.32-0.517 1.52-1.429 2.66-2.027 2.06-1.081 2.06-1.074 0.27 0.94-1.8 2.031-4.02 2.854-2.93 1.087zm25.43-3.215c3.77-1.574 13.53-11.078 14.79-14.407 1.2-3.142 1.14-10.406-0.1-12.718-0.98-1.842-1.01-1.842-3.43 0.062-3.2 2.513-5.6 2.435-6.37-0.207-0.58-1.968-0.71-1.886-1.77 1.111-1.62 4.597-3.14 4.605-3.87 0.021-0.65-4.058-3.64-10.739-5.26-11.739-0.51-0.316-1.22 0.564-1.57 1.957-0.49 1.947-0.17 2.884 1.38 4.055 2.49 1.88 3.51 8.397 2.22 14.047-0.98 4.275 0.13 5.727 1.18 1.542 0.34-1.361 0.81-2.28 1.05-2.043 0.24 0.236-0.06 1.858-0.67 3.603-0.77 2.195-0.8 3.276-0.11 3.506 0.55 0.184 0.78 1.271 0.5 2.415-0.75 3.133 1.08 1.063 4.42-5.008 1.58-2.858 2.87-4.864 2.88-4.457 0.03 1.192-4.53 9.427-6.77 12.24-3.29 4.121-0.92 4.419 2.63 0.33 1.77-2.035 3.42-3.495 3.67-3.243 0.26 0.252-1.7 2.662-4.33 5.356-5.2 5.301-5.23 5.568-0.47 3.577zm-40.79-16.312c0.22-7.369 0.06-8.185-1.9-9.782-1.71-1.389-2.75-1.568-5.15-0.88-2.46 0.705-3.37 0.521-5.01-1.016-2.9-2.731-5.96-2.424-7.18 0.72-3.51 9.053-4.77 9.32-8.79 1.868-2.92-5.398-6.43-8.247-10.15-8.247-1.6 0-1.8 0.638-1.63 5.434 0.1 2.989-0.15 7.026-0.56 8.971-0.53 2.527-0.37 3.988 0.56 5.119 1.15 1.403 1.37 1.055 1.86-3.063l0.56-4.647 0.15 5.378c0.08 2.959 0.58 5.642 1.1 5.963 0.96 0.599 1.29-1.121 0.96-5.068-0.12-1.468 0.19-2.003 0.9-1.563 0.72 0.448 0.89 2.442 0.51 6.013-0.45 4.081-0.34 4.954 0.46 3.695 0.57-0.908 1.19-2.88 1.38-4.383 0.36-2.81 3.07-6.727 4.66-6.727 0.5 0 1.62 0.648 2.49 1.44 1.87 1.689 4.67 0.924 4.78-1.305 0.05-1.029 0.24-1.144 0.56-0.34 0.27 0.667-0.03 1.837-0.66 2.599-0.64 0.763-0.76 1.386-0.27 1.386s1.81-2.126 2.95-4.725c2.33-5.347 2.93-5.89 2.35-2.127-0.4 2.548-0.37 2.562 1.2 0.709 1.29-1.512 1.5-1.565 1.05-0.267-0.7 2.04 1.17 3.326 2.28 1.569 0.54-0.843 0.87 0.531 0.95 3.896 0.07 2.859 0.33 4.348 0.58 3.308 0.89-3.695 1.93-3.396 1.24 0.358-0.65 3.535-0.57 3.748 1.07 2.871 2.2-1.175 3.17 0.757 2.37 4.722-0.86 4.3 0.61 4.344 2.42 0.073 1.05-2.462 1.75-6.893 1.91-11.952zm-112.14 14.088c-0.384-0.39-2.05-1.243-3.702-1.895l-3.003-1.185 3.78 0.561c2.079 0.309 4.322 1.009 4.985 1.557 1.931 1.596 2.456 0.091 1.137-3.261-1.722-4.374-6.682-9.443-8.718-8.91-0.911 0.238-1.657 0.048-1.657-0.423 0-0.472 1.595-0.889 3.544-0.927 1.95-0.039 5.458-0.394 7.797-0.789l4.253-0.718-4.145-1.953c-4.179-1.969-6.929-1.794-11.644 0.738-0.887 0.476-3.342 1.143-5.455 1.481-2.114 0.338-4.117 1.057-4.451 1.598s1.044 2.371 3.063 4.066l3.672 3.083-2.579 2.028c-3.192 2.511-2.561 3.739 1.984 3.862 1.919 0.051 4.552 0.434 5.851 0.851 3.106 0.994 6.17 1.131 5.288 0.236zm-3.161-5.074c-1.69-0.488-3.072-1.077-3.072-1.309 0-0.6 5.864 0.581 7.561 1.522 1.26 0.699 1.26 0.78 0 0.73-0.78-0.031-2.8-0.455-4.489-0.943zm0.472-3.349c0.65-0.262 1.713-0.262 2.363 0s0.118 0.476-1.181 0.476c-1.3 0-1.831-0.214-1.182-0.476zm118.38 6.241c0-0.551-0.43-0.738-0.95-0.417-0.51 0.321-0.94 0.771-0.94 1.001 0 0.229 0.43 0.416 0.94 0.416 0.52 0 0.95-0.45 0.95-1zm1.05-3.71c3.32-2.927 3.16-3.639-0.4-1.764-2.11 1.108-3.44 2.602-3.47 3.875-0.02 1.148 0.5 0.862 3.87-2.111zm6.47-1.861c2.05-2.054 5.02-5.988 6.6-8.742 1.58-2.753 2.88-4.254 2.88-3.334 0.01 2.005-3.97 8.628-7.43 12.341-1.36 1.47-2.06 2.572-1.54 2.449s1.66 0.089 2.53 0.471c2.08 0.917 5.49-1.391 9.77-6.611 4.22-5.147 6.13-5.419 6.13-0.871 0 5.309 1.46 3.83 3.16-3.207 2.14-8.894 2.07-12.435-0.29-13.051-1.02-0.267-2.11-1.29-2.43-2.274-0.54-1.701-2.08-2.25-5.11-1.816-0.76 0.108-1.89-0.513-2.52-1.38-1.6-2.188-4.47-0.534-6.06 3.498-2.36 5.946-9.42 15.705-12.29 16.976-1.58 0.697-2.81 1.971-2.81 2.902 0 2.363 2.31 2.052 5.3-0.713 2.94-2.731 4.36-2.356 1.79 0.477-1.31 1.453-1.4 1.904-0.38 1.93 0.75 0.019 0.1 1.038-1.51 2.358-2.16 1.766-2.44 2.325-1.18 2.328 0.91 0.003 3.33-1.676 5.39-3.731zm5.61 0.584c1.24-1.35 3.25-4.064 4.46-6.031s2.21-3.195 2.23-2.73c0.05 1.563-5 8.812-6.99 10.02-1.71 1.043-1.67 0.881 0.3-1.259zm-3.68-6.299c0.56-1.04 1.23-1.89 1.49-1.89s0.01 0.85-0.54 1.89c-0.56 1.04-1.23 1.89-1.49 1.89s-0.02-0.85 0.54-1.89zm-80.912 5.169c-0.862-1.316-1.391-2.569-1.176-2.784s1.23 0.86 2.255 2.39c2.036 3.038 4.639 3.645 5.542 1.291 0.791-2.066 0.691-2.992-0.174-1.627-0.396 0.623-1.183 0.835-1.749 0.473-1.255-0.803-5.064-8.164-5.064-9.785 0-0.643 1.101 1.041 2.447 3.742 2.777 5.572 4.369 6.385 3.605 1.84-0.508-3.021-0.486-3.009 1.296 0.709 1.72 3.609 4.57 6.83 5.35 6.041 0.2-0.204 0.61-2.613 0.91-5.353 0.47-4.253 2.72-9.667 4.01-9.667 0.22 0 1.7 1.489 3.3 3.308s3.2 3.308 3.56 3.308c1.35 0 2.69-7.735 1.93-11.117-0.43-1.886-0.6-3.703-0.4-4.039 0.21-0.336-1.09-2.038-2.89-3.782-2.46-2.384-3.27-2.773-3.27-1.567 0 0.973-0.74 1.603-1.89 1.603-1.3 0-1.92 0.665-2 2.126-0.18 3.762-0.8 7.725-1.65 10.633l-0.84 2.835-2.03-4.725c-2.71-6.292-5.134-10.924-6.004-11.476-0.691-0.439-1.081 2.333-0.772 5.485 0.216 2.207-1.389 2.931-2.781 1.255-0.642-0.774-1.612-1.408-2.154-1.408-0.543 0-0.707 0.28-0.365 0.622s0.185 1.148-0.349 1.791c-0.533 0.643-0.848 1.745-0.7 2.45 0.161 0.765-0.397 1.169-1.385 1.003-1.341-0.225-1.654 0.423-1.654 3.429 0 2.038 0.576 5.14 1.278 6.893 0.703 1.753 1.541 3.931 1.861 4.841s1.244 1.654 2.052 1.654c1.302 0 1.291-0.271-0.099-2.392zm9.812-2.097c-0.79-0.91-1.76-2.718-2.15-4.017-0.84-2.827-0.52-2.525 2.28 2.126 2.28 3.796 2.23 4.575-0.13 1.891zm11.31-12.159c0.28-2.539 0.66-4.794 0.85-5.011 0.75-0.855 0.26 7.093-0.51 8.319-0.51 0.8-0.64-0.486-0.34-3.308zm-3.53-1.726c0-0.749 0.38-1.6 0.86-1.891 0.47-0.292 0.63 0.321 0.36 1.361-0.58 2.207-1.22 2.486-1.22 0.53zm57.05 6.433c1.97-2.361 2.23-3.169 1.25-3.978-0.77-0.637-1.31-3.757-1.46-8.349-0.13-4.033-0.35-7.451-0.49-7.595-0.15-0.145-2.2-0.528-4.57-0.853-4.28-0.586-4.31-0.572-5.43 2.829-0.62 1.88-1.99 4.023-3.05 4.763s-1.66 1.772-1.33 2.294c0.32 0.522-0.17 1.145-1.08 1.384-1.34 0.348-1.27 0.456 0.35 0.544 1.31 0.071 2.25-0.63 2.7-2.017 0.6-1.872 0.73-1.921 1.13-0.403 0.26 0.967 1.02 1.509 1.73 1.234 0.7-0.268 1.45 0.019 1.66 0.64 0.28 0.836 0.79 0.787 1.97-0.187 1.39-1.148 1.52-1.118 1 0.236-0.33 0.854-0.29 2.296 0.08 3.206 0.62 1.521 0.74 1.502 1.53-0.237 0.97-2.134 0.23 6.97-0.77 9.595-0.87 2.247 1.71 0.575 4.78-3.106zm-95.328-1.291c-0.321-0.519-0.772-0.945-1.001-0.945s-0.417 0.426-0.417 0.945c0 0.52 0.451 0.946 1.001 0.946 0.551 0 0.738-0.426 0.417-0.946zm66.168-3.041c0.12-1.186 0.33-3.645 0.47-5.465 0.19-2.467 0.36-2.753 0.67-1.126 0.33 1.758 0.67 1.966 1.75 1.075 0.73-0.61 1.16-1.379 0.96-1.71s1.56-0.448 3.92-0.26l4.28 0.341-0.65-3.649c-0.69-3.86-5.29-8.774-8.27-8.822-0.87-0.014-2.84 1.241-4.39 2.788l-2.81 2.814-1.41-2.15c-2.16-3.299-8.12-3.358-10.95-0.109-2.49 2.871-3.43 2.583-2.1-0.647 0.51-1.237 1.19-4.694 1.52-7.683s1.02-5.434 1.55-5.434c0.57 0 0.71 1.242 0.35 3.071-1.81 9.266-1.79 8.796-0.2 7.471 0.82-0.68 1.65-2.798 1.86-4.707l0.36-3.473 0.16 3.545c0.19 4.235 2.66 4.949 3.26 0.945 0.38-2.507 0.4-2.495 0.54 0.362 0.09 1.927 0.72 3.127 1.8 3.437 0.9 0.261 2.35 0.763 3.2 1.115 1.23 0.511 1.88-0.435 3.22-4.687 1.57-5.009 1.58-5.623 0.11-10.303-0.87-2.737-1.57-5.85-1.57-6.918s-0.59-2.1686-1.31-2.4449c-1.47-0.5637-6.64 4.3239-5.64 5.3279 0.36 0.353-0.06 0.643-0.93 0.643-1.17 0-1.57-0.851-1.57-3.308 0-1.8193-0.33-3.3079-0.74-3.3079-1.15 0-5.88 7.7499-5.88 9.6399 0 0.936-0.43 1.701-0.95 1.701-0.51 0-0.94-0.397-0.94-0.883s-0.48-2.081-1.06-3.544l-1.06-2.661-1.26 2.835c-0.69 1.56-1.28 4.785-1.3 7.168-0.05 5.237-0.74 6.111-3.11 3.965-1.74-1.575-1.78-1.535-1.2 1.18 0.33 1.545 0.8 3.766 1.03 4.936 0.66 3.25 3.06 2.603 3.5-0.945 0.34-2.745 0.39-2.657 0.53 0.829 0.08 2.145 0.77 4.412 1.52 5.037 1.17 0.974 1.33 0.31 1.11-4.656-0.37-8.264 0.96-7.99 1.5 0.308 0.24 3.802 0.74 7.389 1.1 7.972 1.1 1.78 3.42 0.146 3.55-2.503 0.11-2.108 0.2-2.179 0.53-0.452 0.48 2.447 3.13 3.709 4.22 2.003 0.56-0.893 0.77-0.776 0.78 0.44 0.02 1.577 0.38 1.815 3.09 2.032 0.65 0.052 1.39 1.583 1.65 3.402 0.71 4.981 2.29 3.976 2.96-1.89 0.47-4.087 0.53-3.658 0.28 2.008-0.3 6.568 0.12 9.123 1.3 7.946 0.24-0.244 0.54-1.413 0.67-2.599zm-52.358-1.011c-1.617-1.617-1.251-2.439 0.843-1.891 1.892 0.495 1.892 0.492 0.021-3.633-1.031-2.27-1.844-4.978-1.809-6.018 0.037-1.096 0.457-0.523 0.999 1.364 0.514 1.79 1.575 4.129 2.357 5.198 1.323 1.807 1.381 1.643 0.815-2.309-0.379-2.654-0.285-3.785 0.251-3.009 0.472 0.683 1.945 1.807 3.274 2.496 2.382 1.236 2.421 1.199 2.843-2.661 0.535-4.903-1.16-14.473-2.253-12.718-0.624 1.003-1.141 1.015-2.68 0.062-2.512-1.558-2.431-1.58-5.212 1.417l-2.412 2.599-2.27-2.835-2.269-2.835-0.674 2.666c-1.03 4.073 0.187 10.436 2.865 14.978 1.327 2.251 3.136 5.509 4.02 7.24s1.773 2.651 1.975 2.044-0.105-1.576-0.684-2.155zm-2.915-4.857c-1.404-3.693-1.126-4.275 0.558-1.167 0.8 1.475 1.22 2.917 0.934 3.203s-0.957-0.63-1.492-2.036zm91.633-0.828c2.79-6.158 6.05-8.83 9.46-7.75 1.18 0.374 1.83-0.103 2.24-1.625 1.12-4.181 0.66-5.54-2.23-6.547-1.56-0.544-2.84-1.539-2.84-2.211 0-0.673-1.07-1.491-2.37-1.819-1.97-0.495-2.28-0.995-1.79-2.938 0.45-1.785 0.22-2.342-0.98-2.342-2.28 0-6.2 4.294-6.21 6.809 0 1.194-0.6 3.318-1.33 4.721-1.11 2.118-1.12 2.727-0.07 3.594 0.93 0.774 1.36 0.726 1.67-0.188 0.23-0.677 0.21-0.381-0.04 0.659-0.26 1.039-0.6 4.644-0.76 8.009-0.27 5.404 0.35 7.477 2.25 7.571 0.17 0.007 1.52-2.667 3-5.943zm-3.09 1.231c0.27-1.039 0.88-1.89 1.36-1.89s0.41 0.846-0.14 1.89c-0.56 1.04-1.17 1.891-1.37 1.891-0.19 0-0.12-0.851 0.15-1.891zm-1.51-3.307c0.02-0.52 0.85-2.647 1.85-4.726s1.55-2.717 1.23-1.418c-0.67 2.676-3.13 7.589-3.08 6.144zm-64.85-0.458c-0.83-3.225-1.34-6.356-1.13-6.956 0.21-0.601 0.69 0.715 1.07 2.924 0.65 3.754 2.42 5.689 2.42 2.646 0-0.754 0.69-1.752 1.52-2.219 1.17-0.655 1.29-1.256 0.52-2.646-0.54-0.988-1.23-3.347-1.54-5.241-0.3-1.894-1.78-4.863-3.3-6.598l-2.75-3.154-2.42 2.273c-3.008 2.823-3.218 8.133-0.558 13.994 2.008 4.42 2.908 5.176 2.268 1.89-0.23-1.169 0.66 0.161 1.98 2.957 1.31 2.796 2.39 5.525 2.39 6.064 0 0.54 0.24 0.745 0.53 0.456s-0.16-3.164-1-6.39zm48.7-1.196c0.16-1.408 3.64-10.327 3.69-9.451 0.1 1.795 2.7 1.41 3.19-0.473 0.37-1.404 0.45-1.421 0.55-0.11 0.14 1.978 3.51 2.888 4.82 1.303 0.55-0.666 1.57-3.28 2.27-5.809 0.69-2.53 1.57-5.348 1.97-6.263 0.54-1.284 0.36-1.531-0.82-1.081-0.83 0.322-1.52 0.357-1.52 0.079s0.45-3.729 1-7.669c0.54-3.94 0.69-7.6613 0.31-8.2694-0.45-0.7211-2.1 0.514-4.76 3.5514-2.7 3.087-4.08 4.11-4.09 3.035-0.01-0.8919-0.74-3.1372-1.63-4.9893-1.59-3.3522-1.61-3.3577-2.8-1.2135-0.66 1.1848-1.21 2.8984-1.23 3.8081-0.05 2.4737-1.31 2.0024-3.2-1.1981-0.92-1.5686-2.02-2.6414-2.44-2.384s-0.55 3.3895-0.29 6.9598c0.46 6.47-0.61 9.832-4.13 12.925-2.2 1.941-2.11 4.989 0.22 7.013 3.18 2.762 3.98 2.476 4.41-1.578 0.36-3.41 0.37-3.392 0.33 0.471-0.02 2.209 0.43 4.484 1 5.057 1.14 1.138 3.27-5.035 4.97-14.38l0.93-5.089-0.4 6.274c-0.22 3.451-1.27 8.752-2.33 11.781-2.16 6.144-2.38 7.936-0.99 7.936 0.52 0 0.96-0.106 0.97-0.236zm3.9-12.996c0-1.299 0.22-1.831 0.48-1.181s0.26 1.713 0 2.363-0.48 0.118-0.48-1.182zm3.82-1.417c-0.02-1.56 0.18-2.312 0.43-1.672 0.26 0.64 0.28 1.916 0.04 2.835-0.24 0.92-0.45 0.396-0.47-1.163zm28.46 8.171c0.22-0.856 0.26-0.424 0.09 0.958-0.35 2.949 1.75 4.204 3.5 2.09 0.65-0.785 1.91-1.236 2.8-1.003 1.96 0.512 4.04-3.435 3.21-6.072-0.69-2.15-1.7-2.263-3.28-0.364-1.6 1.936-2.59 1.779-3.32-0.527-0.42-1.322-1.27-1.852-2.66-1.654-1.66 0.236-2.14 1.093-2.55 4.544-0.27 2.339-0.87 4.891-1.34 5.671-0.54 0.906-0.13 0.785 1.15-0.335 1.1-0.964 2.18-2.453 2.4-3.308zm-45.66 276.54c0-0.26 0.64-1 1.42-1.65s1.42-0.96 1.42-0.7-0.64 1-1.42 1.64c-0.78 0.65-1.42 0.97-1.42 0.71zm-121.22-180.39c0.641-0.65 1.404-0.94 1.695-0.65s-0.234 0.82-1.166 1.18c-1.347 0.51-1.455 0.4-0.529-0.53zm7.813-3.53c0.78-0.45 2.693-1.1 4.253-1.44 1.814-0.39 2.325-0.31 1.418 0.22-0.78 0.45-2.694 1.1-4.253 1.44-1.815 0.39-2.325 0.32-1.418-0.22zm-13.731-1.04c0.81-1.31 6.075-4.02 7.078-3.64 0.43 0.16-1.127 1.27-3.459 2.47-2.331 1.2-3.96 1.72-3.619 1.17zm-4.226-3.42c0-0.64 4.909-2.42 5.377-1.96 0.215 0.22-0.908 0.85-2.494 1.4s-2.883 0.8-2.883 0.56z"/>
  <metadata>
    <rdf:RDF>
      <cc:Work>
        <dc:format>image/svg+xml</dc:format>
        <dc:type rdf:resource="http://purl.org/dc/dcmitype/StillImage"/>
        <cc:license rdf:resource="http://creativecommons.org/licenses/publicdomain/"/>
        <dc:publisher>
          <cc:Agent rdf:about="http://openclipart.org/">
            <dc:title>Openclipart</dc:title>
          </cc:Agent>
        </dc:publisher>
        <dc:title>Carnation</dc:title>
        <dc:date>2009-03-26T15:24:39</dc:date>
        <dc:description>Source: http://commons.wikimedia.org/wiki/File:Carnation_(PSF).jpg&#xD;\n&#xD;\nInfo: http://en.wikipedia.org/wiki/Dianthus_caryophyllus</dc:description>
        <dc:source>http://openclipart.org/detail/23360/carnation-by-warszawianka-23360</dc:source>
        <dc:creator>
          <cc:Agent>
            <dc:title>warszawianka</dc:title>
          </cc:Agent>
        </dc:creator>
        <dc:subject>
          <rdf:Bag>
            <rdf:li>biology</rdf:li>
            <rdf:li>botany</rdf:li>
            <rdf:li>carnation</rdf:li>
            <rdf:li>clip art</rdf:li>
            <rdf:li>clipart</rdf:li>
            <rdf:li>externalsource</rdf:li>
            <rdf:li>flower</rdf:li>
            <rdf:li>gardening</rdf:li>
            <rdf:li>image</rdf:li>
            <rdf:li>line art</rdf:li>
            <rdf:li>media</rdf:li>
            <rdf:li>nature</rdf:li>
            <rdf:li>plant</rdf:li>
            <rdf:li>png</rdf:li>
            <rdf:li>psf</rdf:li>
            <rdf:li>public domain</rdf:li>
            <rdf:li>season</rdf:li>
            <rdf:li>spring</rdf:li>
            <rdf:li>summer</rdf:li>
            <rdf:li>svg</rdf:li>
            <rdf:li>wikimedia commons</rdf:li>
          </rdf:Bag>
        </dc:subject>
      </cc:Work>
      <cc:License rdf:about="http://creativecommons.org/licenses/publicdomain/">
        <cc:permits rdf:resource="http://creativecommons.org/ns#Reproduction"/>
        <cc:permits rdf:resource="http://creativecommons.org/ns#Distribution"/>
        <cc:permits rdf:resource="http://creativecommons.org/ns#DerivativeWorks"/>
      </cc:License>
    </rdf:RDF>
  </metadata>
</svg>
