<?xml version="1.0" encoding="UTF-8" standalone="no"?>
<!-- Created with Inkscape (http://www.inkscape.org/) -->

<svg
   xmlns:dc="http://purl.org/dc/elements/1.1/"
   xmlns:cc="http://creativecommons.org/ns#"
   xmlns:rdf="http://www.w3.org/1999/02/22-rdf-syntax-ns#"
   xmlns:svg="http://www.w3.org/2000/svg"
   xmlns="http://www.w3.org/2000/svg"
   xmlns:sodipodi="http://sodipodi.sourceforge.net/DTD/sodipodi-0.dtd"
   xmlns:inkscape="http://www.inkscape.org/namespaces/inkscape"
   width="150mm"
   height="150mm"
   viewBox="0 0 150 150"
   version="1.1"
   id="svg8"
   inkscape:version="0.92.5 (2060ec1f9f, 2020-04-08)"
   sodipodi:docname="texttest.svg">
  <sodipodi:namedview
     id="base"
     pagecolor="#ffffff"
     bordercolor="#666666"
     borderopacity="1.0"
     inkscape:pageopacity="0.0"
     inkscape:pageshadow="2"
     inkscape:zoom="0.71"
     inkscape:cx="400"
     inkscape:cy="278.30986"
     inkscape:document-units="mm"
     inkscape:current-layer="layer1"
     showgrid="false"
     inkscape:window-width="1920"
     inkscape:window-height="1016"
     inkscape:window-x="0"
     inkscape:window-y="0"
     inkscape:window-maximized="1" />
  <defs
     id="defs2" />
  <g
     inkscape:label="Layer 1"
     inkscape:groupmode="layer"
     id="layer1"
     transform="translate(0,-147)">
    <g
       id="g868"
       transform="matrix(0.26458333,0,0,0.26458333,0.76207453,255.57621)"
       inkscape:label="Hershey Text">
      <path
         id="path846"
         transform="translate(178)"
         style="fill:none;stroke:#000000"
         d=""
         inkscape:connector-curvature="0" />
      <path
         id="path826"
         transform="translate(27)"
         style="fill:none;stroke:#000000"
         d="m -6,4 2,-3 2,-4 m 1,-3 -9,27 M 0,-6 -9,21 M -3,3 -1,1 1,0 H 2 L 4,1 V 3 L 3,6 V 8 L 4,9 M 2,0 3,1 V 3 L 2,6 V 8 L 4,9 6,8 7,7 9,4"
         inkscape:connector-curvature="0" />
      <path
         id="path828"
         transform="translate(42)"
         style="fill:none;stroke:#000000"
         d="M -3,7 -1,6 0,5 1,3 V 1 L 0,0 h -1 l -2,1 -1,1 -1,2 v 2 l 1,2 2,1 H 1 L 4,7 6,4 M -1,0 -3,2 -4,4 v 3 l 2,2"
         inkscape:connector-curvature="0" />
      <path
         id="path832"
         transform="translate(74)"
         style="fill:none;stroke:#000000"
         d=""
         inkscape:connector-curvature="0" />
      <path
         id="path830"
         transform="translate(57)"
         style="fill:none;stroke:#000000"
         d="m -9,4 2,-3 2,-1 2,1 v 2 l -2,6 m 0,-9 1,1 V 3 L -6,9 M -3,3 -1,1 1,0 H 2 L 4,1 V 3 L 3,6 V 8 L 4,9 M 2,0 3,1 V 3 L 2,6 V 8 L 4,9 6,8 7,7 9,4"
         inkscape:connector-curvature="0" />
      <path
         id="path834"
         transform="translate(92)"
         style="fill:none;stroke:#000000"
         d="m -4,-9 -1,2 v 2 l 1,2 2,1 h 3 l 3,-1 2,-1 3,-3 1,-3 v -1 L 9,-12 H 8 L 6,-11 5,-10 4,-8 3,-5 1,2 0,5 -2,8 -4,9 M 4,-8 3,-4 2,3 1,6 -1,8 -4,9 H -7 L -9,8 -10,6 V 5 l 1,-1 1,1 -1,1"
         inkscape:connector-curvature="0" />
      <path
         id="path836"
         transform="translate(109)"
         style="fill:none;stroke:#000000"
         d="m 0,0 h -2 l -2,1 -1,1 -1,2 v 2 l 1,2 2,1 h 2 L 1,8 2,7 3,5 V 3 L 2,1 0,0 -1,1 V 3 L 0,5 2,6 H 4 L 6,5 7,4 M -2,0 -4,2 -5,4 v 3 l 2,2"
         inkscape:connector-curvature="0" />
      <path
         id="path838"
         transform="translate(123)"
         style="fill:none;stroke:#000000"
         d="m -4,0 -2,6 v 2 l 2,1 h 1 L -1,8 1,6 3,3 M -3,0 -5,6 v 2 l 1,1 M 4,0 2,6 V 8 L 4,9 6,8 7,7 9,4 M 5,0 3,6 v 2 l 1,1"
         inkscape:connector-curvature="0" />
      <path
         id="path840"
         transform="translate(138)"
         style="fill:none;stroke:#000000"
         d="m -6,4 2,-3 2,-1 2,1 v 2 l -2,6 m 0,-9 1,1 V 3 L -3,9 M 0,3 2,1 4,0 H 5 L 4,3 M 4,0 V 3 L 5,5 H 6 L 8,4"
         inkscape:connector-curvature="0" />
      <path
         id="path842"
         transform="translate(152)"
         style="fill:none;stroke:#000000"
         d="M 2,1 1,2 H 2 V 1 L 1,0 h -2 l -2,1 -1,1 -1,2 v 2 l 1,2 2,1 H 1 L 4,7 6,4 M -1,0 -3,2 -4,4 v 3 l 2,2"
         inkscape:connector-curvature="0" />
      <path
         id="path844"
         transform="translate(164)"
         style="fill:none;stroke:#000000"
         d="M -3,7 -1,6 0,5 1,3 V 1 L 0,0 h -1 l -2,1 -1,1 -1,2 v 2 l 1,2 2,1 H 1 L 4,7 6,4 M -1,0 -3,2 -4,4 v 3 l 2,2"
         inkscape:connector-curvature="0" />
      <path
         id="path848"
         transform="translate(198)"
         style="fill:none;stroke:#000000"
         d="m 3,-11 -1,1 -1,2 -2,5 -2,6 -1,2 -2,3 -2,1 M 2,-10 1,-7 -1,1 -2,4 -3,6 -5,8 -8,9 h -2 L -11,8 V 6 l 1,-1 1,1 -1,1 m 7,-13 -1,2 -1,1 h -2 l -1,-1 v -2 l 1,-2 2,-2 2,-1 3,-1 h 6 l 2,1 1,2 v 2 L 8,-5 6,-4 2,-3 H 0 m 6,-9 1,1 1,2 v 2 l -1,2 -1,1 m -4,1 3,1 1,1 1,2 V 4 L 6,7 5,8 3,9 H 1 L 0,8 V 6 L 1,3 m 1,-6 2,1 1,1 1,2 V 4 L 5,7 3,9"
         inkscape:connector-curvature="0" />
      <path
         id="path850"
         transform="translate(214)"
         style="fill:none;stroke:#000000"
         d="M -4,4 -2,1 0,-3 M 3,-12 -3,6 V 8 L -1,9 1,8 2,7 4,4 M 4,-12 -2,6 v 2 l 1,1"
         inkscape:connector-curvature="0" />
      <path
         id="path852"
         transform="translate(225)"
         style="fill:none;stroke:#000000"
         d="m -4,0 -2,6 v 2 l 2,1 h 1 L -1,8 1,6 3,3 M -3,0 -5,6 v 2 l 1,1 M 4,0 2,6 V 8 L 4,9 6,8 7,7 9,4 M 5,0 3,6 v 2 l 1,1"
         inkscape:connector-curvature="0" />
      <path
         id="path854"
         transform="translate(240)"
         style="fill:none;stroke:#000000"
         d="M -3,7 -1,6 0,5 1,3 V 1 L 0,0 h -1 l -2,1 -1,1 -1,2 v 2 l 1,2 2,1 H 1 L 4,7 6,4 M -1,0 -3,2 -4,4 v 3 l 2,2"
         inkscape:connector-curvature="0" />
      <path
         id="path856"
         transform="translate(252)"
         style="fill:none;stroke:#000000"
         d="m -6,4 2,-3 2,-4 m 1,-3 -9,27 M 0,-6 -9,21 M -3,3 -1,1 1,0 H 2 L 4,1 V 3 L 3,6 V 8 L 4,9 M 2,0 3,1 V 3 L 2,6 V 8 L 4,9 6,8 7,7 9,4"
         inkscape:connector-curvature="0" />
      <path
         id="path858"
         transform="translate(267)"
         style="fill:none;stroke:#000000"
         d="m -6,4 2,-3 2,-1 2,1 v 2 l -2,6 m 0,-9 1,1 V 3 L -3,9 M 0,3 2,1 4,0 H 5 L 4,3 M 4,0 V 3 L 5,5 H 6 L 8,4"
         inkscape:connector-curvature="0" />
      <path
         id="path862"
         transform="translate(292)"
         style="fill:none;stroke:#000000"
         d="m -9,4 2,-3 2,-1 2,1 v 2 l -2,6 m 0,-9 1,1 V 3 L -6,9 M -3,3 -1,1 1,0 H 2 L 4,1 V 3 L 3,6 V 8 L 4,9 M 2,0 3,1 V 3 L 2,6 V 8 L 4,9 6,8 7,7 9,4"
         inkscape:connector-curvature="0" />
      <path
         id="path864"
         transform="translate(305)"
         style="fill:none;stroke:#000000"
         d="M -4,4 -2,1 0,-3 M 3,-12 -3,6 V 8 L -1,9 1,8 2,7 4,4 M 4,-12 -2,6 v 2 l 1,1 M -2,-4 h 6"
         inkscape:connector-curvature="0" />
      <path
         id="path866"
         transform="translate(313)"
         style="fill:none;stroke:#000000"
         d="m -4,4 2,-3 1,-2 V 1 L 2,3 3,5 V 7 L 2,8 0,9 M -1,1 1,3 2,5 V 7 L 0,9 M -4,8 -2,9 H 3 L 6,7 8,4"
         inkscape:connector-curvature="0" />
      <path
         id="path860"
         transform="translate(279)"
         style="fill:none;stroke:#000000"
         d="M 1,-6 0,-5 1,-4 2,-5 1,-6 M -1,0 -3,6 V 8 L -1,9 1,8 2,7 4,4 M 0,0 -2,6 v 2 l 1,1"
         inkscape:connector-curvature="0" />
      <path
         id="path824"
         transform="translate(10)"
         style="fill:none;stroke:#000000"
         d="m 1,-12 -2,1 -2,2 -2,3 -1,2 -1,4 v 4 l 1,3 1,1 2,1 h 2 L 2,8 4,6 6,3 7,1 8,-3 V -7 L 7,-10 6,-11 H 5 l -2,1 -2,2 -2,4 -1,5 v 3 m 1,-15 -2,3 -2,4 -1,4 v 4 l 1,3 2,2"
         inkscape:connector-curvature="0" />
    </g>
    <g
       id="g997"
       transform="matrix(0.26458333,0,0,0.26458333,0.08384683,268.60411)"
       inkscape:label="Hershey Text">
      <path
         id="path967"
         transform="translate(14)"
         style="fill:none;stroke:#000000"
         d="m -10,-10 2,1 v 2 l -1,2 -1,3 m 1,-7 v 2 l -1,5 v 3 l 1,3 1,1 2,1 h 1 V 4 l 1,-3 1,-2 m -5,6 h 2 l 1,-1 m 10,-10 2,1 2,3 1,3 V 3 L 8,2 5,3 M 9,-2 V 1 L 8,2"
         inkscape:connector-curvature="0" />
      <path
         id="path969"
         transform="translate(41)"
         style="fill:none;stroke:#000000"
         d="m -10,7 -1,1 1,1 1,-1 -1,-1"
         inkscape:connector-curvature="0" />
      <path
         id="path971"
         transform="translate(68)"
         style="fill:none;stroke:#000000"
         d="m -3,-12 h 2 l 2,1 1,1 H 0 l -2,1 m 1,-3 1,1 v 1 m -6,4 -1,2 -1,4 v 2 l 1,1 4,-3 2,-1 3,-1 h 3 l 2,1 1,2 V 3 L 7,5 5,7 3,8 -1,9 h -2 m -5,-9 1,2 h 1 M 5,-2 6,-1 7,1 V 3 L 6,5 4,7 2,8 -1,9"
         inkscape:connector-curvature="0" />
      <path
         id="path973"
         transform="translate(95)"
         style="fill:none;stroke:#000000"
         d="m -5,-12 2,1 v 2 L -5,9 m 1,-20 V 9 H -5 L -6,6 -7,5 -9,4 m -1,-10 1,2 h 2 l 4,-2 v 1 m -6,0 h 3 l 3,-1 -2,4 m 2,-3 -2,3 -2,3 -3,4 V 4 l 3,-3 4,-4 4,-3 3,-1 H 5 L 7,-6 8,-4 7,6 V 8 L 8,9 M 5,-7 6,-6 7,-4 6,6 V 8 L 7,9 H 8 L 9,8 10,6"
         inkscape:connector-curvature="0" />
      <path
         id="path975"
         transform="translate(122)"
         style="fill:none;stroke:#000000"
         d="m -2,-12 2,1 1,1 1,2 -1,1 -3,-1 h -3 l -1,1 v 2 l 3,7 2,7 m 1,-20 1,2 v 2 m -4,9 3,6 -1,1 m -9,-13 1,2 h 2 l 3,-2 4,-2 4,-1 h 3 l 2,1 1,2 v 2 L 9,0 8,1 5,2 H 2 L -1,1 m -8,-4 h 2 l 3,-1 m 11,-3 1,1 1,2 v 2 L 8,0 7,1 5,2"
         inkscape:connector-curvature="0" />
      <path
         id="path977"
         transform="translate(149)"
         style="fill:none;stroke:#000000"
         d="m -10,7 -1,1 1,1 1,-1 -1,-1"
         inkscape:connector-curvature="0" />
      <path
         id="path979"
         transform="translate(176)"
         style="fill:none;stroke:#000000"
         d="m -4,-12 3,1 1,4 1,3 2,4 3,4 -1,1 m -7,-16 2,4 m 3,7 2,5 m -11,-12 2,1 h 3 l 3,-1 m -11,4 1,1 3,1 h 5 l 5,-1 3,-1 m -3,1 2,-2 1,1 M 5,5 3,4 0,3 h -4 l -2,1 -1,1 v 2 l 1,1 2,1 3,1 H 5 M -4,9 h 8 l 1,1 m 0,-20 2,2 m 0,-4 2,2"
         inkscape:connector-curvature="0" />
      <path
         id="path981"
         transform="translate(203)"
         style="fill:none;stroke:#000000"
         d="m -5,-11 1,2 h 2 l 4,-2 m -6,1 h 2 l 4,-1 1,1 m 0,0 -4,6 -4,8 -1,2 -1,1 H -9 L -10,5 V 3 l 1,-2 2,-2 3,-2 4,-1 h 4 l 3,1 2,2 1,2 V 4 L 9,6 7,8 5,9 H 2 L 0,8 -1,7 V 6 L 0,5 H 2 L 4,6 6,8 M 2,-11 -1,-4 M -8,7 -9,5 V 3 L -8,0 M 8,-2 9,1 V 4 L 8,7"
         inkscape:connector-curvature="0" />
      <path
         id="path983"
         transform="translate(230)"
         style="fill:none;stroke:#000000"
         d="m -10,7 -1,1 1,1 1,-1 -1,-1"
         inkscape:connector-curvature="0" />
      <path
         id="path985"
         transform="translate(257)"
         style="fill:none;stroke:#000000"
         d="m -2,-12 2,1 v 1 l -2,4 -2,3 -3,3 -3,3 m 9,-14 v 1 l -1,4 m -5,6 -3,2 v 1 m 5,-5 2,-1 h 2 l 2,1 1,2 v 4 m -3,-7 1,1 1,2 V 5 L 2,4 m -11,-12 3,1 h 3 l 4,-1 4,-1 m -4,1 3,-2 1,1 m 4,6 1,2 -8,1 -3,1 -2,1 -1,2 v 2 l 1,2 2,1 H 7 M 9,-2 2,0 M 2,9 6,8 7,9"
         inkscape:connector-curvature="0" />
      <path
         id="path987"
         transform="translate(284)"
         style="fill:none;stroke:#000000"
         d="m -1,-12 2,2 -3,5 -4,7 -4,7 M 0,-11 -2,-5 M -10,9 V 7 l 4,-5 2,-2 2,-1 H 0 L 2,0 V 5 L 3,7 4,8 M 0,-1 1,0 V 5 L 2,7 4,8 H 6 L 8,7 9,5 10,2"
         inkscape:connector-curvature="0" />
      <path
         id="path989"
         transform="translate(311)"
         style="fill:none;stroke:#000000"
         d="m -10,-10 2,1 v 2 l -1,2 -1,3 m 1,-7 v 2 l -1,5 v 3 l 1,3 1,1 2,1 h 1 V 4 l 1,-3 1,-2 m -5,6 h 2 l 1,-1 m 10,-10 2,1 2,3 1,3 V 3 L 8,2 5,3 M 9,-2 V 1 L 8,2"
         inkscape:connector-curvature="0" />
      <path
         id="path991"
         transform="translate(338)"
         style="fill:none;stroke:#000000"
         d="m -5,-12 2,1 v 2 L -5,9 m 1,-20 V 9 H -5 L -6,6 -7,5 -9,4 m -1,-10 1,2 h 2 l 4,-2 v 1 m -6,0 h 3 l 3,-1 -2,4 m 2,-3 -2,3 -2,3 -3,4 V 4 l 3,-3 4,-4 4,-3 3,-1 H 5 L 7,-6 8,-4 7,6 V 8 L 8,9 M 5,-7 6,-6 7,-4 6,6 V 8 L 7,9 H 8 L 9,8 10,6"
         inkscape:connector-curvature="0" />
    </g>
    <g
       id="g714"
       transform="matrix(0.26458333,0,0,0.26458333,0.48258509,279.17995)"
       inkscape:label="Hershey Text">
      <path
         id="path712"
         transform="translate(362)"
         style="fill:none;stroke:#000000"
         d="M 6,-2 5,-4 2,-5 h -3 l -3,1 -1,2 1,2 2,1 5,1 2,1 1,2 V 6 L 5,8 2,9 H -1 L -4,8 -5,6"
         inkscape:connector-curvature="0" />
      <path
         id="path710"
         transform="translate(347)"
         style="fill:none;stroke:#000000"
         d="M 0,-12 V 5 L 1,8 3,9 H 5 M -3,-5 h 7"
         inkscape:connector-curvature="0" />
      <path
         id="path678"
         transform="translate(86)"
         style="fill:none;stroke:#000000"
         d=""
         inkscape:connector-curvature="0" />
      <path
         id="path692"
         transform="translate(209)"
         style="fill:none;stroke:#000000"
         d=""
         inkscape:connector-curvature="0" />
      <path
         id="path708"
         transform="translate(332)"
         style="fill:none;stroke:#000000"
         d="M -5,-5 V 9 m 0,-10 3,-3 2,-1 h 3 l 2,1 1,3 V 9"
         inkscape:connector-curvature="0" />
      <path
         id="path706"
         transform="translate(319)"
         style="fill:none;stroke:#000000"
         d="m -1,-12 1,1 1,-1 -1,-1 -1,1 m 1,7 V 9"
         inkscape:connector-curvature="0" />
      <path
         id="path704"
         transform="translate(309)"
         style="fill:none;stroke:#000000"
         d="M -3,-5 V 9 m 0,-8 1,-3 2,-2 2,-1 h 3"
         inkscape:connector-curvature="0" />
      <path
         id="path702"
         transform="translate(293)"
         style="fill:none;stroke:#000000"
         d="m -6,-5 v 21 m 0,-18 2,-2 2,-1 h 3 l 2,1 2,2 1,3 V 3 L 5,6 3,8 1,9 H -2 L -4,8 -6,6"
         inkscape:connector-curvature="0" />
      <path
         id="path700"
         transform="translate(274)"
         style="fill:none;stroke:#000000"
         d="M -6,1 H 6 V -1 L 5,-3 4,-4 2,-5 h -3 l -2,1 -2,2 -1,3 v 2 l 1,3 2,2 2,1 H 2 L 4,8 6,6"
         inkscape:connector-curvature="0" />
      <path
         id="path698"
         transform="translate(255)"
         style="fill:none;stroke:#000000"
         d="M -5,-5 V 5 l 1,3 2,1 H 1 L 3,8 6,5 M 6,-5 V 9"
         inkscape:connector-curvature="0" />
      <path
         id="path696"
         transform="translate(242)"
         style="fill:none;stroke:#000000"
         d="M 0,-12 V 9"
         inkscape:connector-curvature="0" />
      <path
         id="path694"
         transform="translate(228)"
         style="fill:none;stroke:#000000"
         d="M -7,-12 V 9 m 0,-21 h 9 l 3,1 1,1 1,2 v 2 l -1,2 -1,1 -3,1 m -9,0 h 9 l 3,1 1,1 1,2 V 5 L 6,7 5,8 2,9 h -9"
         inkscape:connector-curvature="0" />
      <path
         id="path690"
         transform="translate(192)"
         style="fill:none;stroke:#000000"
         d="M -6,1 H 6 V -1 L 5,-3 4,-4 2,-5 h -3 l -2,1 -2,2 -1,3 v 2 l 1,3 2,2 2,1 H 2 L 4,8 6,6"
         inkscape:connector-curvature="0" />
      <path
         id="path688"
         transform="translate(174)"
         style="fill:none;stroke:#000000"
         d="M 6,-2 4,-4 2,-5 h -3 l -2,1 -2,2 -1,3 v 2 l 1,3 2,2 2,1 H 2 L 4,8 6,6"
         inkscape:connector-curvature="0" />
      <path
         id="path686"
         transform="translate(159)"
         style="fill:none;stroke:#000000"
         d="M -3,-5 V 9 m 0,-8 1,-3 2,-2 2,-1 h 3"
         inkscape:connector-curvature="0" />
      <path
         id="path684"
         transform="translate(142)"
         style="fill:none;stroke:#000000"
         d="M -5,-5 V 5 l 1,3 2,1 H 1 L 3,8 6,5 M 6,-5 V 9"
         inkscape:connector-curvature="0" />
      <path
         id="path682"
         transform="translate(123)"
         style="fill:none;stroke:#000000"
         d="m -1,-5 -2,1 -2,2 -1,3 v 2 l 1,3 2,2 2,1 H 2 L 4,8 6,6 7,3 V 1 L 6,-2 4,-4 2,-5 h -3"
         inkscape:connector-curvature="0" />
      <path
         id="path680"
         transform="translate(104)"
         style="fill:none;stroke:#000000"
         d="m 7,-9 -2,-2 -3,-1 h -4 l -3,1 -2,2 v 2 l 1,2 1,1 2,1 6,2 2,1 1,1 1,2 V 6 L 5,8 2,9 H -2 L -5,8 -7,6"
         inkscape:connector-curvature="0" />
      <path
         id="path676"
         transform="translate(68)"
         style="fill:none;stroke:#000000"
         d="M -5,-5 V 9 m 0,-10 3,-3 2,-1 h 3 l 2,1 1,3 V 9"
         inkscape:connector-curvature="0" />
      <path
         id="path674"
         transform="translate(50)"
         style="fill:none;stroke:#000000"
         d="M -6,1 H 6 V -1 L 5,-3 4,-4 2,-5 h -3 l -2,1 -2,2 -1,3 v 2 l 1,3 2,2 2,1 H 2 L 4,8 6,6"
         inkscape:connector-curvature="0" />
      <path
         id="path672"
         transform="translate(32)"
         style="fill:none;stroke:#000000"
         d="m -6,-5 v 21 m 0,-18 2,-2 2,-1 h 3 l 2,1 2,2 1,3 V 3 L 5,6 3,8 1,9 H -2 L -4,8 -6,6"
         inkscape:connector-curvature="0" />
      <path
         id="path670"
         transform="translate(11)"
         style="fill:none;stroke:#000000"
         d="m -2,-12 -2,1 -2,2 -1,2 -1,3 v 5 l 1,3 1,2 2,2 2,1 H 2 L 4,8 6,6 7,4 8,1 V -4 L 7,-7 6,-9 4,-11 2,-12 h -4"
         inkscape:connector-curvature="0" />
    </g>
    <g
       id="g396"
       transform="matrix(0.26458333,0,0,0.26458333,1.9172976,290.22522)"
       inkscape:label="Hershey Text">
      <path
         id="path360"
         transform="translate(84)"
         style="fill:none;stroke:#000000"
         d=""
         inkscape:connector-curvature="0" />
      <path
         id="path352"
         transform="translate(13)"
         style="fill:none;stroke:#000000"
         d="m -4,-12 -2,1 -2,2 -1,2 -1,3 v 4 l 1,3 1,2 2,2 2,1 3,1 H 1 L 4,8 6,7 8,5 9,3 10,0 v -4 l -1,-3 -1,-2 -2,-2 -2,-1 -1,1 -3,2 -3,1 m -5,0 -1,3 v 6 l 1,3 m 4,-16 -2,2 -1,2 -1,3 v 6 l 1,3 1,2 2,2 M 8,4 9,1 V -5 L 7,-9 6,-10 M 4,8 6,6 7,4 8,1 V -5 L 7,-7 5,-10 3,-11 m -6,3 V 5 M -2,-8 V 3 M -1,-8 V 2 L -2,4 -3,5 M 3,-11 V 8 M 3,-5 5,-4 H 6 L 8,-5 M 3,1 5,0 h 1 l 2,1"
         inkscape:connector-curvature="0" />
      <path
         id="path354"
         transform="translate(35)"
         style="fill:none;stroke:#000000"
         d="m -6,-5 1,2 v 9 l -2,1 h 2 v 9 m 0,-20 1,1 v 18 l 1,-1 -1,-2 m 0,-5 h 1 l 2,1 m -5,-13 2,1 1,1 v 9 l 2,1 1,1 M -3,8 -2,9 0,8 3,7 h 2 m -8,1 v 4 l 1,2 -3,2 m 2,-18 3,-1 2,-1 1,-1 1,1 2,1 H 7 L 5,-2 V 7 M 2,-4 4,-3 V 6 M 0,-3 h 1 l 2,1 v 9"
         inkscape:connector-curvature="0" />
      <path
         id="path356"
         transform="translate(52)"
         style="fill:none;stroke:#000000"
         d="m -4,-3 v 9 l -2,1 h 1 l 2,1 1,1 M -3,-3 V 7 l 2,1 M -2,-3 V 6 L 0,7 H 1 L -1,8 -2,9 M -4,-3 0,-4 2,-5 5,-1 3,0 -2,3 m 3,-7 3,3 m -6,-2 2,-1 3,4"
         inkscape:connector-curvature="0" />
      <path
         id="path358"
         transform="translate(67)"
         style="fill:none;stroke:#000000"
         d="m -7,-3 h 1 l 1,1 v 8 l -2,1 h 1 l 2,1 1,1 m -2,-13 1,1 V 7 l 2,1 m -5,-11 2,-2 2,2 v 9 l 2,1 -2,2 m 0,-11 3,-1 2,-1 1,-1 1,1 2,1 H 7 L 5,-2 V 6 L 6,7 H 7 M 2,-4 4,-3 V 7 L 5,8 M 0,-3 h 1 l 2,1 V 7 L 5,9 7,7"
         inkscape:connector-curvature="0" />
      <path
         id="path362"
         transform="translate(103)"
         style="fill:none;stroke:#000000"
         d="m 3,-9 -1,-1 -2,-1 -3,-1 m 7,2 -2,-1 m 3,0 -4,-1 h -4 l -3,1 -1,1 -1,2 1,2 1,1 3,1 h 8 l 2,1 1,1 V 0 L 7,3 m -14,-10 1,1 3,1 h 9 l 2,1 1,1 v 2 L 8,1 M -7,-10 v 2 l 1,1 3,1 H 7 l 2,1 1,2 v 2 L 7,3 3,9 m -12,-12 1,1 2,1 H 3 L 4,0 V 1 L 3,3 M -8,-1 -6,0 H 2 L 3,1 M -9,-3 v 1 l 1,2 2,1 H 1 L 3,2 V 3 M -9,9 -6,7 -2,6 H 1 L 4,7 M -7,8 -4,7 H 0 L 3,8 M -9,9 -5,8 h 5 l 3,1 m 2,-20 -2,2 -2,3 m -1,2 -2,3 M -3,1 -5,3 -7,4 H -8 V 3 l 1,1"
         inkscape:connector-curvature="0" />
      <path
         id="path364"
         transform="translate(124)"
         style="fill:none;stroke:#000000"
         d="m -5,-3 v 9 l -2,1 m 3,-9 v 8 l 3,2 M -3,-3 v 9 l 2,1 1,1 M -7,7 h 2 L -3,8 -2,9 0,8 3,7 H 5 M -5,-3 h 2 l 3,-1 2,-1 1,1 2,1 H 7 L 5,-2 V 7 M 1,-4 4,-2 v 8 m -4,-10 1,1 2,1 v 9"
         inkscape:connector-curvature="0" />
      <path
         id="path366"
         transform="translate(142)"
         style="fill:none;stroke:#000000"
         d="m -7,-3 h 1 l 1,1 v 8 l -2,1 m 1,-11 2,1 V 7 l 2,1 m -5,-11 2,-2 2,2 v 9 l 2,1 h 1 m -7,0 h 1 l 2,1 1,1 1,-1 2,-1 3,-1 m 0,-11 1,1 2,1 H 7 L 5,-2 V 6 L 6,7 H 7 M 2,-4 4,-3 V 7 L 5,8 M 3,-5 1,-3 3,-2 V 7 L 5,9 7,7"
         inkscape:connector-curvature="0" />
      <path
         id="path368"
         transform="translate(159)"
         style="fill:none;stroke:#000000"
         d="m -6,-3 h 1 l 1,1 v 8 l -2,1 h 1 l 2,1 1,1 m -3,-13 2,1 V 7 l 2,1 m -5,-11 2,-2 2,2 v 9 l 2,1 h 1 l -2,1 -1,1 m 0,-12 4,-2 1,1 2,1 h 1 m -5,-1 1,1 h 2 m -4,-1 2,2 h 2 l 2,-1"
         inkscape:connector-curvature="0" />
      <path
         id="path370"
         transform="translate(173)"
         style="fill:none;stroke:#000000"
         d="m -4,-3 v 9 l -2,1 h 1 l 2,1 1,1 M -3,-3 V 7 l 2,1 M -2,-3 v 9 l 2,1 h 1 l -2,1 -1,1 m -2,-12 4,-1 2,-1 1,1 2,1 h 1 m -5,-1 1,1 h 2 m -6,0 2,-1 2,2 h 2 l 2,-1"
         inkscape:connector-curvature="0" />
      <path
         id="path372"
         transform="translate(187)"
         style="fill:none;stroke:#000000"
         d="m -4,-3 v 9 l -2,1 h 1 l 2,1 1,1 M -3,-3 V 7 l 2,1 M -2,-3 V 6 L 0,7 H 1 L -1,8 -2,9 M -4,-3 0,-4 2,-5 5,-1 3,0 -2,3 m 3,-7 3,3 m -6,-2 2,-1 3,4"
         inkscape:connector-curvature="0" />
      <path
         id="path374"
         transform="translate(201)"
         style="fill:none;stroke:#000000"
         d=""
         inkscape:connector-curvature="0" />
      <path
         id="path376"
         transform="translate(221)"
         style="fill:none;stroke:#000000"
         d="m -10,-10 2,-2 h 3 l 2,1 2,-1 m -6,1 h 3 m -6,1 2,-1 2,1 h 3 l 2,-2 m -4,5 -1,1 -1,2 v 1 h -2 l -1,1 v 2 l 1,-1 h 2 v 6 m 1,-10 v 8 m -3,-5 h 3 m 1,-5 v 9 l -1,2 -1,1 m 7,-14 -1,1 -1,2 V 3 M -1,-7 V 1 M 0,-9 v 9 l -1,2 -1,1 m 2,-12 6,-3 2,1 1,2 v 2 l -2,2 -4,2 m 3,-8 2,2 v 2 m -4,-4 2,1 1,1 v 3 l -2,2 m 0,0 3,2 1,2 V 6 M 7,-2 8,0 v 5 m -3,-9 1,1 1,2 V 6 M -8,9 -5,7 -2,6 H 2 L 5,7 M -6,8 -3,7 H 2 L 4,8 M -8,9 -4,8 H 1 L 3,9 5,7 7,6 H 9 M 3,-3 V 6 M 3,0 H 7 M 3,3 h 4"
         inkscape:connector-curvature="0" />
      <path
         id="path378"
         transform="translate(238)"
         style="fill:none;stroke:#000000"
         d="m -2,-10 1,2 V 6 l -2,1 h 1 L 0,8 1,9 M 0,-8 -1,-10 0,-11 V 7 l 2,1 m -4,-18 3,-2 V 6 L 3,7 H 4 L 2,8 1,9"
         inkscape:connector-curvature="0" />
      <path
         id="path380"
         transform="translate(252)"
         style="fill:none;stroke:#000000"
         d="m -7,-3 h 1 l 1,1 v 8 l -2,1 m 1,-11 2,1 V 7 l 2,1 m -5,-11 2,-2 2,2 v 9 l 2,1 h 1 m -7,0 h 1 l 2,1 1,1 1,-1 2,-1 3,-1 m 0,-11 1,1 2,1 H 7 L 5,-2 V 6 L 6,7 H 7 M 2,-4 4,-3 V 7 L 5,8 M 3,-5 1,-3 3,-2 V 7 L 5,9 7,7"
         inkscape:connector-curvature="0" />
      <path
         id="path382"
         transform="translate(269)"
         style="fill:none;stroke:#000000"
         d="m -4,-3 v 9 l -2,1 h 1 l 2,1 1,1 M -3,-3 V 7 l 2,1 M -2,-3 V 6 L 0,7 H 1 L -1,8 -2,9 M -4,-3 0,-4 2,-5 5,-1 3,0 -2,3 m 3,-7 3,3 m -6,-2 2,-1 3,4"
         inkscape:connector-curvature="0" />
      <path
         id="path384"
         transform="translate(284)"
         style="fill:none;stroke:#000000"
         d="m -6,-5 1,2 v 9 l -2,1 h 2 v 9 m 0,-20 1,1 v 18 l 1,-1 -1,-2 m 0,-5 h 1 l 2,1 m -5,-13 2,1 1,1 v 9 l 2,1 1,1 M -3,8 -2,9 0,8 3,7 h 2 m -8,1 v 4 l 1,2 -3,2 m 2,-18 3,-1 2,-1 1,-1 1,1 2,1 H 7 L 5,-2 V 7 M 2,-4 4,-3 V 6 M 0,-3 h 1 l 2,1 v 9"
         inkscape:connector-curvature="0" />
      <path
         id="path386"
         transform="translate(301)"
         style="fill:none;stroke:#000000"
         d="m -6,-3 h 1 l 1,1 v 8 l -2,1 h 1 l 2,1 1,1 m -3,-13 2,1 V 7 l 2,1 m -5,-11 2,-2 2,2 v 9 l 2,1 h 1 l -2,1 -1,1 m 0,-12 4,-2 1,1 2,1 h 1 m -5,-1 1,1 h 2 m -4,-1 2,2 h 2 l 2,-1"
         inkscape:connector-curvature="0" />
      <path
         id="path388"
         transform="translate(312)"
         style="fill:none;stroke:#000000"
         d="m 0,-12 -2,2 2,1 2,-1 -2,-2 m 0,1 -1,1 h 2 l -1,-1 m 0,6 -1,1 -2,1 2,1 V 7 L 1,9 3,7 m -3,-9 1,-1 -1,-1 -1,1 1,1 v 9 l 1,1 m -1,-13 1,1 2,1 -2,1 v 8 l 1,1 h 1"
         inkscape:connector-curvature="0" />
      <path
         id="path390"
         transform="translate(326)"
         style="fill:none;stroke:#000000"
         d="m -7,-3 h 1 l 1,1 v 8 l -2,1 h 1 l 2,1 1,1 m -2,-13 1,1 V 7 l 2,1 m -5,-11 2,-2 2,2 v 9 l 2,1 -2,2 m 0,-11 3,-1 2,-1 1,-1 1,1 2,1 H 7 L 5,-2 V 6 L 6,7 H 7 M 2,-4 4,-3 V 7 L 5,8 M 0,-3 h 1 l 2,1 V 7 L 5,9 7,7"
         inkscape:connector-curvature="0" />
      <path
         id="path392"
         transform="translate(340)"
         style="fill:none;stroke:#000000"
         d="m -2,-10 1,2 V 6 l -2,1 h 1 L 0,8 1,9 M 0,-8 -1,-10 0,-11 V 7 l 2,1 m -4,-18 3,-2 V 6 L 3,7 H 4 L 2,8 1,9 M -4,-5 h 3 m 2,0 h 3"
         inkscape:connector-curvature="0" />
      <path
         id="path394"
         transform="translate(353)"
         style="fill:none;stroke:#000000"
         d="m -5,-3 v 4 l 2,1 H 3 L 5,3 V 7 M -4,-3 v 4 m 8,2 v 4 m -6,-11 -1,1 v 4 l 2,1 M 1,2 3,3 V 7 L 2,8 m -7,-11 3,-1 2,-1 2,1 h 2 l 1,-1 m -6,1 h 2 m -3,0 2,1 H 2 L 4,-4 M 5,7 2,8 0,9 -2,8 H -4 L -6,9 M 1,8 H -1 M 2,8 0,7 H -3 L -6,9 M 5,-5 4,-3 2,0 -3,5 -6,9"
         inkscape:connector-curvature="0" />
    </g>
    <g
       id="g1135"
       transform="matrix(0.26458333,0,0,0.26458333,-1.7738263,264.65422)"
       inkscape:label="Hershey Text">
      <path
         id="path1115"
         transform="translate(111)"
         style="fill:none;stroke:#000000"
         d=""
         inkscape:connector-curvature="0" />
      <path
         id="path1129"
         transform="translate(252)"
         style="fill:none;stroke:#000000"
         d="m -20,-92.000001 2,3 2,-3 m -7,-3 5,5 5,-5 M -18,-107 v 16.999999"
         inkscape:connector-curvature="0"
         sodipodi:nodetypes="cccccccc" />
      <path
         id="path1127"
         transform="translate(232)"
         style="fill:none;stroke:#000000"
         d="m -58.633805,-102.16902 v 6.999998 l 1,4 1,2 2,2 3,1 h 2 l 3,-1 2,-2 1,-2 1,-4 v -6.999998"
         inkscape:connector-curvature="0"
         sodipodi:nodetypes="cccccccccccc" />
    </g>
    <g
       id="g1289"
       transform="matrix(0.26458333,0,0,0.26458333,-0.61860398,238.41575)"
       inkscape:label="Hershey Text">
      <path
         id="path1269"
         transform="translate(106)"
         style="fill:none;stroke:#000000"
         d=""
         inkscape:connector-curvature="0" />
      <path
         id="path1283"
         transform="translate(262)"
         style="fill:none;stroke:#000000"
         d="m 0,-9 -1,1 1,1 1,-1 -1,-1 M -9,7 -10,8 -9,9 -8,8 -9,7 M 9,7 8,8 9,9 10,8 9,7"
         inkscape:connector-curvature="0" />
      <path
         id="path1287"
         transform="translate(298)"
         style="fill:none;stroke:#000000"
         d="M -5,-5 5,5"
         inkscape:connector-curvature="0" />
      <path
         id="path1277"
         transform="translate(206)"
         style="fill:none;stroke:#000000"
         d="m -4,-39 3,2 2,2 1,2 1,3 v 4 l -1,4 -4,8 -1,3 v 3 l 1,3 2,3 m -1,-35 2,3 1,4 v 4 l -1,3 -4,8 -1,4 v 3 l 1,3 3,3 4,2 -4,2 -3,3 -1,3 v 3 l 1,4 4,8 1,3 v 4 l -1,4 -2,3 M 0,2 -2,5 -3,8 v 3 l 1,3 4,8 1,4 v 4 l -1,3 -1,2 -2,2 -3,2"
         inkscape:connector-curvature="0" />
      <path
         id="path1273"
         transform="translate(150)"
         style="fill:none;stroke:#000000"
         d="m 0,-11 -2,3 -4,5 -3,3 m 9,-11 2,3 4,5 3,3 m -18,0 3,3 4,5 2,3 M 9,0 6,3 2,8 0,11"
         inkscape:connector-curvature="0" />
      <path
         id="path1271"
         transform="translate(126)"
         style="fill:none;stroke:#000000"
         d="m 9,-11 -1,1 1,1 1,-1 -1,-1 -3,-1 H 3 l -3,1 -2,2 -1,2 -1,3 -1,4 -2,9 -1,4 -1,2 m 12,-27 -2,1 -2,2 -1,2 -1,3 -2,9 -1,4 -1,3 -1,2 -1,1 -2,1 h -2 l -1,-1 v -1 l 1,-1 1,1 -1,1 M 7,-5 5,2 4,6 V 8 L 5,9 H 8 L 10,7 11,5 M 8,-5 6,2 5,6 V 8 L 6,9 M -8,-5 H 8"
         inkscape:connector-curvature="0" />
      <path
         id="path1267"
         transform="translate(90)"
         style="fill:none;stroke:#000000"
         d="m 0,7 -1,3 m 1,-3 1,3 m -2,0 H 1 M 0,7 3,8 H 6 L 8,6 V 3 L 7,2 H 5 L 7,0 8,-3 7,-5 5,-6 3,-5 4,-8 3,-10 1,-11 h -2 l -2,1 -1,2 1,3 -2,-1 -2,1 -1,2 1,3 2,2 h -2 l -1,1 v 3 l 2,2 h 3 L 0,7"
         inkscape:connector-curvature="0" />
      <path
         id="path1265"
         transform="translate(69)"
         style="fill:none;stroke:#000000"
         d="m 0,-9 -1,1 1,1 1,-1 -1,-1 M -9,7 -10,8 -9,9 -8,8 -9,7 M 9,7 8,8 9,9 10,8 9,7"
         inkscape:connector-curvature="0" />
      <path
         id="path1263"
         transform="translate(48)"
         style="fill:none;stroke:#000000"
         d="m 3,-9 -1,1 1,1 1,-1 v -1 l -1,-2 -2,-1 h -2 l -2,1 -1,2 v 2 l 1,2 2,2 5,3 m -7,-5 5,3 2,2 1,2 V 4 L 4,6 2,8 m -4,-12 -2,2 -1,2 v 2 l 1,2 2,2 5,3 m -7,-5 5,3 2,2 1,2 v 2 l -1,2 -2,1 h -2 l -2,-1 -1,-2 v -1 l 1,-1 1,1 -1,1"
         inkscape:connector-curvature="0" />
      <path
         id="path1261"
         transform="translate(32)"
         style="fill:none;stroke:#000000"
         d="m -24,0 h 7 L 0,29 M -18,0 -1,29 M -19,0 0,32 M 8,-48 4,-8 0,32"
         inkscape:connector-curvature="0" />
    </g>
  </g>
  <metadata
     id="metadata5">
    <rdf:RDF>
      <cc:Work
         rdf:about="">
        <dc:format>image/svg+xml</dc:format>
        <dc:type
           rdf:resource="http://purl.org/dc/dcmitype/StillImage" />
        <dc:title></dc:title>
        <dc:description>D3D Plotter Template</dc:description>
        <cc:license
           rdf:resource="http://creativecommons.org/licenses/by-sa/4.0/" />
      </cc:Work>
      <cc:License
         rdf:about="http://creativecommons.org/licenses/by-sa/4.0/">
        <cc:permits
           rdf:resource="http://creativecommons.org/ns#Reproduction" />
        <cc:permits
           rdf:resource="http://creativecommons.org/ns#Distribution" />
        <cc:requires
           rdf:resource="http://creativecommons.org/ns#Notice" />
        <cc:requires
           rdf:resource="http://creativecommons.org/ns#Attribution" />
        <cc:permits
           rdf:resource="http://creativecommons.org/ns#DerivativeWorks" />
        <cc:requires
           rdf:resource="http://creativecommons.org/ns#ShareAlike" />
      </cc:License>
    </rdf:RDF>
  </metadata>
</svg>
