<?xml version="1.0" encoding="UTF-8" standalone="no"?>
<!-- Created with Inkscape (http://www.inkscape.org/) -->

<svg
   xmlns:dc="http://purl.org/dc/elements/1.1/"
   xmlns:cc="http://creativecommons.org/ns#"
   xmlns:rdf="http://www.w3.org/1999/02/22-rdf-syntax-ns#"
   xmlns:svg="http://www.w3.org/2000/svg"
   xmlns="http://www.w3.org/2000/svg"
   xmlns:sodipodi="http://sodipodi.sourceforge.net/DTD/sodipodi-0.dtd"
   xmlns:inkscape="http://www.inkscape.org/namespaces/inkscape"
   width="120mm"
   height="150mm"
   viewBox="0 0 120 150"
   version="1.1"
   id="svg8"
   inkscape:version="0.92.5 (2060ec1f9f, 2020-04-08)"
   sodipodi:docname="family.svg">
  <defs
     id="defs2" />
  <sodipodi:namedview
     id="base"
     pagecolor="#ffffff"
     bordercolor="#666666"
     borderopacity="1.0"
     inkscape:pageopacity="0.0"
     inkscape:pageshadow="2"
     inkscape:zoom="0.98994949"
     inkscape:cx="227.43038"
     inkscape:cy="412.24125"
     inkscape:document-units="mm"
     inkscape:current-layer="layer1"
     showgrid="false"
     inkscape:window-width="1920"
     inkscape:window-height="1016"
     inkscape:window-x="0"
     inkscape:window-y="0"
     inkscape:window-maximized="1" />
  <metadata
     id="metadata5">
    <rdf:RDF>
      <cc:Work
         rdf:about="">
        <dc:format>image/svg+xml</dc:format>
        <dc:type
           rdf:resource="http://purl.org/dc/dcmitype/StillImage" />
        <dc:title></dc:title>
        <cc:license
           rdf:resource="http://creativecommons.org/licenses/by-sa/4.0/" />
      </cc:Work>
      <cc:License
         rdf:about="http://creativecommons.org/licenses/by-sa/4.0/">
        <cc:permits
           rdf:resource="http://creativecommons.org/ns#Reproduction" />
        <cc:permits
           rdf:resource="http://creativecommons.org/ns#Distribution" />
        <cc:requires
           rdf:resource="http://creativecommons.org/ns#Notice" />
        <cc:requires
           rdf:resource="http://creativecommons.org/ns#Attribution" />
        <cc:permits
           rdf:resource="http://creativecommons.org/ns#DerivativeWorks" />
        <cc:requires
           rdf:resource="http://creativecommons.org/ns#ShareAlike" />
      </cc:License>
    </rdf:RDF>
  </metadata>
  <g
     inkscape:label="Layer 1"
     inkscape:groupmode="layer"
     id="layer1"
     transform="translate(0,-147)">
    <path
       style="fill:#000000;stroke-width:0.1325146"
       d="m 50.11629,277.02051 c -0.76992,-0.3494 -1.22637,-0.7221 -1.56508,-1.27792 -0.15528,-0.25482 -0.30436,-0.44786 -0.33128,-0.42898 -0.1351,0.0947 -0.77115,-0.47433 -0.91299,-0.81676 -0.0891,-0.21509 -0.22069,-0.39108 -0.29242,-0.39108 -0.0717,0 -0.30809,-0.14948 -0.52521,-0.33217 -0.21712,-0.1827 -0.44934,-0.29844 -0.51606,-0.25721 -0.0667,0.0412 -0.12129,0.003 -0.12129,-0.0842 0,-0.18909 -0.81755,-0.99721 -0.96073,-0.94965 -0.0547,0.0182 -0.0994,-0.0863 -0.0994,-0.23202 0,-0.14576 -0.0495,-0.26502 -0.11012,-0.26502 -0.0606,0 -0.19052,-0.15022 -0.28878,-0.33382 -0.11155,-0.20843 -0.21292,-0.27836 -0.26989,-0.18618 -0.12987,0.21013 -0.38394,-0.85483 -0.42919,-1.79901 -0.0295,-0.61592 -0.43625,-1.05814 -1.41585,-1.53942 -0.53657,-0.26362 -1.04679,-0.57668 -1.13382,-0.6957 -0.087,-0.11902 -0.21186,-0.2164 -0.27739,-0.2164 -0.0655,0 -0.19364,-0.11926 -0.28468,-0.26503 -0.20142,-0.32252 -0.54855,-0.33207 -1.64335,-0.0452 -1.15937,0.30378 -1.79202,0.23706 -3.02433,-0.31893 -0.40515,-0.18279 -0.57003,-0.18676 -1.32515,-0.0319 -1.05947,0.2173 -1.82275,0.22205 -4.06319,0.0253 -1.64748,-0.14466 -4.04401,-0.58584 -4.34667,-0.80018 -0.0761,-0.0539 -0.3173,-0.1146 -0.53595,-0.13486 -0.21865,-0.0203 -0.81497,-0.27976 -1.32515,-0.57664 -1.54079,-0.89661 -3.16522,-1.6847 -3.44581,-1.67173 -0.14553,0.007 -0.75907,-0.0281 -1.36344,-0.0773 -1.6888,-0.13763 -3.74622,-0.12447 -4.33425,0.0277 -0.29154,0.0754 -0.84313,0.17736 -1.22576,0.22645 l -0.69571,0.0893 v -0.5425 c 0,-0.30827 0.0633,-0.54249 0.1467,-0.54249 0.0807,0 0.11236,0.0894 0.0704,0.19877 -0.12867,0.33529 0.36038,0.2316 0.96154,-0.20388 0.30571,-0.22145 0.83644,-0.67586 1.17938,-1.00979 0.56848,-0.55352 0.56284,-0.60587 -0.039,-0.36233 -0.11232,0.0455 -0.19877,0.01 -0.19877,-0.082 0,-0.0933 -0.18819,-0.0189 -0.44213,0.17481 l -0.44213,0.33723 0.0158,-0.45502 c 0.009,-0.25026 0.0735,-0.43966 0.14397,-0.42088 0.0705,0.0188 0.11724,0.0669 0.10388,0.10701 -0.0134,0.0401 0.18044,0.0729 0.43067,0.0729 0.25023,0 0.45497,-0.0477 0.45497,-0.10601 0,-0.0583 0.0859,-0.10601 0.19095,-0.10601 0.10502,0 0.23356,-0.0689 0.28563,-0.1532 0.0671,-0.10853 -0.0192,-0.13042 -0.29593,-0.0751 -0.32108,0.0642 -0.39404,0.0325 -0.40991,-0.17809 -0.0142,-0.18848 0.0661,-0.25621 0.30375,-0.25621 0.17874,0 0.32305,-0.0779 0.32305,-0.17439 0,-0.0959 0.20871,-0.35916 0.4638,-0.585 0.53628,-0.47478 0.58663,-0.62259 0.16669,-0.48931 -0.27483,0.0872 -0.28261,0.0755 -0.10376,-0.15671 0.10635,-0.13806 0.20197,-0.2676 0.21249,-0.28786 0.0105,-0.0203 0.17646,0.023 0.36878,0.0961 0.22466,0.0854 0.34966,0.0867 0.34966,0.004 0,-0.0711 -0.0982,-0.12924 -0.21812,-0.12924 -0.17404,0 -0.15395,-0.0624 0.0994,-0.30866 0.64398,-0.62604 0.82092,-0.9101 0.63751,-1.02346 -0.13861,-0.0857 -0.13806,-0.14435 0.003,-0.31421 0.0953,-0.11488 0.2628,-0.20887 0.37212,-0.20887 0.159,0 0.16673,-0.0386 0.0386,-0.19297 -0.19753,-0.23801 -0.0621,-0.48939 0.23708,-0.43999 0.1383,0.0228 0.21563,-0.0468 0.20525,-0.18478 -0.0109,-0.14489 0.0516,-0.19521 0.18093,-0.1456 0.15192,0.0583 0.17663,0.01 0.10691,-0.2099 -0.0629,-0.19812 -0.0269,-0.31019 0.11722,-0.36551 0.11435,-0.0439 0.20791,-0.16137 0.20791,-0.2611 0,-0.13972 -0.0777,-0.15176 -0.33886,-0.0525 -0.51816,0.19701 -0.25398,-0.12268 0.28878,-0.34946 0.32952,-0.13768 0.44762,-0.26969 0.44762,-0.50031 0,-0.17231 0.0909,-0.38872 0.20198,-0.48091 0.27516,-0.22836 0.14951,-0.31797 -0.19063,-0.13593 -0.36366,0.19463 -0.36496,-0.0494 -0.002,-0.30386 0.18139,-0.12705 0.22424,-0.22368 0.12608,-0.28434 -0.10782,-0.0666 -0.10265,-0.14735 0.0188,-0.29369 0.18344,-0.22103 0.15883,-1.07713 -0.0378,-1.31618 -0.0809,-0.0984 -0.0546,-0.17663 0.0764,-0.22688 0.21169,-0.0812 0.15827,-0.39312 -0.12835,-0.74932 -0.22356,-0.27785 -0.32898,-0.77998 -0.18272,-0.87037 0.0672,-0.0416 0.0873,-0.13203 0.0447,-0.20107 -0.0427,-0.069 -0.13308,-0.0912 -0.20093,-0.0493 -0.0679,0.0419 -0.12336,0.0161 -0.12336,-0.0575 0,-0.0736 0.0968,-0.18793 0.21513,-0.25414 0.42003,-0.23507 0.22025,-2.92549 -0.30503,-4.10765 -0.19001,-0.42763 -0.18329,-0.45214 0.27888,-1.01616 0.26048,-0.31788 0.4736,-0.64246 0.4736,-0.7213 0,-0.0788 0.0596,-0.14334 0.13251,-0.14334 0.29333,0 -0.0722,-2.74848 -0.51665,-3.88468 -0.26995,-0.6901 -0.17944,-1.17926 0.31851,-1.72144 0.25474,-0.27736 0.46317,-0.53278 0.46317,-0.56759 0,-0.0348 -0.15626,-0.37164 -0.34724,-0.74853 -0.29074,-0.57374 -0.33627,-0.80615 -0.27984,-1.42841 0.0371,-0.40875 0.21374,-1.03761 0.39263,-1.39746 0.75519,-1.5192 1.49331,-4.35325 2.29298,-8.80393 0.60129,-3.34662 0.83864,-4.05049 2.50716,-7.43513 1.15973,-2.35256 1.4472,-2.67808 3.73138,-4.22535 0.79352,-0.53751 1.48612,-1.04084 1.53911,-1.1185 0.12265,-0.17971 0.0323,-0.47827 -0.44293,-1.46437 -0.21024,-0.43621 -0.38226,-0.86174 -0.38226,-0.94563 0,-0.0839 -0.24152,-0.51419 -0.53671,-0.95625 -0.3,-0.44924 -0.6462,-1.20108 -0.78495,-1.70466 -0.3394,-1.23177 -0.53987,-2.78741 -0.40388,-3.13404 0.22692,-0.5784 0.55665,-2.32554 0.46643,-2.47151 -0.0513,-0.083 0.0965,-0.53619 0.32835,-1.00717 0.2834,-0.57566 0.48148,-1.25668 0.60434,-2.07777 0.16812,-1.12349 0.84819,-3.52047 1.36167,-4.79932 0.36664,-0.91314 1.7568,-2.87274 2.79145,-3.93488 0.54624,-0.56076 1.0417,-0.98957 1.10101,-0.95291 0.0593,0.0367 0.10785,0.005 0.10785,-0.0712 0,-0.11492 0.49305,-0.31799 0.81717,-0.33657 0.13708,-0.008 0.3092,-0.21092 0.3092,-0.36479 0,-0.0764 0.20871,-0.25269 0.4638,-0.39179 0.39557,-0.21571 0.65089,-0.24293 1.73551,-0.18501 0.69945,0.0374 1.38521,0.10759 1.52392,0.15607 0.73542,0.25707 1.9304,0.90639 2.59666,1.41096 1.28018,0.96951 3.40183,3.09234 3.49907,3.50101 0.0489,0.20569 0.15617,0.46343 0.23829,0.57275 0.0821,0.10933 0.26342,0.40749 0.40289,0.66258 0.13947,0.25509 0.31634,0.5055 0.39305,0.55648 0.18552,0.12328 0.51857,-0.19308 1.0108,-0.96015 0.67642,-1.05412 0.88711,-1.87676 1.05053,-4.10183 0.083,-1.12969 0.17812,-2.32232 0.21144,-2.65029 0.0333,-0.32797 0.0935,-1.04355 0.13366,-1.59018 0.20848,-2.83484 0.46656,-4.68088 0.74645,-5.33935 0.39185,-0.92184 1.09521,-2.01625 1.46004,-2.27179 0.16271,-0.11397 0.24568,-0.20722 0.18438,-0.20722 -0.0613,0 0.0772,-0.19296 0.30778,-0.42881 0.29072,-0.29736 0.44934,-0.38012 0.51743,-0.26996 0.0694,0.11225 0.23288,0.0437 0.5572,-0.23344 0.25247,-0.21577 0.39373,-0.39245 0.31392,-0.39262 -0.0798,-1.3e-4 -0.25303,0.11895 -0.38495,0.26472 -0.13192,0.14576 -0.30515,0.26288 -0.38495,0.26026 -0.0798,-0.003 0.0338,-0.15176 0.25244,-0.33143 0.21864,-0.17967 0.46523,-0.30128 0.54797,-0.27026 0.0827,0.031 0.26163,-0.0188 0.39754,-0.11071 0.41986,-0.28394 1.5933,-0.60808 2.19348,-0.60591 1.86373,0.007 4.11074,1.30856 5.45844,3.16236 0.65654,0.90309 1.56013,2.73595 1.74868,3.54704 0.16431,0.70683 0.16376,0.70935 -0.15444,0.70935 -0.20088,0 -0.31934,0.0766 -0.31934,0.20659 0,0.11378 0.0641,0.16698 0.14267,0.11842 0.53444,-0.33031 1.64591,2.49059 2.18237,5.53886 0.10581,0.60123 0.19246,1.30786 0.19256,1.5703 4e-4,0.89773 0.2239,1.2728 0.89491,1.50144 0.945,0.32199 0.96364,0.30988 0.75128,-0.48781 -0.24299,-0.91275 -0.23663,-1.48453 0.0189,-1.69657 0.21138,-0.17543 0.20425,-0.90975 -0.0209,-2.15586 -0.09,-0.49815 0.0242,-1.22851 0.43911,-2.80643 0.21098,-0.80246 1.23717,-2.54432 1.57543,-2.67412 0.10061,-0.0386 0.15397,-0.11706 0.11857,-0.17433 -0.0354,-0.0573 0.0915,-0.20629 0.28211,-0.33115 0.19055,-0.12485 0.30621,-0.16188 0.25702,-0.0823 -0.0492,0.0796 0.11516,0.0112 0.36522,-0.1519 0.25006,-0.16314 0.42853,-0.34134 0.39659,-0.396 -0.0319,-0.0547 0.005,-0.0994 0.0823,-0.0994 0.0772,0 0.14034,0.0596 0.14034,0.13252 0,0.18306 0.89028,0.16759 1.00464,-0.0175 0.051,-0.0825 -0.005,-0.20471 -0.12469,-0.27161 -0.11956,-0.0669 -0.21691,-0.16342 -0.21635,-0.21446 10e-4,-0.11116 0.64738,-0.42408 0.87569,-0.42408 0.0887,0 0.18119,-0.0592 0.20548,-0.13157 0.0772,-0.2299 1.70238,-0.28314 1.92253,-0.063 0.16844,0.16844 0.24054,0.16779 0.57507,-0.005 0.51549,-0.26657 1.03415,-0.25963 1.01036,0.0135 -0.0137,0.15764 0.13305,0.22533 0.57791,0.26652 0.32797,0.0304 0.7603,0.17559 0.96073,0.32273 0.3091,0.2269 0.36442,0.23554 0.36442,0.057 0,-0.11581 0.057,-0.17532 0.12672,-0.13224 0.0697,0.0431 0.0983,0.1525 0.0635,0.24316 -0.0365,0.0951 0.25854,0.35947 0.69789,0.6252 0.41862,0.2532 0.97146,0.69707 1.22854,0.98639 0.25708,0.28931 0.60158,0.65394 0.76557,0.81028 0.16398,0.15634 0.29816,0.33321 0.29816,0.39304 0,0.0598 0.11253,0.23188 0.25008,0.38234 0.4682,0.51218 1.07506,2.12402 1.07506,2.8554 0,0.73074 -0.19342,1.25474 -0.41305,1.119 -0.0741,-0.0458 -0.12368,-0.003 -0.11017,0.0957 0.0608,0.44329 -0.0305,0.65919 -0.33812,0.79937 -0.18221,0.083 -0.33129,0.22074 -0.33129,0.30605 0,0.0853 -0.1498,0.23528 -0.33289,0.33327 -0.30521,0.16334 -0.36721,0.14592 -0.74548,-0.20951 -0.48095,-0.45191 -1.22301,-1.91595 -1.05584,-2.08312 0.17771,-0.17771 -0.0642,-1.01239 -0.3956,-1.36519 -0.37162,-0.39557 -0.70932,-0.42505 -0.61214,-0.0534 0.0861,0.32917 0.10364,0.33184 -0.43594,-0.0663 -0.24697,-0.1822 -0.58372,-0.33128 -0.74834,-0.33128 -0.18984,0 -0.45507,-0.19385 -0.72526,-0.53006 l -0.42596,-0.53006 -1.13733,0.0105 c -0.62553,0.006 -1.06278,0.0405 -0.97168,0.0773 0.0911,0.0368 0.16366,0.22585 0.16123,0.42021 l -0.004,0.35337 -0.24873,-0.29816 c -0.26749,-0.32063 -0.53753,-0.39352 -0.53753,-0.14509 0,0.0886 -0.10792,0.0554 -0.25613,-0.0787 -0.19012,-0.17206 -0.36578,-0.20771 -0.68158,-0.13835 -0.77634,0.17051 -1.32225,0.46494 -1.47218,0.79398 -0.0815,0.17879 -0.25832,0.36006 -0.39303,0.40281 -0.13471,0.0428 -0.24492,0.13687 -0.24492,0.20914 0,0.0723 -0.0534,0.0984 -0.11863,0.0581 -0.0652,-0.0403 -0.15282,0.0158 -0.19461,0.1247 -0.0418,0.1089 -0.14101,0.19801 -0.22048,0.19801 -0.0795,0 -0.10674,-0.0745 -0.0606,-0.16565 0.0462,-0.0911 -0.002,-0.0613 -0.10617,0.0663 -0.10455,0.12755 -0.27862,0.2319 -0.38684,0.2319 -0.10821,0 -0.31035,0.12938 -0.44919,0.2875 -0.22168,0.25248 -0.2247,0.2774 -0.0248,0.20456 0.33631,-0.12252 0.36887,0.0284 0.22475,1.04154 -0.0718,0.50485 -0.13819,1.11424 -0.14752,1.35417 -0.009,0.23994 -0.0553,0.45994 -0.10212,0.48889 -0.11072,0.0684 -0.003,0.99632 0.11555,0.99632 0.0498,0 0.096,-0.312 0.10262,-0.69333 0.0112,-0.64658 0.0511,-0.7276 0.59066,-1.20139 l 0.57858,-0.50805 1.21825,0.0477 c 1.58215,0.0619 1.76333,0.20286 1.76333,1.3716 0,0.69495 -0.0547,0.89563 -0.33471,1.22842 -0.20143,0.2394 -0.28058,0.43123 -0.19877,0.48179 0.17488,0.10808 0.17768,0.59843 0.003,0.59843 -0.0729,0 -0.13251,0.0578 -0.13251,0.12835 0,0.0706 0.0935,0.0925 0.20776,0.0486 0.13662,-0.0524 0.38918,0.11483 0.7376,0.48848 l 0.52985,0.5682 0.99153,-0.12571 c 0.77952,-0.0988 1.02253,-0.0884 1.13648,0.0489 0.0797,0.0961 0.17411,0.14549 0.20975,0.10985 0.0356,-0.0356 0.17622,-0.005 0.3124,0.0677 0.31246,0.16722 0.3224,-0.0163 0.0157,-0.28964 -0.42394,-0.37787 -0.84886,-0.93584 -0.77156,-1.01314 0.1378,-0.13781 0.74809,0.27751 1.63149,1.11027 l 0.86922,0.8194 -0.0997,0.77514 c -0.0548,0.42632 -0.097,0.86458 -0.0937,0.97391 0.003,0.10932 -0.0538,0.43744 -0.12692,0.72915 -0.0845,0.33698 -0.0882,0.72924 -0.0104,1.07569 0.13351,0.59423 0.008,0.97796 -0.31857,0.97796 -0.18428,0 -0.61737,0.79632 -0.62416,1.14764 -0.002,0.0846 -0.11639,0.13194 -0.25501,0.10525 -0.14631,-0.0282 -0.23085,0.015 -0.20153,0.10296 0.0518,0.15541 -0.34908,0.63187 -0.53162,0.63187 -0.056,0 -0.32431,0.15123 -0.59632,0.33607 -0.39934,0.27135 -0.49438,0.41806 -0.49365,0.76195 6.6e-4,0.33746 0.0969,0.49127 0.46317,0.74071 0.41746,0.28429 0.56829,0.30903 1.55614,0.2552 1.3679,-0.0745 2.18044,-0.47082 2.60393,-1.26997 0.11691,-0.22062 0.54185,-2.18368 0.54374,-2.51187 10e-5,-0.0173 0.32219,0.1745 0.71576,0.42627 0.39358,0.25176 1.09425,0.5853 1.55705,0.74119 1.88308,0.6343 6.5359,2.83218 7.53641,3.56002 1.76515,1.28409 2.76338,2.25889 4.98221,4.86527 2.98447,3.50573 3.95752,4.84027 4.95338,6.79358 0.43467,0.85258 0.92557,1.67526 1.09088,1.82819 0.16531,0.15292 0.89689,0.60156 1.62572,0.99698 1.35683,0.73612 1.92146,1.29118 1.92146,1.88886 0,0.33154 0.21331,0.53918 1.06012,1.03189 0.32797,0.19084 0.78596,0.54381 1.01774,0.78438 0.23179,0.24058 0.81319,0.81884 1.29202,1.28502 l 0.87059,0.8476 v 5.14868 c -1e-5,4.20201 -0.0325,5.14869 -0.17668,5.14869 -0.0972,0 -0.5161,-0.0682 -0.93097,-0.15149 -0.69378,-0.13933 -0.73817,-0.16931 -0.55329,-0.3736 0.18489,-0.2043 0.12403,-0.24537 -0.75859,-0.51195 -0.52778,-0.1594 -1.46647,-0.38372 -2.08597,-0.49848 -1.21491,-0.22505 -4.14598,-1.32245 -5.96316,-2.23262 -2.09031,-1.04696 -6.39132,-3.96069 -7.80264,-5.28592 -0.24644,-0.2314 -0.67411,-0.76565 -0.95037,-1.18721 -0.43094,-0.65758 -0.51448,-0.72808 -0.58807,-0.49621 -0.0472,0.14864 -0.23682,0.44977 -0.42144,0.66917 l -0.33566,0.39891 0.47733,0.52836 c 0.46684,0.51674 0.55409,0.82769 0.4796,1.70937 -0.0433,0.5129 -0.64092,1.34144 -1.07722,1.49354 -0.35897,0.12514 -0.38828,0.17795 -0.30619,0.55171 0.0499,0.22733 0.18128,0.4795 0.29188,0.56038 0.1681,0.12292 0.15114,0.14497 -0.10336,0.13441 -0.16746,-0.007 -0.33038,0.0619 -0.36205,0.153 -0.0393,0.11304 0.0981,0.16564 0.4325,0.16564 h 0.49009 l -0.21402,0.32663 c -0.29114,0.44435 -0.26892,0.52337 0.0558,0.1986 0.32348,-0.32348 0.52898,-0.24103 0.42523,0.17061 -0.0831,0.32966 -1.47977,1.90688 -1.64389,1.85639 -0.0569,-0.0175 -0.17428,0.10063 -0.26092,0.26251 -0.0866,0.16188 -0.29712,0.40414 -0.46776,0.53836 -0.17063,0.13422 -0.31024,0.29866 -0.31024,0.36542 0,0.20346 -0.43414,0.65735 -1.01705,1.06331 -0.30429,0.21192 -0.64504,0.47709 -0.75723,0.58928 -0.11218,0.11218 -0.23718,0.19959 -0.27777,0.19422 -0.0406,-0.005 -0.16964,0.0439 -0.28678,0.10945 -0.14711,0.0823 -0.16642,0.14797 -0.0624,0.21223 0.25053,0.15484 -0.18113,0.47369 -0.64126,0.47369 -0.24324,0 -0.44232,0.0812 -0.48744,0.19878 -0.0419,0.10932 -0.19487,0.19877 -0.33982,0.19877 -0.14494,0 -0.42181,0.0848 -0.61526,0.18838 -0.19345,0.1036 -0.46348,0.22383 -0.60005,0.26717 -0.2164,0.0687 -0.19195,0.11685 0.19016,0.37481 0.51565,0.34811 1.38691,1.55695 1.59822,2.21747 0.19452,0.60802 0.3814,0.80467 0.3814,0.40136 0,-0.17283 -0.0815,-0.40837 -0.18115,-0.52344 -0.0996,-0.11506 -0.2203,-0.47755 -0.26814,-0.80552 l -0.087,-0.59631 0.2748,0.39754 0.2748,0.39754 -0.0255,-0.39754 c -0.0357,-0.55673 0.12941,-0.97115 0.42416,-1.0647 0.13797,-0.0438 0.31328,-0.19626 0.38957,-0.33881 0.12127,-0.22659 0.16291,-0.23498 0.33115,-0.0667 0.10584,0.10584 0.19243,0.24231 0.19243,0.30325 0,0.0609 0.12636,0.34658 0.28081,0.63474 0.22684,0.42325 0.26737,0.67211 0.21089,1.29501 -0.0385,0.42409 -0.14231,0.8583 -0.23078,0.9649 -0.1305,0.15725 -0.11804,0.19382 0.066,0.19382 0.1248,0 0.3963,0.15988 0.60334,0.3553 l 0.37644,0.3553 -0.28205,0.29305 c -0.15513,0.16118 -0.3597,0.26326 -0.4546,0.22684 -0.24528,-0.0941 -0.214,0.15648 0.0952,0.76251 0.24575,0.48171 0.64774,0.76458 0.48542,0.34157 -0.0531,-0.13846 0.11006,-0.19815 0.66825,-0.24444 0.50811,-0.0421 0.79325,-0.13604 0.91382,-0.30094 0.12483,-0.17071 0.35744,-0.24211 0.80836,-0.2481 0.52324,-0.007 0.70203,-0.0782 1.03037,-0.41034 0.21851,-0.22106 0.44344,-0.38657 0.49984,-0.36782 0.0564,0.0187 0.15885,-0.10051 0.22764,-0.26503 0.30527,-0.73009 0.71436,-0.96612 0.86296,-0.4979 0.0463,0.14577 0.16955,0.26503 0.27396,0.26503 0.40241,0 0.17756,0.38784 -0.27396,0.47254 -0.26563,0.0498 -0.4638,0.16564 -0.4638,0.27104 0,0.10121 0.0604,0.18402 0.13432,0.18402 0.1698,0 0.69934,-0.29307 0.81304,-0.44998 0.0473,-0.0653 0.18148,-0.0821 0.29816,-0.0373 0.11668,0.0448 0.21214,0.0237 0.21214,-0.0469 0,-0.0706 0.066,-0.12836 0.1467,-0.12836 0.0807,0 0.11236,0.0894 0.0704,0.19877 -0.1087,0.28325 0.0469,0.24595 0.41447,-0.0994 0.2765,-0.25975 0.33734,-0.27255 0.47234,-0.0994 0.0852,0.10932 0.31895,0.28339 0.51938,0.38681 0.50789,0.26206 0.45485,0.35765 -0.16564,0.29847 -0.29153,-0.0278 -0.53006,-0.10743 -0.53006,-0.17696 0,-0.0695 -0.0596,-0.0896 -0.13251,-0.0445 -0.0729,0.045 -0.13252,0.22746 -0.13252,0.40536 0,0.17791 -0.0745,0.32558 -0.16564,0.32817 -0.0911,0.003 -0.0354,0.0771 0.1238,0.16564 0.26624,0.14804 0.30687,0.20659 0.30687,0.4422 0,0.0454 0.0863,0.0108 0.19183,-0.0767 0.12915,-0.10718 0.26578,-0.11783 0.4181,-0.0326 0.13154,0.0736 0.39798,0.0807 0.63639,0.0169 0.22556,-0.0603 0.66037,-0.13693 0.96624,-0.17023 0.30587,-0.0333 0.61935,-0.0996 0.69664,-0.14738 0.2009,-0.12417 0.32922,0.29663 0.15461,0.50702 -0.0804,0.0969 -0.10788,0.21446 -0.0611,0.26128 0.0468,0.0468 0.16932,-0.0183 0.27221,-0.1447 0.13643,-0.16764 0.20573,-0.18501 0.25604,-0.0642 0.096,0.23054 0.31192,0.20761 0.31192,-0.0331 0,-0.21232 0.20504,-0.27053 0.31668,-0.0899 0.11764,0.19035 -0.72735,0.7701 -1.0248,0.70311 -0.0615,-0.0138 -0.0851,0.0512 -0.0524,0.14461 0.073,0.20872 1.61871,0.19361 1.87407,-0.0183 0.0934,-0.0775 0.20341,-0.10725 0.24453,-0.0661 0.0411,0.0411 0.29882,0.0129 0.57266,-0.0627 0.42263,-0.1167 0.52967,-0.10148 0.70813,0.10069 0.11563,0.13099 0.37524,0.34511 0.57691,0.47582 0.34386,0.22286 0.36116,0.22328 0.27806,0.007 -0.077,-0.20069 -0.0513,-0.21095 0.19637,-0.0784 0.17967,0.0962 0.53491,0.11936 0.96133,0.0628 0.46244,-0.0613 0.70684,-0.0404 0.77271,0.0662 0.0565,0.0914 0.45962,0.16207 0.97447,0.17084 0.81278,0.0139 0.86832,0.0333 0.74629,0.26132 -0.11924,0.22281 -0.16647,0.22845 -0.49403,0.0591 -0.29586,-0.153 -0.41924,-0.15676 -0.67382,-0.0205 -0.30923,0.16549 -0.30946,0.16736 -0.0297,0.24051 0.1911,0.05 0.25582,0.1417 0.20092,0.28476 -0.0907,0.23639 0.2721,0.30355 0.41251,0.0763 0.0458,-0.0741 0.1352,-0.10256 0.19872,-0.0633 0.12824,0.0793 2.16596,-0.4182 2.58275,-0.63052 0.14577,-0.0743 0.22083,-0.0877 0.1668,-0.0299 -0.054,0.0578 -0.0318,0.18517 0.0494,0.28298 0.16544,0.19934 -0.0266,0.24653 -0.22277,0.0547 -0.078,-0.0763 -0.2474,-0.0238 -0.44526,0.1378 -0.49644,0.40557 -0.13271,0.58665 1.28792,0.64122 0.0954,0.004 0.1341,0.0704 0.086,0.14821 -0.0481,0.0779 -0.17479,0.10804 -0.28151,0.0671 -0.14452,-0.0555 -0.17263,-0.007 -0.11018,0.18976 0.0646,0.20344 0.0285,0.25659 -0.15697,0.23106 -0.3576,-0.0492 -0.37168,0.2181 -0.0168,0.31806 0.50187,0.14135 1.45715,0.12742 1.36609,-0.0199 -0.045,-0.0729 0.0482,-0.13251 0.20718,-0.13251 0.23322,0 0.25923,0.036 0.13458,0.18615 -0.12702,0.15305 -0.0592,0.20225 0.38132,0.27668 l 0.53581,0.0905 v 2.58253 2.58254 l -1.02699,-0.0315 c -1.17007,-0.0358 -3.50547,0.21037 -3.87585,0.40859 -0.13629,0.0729 -0.41571,0.13452 -0.62093,0.13684 -0.20522,0.002 -0.48888,0.0918 -0.63035,0.19877 -0.14148,0.107 -0.48212,0.19456 -0.75698,0.19456 h -0.49974 l 0.0759,-0.82822 c 0.14718,-1.60537 -0.77077,-2.93583 -2.93665,-4.25633 -0.58214,-0.35492 -1.35701,-0.84417 -1.72194,-1.08721 -0.66271,-0.44137 -1.49333,-0.80747 -2.54307,-1.12085 -0.40825,-0.12188 -0.6551,-0.12844 -0.9276,-0.0246 -0.20422,0.0778 -0.58003,0.17598 -0.83512,0.21821 -0.26758,0.0443 -0.67716,0.2728 -0.9681,0.54009 -0.44395,0.40784 -0.58848,0.46328 -1.20767,0.46328 -0.38686,0 -0.99476,0.0598 -1.35091,0.13294 -0.35614,0.0731 -1.18421,0.2442 -1.84016,0.38018 -0.65595,0.13598 -1.27695,0.21511 -1.38001,0.17583 -0.11075,-0.0422 -0.15171,-0.0137 -0.10015,0.0697 0.048,0.0776 -0.001,0.17506 -0.10918,0.21652 -0.10804,0.0415 -0.18492,0.0328 -0.17085,-0.0192 0.0475,-0.17589 -0.32586,-1.1531 -0.52985,-1.38664 -0.1114,-0.12754 -0.28276,-0.2319 -0.38079,-0.2319 -0.098,0 -0.17823,-0.066 -0.17823,-0.14669 0,-0.0807 -0.0894,-0.11237 -0.19877,-0.0704 -0.54174,0.20789 -0.0156,-0.55896 0.66257,-0.96579 0.24019,-0.14407 0.23087,-0.15174 -0.0994,-0.0818 -0.36141,0.0765 -0.51684,-0.10934 -0.19877,-0.23768 0.12739,-0.0514 0.12558,-0.0693 -0.008,-0.0773 -0.0964,-0.006 -0.13144,-0.0785 -0.0789,-0.16345 0.0591,-0.0956 0.0363,-0.11699 -0.0606,-0.0571 -0.0853,0.0527 -0.12127,0.15071 -0.0798,0.21773 0.0414,0.067 -0.0112,0.0886 -0.11695,0.0481 -0.25325,-0.0972 -0.43647,0.20748 -0.20924,0.34791 0.097,0.0599 0.22387,0.0796 0.28201,0.0436 0.0581,-0.0359 0.10571,-0.0129 0.10571,0.0511 0,0.12879 -0.65269,0.73153 -0.67913,0.62715 -0.009,-0.036 -0.024,-0.12004 -0.0331,-0.18685 -0.034,-0.24902 -0.23387,-0.32814 -0.35303,-0.13972 -0.078,0.12327 -0.12403,0.136 -0.12531,0.0346 -10e-4,-0.0882 0.23959,-0.38385 0.53491,-0.65709 l 0.53693,-0.49679 -0.7622,-0.38542 c -0.41922,-0.21198 -1.21243,-0.52357 -1.7627,-0.69244 -1.32062,-0.40526 -0.97787,-0.40642 0.63153,-0.002 2.18787,0.54958 2.10223,0.54594 2.1152,0.0899 0.0115,-0.40501 -0.27965,-0.7951 -0.4218,-0.56511 -0.0425,0.0688 0.0118,0.15926 0.12072,0.20105 0.28547,0.10954 0.24354,0.29254 -0.067,0.29254 -0.17757,0 -0.2657,-0.089 -0.26706,-0.26976 -0.002,-0.2119 -0.0277,-0.22924 -0.12161,-0.0808 -0.13304,0.21022 -0.58209,0.15207 -3.65303,-0.47304 -2.16913,-0.44154 -2.4248,-0.59027 -0.86134,-0.50108 1.47729,0.0843 4.63456,0.4361 4.79315,0.53412 0.0604,0.0374 0.10989,-0.023 0.10989,-0.13402 0,-0.11106 -0.10789,-0.25967 -0.23976,-0.33024 -0.13187,-0.0706 -2.01613,-0.15805 -4.18726,-0.1944 -2.17112,-0.0363 -3.98138,-0.1 -4.02279,-0.14137 -0.0414,-0.0414 0.12845,-0.0795 0.37746,-0.0846 0.71912,-0.0148 1.72254,-0.12196 2.44048,-0.26055 0.36441,-0.0703 0.97564,-0.15767 1.35827,-0.19404 1.8029,-0.17137 2.05467,-0.2039 2.18066,-0.28177 0.0742,-0.0458 0.1869,-0.001 0.25052,0.0993 0.0858,0.13555 0.11619,0.10576 0.1177,-0.11554 0.002,-0.3575 0.21594,-0.3819 0.57969,-0.0662 l 0.26724,0.2319 -0.26769,-0.46381 c -0.1538,-0.26647 -0.35531,-0.4487 -0.47363,-0.42832 -0.11327,0.0195 -0.24067,-0.055 -0.28311,-0.16564 -0.0425,-0.11062 -0.0121,-0.20112 0.0674,-0.20112 0.0911,0 0.0792,-0.0788 -0.0322,-0.21295 -0.1349,-0.16254 -0.31909,-0.19472 -0.77819,-0.13597 -1.16353,0.1489 -1.84825,0.30643 -2.04626,0.47076 -0.11001,0.0913 -0.26226,0.12753 -0.33834,0.0805 -0.0761,-0.047 -0.13832,0.007 -0.13832,0.1211 0,0.11363 0.0596,0.2066 0.13252,0.2066 0.17977,0 0.16851,0.35965 -0.0148,0.47295 -0.081,0.0501 -0.19939,0.009 -0.263,-0.0916 -0.0776,-0.12253 -0.11634,-0.13019 -0.1177,-0.0233 -0.001,0.0995 -0.15078,0.14052 -0.39785,0.10925 -0.21771,-0.0275 -0.42623,-9.3e-4 -0.4634,0.0592 -0.0695,0.11241 -1.01968,0.36685 -1.72482,0.46186 -1.70174,0.22928 -2.39276,0.36939 -3.00515,0.60934 -0.91649,0.35911 -0.96628,0.41822 -0.78658,0.93372 0.0827,0.23725 0.21151,0.97226 0.28622,1.63334 0.1707,1.51056 0.63038,3.25053 0.93881,3.55358 0.3252,0.31951 0.4324,1.02394 0.24936,1.63858 -0.54654,1.83534 -0.53949,1.75438 -0.18366,2.1102 0.17961,0.17961 0.38348,0.32656 0.45305,0.32656 0.0696,0 0.12649,0.0753 0.12649,0.16732 0,0.092 0.14796,0.27843 0.32879,0.41424 0.18084,0.1358 0.29675,0.29877 0.25757,0.36215 -0.0392,0.0634 0.0866,0.26152 0.27955,0.44032 0.19292,0.17879 0.31454,0.38368 0.27027,0.45532 -0.0443,0.0716 0.0249,0.20958 0.15362,0.30656 0.35141,0.26466 0.61342,0.76886 0.40088,0.77144 -0.11631,0.001 -0.10871,0.0388 0.0251,0.12341 0.33256,0.21039 -0.31119,0.28073 -2.84215,0.31056 -2.3419,0.0276 -2.39731,0.0349 -3.04783,0.3991 -0.70323,0.39376 -1.78895,1.70956 -1.78895,2.16805 0,0.13791 -0.0928,0.38328 -0.20629,0.54526 -0.24543,0.3504 -0.28259,0.34641 1.3165,0.14134 1.05611,-0.13544 1.23114,-0.19682 1.51155,-0.53006 0.37378,-0.44421 0.55756,-0.47571 0.65271,-0.11185 0.0876,0.33479 0.30983,0.33611 0.73161,0.004 0.18227,-0.14338 0.36618,-0.22591 0.40869,-0.18341 0.0425,0.0425 0.27208,0.11712 0.51016,0.16582 l 0.43289,0.0885 -0.29064,0.29064 c -0.16619,0.16619 -0.37796,0.25714 -0.49457,0.21239 -0.37505,-0.14392 -1.64062,0.0939 -1.95201,0.36679 l -0.3016,0.26432 0.49693,-0.0806 c 0.40215,-0.0653 0.49693,-0.0399 0.49693,0.13305 0,0.14175 -0.0781,0.19022 -0.2319,0.14396 -0.12754,-0.0384 -0.50024,-0.1047 -0.82821,-0.14742 -0.32798,-0.0427 -0.73049,-0.0966 -0.89448,-0.11974 -0.16398,-0.0231 -0.29815,0.0193 -0.29815,0.0943 0,0.075 -0.04,0.0964 -0.0888,0.0476 -0.0488,-0.0488 -0.22595,10e-4 -0.39356,0.11087 -0.28009,0.18352 -0.29789,0.18088 -0.22001,-0.0327 0.0747,-0.20472 0.0495,-0.2014 -0.2114,0.0279 -0.23821,0.20934 -0.2578,0.27416 -0.10014,0.33129 0.28732,0.1041 -0.21679,0.66159 -1.00694,1.11355 l -0.62944,0.36005 v -0.66613 -0.66613 l -0.76196,0.0767 c -0.53583,0.054 -1.15522,-0.009 -2.0871,-0.2131 -0.72883,-0.1594 -1.48139,-0.30762 -1.67236,-0.32939 -0.63419,-0.0723 -0.85007,-0.19547 -1.50156,-0.85691 -0.47981,-0.48713 -0.65861,-0.77715 -0.69444,-1.12638 -0.0272,-0.26504 0.0112,-0.47032 0.088,-0.47032 0.0749,0 0.13623,0.0894 0.13623,0.19877 0,0.10932 0.066,0.19877 0.14669,0.19877 0.0807,0 0.11516,-0.0822 0.0766,-0.18262 -0.0385,-0.10045 -0.004,-0.24853 0.0764,-0.32908 0.18912,-0.18913 0.092,-0.27792 -0.38099,-0.34838 -0.21037,-0.0313 -0.51262,-0.0951 -0.67167,-0.14162 -0.24218,-0.0709 -0.27775,-0.0409 -0.21884,0.18434 0.0723,0.27635 0.44176,0.51317 0.44176,0.28314 0,-0.0706 0.0927,-0.12835 0.20607,-0.12835 0.13604,0 0.0269,0.19138 -0.32111,0.56318 -1.02955,1.09987 -3.06531,4.0623 -3.06531,4.46062 0,0.10707 0.18899,0.57078 0.41998,1.03046 0.23099,0.45969 0.38285,0.87293 0.33746,0.91832 -0.17971,0.1797 -0.81136,-0.12143 -1.39833,-0.66665 -0.3399,-0.31571 -0.86832,-0.70051 -1.17427,-0.85511 -0.30595,-0.15459 -0.75293,-0.52578 -0.99328,-0.82487 -0.24035,-0.29909 -0.61616,-0.62257 -0.83513,-0.71886 -0.38836,-0.17076 -0.39,-0.17534 -0.0668,-0.18644 0.30115,-0.0103 0.27868,-0.0463 -0.24701,-0.39504 -0.31806,-0.21101 -0.80685,-0.48673 -1.08619,-0.61269 -0.3241,-0.14615 -0.55391,-0.36105 -0.63507,-0.59387 -0.11214,-0.32167 -0.22793,-0.38238 -0.97864,-0.51311 -1.90817,-0.33229 -3.40235,-0.13273 -5.18116,0.69199 -1.97937,0.91771 -3.09612,2.98218 -2.6521,4.9028 0.10381,0.44902 0.24325,1.10383 0.30987,1.45512 0.2691,1.41906 1.3505,3.00544 2.04873,3.00544 0.19154,0 0.1605,-0.0886 -0.17406,-0.49693 -0.22394,-0.27331 -0.52141,-0.6162 -0.66104,-0.76196 -0.13962,-0.14577 -0.2658,-0.32466 -0.28039,-0.39755 -0.0146,-0.0729 -0.0895,-0.20841 -0.16652,-0.30119 -0.10787,-0.12998 -0.0825,-0.14742 0.11066,-0.076 0.50612,0.18712 1.12505,0.7594 1.71417,1.58497 0.81006,1.1352 1.48988,1.5033 1.39772,0.75682 -0.0431,-0.34955 0.29862,-0.31165 0.67668,0.075 0.22149,0.22654 0.50349,0.41189 0.62668,0.41189 0.12319,0 0.33973,0.0885 0.4812,0.19663 0.42595,0.32558 1.24065,0.50706 1.45981,0.32518 0.11679,-0.0969 0.71604,-0.1596 1.57525,-0.16476 1.0622,-0.006 1.40346,-0.0519 1.45812,-0.19428 0.13926,-0.36291 1.17679,-0.0144 3.84744,1.29257 3.87285,1.89523 5.65594,2.73968 6.02388,2.85284 0.17917,0.0551 1.13327,0.51499 2.12024,1.02198 1.85201,0.95135 3.34471,1.5606 3.82354,1.5606 0.15087,0 0.31213,0.0612 0.35837,0.13603 0.0462,0.0748 0.15412,0.1237 0.23972,0.10863 0.0856,-0.0151 0.411,0.053 0.7231,0.15125 1.05797,0.33309 0.36939,0.41286 -1.77194,0.20528 -1.15961,-0.11241 -3.98676,-0.38796 -6.28258,-0.61235 -3.32765,-0.32523 -6.18893,-0.59286 -6.90262,-0.64563 -0.13109,-0.01 -0.38568,-0.66189 -0.38568,-0.988 0,-0.16895 -0.11927,-0.4588 -0.26503,-0.64411 -0.14577,-0.18532 -0.26503,-0.42149 -0.26503,-0.52484 0,-0.22388 -0.62734,-0.84355 -0.73998,-0.73092 -0.0431,0.0432 0.0426,0.24712 0.19059,0.45328 0.47143,0.65682 0.72346,1.83138 0.64902,3.02466 -0.087,1.39425 -0.41474,2.07217 -1.14264,2.36342 -0.28854,0.11545 -0.56303,0.27206 -0.60997,0.34801 -0.1207,0.1953 -0.31951,0.16926 -0.97345,-0.12751 z m 3.54472,-5.13436 c -0.005,-0.20043 -0.0606,-0.48368 -0.1232,-0.62944 -0.0857,-0.19942 -0.1162,-0.10919 -0.1232,0.36441 -0.005,0.34619 0.0503,0.62944 0.1232,0.62944 0.0729,0 0.12832,-0.16398 0.1232,-0.36441 z M 29.548,264.0953 c -0.12643,-0.15234 -0.13136,-0.24265 -0.0194,-0.35463 0.27126,-0.27127 -0.0604,-0.49624 -0.49156,-0.33348 -0.2051,0.0774 -0.48607,0.0942 -0.62436,0.0374 -0.16462,-0.0677 -0.19424,-0.12472 -0.0858,-0.16523 0.0911,-0.034 0.16564,-0.26288 0.16564,-0.50856 0,-0.37924 -0.095,-0.51695 -0.62944,-0.912 -0.3462,-0.25592 -1.03266,-0.86988 -1.52547,-1.36434 -0.72381,-0.72625 -0.93723,-1.03912 -1.11041,-1.62787 -0.22957,-0.78046 -0.66265,-1.50264 -0.83663,-1.39511 -0.23816,0.14719 -0.34596,-1.38416 -0.14433,-2.05027 l 0.10028,-0.33128 0.10387,0.39754 c 0.0571,0.21865 0.27736,0.65837 0.48942,0.97715 0.21205,0.31878 0.421,0.76602 0.46432,0.99386 0.0958,0.50368 0.64915,1.49156 0.88656,1.58266 0.0948,0.0364 0.26867,0.26908 0.38637,0.51712 0.1499,0.31589 0.43399,0.56607 0.94847,0.83523 0.45753,0.23937 0.73448,0.47025 0.73448,0.61229 0,0.1967 0.63011,0.77613 0.84401,0.77613 0.0408,0 0.13847,-0.11995 0.21693,-0.26657 0.19451,-0.36344 -0.13022,-1.00485 -0.76943,-1.5198 -0.78909,-0.6357 -1.51806,-1.50344 -1.55639,-1.85269 -0.0196,-0.17805 -0.10078,-0.5214 -0.18051,-0.763 -0.0797,-0.24159 -0.15785,-0.8665 -0.17359,-1.38869 -0.0313,-1.03922 0.1954,-1.49556 0.74504,-1.49958 0.15269,-0.001 0.36707,-0.0608 0.4764,-0.13251 0.17164,-0.11268 0.1728,-0.1472 0.008,-0.2529 -0.15767,-0.10145 -0.16056,-0.15819 -0.0169,-0.33129 0.14002,-0.16872 0.14112,-0.24769 0.006,-0.41085 -0.28495,-0.34334 -0.0408,-0.36735 0.42291,-0.0416 0.63427,0.44552 0.88956,0.94069 1.0939,2.12178 0.0959,0.55445 0.82928,1.29332 1.30639,1.31624 0.26166,0.0126 0.25279,0.0301 -0.0816,0.16186 -0.30545,0.12032 -0.3655,0.21348 -0.32324,0.50143 0.0442,0.3013 -0.0113,0.37305 -0.37492,0.48465 -0.34551,0.10604 -0.49852,0.0837 -0.80313,-0.1171 -0.41897,-0.27623 -0.84011,-0.32794 -0.84011,-0.10316 0,0.0807 0.0894,0.11237 0.19877,0.0704 0.10932,-0.042 0.20622,-0.0185 0.21534,0.0521 0.0179,0.13845 0.0635,0.33386 0.11507,0.49278 0.0177,0.0547 0.0247,0.1455 0.0155,0.20187 -0.009,0.0564 0.16358,0.13855 0.38395,0.18263 0.36786,0.0736 0.38151,0.0949 0.16668,0.25975 -0.21944,0.16843 -0.21545,0.18482 0.0642,0.2635 0.17397,0.0489 0.29816,0.18784 0.29816,0.33346 0,0.13727 0.0514,0.24957 0.11414,0.24957 0.17937,0 0.001,0.71618 -0.20897,0.83998 -0.15888,0.0936 -0.15327,0.13704 0.0355,0.27511 0.20703,0.15138 0.19773,0.20595 -0.12131,0.71133 -0.35854,0.56797 -0.34681,0.95425 0.0291,0.95934 0.16727,0.002 0.14445,0.0593 -0.0985,0.24607 -0.43864,0.33727 -0.1392,0.48399 0.41168,0.20171 0.23901,-0.12248 0.47604,-0.28717 0.52674,-0.366 0.0507,-0.0788 0.13617,-0.0993 0.18994,-0.0455 0.0538,0.0538 0.0272,0.16832 -0.059,0.25456 -0.26648,0.26648 -0.17458,0.46866 0.24073,0.52961 0.21865,0.0321 0.39755,0.0111 0.39755,-0.0466 0,-0.0577 0.128,-0.17341 0.28446,-0.25714 0.23122,-0.12375 0.30686,-0.11222 0.40413,0.0616 0.0658,0.11761 0.17866,0.21384 0.25076,0.21384 0.0721,0 0.0147,-0.12493 -0.12756,-0.27763 -0.17833,-0.19142 -0.34452,-0.25036 -0.53522,-0.18984 -0.15211,0.0483 -0.27657,0.0605 -0.27657,0.0272 0,-0.0684 1.20212,-0.66676 1.3631,-0.6785 0.17757,-0.0129 0.33893,-0.37103 0.25995,-0.57685 -0.0493,-0.1285 -0.011,-0.17364 0.11165,-0.13139 0.11844,0.0408 0.17235,0.21102 0.14737,0.4653 -0.0267,0.27155 0.029,0.4272 0.17253,0.48228 0.11655,0.0447 0.17952,0.0289 0.13994,-0.0351 -0.0396,-0.0641 0.13368,-0.21404 0.38503,-0.33331 0.25135,-0.11928 0.49287,-0.2749 0.53671,-0.34583 0.0438,-0.0709 0.19737,-0.12897 0.34119,-0.12897 0.14875,0 0.31104,-0.12854 0.37645,-0.29816 0.10754,-0.27888 0.12146,-0.28203 0.21541,-0.0487 0.0575,0.1427 0.0322,0.35874 -0.059,0.50483 -0.1428,0.22867 -0.13295,0.24118 0.0942,0.11963 0.13952,-0.0747 0.28842,-0.10101 0.3309,-0.0585 0.0425,0.0425 0.11641,-0.0789 0.1643,-0.26969 0.0479,-0.19081 0.17124,-0.34693 0.27412,-0.34693 0.10287,0 0.42027,-0.14723 0.70533,-0.32718 0.4474,-0.28243 0.51134,-0.38213 0.46746,-0.72883 -0.0512,-0.40448 0.0303,-0.46334 0.59915,-0.43268 0.13591,0.007 0.10448,-0.0661 -0.0994,-0.23227 -0.39234,-0.31974 -0.37659,-0.45985 0.0994,-0.88395 0.36276,-0.32322 0.56171,-0.69253 0.27892,-0.51776 -0.22936,0.14175 -0.28546,-0.35496 -0.0588,-0.52069 0.2061,-0.15071 0.1948,-0.19423 -0.13635,-0.52538 -0.27751,-0.27751 -0.32685,-0.40229 -0.21322,-0.53921 0.10906,-0.1314 0.1072,-0.2541 -0.007,-0.46763 -0.10544,-0.19703 -0.10838,-0.26073 -0.009,-0.19943 0.0802,0.0495 0.14574,0.0251 0.14574,-0.0544 0,-0.0795 -0.0857,-0.17738 -0.19041,-0.21756 -0.10839,-0.0416 -0.15619,-0.16221 -0.11098,-0.28003 0.0437,-0.11384 -0.005,-0.27289 -0.10775,-0.35345 -0.10295,-0.0806 -0.19314,-0.22102 -0.20043,-0.31213 -0.007,-0.0911 -0.0222,-0.31824 -0.0331,-0.50475 -0.0109,-0.18651 -0.0709,-0.30754 -0.13337,-0.26896 -0.0624,0.0386 -0.0997,-0.17415 -0.0829,-0.47273 0.024,-0.42501 -0.0206,-0.55627 -0.20533,-0.60458 -0.14306,-0.0374 -0.26932,-0.23952 -0.32069,-0.51331 -0.0503,-0.268 -0.16308,-0.4516 -0.27748,-0.4516 -0.1073,0 -0.19277,-0.12301 -0.19277,-0.27744 0,-0.16599 -0.10646,-0.30527 -0.26503,-0.34674 -0.2754,-0.072 -0.3705,-0.30342 -0.12469,-0.30342 0.0772,0 0.10288,-0.0606 0.0571,-0.13468 -0.0458,-0.0741 -0.13875,-0.10037 -0.20659,-0.0584 -0.0678,0.0419 -0.12336,0.0112 -0.12336,-0.0683 0,-0.0795 0.0894,-0.17882 0.19877,-0.22077 0.33683,-0.12925 0.21945,-0.3478 -0.14898,-0.27737 -0.19127,0.0366 -0.55552,0.009 -0.80946,-0.061 -0.36713,-0.10138 -0.64631,-0.067 -1.363,0.16799 -0.55096,0.18063 -0.87805,0.35608 -0.84148,0.45138 0.0351,0.0914 -0.17428,0.22603 -0.50641,0.32554 -0.31142,0.0933 -0.70954,0.28238 -0.88471,0.42016 -0.17517,0.13779 -0.42243,0.25052 -0.54948,0.25052 -0.12705,0 -0.31589,0.12787 -0.41966,0.28415 -0.18648,0.28085 -0.19361,0.27788 -0.61636,-0.25587 -0.43882,-0.55406 -1.46459,-1.22091 -1.87806,-1.22091 -0.12766,0 -0.30869,0.0923 -0.40228,0.20505 -0.12744,0.15356 -0.195,0.16488 -0.26902,0.0451 -0.23177,-0.37501 -1.51289,0.58847 -1.3589,1.02197 0.0285,0.0802 -0.0397,0.22164 -0.15141,0.31439 -0.11175,0.0927 -0.20319,0.2535 -0.20319,0.35724 0,0.10374 -0.14908,0.46868 -0.3313,0.81097 -0.18222,0.3423 -0.36775,0.81662 -0.41229,1.05405 -0.0445,0.23743 -0.12285,0.43169 -0.17402,0.43169 -0.0512,0 -0.17493,0.20871 -0.27502,0.4638 -0.10009,0.25509 -0.21855,0.4638 -0.26326,0.4638 -0.0447,0 -0.0813,0.20486 -0.0813,0.45524 0,0.25039 0.041,0.42989 0.0912,0.3989 0.0959,-0.0593 0.12296,0.0444 0.44493,1.70517 0.1104,0.56947 0.23439,1.08985 0.27552,1.1564 0.0411,0.0666 0.0994,0.31535 0.12944,0.55288 0.0301,0.23754 0.12483,0.45527 0.2106,0.48386 0.0858,0.0286 0.39895,0.28088 0.69596,0.56064 0.29701,0.27976 0.70233,0.54431 0.90071,0.58788 0.33718,0.0741 0.81073,0.45973 0.56448,0.45973 -0.0616,0 0.0871,0.18188 0.33051,0.40418 0.61002,0.55717 0.41992,0.64907 -0.24211,0.11705 -0.29633,-0.23815 -0.58304,-0.38874 -0.63712,-0.33465 -0.0541,0.0541 0.0102,0.15905 0.14277,0.23326 0.13261,0.0742 0.43686,0.32317 0.67611,0.55325 0.23925,0.23007 0.55864,0.52834 0.70975,0.66282 0.3001,0.26706 1.14061,0.6018 1.53427,0.61102 0.2087,0.005 0.22118,-0.0267 0.0785,-0.19857 z m 1.93393,-1.8538 c -0.1943,-0.14696 -0.2086,-0.19456 -0.0585,-0.19456 0.10932,0 0.31452,0.0875 0.456,0.19456 0.19429,0.14696 0.2086,0.19456 0.0585,0.19456 -0.10933,0 -0.31453,-0.0876 -0.456,-0.19456 z m -0.26475,-0.4465 c -0.045,-0.0728 0.0392,-0.19703 0.18698,-0.27613 0.30568,-0.16359 0.3645,0.0186 0.0818,0.25325 -0.1206,0.10008 -0.21601,0.1082 -0.26874,0.0229 z m 2.11215,-0.54315 c -0.045,-0.0729 -0.0187,-0.13251 0.0584,-0.13251 0.0772,0 0.14034,0.0596 0.14034,0.13251 0,0.0729 -0.0263,0.13252 -0.0584,0.13252 -0.0321,0 -0.0953,-0.0596 -0.14034,-0.13252 z m 2.05398,-0.39754 c 0,-0.0729 0.0631,-0.13251 0.14033,-0.13251 0.0772,0 0.10348,0.0596 0.0584,0.13251 -0.045,0.0729 -0.10819,0.13252 -0.14033,0.13252 -0.0321,0 -0.0584,-0.0596 -0.0584,-0.13252 z m 1.3914,-0.26503 c 0.045,-0.0729 0.13801,-0.13251 0.20659,-0.13251 0.0686,0 0.1247,0.0596 0.1247,0.13251 0,0.0729 -0.093,0.13252 -0.2066,0.13252 -0.11362,0 -0.16974,-0.0596 -0.12469,-0.13252 z m 0.53006,-2.7828 c 0.045,-0.0729 0.10819,-0.13252 0.14033,-0.13252 0.0321,0 0.0584,0.0596 0.0584,0.13252 0,0.0729 -0.0632,0.13251 -0.14033,0.13251 -0.0772,0 -0.10348,-0.0596 -0.0584,-0.13251 z m -4.23389,5.03555 c 0.3339,0 0.20749,-0.19788 -0.13919,-0.21788 -0.20402,-0.0118 -0.33119,0.0518 -0.33119,0.16564 0,0.10161 -0.0745,0.18567 -0.16564,0.18678 -0.11105,0.001 -0.10075,0.0431 0.0312,0.12651 0.13621,0.0861 0.2301,0.0651 0.30474,-0.0683 0.0593,-0.10602 0.19436,-0.19276 0.30006,-0.19276 z m 0.98728,-0.53006 c 0,-0.0729 -0.0263,-0.13251 -0.0584,-0.13251 -0.0321,0 -0.0953,0.0596 -0.14034,0.13251 -0.045,0.0729 -0.0188,0.13252 0.0584,0.13252 0.0772,0 0.14034,-0.0596 0.14034,-0.13252 z m -8.9094,-1.02036 c -0.26967,-0.26967 -0.52478,-0.45583 -0.56692,-0.41368 -0.0999,0.0999 0.70423,0.90398 0.90398,0.90398 0.0843,0 -0.0674,-0.22063 -0.33706,-0.4903 z m -8.56562,-0.53669 c 0.16483,-0.21017 0.16014,-0.21486 -0.05,-0.05 -0.22074,0.17312 -0.29094,0.28194 -0.18187,0.28194 0.0275,0 0.13187,-0.10436 0.2319,-0.23191 z m 7.92293,-0.0706 c -0.0304,-0.0206 -0.17448,-0.12498 -0.32025,-0.2319 -0.24515,-0.17983 -0.25139,-0.17701 -0.0832,0.0375 0.10003,0.12754 0.24414,0.2319 0.32025,0.2319 0.0761,0 0.11352,-0.0169 0.0832,-0.0375 z m -0.69353,-0.78244 c -0.0423,-0.10571 -0.0737,-0.0743 -0.0801,0.0801 -0.006,0.1397 0.0256,0.21796 0.0696,0.17393 0.044,-0.044 0.0487,-0.15833 0.0105,-0.25399 z m 5.74012,-0.38815 c 0,-0.17874 -0.21393,-0.13952 -0.38889,0.0713 -0.12826,0.15454 -0.10739,0.17555 0.11629,0.11706 0.14993,-0.0392 0.2726,-0.12397 0.2726,-0.18835 z m -0.88085,-4.05937 c -0.12586,-0.47879 -0.53152,-0.87407 -0.79175,-0.77147 -0.22147,0.0873 -0.19174,0.14792 0.27015,0.55074 0.60249,0.52544 0.60159,0.52506 0.5216,0.22073 z m 75.14866,-11.28581 c -0.14016,-0.13521 -0.42131,-0.19111 -0.7222,-0.14361 -0.10933,0.0173 -0.0199,0.0769 0.19877,0.13253 0.58337,0.14845 0.66768,0.15023 0.52343,0.0111 z m -3.57127,-0.14359 c -0.045,-0.0729 -0.24236,-0.12546 -0.43849,-0.11684 l -0.35659,0.0157 0.39754,0.10116 c 0.21865,0.0556 0.41597,0.10821 0.43849,0.11684 0.0225,0.009 0.004,-0.044 -0.041,-0.11684 z m 4.56071,0.0849 c -0.15827,-0.1365 -0.78404,-0.20627 -0.78404,-0.0874 0,0.0743 0.18883,0.13504 0.41963,0.13504 0.23079,0 0.39478,-0.0214 0.36441,-0.0476 z m -22.03883,-0.57907 c -0.1347,-0.1347 -0.24585,0.0681 -0.13533,0.24692 0.0835,0.13509 0.11471,0.1352 0.15959,5.3e-4 0.0307,-0.0921 0.0198,-0.20342 -0.0243,-0.24746 z m 13.33704,-0.12365 c -0.0911,-0.0368 -0.24018,-0.0368 -0.33128,0 -0.0911,0.0368 -0.0166,0.0668 0.16564,0.0668 0.18221,0 0.25675,-0.0301 0.16564,-0.0668 z m 2.68248,-0.57329 c 0.0464,-0.0751 -0.007,-0.0973 -0.12469,-0.0521 -0.22957,0.0881 -0.27157,0.18307 -0.081,0.18307 0.0686,0 0.16113,-0.059 0.20566,-0.13099 z m -13.00304,-1.43079 c 0.0354,-0.0573 -0.0505,-0.10412 -0.19095,-0.10412 -0.14041,0 -0.2553,0.0469 -0.2553,0.10412 0,0.0573 0.0859,0.10412 0.19095,0.10412 0.10502,0 0.21991,-0.0469 0.2553,-0.10412 z m -1.7714,-0.55845 c 0,-0.0729 -0.0632,-0.13252 -0.14033,-0.13252 -0.0772,0 -0.10348,0.0596 -0.0584,0.13252 0.045,0.0729 0.10819,0.13251 0.14033,0.13251 0.0321,0 0.0584,-0.0596 0.0584,-0.13251 z m -10.19677,-1.6306 c 1.73053,-0.65797 3.51135,-1.26019 3.87551,-1.31059 0.16052,-0.0222 0.32386,-0.083 0.36298,-0.13501 0.0391,-0.052 0.27765,-0.12263 0.53006,-0.15687 0.25241,-0.0342 0.63782,-0.0948 0.85647,-0.13448 0.21865,-0.0397 0.62507,-0.0973 0.90317,-0.12789 0.27809,-0.0306 0.53933,-0.0894 0.58053,-0.13058 0.14374,-0.14374 -0.37911,-1.0276 -0.69229,-1.17029 -0.23622,-0.10763 -0.42556,-0.0994 -0.75231,0.0328 -0.24015,0.0972 -0.46646,0.21067 -0.5029,0.25224 -0.12456,0.14206 -1.3787,0.73463 -1.48455,0.70143 -0.0581,-0.0182 -0.10563,0.015 -0.10563,0.0739 0,0.0589 -0.25343,0.21119 -0.56318,0.33853 -0.30976,0.12733 -0.81822,0.34751 -1.12992,0.4893 -0.3117,0.14178 -0.71422,0.25779 -0.89448,0.25779 -0.18025,0 -0.32774,0.0522 -0.32774,0.11595 0,0.0638 -0.17989,0.15193 -0.39976,0.1959 -0.21987,0.044 -0.7285,0.23032 -1.1303,0.41411 -0.4018,0.18378 -0.7811,0.33415 -0.8429,0.33415 -0.0618,0 -0.18343,0.0856 -0.27029,0.19029 -0.24918,0.30025 0.9603,0.15985 1.98753,-0.23071 z m 8.65233,-0.16406 c -0.0432,-0.11247 -0.10689,-0.17607 -0.14163,-0.14133 -0.0347,0.0347 -0.0239,0.12675 0.0242,0.20448 0.13067,0.21143 0.20704,0.17035 0.11744,-0.0632 z M 71.29476,238.5256 c 0.0951,-0.11457 0.10797,-0.19877 0.0304,-0.19877 -0.074,0 -0.16888,0.0894 -0.21084,0.19877 -0.042,0.10933 -0.0556,0.19878 -0.0304,0.19878 0.0252,0 0.12011,-0.0894 0.21084,-0.19878 z m 0.9276,0.0663 c 0,-0.0729 -0.0263,-0.13251 -0.0584,-0.13251 -0.0321,0 -0.0953,0.0596 -0.14033,0.13251 -0.045,0.0729 -0.0188,0.13252 0.0584,0.13252 0.0772,0 0.14033,-0.0596 0.14033,-0.13252 z m 0.66258,0 c 0,-0.0729 0.0671,-0.11761 0.14908,-0.0994 0.082,0.0182 0.17267,-0.0302 0.20151,-0.10762 0.0314,-0.0843 -0.19941,-0.15377 -0.57567,-0.17325 l -0.62811,-0.0325 0.31436,0.27264 c 0.34215,0.29674 0.53883,0.34789 0.53883,0.14012 z m 10.52376,-0.94564 c -0.0429,-0.0694 -0.006,-0.21292 0.0822,-0.31905 0.13113,-0.15801 0.11213,-0.19297 -0.10488,-0.19297 -0.46058,0 -0.58987,0.30199 -0.34201,0.79883 0.21384,0.42866 0.22311,0.43257 0.33129,0.14013 0.0612,-0.16548 0.0762,-0.3576 0.0334,-0.42694 z m 0.46174,0.11743 c -0.0123,-0.40256 -0.0196,-0.40905 -0.11164,-0.0994 -0.0541,0.18221 -0.0745,0.37601 -0.0452,0.43067 0.11114,0.20762 0.16961,0.0841 0.15687,-0.33128 z m -0.36004,-1.71832 c -0.0951,-0.0951 -0.15681,-0.10291 -0.15681,-0.0199 0,0.17687 0.15671,0.33359 0.24515,0.24515 0.0377,-0.0377 -0.002,-0.13903 -0.0883,-0.22528 z m -5.32488,0.0287 c 0,-0.0729 -0.0263,-0.13251 -0.0584,-0.13251 -0.0321,0 -0.0953,0.0596 -0.14033,0.13251 -0.045,0.0729 -0.0187,0.13252 0.0584,0.13252 0.0772,0 0.14033,-0.0596 0.14033,-0.13252 z M 29.3871,233.91468 c -0.0292,-0.46455 0.0146,-0.5548 0.36434,-0.75114 0.30292,-0.17004 0.40656,-0.33122 0.43543,-0.67716 0.0208,-0.2497 0.1018,-0.61602 0.17991,-0.81404 0.10406,-0.26382 0.0973,-0.54632 -0.0252,-1.05701 l -0.1672,-0.69696 -0.63478,2.11712 c -0.34912,1.16442 -0.63809,2.29035 -0.64215,2.50208 -0.007,0.37669 -0.002,0.3798 0.25773,0.14502 0.19521,-0.17666 0.25636,-0.37914 0.2319,-0.76791 z m 25.68342,-0.8952 c 1.80207,-0.31918 3.4344,-1.01148 4.27724,-1.81404 0.55641,-0.52982 0.89761,-1.41299 0.7591,-1.96486 -0.0859,-0.34239 -0.60602,-0.75036 -1.20221,-0.94305 -0.61,-0.19715 -0.60807,-0.768 0.006,-1.62201 0.69972,-0.97397 0.98837,-1.83125 0.98837,-2.93544 0,-0.51419 0.0642,-1.05485 0.14267,-1.20146 0.20448,-0.38209 0.50935,-1.6136 0.43088,-1.74056 -0.0365,-0.059 0.003,-0.19126 0.0886,-0.29389 0.0852,-0.10263 0.13503,-0.28956 0.11079,-0.4154 -0.0405,-0.21015 -0.0614,-0.21144 -0.25701,-0.0159 -0.19557,0.19558 -0.22659,0.15192 -0.38043,-0.5355 -0.0921,-0.41164 -0.24906,-0.87292 -0.34874,-1.02506 -0.18342,-0.27993 -0.76658,-2.30479 -0.96366,-3.34599 -0.12089,-0.63871 -0.4379,-0.94676 -0.98068,-0.95297 -0.20277,-0.002 -0.59037,-0.0996 -0.86134,-0.21614 -0.96048,-0.41315 -1.16839,-0.43778 -1.55494,-0.18421 -0.20043,0.13148 -0.63973,0.31301 -0.97622,0.40339 -0.3365,0.0904 -0.66846,0.21518 -0.7377,0.27731 -0.0692,0.0621 -0.32458,0.11298 -0.56744,0.11298 -0.24285,0 -0.63443,0.0806 -0.87017,0.17909 -0.23574,0.0985 -0.71956,0.22272 -1.07516,0.27604 -0.55369,0.083 -0.74842,0.20215 -1.35607,0.82954 -0.39024,0.40292 -0.70954,0.79578 -0.70954,0.87302 0,0.0772 -0.0843,0.23459 -0.18734,0.34966 -0.22495,0.25119 -0.28623,1.03764 -0.14809,1.90059 0.11836,0.73947 -0.0872,1.37075 -0.4878,1.4979 -0.21417,0.068 -0.24938,0.16047 -0.18452,0.48477 0.0441,0.22042 0.0802,0.5359 0.0802,0.70106 0,0.16516 0.23838,0.58877 0.52974,0.94135 0.31085,0.37617 0.55881,0.83387 0.60008,1.10767 0.15963,1.05888 0.36543,1.93428 0.49133,2.08992 0.0737,0.0911 0.0955,0.16565 0.0485,0.16565 -0.0972,0 0.25389,0.56914 0.6494,1.0528 0.65597,0.80217 2.30914,2.11936 2.6672,2.12513 0.0822,0.001 0.22701,0.0959 0.32184,0.21017 0.0948,0.11427 0.37559,0.31199 0.62392,0.43939 l 0.45151,0.23164 -0.47308,0.36083 c -0.53586,0.40872 -1.38166,0.73937 -1.65212,0.64586 -0.0995,-0.0344 -0.2188,-0.003 -0.26503,0.0708 -0.0559,0.0888 -0.30585,0.0901 -0.74663,0.004 -1.10868,-0.21642 -2.84063,-0.20075 -2.98136,0.027 -0.25232,0.40826 1.29676,1.49193 2.57735,1.80301 0.84092,0.20428 3.08756,0.22923 4.12321,0.0458 z m -1.66523,-6.18287 c -0.10932,-0.0319 -0.31803,-0.11198 -0.4638,-0.17803 -0.14577,-0.0661 -0.42902,-0.17947 -0.62944,-0.25206 -0.40046,-0.14502 -0.48386,-0.46188 -0.15481,-0.58815 0.33961,-0.13032 0.56755,-0.0953 1.12164,0.17243 0.33117,0.16 0.55388,0.20347 0.60648,0.11836 0.0521,-0.0842 0.12644,-0.0673 0.19907,0.0453 0.0737,0.11421 0.1522,0.13146 0.21534,0.0473 0.0547,-0.0729 0.21864,-0.14569 0.36441,-0.16179 0.14577,-0.0161 0.19049,0.004 0.0994,0.0442 -0.23015,0.10205 -0.2077,0.31639 0.0331,0.31639 0.10933,0 0.19877,-0.10085 0.19877,-0.2241 0,-0.20053 0.0188,-0.19842 0.17854,0.0201 0.16147,0.22083 0.21847,0.22649 0.59632,0.0592 0.22977,-0.10171 0.41777,-0.23 0.41777,-0.28509 0,-0.0551 0.0831,-0.10017 0.1846,-0.10017 0.10153,0 0.21892,-0.0894 0.26087,-0.19877 0.0419,-0.10932 0.15269,-0.2001 0.24608,-0.20172 0.0934,-0.002 0.31783,-0.11668 0.49875,-0.2557 0.34502,-0.2651 0.66491,-0.16473 0.66491,0.20862 0,0.21014 -0.11944,0.2287 -0.38598,0.06 -0.13093,-0.0829 -0.38981,0.0301 -0.86134,0.37578 -0.37078,0.27185 -0.91267,0.59276 -1.2042,0.71313 -0.53003,0.21883 -1.8117,0.37408 -2.18649,0.26484 z m 0.2319,-1.72585 c -0.32362,-0.13277 -0.49693,-0.29003 -0.49693,-0.45092 0,-0.26463 0.19653,-0.33258 0.33129,-0.11453 0.0451,0.0729 0.25301,0.13251 0.46216,0.13251 0.20914,0 0.48127,0.10101 0.60472,0.22447 0.21096,0.21095 0.20953,0.23035 -0.0237,0.32197 -0.31568,0.12405 -0.29071,0.12728 -0.87757,-0.1135 z m 0.2319,-1.22803 c -0.045,-0.0729 -0.0187,-0.13251 0.0584,-0.13251 0.0772,0 0.14034,0.0596 0.14034,0.13251 0,0.0729 -0.0263,0.13252 -0.0584,0.13252 -0.0321,0 -0.0953,-0.0596 -0.14034,-0.13252 z m -0.31081,-1.25062 c 0.0252,-0.12157 0.10542,-0.21789 0.1783,-0.21404 0.19669,0.0104 0.16055,0.30686 -0.0458,0.37564 -0.11146,0.0371 -0.16114,-0.0234 -0.13252,-0.1616 z m -3.46585,-0.77295 c 0,-0.39166 0.18368,-0.563 0.87527,-0.81644 l 0.51613,-0.18915 -0.50618,-0.009 c -0.35547,-0.007 -0.67691,0.10812 -1.07956,0.38515 -0.48339,0.33259 -0.59775,0.36511 -0.72877,0.20725 -0.18274,-0.22019 -0.052,-0.52262 0.41401,-0.95776 0.40465,-0.37783 0.77428,-0.43265 1.9005,-0.28184 0.96464,0.12917 1.4876,0.41449 1.14639,0.62545 -0.123,0.0761 -0.0217,0.13997 0.32472,0.20496 0.529,0.0992 0.83661,0.37933 0.84368,0.76818 0.005,0.24826 -0.32371,0.31924 -0.45959,0.0994 -0.0451,-0.0729 -0.24534,-0.13252 -0.44511,-0.13252 -0.19978,0 -0.43337,-0.0701 -0.51911,-0.15588 -0.11951,-0.11951 -0.21074,-0.10798 -0.39092,0.0494 -0.12927,0.11291 -0.50337,0.23611 -0.83135,0.27376 -0.32797,0.0377 -0.70067,0.11125 -0.82821,0.16354 -0.18415,0.0755 -0.2319,0.0273 -0.2319,-0.23417 z m 6.04557,-0.96369 c -0.11611,-0.30256 0.1049,-0.54443 0.66695,-0.72992 0.49532,-0.16347 1.69148,-0.0579 1.57004,0.13864 -0.039,0.0632 5.3e-4,0.15907 0.088,0.21312 0.11063,0.0684 0.0811,0.12666 -0.0972,0.19156 -0.14093,0.0513 -0.32678,0.037 -0.41301,-0.0317 -0.10503,-0.0837 -0.24718,-0.0346 -0.43067,0.14889 -0.30311,0.30311 -0.87685,0.36638 -0.9816,0.10825 -0.0526,-0.12953 -0.0943,-0.12711 -0.19137,0.0111 -0.0998,0.142 -0.14126,0.13218 -0.21115,-0.0499 z m 0.44764,-1.11603 c 0,-0.21578 0.48637,-0.40276 1.01828,-0.39148 l 0.50564,0.0107 -0.53006,0.25082 c -0.58119,0.27503 -0.99386,0.32898 -0.99386,0.12993 z m 30.12042,9.54102 c -0.0345,-0.13186 0.002,-0.27981 0.0814,-0.32878 0.0792,-0.049 0.14406,-0.18689 0.14406,-0.30649 0,-0.39822 -0.29165,0.0473 -0.32726,0.49997 -0.0183,0.23291 -0.0863,0.46194 -0.15118,0.50897 -0.0648,0.047 -0.20504,0.20476 -0.31158,0.35053 -0.10654,0.14577 -0.009,0.0964 0.21679,-0.10971 0.26109,-0.23834 0.38769,-0.462 0.34781,-0.61449 z m -44.16697,-3.16875 c 0,-0.27651 -0.30675,-0.59291 -0.44286,-0.4568 -0.14738,0.14739 -0.0966,0.5472 0.0785,0.61784 0.29833,0.12038 0.36441,0.0912 0.36441,-0.16104 z m -1.01175,-1.31242 c 0.0352,-0.057 0.25922,-0.11844 0.49781,-0.13662 0.52117,-0.0397 0.50915,-0.0294 0.59123,-0.50552 0.0361,-0.20937 0.0999,-0.49394 0.14191,-0.63238 0.0685,-0.22612 0.0242,-0.24311 -0.43588,-0.1671 -0.28168,0.0465 -1.03798,0.0853 -1.68067,0.0861 l -1.16853,0.001 0.28308,0.39754 c 0.21172,0.29734 0.38936,0.39829 0.70472,0.40049 l 0.42165,0.003 -0.30413,0.23402 c -0.16727,0.12872 -0.26168,0.27647 -0.20981,0.32834 0.12783,0.12783 1.07859,0.12024 1.15862,-0.009 z m 19.59904,-6.71746 c 0.32549,-0.22798 0.15986,-0.53383 -0.21185,-0.39119 -0.17686,0.0679 -0.21632,0.24719 -0.19778,0.89882 0.0185,0.65159 0.0332,0.7021 0.0738,0.2531 0.0348,-0.38538 0.13989,-0.62346 0.33586,-0.76073 z m -23.52731,-1.00276 c 0.0718,-0.2744 0.39604,-0.28518 0.33514,-0.0111 -0.0182,0.082 0.12233,0.14908 0.31234,0.14908 0.25389,0 0.32508,-0.0531 0.26856,-0.20042 -0.0603,-0.15715 -0.006,-0.18265 0.25085,-0.11814 0.21088,0.0529 0.32775,0.0261 0.32775,-0.0752 0,-0.10597 0.12996,-0.12887 0.39766,-0.0701 0.30092,0.0661 0.4179,0.0346 0.4809,-0.1296 0.0471,-0.12261 0.16758,-0.18458 0.27718,-0.14252 0.12117,0.0465 0.22,-0.0252 0.26339,-0.19116 0.04,-0.15278 0.18071,-0.26558 0.33143,-0.26558 0.14515,0 0.29109,-0.11132 0.32726,-0.24963 0.047,-0.17987 0.14541,-0.22941 0.35201,-0.17727 0.1577,0.0398 0.33053,0.13723 0.38408,0.21651 0.0537,0.0795 0.0983,-0.009 0.0994,-0.19819 0.002,-0.29623 0.059,-0.34233 0.42534,-0.34233 0.23282,0 0.44875,-0.0763 0.47984,-0.1696 0.0361,-0.10833 0.0871,-0.1201 0.14121,-0.0326 0.0466,0.0754 0.23315,0.16285 0.41463,0.19445 0.18148,0.0316 0.25469,0.0318 0.16269,5.3e-4 -0.092,-0.0313 -0.13481,-0.10948 -0.0951,-0.17367 0.0397,-0.0642 0.15428,-0.0852 0.25468,-0.0466 0.10563,0.0405 0.21737,-0.0396 0.26517,-0.19024 0.0454,-0.14315 0.29089,-0.46053 0.54545,-0.70528 0.25457,-0.24475 0.69626,-0.74316 0.98156,-1.10757 0.44339,-0.56637 2.23276,-2.245 3.48994,-3.27396 0.37474,-0.30671 0.70748,-1.26583 0.50825,-1.46506 -0.0557,-0.0557 -0.29128,-0.035 -0.52355,0.046 -0.39443,0.13749 -0.42231,0.18858 -0.42231,0.77372 0,0.7335 -0.36876,1.18536 -1.00175,1.22751 -0.22061,0.0147 -0.67343,0.24745 -1.04378,0.53653 -0.60435,0.47173 -0.71026,0.50763 -1.39141,0.47159 l -0.73727,-0.0391 v -0.66258 c 0,-0.36441 0.0402,-1.05712 0.0894,-1.53935 0.0937,-0.91831 -0.0435,-1.86864 -0.28118,-1.94786 -0.0767,-0.0256 -0.13953,-0.21692 -0.13953,-0.42519 0,-0.20827 -0.0591,-0.41521 -0.13134,-0.45985 -0.0722,-0.0446 -0.48238,0.2798 -0.91142,0.72101 -0.42904,0.4412 -0.87681,0.80218 -0.99503,0.80218 -0.11823,0 -0.21495,0.0506 -0.21495,0.11239 0,0.0618 -0.23333,0.2176 -0.51851,0.3462 -0.28517,0.1286 -0.54796,0.34645 -0.58396,0.48411 -0.036,0.13766 -0.0114,0.21688 0.0547,0.17603 0.18282,-0.11298 0.1434,0.0927 -0.0629,0.32849 -0.1007,0.11507 -0.22656,0.3515 -0.27968,0.52541 -0.0895,0.29301 -0.0695,0.30941 0.2725,0.22357 0.32418,-0.0814 0.34817,-0.0674 0.1972,0.11447 -0.0945,0.11391 -0.31156,0.20711 -0.48228,0.20711 -0.17478,0 -0.37237,0.11579 -0.45224,0.26502 -0.078,0.14577 -0.23256,0.26503 -0.34344,0.26503 -0.17236,0 -0.16688,0.0598 0.0378,0.41207 0.13167,0.22664 0.35866,0.46138 0.50442,0.52166 0.14577,0.0603 0.19607,0.11337 0.11179,0.11799 -0.28621,0.0157 -0.0262,0.53844 0.26808,0.53895 0.24688,4e-4 0.23233,0.0312 -0.11484,0.24261 -0.21865,0.13316 -0.55734,0.2821 -0.75265,0.33098 -0.324,0.0811 -0.34497,0.12423 -0.2394,0.49235 0.10392,0.36235 0.0801,0.41701 -0.23326,0.53617 -0.28561,0.10859 -0.422,0.0787 -0.75109,-0.1646 -0.22115,-0.16351 -0.50797,-0.28931 -0.63738,-0.27956 -0.12941,0.01 -0.23528,-0.0292 -0.23528,-0.0865 0,-0.0573 -0.33145,-0.0522 -0.73655,0.0113 -0.40511,0.0635 -0.79271,0.0808 -0.86135,0.0384 -0.0686,-0.0424 -0.12479,-0.0177 -0.12479,0.055 0,0.0727 -0.10436,0.13151 -0.2319,0.13079 -0.55041,-0.003 -0.763,0.11642 -0.80304,0.45152 -0.0531,0.4443 0.28705,1.09378 0.85179,1.62639 0.2465,0.23248 0.44818,0.52352 0.44818,0.64676 0,0.12324 0.0596,0.18722 0.13251,0.14218 0.0729,-0.0451 0.13252,-0.0124 0.13252,0.0726 0,0.085 0.084,0.12229 0.18662,0.0829 0.11928,-0.0458 0.21582,0.0448 0.26755,0.25085 0.10215,0.40701 0.59901,0.44385 0.70148,0.052 z m 3.23826,-5.16265 c 0,-0.18221 0.0301,-0.25675 0.0668,-0.16564 0.0368,0.0911 0.0368,0.24018 0,0.33128 -0.0368,0.0911 -0.0668,0.0166 -0.0668,-0.16564 z m 1.30422,-3.71041 c 0,-0.0729 0.0631,-0.13251 0.14034,-0.13251 0.0772,0 0.10348,0.0596 0.0584,0.13251 -0.045,0.0729 -0.1082,0.13252 -0.14034,0.13252 -0.0321,0 -0.0584,-0.0596 -0.0584,-0.13252 z m 13.25146,2.91532 c -0.18221,-0.0583 -0.71889,-0.10175 -1.19263,-0.0964 l -0.86135,0.01 0.86135,0.0868 c 0.47374,0.0477 1.01042,0.0911 1.19263,0.0964 l 0.33129,0.01 z m -1.98772,-0.34293 c 0.40643,-0.0597 0.53006,-0.137 0.53006,-0.33129 0,-0.21173 0.10345,-0.25596 0.62944,-0.26906 0.56186,-0.014 0.58676,-0.0265 0.2319,-0.11683 -0.21864,-0.0556 -0.70564,-0.10822 -1.0822,-0.11684 -0.37656,-0.009 -0.705,-0.0767 -0.72986,-0.1513 -0.0268,-0.0806 -0.22398,-0.0999 -0.48554,-0.0476 -0.32324,0.0647 -0.39344,0.12108 -0.26399,0.21225 0.12192,0.0859 0.0635,0.10614 -0.18924,0.0657 -0.25533,-0.0408 -0.33068,-0.014 -0.24986,0.089 0.0636,0.0811 0.0912,0.31719 0.0612,0.52461 -0.0537,0.37155 -0.0466,0.37595 0.48176,0.29815 0.29496,-0.0434 0.77482,-0.11401 1.06635,-0.15686 z m -5.57493,-1.05951 c 0.0132,0.3607 0.20682,0.12126 0.21425,-0.26499 0.003,-0.17615 -0.0648,-0.32029 -0.15147,-0.32029 -0.17623,0 -0.32332,0.30462 -0.30918,0.64029 0.007,0.17665 0.0322,0.16782 0.1232,-0.044 0.10883,-0.25325 0.1143,-0.25375 0.1232,-0.011 z m 1.2641,-2.03629 c 0.0428,-0.0692 -0.0372,-0.18739 -0.17771,-0.2626 -0.19178,-0.10264 -0.27304,-0.091 -0.32586,0.0466 -0.11914,0.31047 0.32693,0.50176 0.50357,0.21595 z m -6.99126,-0.75282 c 0.30688,-0.17544 0.83234,-0.66074 1.16769,-1.07843 0.33535,-0.41768 0.6846,-0.85174 0.7761,-0.96457 0.0915,-0.11283 0.14266,-0.2763 0.11367,-0.36326 -0.029,-0.087 0.025,-0.38226 0.11999,-0.6562 0.21644,-0.62425 0.24906,-0.98846 0.10457,-1.16764 -0.0639,-0.0793 -0.0386,-0.28194 0.0587,-0.46951 0.20712,-0.39922 0.20843,-0.40773 0.30074,-1.94539 0.0637,-1.06078 0.0319,-1.35135 -0.23214,-2.12023 -0.55114,-1.60518 -1.12412,-2.10044 -2.03108,-1.75561 -0.47336,0.17997 -0.42459,0.3335 0.16173,0.50916 0.55988,0.16775 1.08853,0.59804 1.08853,0.88602 0,0.21885 -0.47811,0.51105 -0.65616,0.40101 -0.0663,-0.041 -0.15807,-0.0139 -0.20385,0.0601 -0.10606,0.17161 -0.59765,0.17681 -0.59765,0.006 0,-0.0706 -0.0894,-0.094 -0.19877,-0.0521 -0.10933,0.0419 -0.19878,0.15934 -0.19878,0.26087 0,0.10153 0.0894,0.18459 0.19878,0.18459 0.10932,0 0.19877,0.0673 0.19877,0.14946 0,0.21431 -1.0596,0.0246 -1.35482,-0.24256 -0.12944,-0.11715 -0.23536,-0.32302 -0.23536,-0.45749 0,-0.13447 -0.0596,-0.24449 -0.13251,-0.24449 -0.30939,0 -0.1081,-0.74474 0.315,-1.16549 0.35469,-0.35271 0.60759,-0.46457 1.31564,-0.58189 0.74574,-0.12358 0.9245,-0.11383 1.19794,0.0653 0.17676,0.11583 0.35594,0.17604 0.39818,0.13381 0.13442,-0.13443 -0.1957,-0.60787 -1.2279,-1.76099 -2.44548,-2.73198 -2.93107,-3.08831 -4.42124,-3.24436 -1.45568,-0.15245 -1.82984,-0.036 -2.23844,0.69643 -0.25073,0.44946 -0.33804,0.77943 -0.31366,1.18542 0.0208,0.34681 -0.0347,0.6194 -0.14471,0.71072 -0.0982,0.0815 -0.14418,0.20361 -0.10227,0.27143 0.0419,0.0678 0.008,0.20495 -0.0744,0.30474 -0.0828,0.0998 -0.17601,0.61016 -0.20708,1.13415 l -0.0565,0.95272 0.36131,-0.10077 c 0.40123,-0.11191 0.5778,-0.12129 1.58708,-0.0844 0.48788,0.0178 0.77277,0.10252 0.95368,0.28344 0.14189,0.14189 0.43508,0.34956 0.65154,0.46149 0.42671,0.22066 0.4833,0.3867 0.62426,1.83143 0.0965,0.98931 -0.0458,1.16237 -0.3831,0.46589 -0.1707,-0.35245 -0.22324,-0.38776 -0.29576,-0.19877 -0.12505,0.32588 -0.31054,0.28473 -0.45738,-0.10148 -0.0693,-0.1822 -0.14966,-0.33128 -0.17864,-0.33128 -0.029,0 -0.33023,0.12277 -0.66945,0.27282 -0.60636,0.26822 -1.10155,0.25144 -1.29114,-0.0437 -0.0469,-0.073 -0.39641,-0.16264 -0.77669,-0.19919 -0.67893,-0.0652 -0.68968,-0.0607 -0.59477,0.25 0.0532,0.17404 0.18617,0.41844 0.29557,0.54311 0.1264,0.14405 0.17569,0.38484 0.13521,0.66061 -0.0671,0.45754 0.30651,1.3576 0.68889,1.6594 0.11249,0.0888 0.40529,0.16333 0.65066,0.16565 0.37205,0.004 0.4352,0.046 0.38032,0.25586 -0.0511,0.19531 0.0227,0.26934 0.32944,0.33069 0.21739,0.0435 0.44876,0.046 0.51416,0.006 0.16318,-0.10086 0.15096,-0.98545 -0.0136,-0.98545 -0.24661,0 -0.13439,-0.28581 0.29815,-0.75935 0.81316,-0.89022 0.89491,-0.96334 1.07702,-0.96334 0.26884,0 0.50557,0.3416 0.45657,0.65884 -0.0294,0.19017 0.11997,0.41412 0.47608,0.71388 0.57922,0.48759 0.55869,0.63247 -0.13631,0.96227 -0.67138,0.31859 -0.35237,0.44126 1.07388,0.41296 0.98185,-0.0195 1.22514,-0.0663 1.37008,-0.26385 0.16747,-0.2282 0.18857,-0.22449 0.42377,0.0745 0.30151,0.38331 0.21341,0.83678 -0.18185,0.93605 -0.1571,0.0394 -0.4028,0.28937 -0.546,0.55538 -0.24102,0.44772 -0.66223,0.7352 -1.04028,0.71001 -0.11188,-0.007 -0.1094,-0.0297 0.009,-0.0773 0.0911,-0.0368 0.16564,-0.1215 0.16564,-0.18831 0,-0.16481 -0.75867,-0.15509 -0.86134,0.011 -0.045,0.0729 -0.14153,0.13251 -0.21442,0.13251 -0.0729,0 -0.0957,-0.0596 -0.0506,-0.13251 0.0999,-0.16168 -0.0678,-0.16949 -0.3123,-0.0145 -0.12739,0.0807 -0.13642,0.14074 -0.031,0.2059 0.29851,0.1845 -0.0201,0.3386 -0.69154,0.33448 -0.6524,-0.004 -1.15168,-0.21118 -1.15168,-0.47793 0,-0.3769 -0.65665,-1.03033 -1.1952,-1.18934 -0.91781,-0.271 -1.04405,-0.0237 -0.64873,1.27077 0.17038,0.55792 0.5582,1.11222 0.68763,0.98279 0.0321,-0.0321 0.13385,0.0325 0.22604,0.14356 0.0922,0.11109 0.24247,0.20197 0.33394,0.20197 0.0915,0 0.24286,0.0922 0.3364,0.20493 0.26993,0.32524 1.66183,1.09615 2.07252,1.14787 0.88675,0.11167 2.1025,-0.0607 2.65454,-0.37628 z m 0.94969,-4.5848 c -0.20692,-0.38663 -0.45796,-0.63218 -0.64631,-0.63218 -0.16921,0 -0.53006,-0.32475 -0.53006,-0.47703 0,-0.0541 -0.0987,-0.20747 -0.21931,-0.34075 -0.2043,-0.22576 -0.20387,-0.24234 0.006,-0.24234 0.12411,0 0.47913,0.26834 0.78895,0.59632 0.30981,0.32797 0.68317,0.59631 0.82968,0.59631 0.14651,0 0.37583,0.08 0.50961,0.17786 0.23225,0.16982 0.22906,0.18778 -0.0704,0.39754 -0.40816,0.28589 -0.47926,0.27783 -0.66849,-0.0757 z m -2.34415,-0.90549 c 0.0319,-0.0957 0.13624,-0.20002 0.2319,-0.2319 0.0994,-0.0331 0.14908,0.0166 0.11595,0.11595 -0.0319,0.0957 -0.13625,0.20001 -0.2319,0.2319 -0.0994,0.0331 -0.14908,-0.0166 -0.11595,-0.11595 z m 0.67085,2.53513 c 0.14993,-0.0137 0.11928,-0.77623 -0.035,-0.8716 -0.0739,-0.0457 -0.44901,-0.0178 -0.83352,0.0621 -0.3845,0.0798 -1.03936,0.15841 -1.45525,0.17464 -0.59334,0.0232 -0.75626,0.0753 -0.75665,0.24224 -9.3e-4,0.40423 1.23213,0.56141 3.08046,0.39266 z m -2.44362,-3.02378 c -0.0424,-0.22031 -0.50483,-0.34169 -0.50483,-0.13252 0,0.0547 0,0.15902 0,0.23191 0,0.0729 0.12364,0.13251 0.27475,0.13251 0.19033,0 0.26102,-0.0712 0.23008,-0.2319 z m -10.39286,-0.63633 c 0.0453,-0.11793 0.023,-0.17112 -0.0521,-0.12469 -0.0721,0.0445 -0.131,0.13707 -0.131,0.20565 0,0.19062 0.095,0.14861 0.18308,-0.081 z m 7.83406,-1.38452 c 0.045,-0.0729 0.0188,-0.13251 -0.0584,-0.13251 -0.0772,0 -0.14034,0.0596 -0.14034,0.13251 0,0.0729 0.0263,0.13252 0.0584,0.13252 0.0321,0 0.0953,-0.0596 0.14034,-0.13252 z m 1.21338,-0.24925 c 0.19552,-0.11506 0.1517,-0.12734 -0.21953,-0.0615 -0.62328,0.11048 -1.00722,0.33698 -0.44304,0.26136 0.23006,-0.0308 0.52822,-0.12075 0.66257,-0.19982 z m 0.0455,-0.38144 c 0,-0.0554 -0.11927,-0.17513 -0.26503,-0.26616 -0.14577,-0.091 -0.26503,-0.14007 -0.26503,-0.10897 0,0.0311 -0.0362,0.15087 -0.0804,0.26615 -0.0607,0.15811 0.005,0.20961 0.26503,0.20961 0.19,0 0.34546,-0.0453 0.34546,-0.10063 z m 5.23432,-0.42942 c 0,-0.0972 -0.0745,-0.20154 -0.16564,-0.23191 -0.0985,-0.0328 -0.16564,0.0611 -0.16564,0.23191 0,0.17079 0.0671,0.26474 0.16564,0.2319 0.0911,-0.0304 0.16564,-0.13473 0.16564,-0.2319 z m -6.62573,-0.64442 0.39755,-0.2133 -0.33907,-0.0413 c -0.46956,-0.0572 -1.05233,0.18695 -1.05233,0.44086 0,0.23789 0.31247,0.17932 0.99385,-0.18626 z m 38.96081,-0.42463 c 0.0858,-0.50778 -0.0344,-0.91483 -0.16349,-0.55343 -0.0327,0.0916 -0.11659,0.13114 -0.18646,0.088 -0.17322,-0.10706 -0.80587,0.322 -0.70808,0.48022 0.0431,0.0697 0.19404,0.12669 0.33551,0.12669 0.14146,0 0.25721,0.0894 0.25721,0.19877 0,0.10933 0.0842,0.19878 0.18712,0.19878 0.11556,0 0.22195,-0.20614 0.27819,-0.53899 z m 1.22993,0.17457 c 0.26081,-0.69265 0.42498,-1.2661 0.42296,-1.47743 -0.002,-0.18605 -0.0191,-0.18769 -0.14119,-0.0134 -0.14505,0.20717 -0.13248,0.0967 0.0694,-0.61073 0.0487,-0.17076 0.002,-0.34417 -0.12072,-0.44584 -0.11344,-0.0941 -0.17262,-0.28925 -0.13631,-0.44938 0.0353,-0.15565 -0.021,-0.39341 -0.12512,-0.52837 -0.20378,-0.26413 -0.0604,-0.32615 -2.16546,0.93693 -0.16631,0.0998 -0.26941,0.23478 -0.22911,0.29998 0.0403,0.0652 -0.0241,0.17306 -0.14317,0.23967 -0.17662,0.0988 -0.14259,0.13589 0.18505,0.20142 0.22081,0.0442 0.53409,0.0548 0.69619,0.0235 0.17933,-0.0345 0.43609,0.0622 0.65578,0.24705 0.31983,0.26913 0.34039,0.33208 0.18002,0.55139 -0.24295,0.33226 -0.25159,1.21554 -0.01,1.01498 0.12706,-0.10545 0.21263,-0.0755 0.33241,0.11628 0.22077,0.35352 0.36714,0.32416 0.52916,-0.10612 z m -0.30384,-0.56319 c -0.045,-0.0729 -0.0187,-0.13251 0.0584,-0.13251 0.0772,0 0.14034,0.0596 0.14034,0.13251 0,0.0729 -0.0263,0.13252 -0.0584,0.13252 -0.0321,0 -0.0953,-0.0596 -0.14034,-0.13252 z M 58.7507,194.54035 c 0.48371,-0.0708 0.571,-0.16329 0.2503,-0.26507 -0.1402,-0.0445 -0.32231,-0.22884 -0.40469,-0.40965 -0.0824,-0.1808 -0.23755,-0.32874 -0.34482,-0.32874 -0.10726,0 -0.25581,-0.10435 -0.33009,-0.2319 -0.0743,-0.12754 -0.13689,-0.17987 -0.1391,-0.11629 -0.002,0.0636 -0.0872,0.0466 -0.18886,-0.0378 -0.10165,-0.0844 -0.26292,-0.13639 -0.35839,-0.11562 -0.0955,0.0208 -0.17628,-0.046 -0.17959,-0.14836 -0.006,-0.20167 -0.41712,-0.31474 -0.73114,-0.20133 -0.17173,0.062 -0.17173,0.0852 0,0.1938 0.16667,0.1054 0.16351,0.12365 -0.0217,0.12539 -0.11921,10e-4 -0.38755,0.0911 -0.59631,0.19998 -0.20876,0.10888 -0.48392,0.19832 -0.61147,0.19877 -0.1681,5.3e-4 -0.2319,0.10803 -0.2319,0.39054 0,0.48498 0.0664,0.52509 1.23647,0.7467 0.8565,0.16222 1.54143,0.1621 2.65129,-4e-4 z m 11.16066,-0.59044 c -0.11373,-0.21992 -0.21081,-0.53699 -0.21575,-0.70459 -0.009,-0.29501 -0.0132,-0.29613 -0.14003,-0.0351 -0.0984,0.20252 -0.058,0.43339 0.1626,0.9276 0.18966,0.42492 0.3125,0.57898 0.34681,0.43497 0.0292,-0.12265 -0.0399,-0.40294 -0.15363,-0.62287 z m 4.27097,0.32148 c 0.16256,-0.16256 -0.0697,-0.15868 -0.56857,0.01 l -0.53006,0.1787 0.51335,-0.0582 c 0.28234,-0.032 0.54572,-0.0905 0.58528,-0.13007 z m 0.73055,-0.40394 c 0.28065,-0.0739 0.36168,-0.16679 0.33129,-0.37983 -0.037,-0.25937 -0.12002,-0.28175 -1.03409,-0.27877 -0.54662,0.002 -1.11312,0.0559 -1.25889,0.12029 -0.14577,0.0644 -0.33957,0.10502 -0.43067,0.0903 -0.0911,-0.0147 -0.16565,0.0337 -0.16565,0.10746 0,0.0738 -0.0894,0.0998 -0.19877,0.0579 -0.19963,-0.0766 -0.28429,0.21993 -0.11199,0.39223 0.10871,0.1087 2.36739,0.0224 2.86877,-0.1096 z M 61.885,193.43751 c 0.15725,-0.20043 0.24419,-0.27497 0.1932,-0.16565 -0.051,0.10933 0.1533,-0.0548 0.45397,-0.36468 0.3937,-0.40578 0.54668,-0.67463 0.54668,-0.96073 0,-0.29083 -0.0625,-0.39727 -0.23315,-0.39727 -0.28135,0 -0.60739,0.47729 -0.47892,0.70109 0.0506,0.0881 0.042,0.11479 -0.0192,0.0592 -0.0612,-0.0556 -0.34018,0.15199 -0.62002,0.46121 -0.43332,0.47882 -0.47491,0.5741 -0.28032,0.64236 0.209,0.0733 0.20638,0.093 -0.0307,0.23046 -0.21673,0.12572 -0.223,0.15098 -0.0383,0.15435 0.12147,0.002 0.34951,-0.15995 0.50676,-0.36038 z m 12.02417,-0.51074 c -0.044,-0.044 -0.15833,-0.0487 -0.25399,-0.0105 -0.10571,0.0423 -0.0743,0.0737 0.0801,0.0801 0.13969,0.006 0.21796,-0.0256 0.17393,-0.0696 z m -3.58478,-1.43564 c 0.20573,-0.25057 0.52158,-0.72706 0.70189,-1.05885 0.31023,-0.57089 0.31557,-0.6155 0.0995,-0.83154 -0.13877,-0.13877 -0.44918,-0.23322 -0.79163,-0.24086 -0.30984,-0.007 -0.80186,-0.0568 -1.0934,-0.11075 -0.45605,-0.0845 -0.58556,-0.051 -0.9276,0.23943 -0.21865,0.1857 -0.3081,0.30778 -0.19877,0.27131 0.26492,-0.0884 0.65032,0.60104 0.57022,1.02005 -0.0489,0.25589 0.0365,0.38965 0.41196,0.64541 0.26052,0.17744 0.47408,0.36734 0.47457,0.422 0.002,0.2513 0.41447,0.0564 0.75322,-0.3562 z m -11.58251,-1.78565 c 0.36669,-0.13942 1.28915,-0.97384 1.28915,-1.16612 0,-0.0712 0.11926,-0.23739 0.26502,-0.36931 0.14577,-0.13191 0.26503,-0.32266 0.26503,-0.42389 0,-0.10122 0.0745,-0.17436 0.16565,-0.16253 0.61982,0.0805 0.91665,-0.26334 1.09929,-1.27336 0.0523,-0.28901 0.12921,-0.58425 0.17099,-0.65609 0.0418,-0.0718 0.0592,-0.32514 0.0387,-0.56291 -0.03,-0.34856 0.004,-0.41667 0.17316,-0.35157 0.15542,0.0596 0.18842,0.0234 0.12627,-0.1385 -0.0463,-0.12058 -0.12149,-0.18186 -0.16715,-0.13618 -0.0457,0.0457 -0.14645,-0.57139 -0.22398,-1.37129 -0.17969,-1.8538 -0.34634,-2.14652 -1.22036,-2.14369 -0.67161,0.002 -1.09363,0.16334 -0.83931,0.32051 0.41403,0.25589 -0.0101,0.65899 -0.80898,0.76885 -0.4046,0.0556 -0.65641,0.22366 -0.56262,0.37543 0.0419,0.0678 -0.0167,0.12335 -0.13035,0.12335 -0.11362,0 -0.20659,-0.0853 -0.20659,-0.18955 0,-0.10426 -0.13417,-0.20861 -0.29816,-0.2319 -0.23968,-0.034 -0.29791,-0.12681 -0.29688,-0.47302 0.001,-0.41979 -0.0132,-0.43067 -0.57265,-0.43067 -0.68443,0 -0.90223,0.18583 -1.02601,0.87543 -0.0509,0.28378 -0.18376,0.62033 -0.29514,0.74787 -0.2508,0.28718 -0.61769,0.31096 -0.51108,0.0331 0.0448,-0.11671 0.002,-0.19877 -0.10416,-0.19877 -0.0992,0 -0.21621,-0.0932 -0.25993,-0.20717 -0.0437,-0.11395 -0.14052,-0.16946 -0.21511,-0.12336 -0.0746,0.0461 -0.10288,0.13678 -0.0629,0.20153 0.0776,0.12558 -0.71173,0.58998 -0.81955,0.48217 -0.0352,-0.0352 -0.25323,-0.004 -0.48461,0.0699 -0.23139,0.0736 -0.59257,0.12623 -0.80262,0.11696 l -0.38192,-0.0169 0.0914,0.80747 c 0.0503,0.44411 0.12333,0.8908 0.16241,0.99264 0.0844,0.21987 1.52045,1.20061 1.68261,1.1491 0.0618,-0.0196 -0.0127,0.12337 -0.16564,0.3178 -0.15294,0.19443 -0.27807,0.4899 -0.27807,0.65662 0,0.49098 0.80102,1.42026 1.42196,1.64963 0.30242,0.11171 0.6876,0.32854 0.85596,0.48185 0.16837,0.1533 0.48501,0.34125 0.70366,0.41765 0.50185,0.17537 1.80355,0.19812 2.22249,0.0388 z m -3.56818,-2.73706 c -1.10436,-0.53446 -1.0472,-0.89046 0.15306,-0.95328 0.36441,-0.0191 1.36526,-0.069 2.22411,-0.1109 1.47871,-0.0722 1.57302,-0.0937 1.77807,-0.40669 0.20119,-0.30705 0.20026,-0.35801 -0.013,-0.71914 l -0.22959,-0.38866 0.49086,0.3331 c 0.26997,0.18321 0.53815,0.33311 0.59595,0.33311 0.22977,0 0.259,0.53398 0.047,0.85762 -0.1695,0.25869 -0.26412,0.30514 -0.39697,0.19488 -0.13086,-0.10859 -0.30047,-0.0588 -0.67894,0.19916 -0.38514,0.26255 -0.51404,0.29947 -0.54475,0.15605 -0.0816,-0.38133 -1.37161,-0.39501 -2.09027,-0.0222 -0.32524,0.16873 -0.34214,0.20484 -0.13342,0.28493 0.32417,0.1244 0.83301,0.12987 1.46883,0.0158 l 0.53006,-0.0951 -0.4638,0.1792 c -1.50208,0.58039 -1.79954,0.59583 -2.7371,0.14208 z m 0.3187,-1.87129 c -0.12754,-0.0333 -0.2319,-0.16727 -0.2319,-0.29764 0,-0.20159 0.10404,-0.23235 0.6957,-0.20569 0.8211,0.037 1.1595,0.15668 1.1595,0.41008 0,0.1363 -0.18203,0.18057 -0.6957,0.16922 -0.38263,-0.008 -0.80005,-0.0426 -0.9276,-0.076 z m 2.08711,-0.57123 c 0.045,-0.0729 0.16782,-0.13251 0.27285,-0.13251 0.10502,0 0.19095,0.0596 0.19095,0.13251 0,0.0729 -0.12279,0.13252 -0.27285,0.13252 -0.15007,0 -0.236,-0.0596 -0.19095,-0.13252 z m 13.12674,4.43238 c 0.24668,-0.1972 0.24364,-0.20154 -0.0741,-0.1058 -0.1822,0.0549 -0.56981,0.0873 -0.86134,0.0719 -0.38972,-0.0205 -0.47743,0.007 -0.33129,0.10377 0.30033,0.19901 0.97705,0.16169 1.26669,-0.0699 z m -34.06405,-1.9146 c 0.045,-0.0729 0.0188,-0.13251 -0.0584,-0.13251 -0.0772,0 -0.14034,0.0596 -0.14034,0.13251 0,0.0729 0.0263,0.13251 0.0584,0.13251 0.0321,0 0.0953,-0.0596 0.14034,-0.13251 z m 43.12105,-0.4788 c -0.19385,-0.23358 -0.28794,-0.16509 -0.17555,0.12779 0.0458,0.11933 0.13954,0.18219 0.20832,0.13968 0.0746,-0.0461 0.0613,-0.15408 -0.0328,-0.26747 z m -17.4015,-1.60763 c -0.14476,-0.14476 -0.24403,0.0855 -0.1401,0.3249 0.0985,0.22704 0.1057,0.22684 0.1606,-0.005 0.0316,-0.13325 0.0224,-0.27735 -0.0205,-0.32024 z m 0.44109,-1.98724 c -0.0906,-0.27395 -0.18969,-0.42406 -0.22009,-0.3336 -0.0304,0.0905 0.0189,0.38863 0.10956,0.66258 0.0906,0.27394 0.18969,0.42406 0.22009,0.33359 0.0304,-0.0905 -0.0189,-0.38862 -0.10956,-0.66257 z m 0.23127,-0.59747 c -0.0368,-0.0911 -0.0668,-0.0166 -0.0668,0.16564 0,0.18221 0.0301,0.25675 0.0668,0.16565 0.0368,-0.0911 0.0368,-0.24019 0,-0.33129 z m -0.5273,-0.25675 c -0.0423,-0.10571 -0.0737,-0.0743 -0.0801,0.0801 -0.006,0.1397 0.0256,0.21796 0.0696,0.17393 0.044,-0.044 0.0487,-0.15833 0.0105,-0.25399 z m -3.43928,-0.8503 c -0.044,-0.044 -0.15832,-0.0487 -0.25398,-0.0105 -0.10571,0.0423 -0.0743,0.0737 0.0801,0.0801 0.13969,0.006 0.21796,-0.0256 0.17392,-0.0696 z m 18.02475,-1.42955 c -0.12754,-0.0968 -0.2319,-0.25394 -0.2319,-0.34916 0,-0.0952 -0.0395,-0.13365 -0.0877,-0.0854 -0.0482,0.0482 -0.27186,-0.0525 -0.49693,-0.22388 -0.49501,-0.3769 -0.9558,-0.53741 -1.05978,-0.36915 -0.0421,0.0681 0.17434,0.22425 0.48098,0.34694 0.30664,0.1227 0.70199,0.36754 0.87856,0.5441 0.17656,0.17657 0.41724,0.31913 0.53485,0.31681 0.1881,-0.004 0.18592,-0.0254 -0.0181,-0.18025 z m -3.80979,-1.33163 c 0,-0.13987 -0.25431,-0.19863 -0.32996,-0.0762 -0.0458,0.0741 0.01,0.13468 0.12336,0.13468 0.11363,0 0.2066,-0.0263 0.2066,-0.0584 z m 6.02941,95.71207 c -0.65595,-0.0653 -1.46225,-0.2066 -1.79179,-0.31402 -1.00041,-0.32613 -2.62514,-0.59333 -4.09881,-0.67409 -0.76874,-0.0421 -1.5766,-0.0938 -1.79525,-0.1148 -0.21865,-0.021 -0.59134,-0.0449 -0.82821,-0.053 -0.50786,-0.0175 -0.51151,-0.0461 -0.15755,-1.23462 0.28793,-0.96682 0.48212,-1.0862 0.70062,-0.4307 0.14605,0.43813 0.41193,0.75072 0.5344,0.62826 0.0451,-0.0451 0.082,-0.0167 0.082,0.0632 0,0.13199 0.64406,0.30776 1.96173,0.53539 0.26938,0.0465 1.11592,0.0864 1.88119,0.0885 l 1.3914,0.004 0.002,-2.38526 c 0.001,-1.31189 0.0537,-2.53434 0.11678,-2.71655 0.23691,-0.68421 0.60756,-1.06011 1.04526,-1.06011 0.22947,0 0.67008,-0.0966 0.97912,-0.2146 0.83774,-0.31993 1.40051,-0.16348 2.16619,0.6022 0.34922,0.34922 0.78142,0.95646 0.96044,1.34943 0.75996,1.66812 0.82945,4.39937 0.13189,5.18426 -0.11209,0.12612 -0.39883,0.2659 -0.6372,0.31062 -0.27137,0.0509 -0.45811,0.17574 -0.49946,0.33388 -0.0744,0.28457 -0.20978,0.29076 -2.14484,0.0982 z m 1.0816,-1.19644 c 0.21702,-0.16902 0.48559,-1.37402 0.3906,-1.75251 -0.0513,-0.20425 -0.33637,-0.46096 -0.80686,-0.72649 -0.84699,-0.47801 -1.06916,-0.50528 -1.25699,-0.1543 -0.24603,0.45971 -0.15428,0.77162 0.31172,1.05962 0.2469,0.15259 0.52412,0.36806 0.61605,0.47883 0.14633,0.17632 0.12205,0.18425 -0.195,0.0637 -0.19917,-0.0757 -0.41167,-0.10707 -0.47221,-0.0697 -0.0605,0.0374 -0.14028,-0.007 -0.17719,-0.0984 -0.0369,-0.0916 -0.0718,-0.0415 -0.0776,0.11115 -0.006,0.15269 0.1088,0.38555 0.25457,0.51747 0.14576,0.13191 0.26503,0.31709 0.26503,0.41149 0,0.38429 0.72899,0.48534 1.14786,0.15912 z m -0.8497,-0.0621 c -0.0911,-0.0368 -0.16564,-0.13343 -0.16564,-0.21481 0,-0.10855 0.0396,-0.10837 0.14866,6.6e-4 0.0818,0.0818 0.23084,0.11713 0.33129,0.0786 0.10044,-0.0385 0.18262,-0.004 0.18262,0.0766 0,0.15134 -0.20707,0.1759 -0.49693,0.0589 z m 1.47449,-2.86551 c 0.35034,-0.25618 0.35588,-1.30042 0.009,-1.76455 -0.50107,-0.67112 -0.67,-0.69763 -1.17231,-0.18395 -0.24877,0.25439 -0.49075,0.64859 -0.53775,0.87599 -0.0731,0.35395 -0.0422,0.42475 0.21472,0.49194 0.16509,0.0432 0.34195,0.0109 0.39302,-0.0717 0.0553,-0.0895 0.17509,0.0465 0.29614,0.33627 0.21507,0.51474 0.41606,0.59446 0.79682,0.31605 z m -8.56402,-2.78531 c -0.51677,-0.11205 -0.62944,-0.18821 -0.62944,-0.42545 0,-0.21658 -0.1411,-0.34496 -0.56319,-0.51242 l -0.56319,-0.22345 0.78479,-0.3212 c 0.92616,-0.37906 1.261,-0.45992 2.1914,-0.52919 0.38244,-0.0285 0.79354,-0.13783 0.91355,-0.24302 0.39095,-0.34263 0.78758,-0.38601 1.21595,-0.13297 0.47853,0.28268 0.5546,0.52085 0.50049,1.5669 -0.0366,0.70799 -0.0727,0.79303 -0.37185,0.87574 -0.49484,0.13684 -2.75894,0.10108 -3.47851,-0.0549 z m -5.88562,-1.2472 c -0.23067,-0.0289 -0.44983,-0.1319 -0.48702,-0.22882 -0.0449,-0.11705 0.0113,-0.15559 0.16732,-0.11478 0.19961,0.0522 2.74479,-0.89484 3.50167,-1.30295 0.13465,-0.0726 0.27236,-0.10444 0.30603,-0.0708 0.0642,0.0642 -0.82014,0.56539 -2.10788,1.19454 -0.41907,0.20475 -0.76196,0.42751 -0.76196,0.49504 0,0.0675 -0.0447,0.11322 -0.0994,0.10156 -0.0547,-0.0117 -0.28811,-0.0449 -0.51878,-0.0738 z m 0.75068,-0.0251 c 0,-0.0661 0.11926,-0.0889 0.26503,-0.0508 0.14576,0.0381 0.26503,0.0922 0.26503,0.12011 0,0.0279 -0.11927,0.0508 -0.26503,0.0508 -0.14577,0 -0.26503,-0.054 -0.26503,-0.1201 z m 1.78895,-6e-5 c -0.48053,-0.0748 -0.49911,-0.0915 -0.19878,-0.17815 0.79303,-0.22887 1.90594,-0.0346 1.24805,0.21788 -0.22477,0.0863 -0.24537,0.0855 -1.04927,-0.0397 z m -4.90304,-0.36609 c -1.09156,-0.23873 -3.21431,-0.8948 -3.36517,-1.04005 -0.15526,-0.14948 -0.10227,-0.16018 0.33129,-0.0669 0.28385,0.0611 0.98663,0.21307 1.56172,0.33776 0.96643,0.20955 2.20099,0.65706 2.20099,0.79784 0,0.0691 -0.34346,0.0556 -0.72883,-0.0287 z m -1.12638,-1.50216 c -0.67945,-0.27146 -0.78432,-0.22273 1.25889,-0.58506 0.65595,-0.11632 1.54614,-0.24719 1.9782,-0.29082 0.67005,-0.0677 0.75774,-0.0524 0.59632,0.10365 -0.10409,0.10063 -0.63649,0.32221 -1.18312,0.4924 -0.54662,0.17019 -1.13083,0.36256 -1.29825,0.42749 -0.41029,0.15914 -0.64954,0.13301 -1.35204,-0.14766 z m 13.35167,0.0452 c 0.0916,-0.0369 0.13663,-0.1154 0.10015,-0.17442 -0.0365,-0.059 0.0209,-0.14077 0.12745,-0.18167 0.10657,-0.0409 0.22901,-0.0173 0.27208,0.0524 0.0431,0.0697 0.0117,0.12673 -0.0698,0.12673 -0.0815,0 -0.1113,0.0596 -0.0663,0.13252 0.0461,0.0746 -0.0519,0.12794 -0.22408,0.12205 -0.16828,-0.006 -0.23106,-0.0407 -0.13951,-0.0776 z m -17.45962,-0.96602 c -0.25509,-0.0528 -0.67865,-0.18831 -0.94125,-0.30115 -0.40609,-0.1745 -0.50134,-0.30005 -0.63733,-0.84013 -0.0879,-0.34923 -0.27966,-0.80317 -0.42605,-1.00876 -0.20281,-0.28482 -0.22159,-0.37379 -0.0789,-0.37379 0.21469,0 0.49065,0.30304 0.75217,0.82598 0.0996,0.19919 0.29085,0.47995 0.42496,0.6239 0.13411,0.14395 0.24383,0.31655 0.24383,0.38355 0,0.23856 0.38684,0.44057 0.67098,0.35039 0.2477,-0.0786 0.27537,-0.1582 0.20595,-0.59233 -0.0441,-0.27583 -0.22647,-0.81723 -0.40524,-1.2031 -0.32986,-0.71196 -0.33371,-1.00379 -0.0108,-0.82071 0.098,0.0556 0.54971,0.50701 1.00382,1.00321 0.58341,0.63748 0.78429,0.94353 0.68469,1.04313 -0.0775,0.0775 -0.11215,0.21602 -0.077,0.30777 0.053,0.13815 -0.73111,0.76274 -0.89545,0.71326 -0.0278,-0.008 -0.25932,-0.0584 -0.51441,-0.11122 z m -45.71754,-0.91948 c 0,-0.14697 0.40767,-0.31325 0.51206,-0.20887 0.0421,0.0421 -0.0111,0.13206 -0.11835,0.19987 -0.24779,0.1567 -0.39371,0.16004 -0.39371,0.009 z m 48.00379,-0.57631 c 0.0844,-0.24982 -0.26385,-0.99852 -0.77682,-1.67034 -0.30717,-0.40229 -0.41208,-0.64057 -0.32178,-0.73088 0.0903,-0.0903 0.23176,-0.0466 0.4339,0.13408 0.16495,0.14743 0.62262,0.4621 1.01703,0.69927 1.19042,0.71583 1.28612,0.88616 0.69429,1.23576 -0.63217,0.37343 -1.11199,0.52568 -1.04662,0.33211 z m -46.19392,-0.30596 c 0.0405,-0.10562 0.12694,-0.19203 0.19203,-0.19203 0.1905,0 0.13591,0.22993 -0.0737,0.31036 -0.12834,0.0493 -0.16759,0.01 -0.11834,-0.11833 z m 65.44866,-0.95398 c 0.0494,-0.3462 0.12761,-0.67012 0.17376,-0.71983 0.0461,-0.0497 0.90868,-0.15571 1.91673,-0.23554 1.92312,-0.15231 3.11398,-0.47226 4.72664,-1.2699 0.40086,-0.19827 1.38478,-0.58572 2.18649,-0.861 0.80172,-0.27529 1.86728,-0.65505 2.36792,-0.84392 0.50063,-0.18888 0.94787,-0.33992 0.99386,-0.33566 0.14,0.013 -1.43804,0.77421 -2.63295,1.27012 -0.6195,0.25711 -1.30526,0.5472 -1.52391,0.64464 -3.4988,1.5592 -7.3264,2.97416 -8.05838,2.97896 -0.21073,0.001 -0.22906,-0.0752 -0.15016,-0.62787 z m -65.53584,0.1072 c 0,-0.0686 0.0596,-0.16155 0.13252,-0.20659 0.0729,-0.045 0.13251,0.0111 0.13251,0.12469 0,0.11363 -0.0596,0.2066 -0.13251,0.2066 -0.0729,0 -0.13252,-0.0561 -0.13252,-0.1247 z m 0.9276,-1.51551 c 0,-0.0275 0.0894,-0.12427 0.19878,-0.215 0.16279,-0.13511 0.19877,-0.12605 0.19877,0.05 0,0.11825 -0.0894,0.215 -0.19877,0.215 -0.10933,0 -0.19878,-0.0225 -0.19878,-0.05 z m 1.06012,-1.34773 c 0,-0.10067 0.70621,-0.71314 0.82822,-0.71828 0.21748,-0.009 0.0827,0.23428 -0.16565,0.29923 -0.14576,0.0381 -0.26503,0.16434 -0.26503,0.28049 0,0.11615 -0.0894,0.21118 -0.19877,0.21118 -0.10932,0 -0.19877,-0.0327 -0.19877,-0.0726 z m 1.32718,-2.2717 c 0.001,-0.059 0.0598,-0.19665 0.13048,-0.30598 0.1107,-0.1713 0.12874,-0.1678 0.13049,0.0253 0.001,0.12325 -0.0576,0.26094 -0.13049,0.30598 -0.0729,0.045 -0.1316,0.0337 -0.13048,-0.0253 z m 0.85931,-1.49861 c 0.045,-0.0729 0.13801,-0.13251 0.20659,-0.13251 0.0686,0 0.1247,0.0596 0.1247,0.13251 0,0.0729 -0.093,0.13252 -0.20659,0.13252 -0.11363,0 -0.16974,-0.0596 -0.1247,-0.13252 z m 79.36636,-1.17663 c 0.0396,-0.0641 0.20712,-0.15057 0.37224,-0.19218 0.28964,-0.073 0.29116,-0.0689 0.043,0.11652 -0.28488,0.21283 -0.52732,0.25701 -0.41523,0.0757 z m -14.76549,-0.43103 c 0,-0.24967 0.57681,-1.10116 0.63258,-0.93382 0.0285,0.0857 -0.0771,0.36455 -0.23488,0.61977 -0.30089,0.48685 -0.3977,0.5633 -0.3977,0.31405 z m -1.38669,-4.19509 c -0.0913,-0.54053 -0.0273,-0.82298 0.18642,-0.82298 0.2068,0 0.25215,0.54844 0.0793,0.95944 l -0.17313,0.41176 z m 8.56389,0.0384 c -0.37262,-0.93507 -0.59784,-1.3914 -0.68673,-1.3914 -0.0985,0 -0.0432,-0.79332 0.0627,-0.89919 0.26276,-0.26276 0.95151,1.73012 0.83201,2.40739 -0.0439,0.2488 -0.0676,0.23551 -0.20795,-0.1168 z m -77.67497,-1.58341 v -1.25213 l 0.45955,0.19201 c 0.25275,0.1056 0.71489,0.19292 1.02698,0.19404 0.97312,0.003 1.01436,0.17208 0.17787,0.72731 -0.41211,0.27354 -0.90264,0.6984 -1.09006,0.94412 -0.18742,0.24573 -0.39332,0.44677 -0.45755,0.44677 -0.0642,0 -0.11679,-0.56346 -0.11679,-1.25212 z m 69.17262,-0.42054 c 0,-0.18523 -0.031,-0.18981 -0.22358,-0.0331 -0.19579,0.15926 -0.21278,0.15304 -0.13667,-0.05 0.0788,-0.21028 -0.0269,-0.23209 -1.13469,-0.23393 -0.86214,-10e-4 -1.16312,-0.0412 -1.02283,-0.13513 0.10932,-0.0732 0.81137,-0.12146 1.56011,-0.10723 1.39681,0.0265 1.7356,0.15017 1.57296,0.57399 -0.10447,0.27225 -0.6153,0.26018 -0.6153,-0.0145 z m 0.53006,-0.10846 c 0,-0.0321 -0.0596,-0.0953 -0.13251,-0.14034 -0.0729,-0.045 -0.13252,-0.0187 -0.13252,0.0584 0,0.0772 0.0596,0.14033 0.13252,0.14033 0.0729,0 0.13251,-0.0263 0.13251,-0.0584 z m 3.18035,0.18313 c 0,-0.0772 0.0596,-0.10348 0.13252,-0.0584 0.0729,0.045 0.13251,0.1082 0.13251,0.14034 0,0.0321 -0.0596,0.0584 -0.13251,0.0584 -0.0729,0 -0.13252,-0.0632 -0.13252,-0.14033 z m 9.27602,-0.72101 c -0.13782,-0.16607 -0.11869,-0.19878 0.11629,-0.19878 0.16166,0 0.28126,0.0845 0.28126,0.19878 0,0.10932 -0.0523,0.19877 -0.11629,0.19877 -0.064,0 -0.19052,-0.0894 -0.28126,-0.19877 z m -12.85391,-0.66258 c 0,-0.1822 0.0514,-0.33128 0.11414,-0.33128 0.0628,0 0.0856,0.14908 0.0508,0.33128 -0.0348,0.18221 -0.0862,0.33129 -0.11414,0.33129 -0.028,0 -0.0508,-0.14908 -0.0508,-0.33129 z m 23.56275,-0.0243 c 0.0957,-0.0383 0.20995,-0.0336 0.25398,0.0104 0.044,0.044 -0.0342,0.0754 -0.17392,0.0696 -0.15437,-0.006 -0.18577,-0.0378 -0.0801,-0.0801 z m -0.43196,-0.16319 c -0.0427,-0.069 -0.0211,-0.16043 0.0479,-0.20309 0.069,-0.0427 0.16043,-0.0211 0.2031,0.0479 0.0427,0.069 0.0211,0.16043 -0.048,0.20309 -0.069,0.0427 -0.16043,0.0211 -0.20309,-0.0479 z m 0.14385,-1.00518 c -0.042,-0.10932 -0.0249,-0.19877 0.0379,-0.19877 0.0628,0 0.1485,0.0894 0.19045,0.19877 0.0419,0.10933 0.0249,0.19877 -0.0379,0.19877 -0.0628,0 -0.1485,-0.0894 -0.19046,-0.19877 z m -24.86482,-0.33403 c -0.14117,-0.0893 -0.01,-0.1263 0.45276,-0.12774 0.35834,-0.001 0.61201,0.0375 0.56371,0.0858 -0.14791,0.14792 -0.80596,0.17507 -1.01647,0.0419 z m -1.22576,-0.085 c 0.0911,-0.0368 0.24019,-0.0368 0.33129,0 0.0911,0.0368 0.0166,0.0668 -0.16564,0.0668 -0.18221,0 -0.25675,-0.0301 -0.16565,-0.0668 z m 2.55091,-0.57481 -0.33129,-0.10609 0.36442,-0.0132 c 0.20043,-0.007 0.36441,0.0464 0.36441,0.1193 0,0.0729 -0.0149,0.12657 -0.0331,0.11931 -0.0182,-0.007 -0.1822,-0.0609 -0.36441,-0.11931 z m -9.27602,-0.66257 c 0.25951,-0.16771 0.43493,-0.16771 0.33128,0 -0.045,0.0729 -0.18273,0.1316 -0.30598,0.13049 -0.19311,-0.002 -0.1966,-0.0198 -0.0253,-0.13049 z m 4.67114,-0.90687 c -0.81994,-0.11362 -1.49079,-0.2603 -1.49079,-0.32595 0,-0.20842 2.84876,0.17523 3.31286,0.44615 0.26374,0.15396 0.0589,0.14045 -1.82207,-0.1202 z m 14.67599,-2.00845 c 0,-0.0729 0.0894,-0.13252 0.19877,-0.13252 0.10932,0 0.19877,0.0596 0.19877,0.13252 0,0.0729 -0.0894,0.13251 -0.19877,0.13251 -0.10932,0 -0.19877,-0.0596 -0.19877,-0.13251 z m -4.43924,-0.13252 c -0.045,-0.0729 -0.0187,-0.13251 0.0584,-0.13251 0.0772,0 0.14033,0.0596 0.14033,0.13251 0,0.0729 -0.0263,0.13252 -0.0584,0.13252 -0.0321,0 -0.0953,-0.0596 -0.14033,-0.13252 z m 2.0019,-0.34212 c -0.11428,-0.2978 -0.10122,-0.34946 0.0736,-0.29118 0.17566,0.0585 0.27581,0.50079 0.11341,0.50079 -0.0586,0 -0.14281,-0.0943 -0.18704,-0.20961 z m -0.0804,-0.58548 c 0,-0.0729 0.11926,-0.13251 0.26502,-0.13251 0.14577,0 0.26503,0.0596 0.26503,0.13251 0,0.0729 -0.11926,0.13252 -0.26503,0.13252 -0.14576,0 -0.26502,-0.0596 -0.26502,-0.13252 z m 0.50521,-0.35555 c 0.0957,-0.0383 0.20995,-0.0336 0.25398,0.0105 0.044,0.044 -0.0342,0.0753 -0.17392,0.0696 -0.15437,-0.006 -0.18577,-0.0378 -0.0801,-0.0801 z m -3.14487,-1.36714 c 0.19318,-0.40563 0.25439,-0.4808 0.25439,-0.31244 0,0.0711 -0.0927,0.24503 -0.20608,0.3865 -0.19432,0.24254 -0.19707,0.23832 -0.0483,-0.0741 z m 0.45316,-0.66257 c 0.0451,-0.0729 0.14153,-0.13251 0.21442,-0.13251 0.0729,0 0.0957,0.0596 0.0506,0.13251 -0.045,0.0729 -0.14153,0.13252 -0.21442,0.13252 -0.0729,0 -0.0957,-0.0596 -0.0506,-0.13252 z m 0.19878,-0.39754 c 0,-0.0729 0.0632,-0.13252 0.14033,-0.13252 0.0772,0 0.10348,0.0596 0.0584,0.13252 -0.045,0.0729 -0.10819,0.13251 -0.14033,0.13251 -0.0321,0 -0.0584,-0.0596 -0.0584,-0.13251 z m 0.53006,-0.79509 c 0,-0.0729 0.0596,-0.13252 0.13251,-0.13252 0.0729,0 0.13251,0.0596 0.13251,0.13252 0,0.0729 -0.0596,0.13251 -0.13251,0.13251 -0.0729,0 -0.13251,-0.0596 -0.13251,-0.13251 z m -3.14354,-0.76279 c 0.0162,-0.22403 0.0891,-0.39748 0.16196,-0.38545 0.0729,0.012 0.1198,-0.0461 0.10425,-0.12916 -0.035,-0.18699 1.341,-1.50541 1.57114,-1.50541 0.092,0 -0.0441,0.22362 -0.30257,0.49693 -0.25845,0.27331 -0.61181,0.70564 -0.78525,0.96073 -0.17344,0.25509 -0.41966,0.57762 -0.54716,0.71674 -0.22509,0.24559 -0.23096,0.24111 -0.20237,-0.15438 z M 86.95,233.38765 c 0.22988,-0.43184 0.69496,-1.08342 0.80974,-1.13443 0.0547,-0.0243 0.0994,-0.12865 0.0994,-0.2319 0,-0.10325 0.0632,-0.18773 0.14034,-0.18773 0.15547,0 0.11585,0.082 -0.42792,0.88522 -0.20625,0.30466 -0.37499,0.61135 -0.37499,0.68152 0,0.0702 -0.0908,0.16245 -0.20184,0.20505 -0.17041,0.0654 -0.17737,0.0315 -0.0447,-0.21773 z m 1.14087,-1.97113 c 0.067,-0.25616 0.036,-0.27544 -0.31057,-0.19318 l -0.38497,0.0914 0.43387,-0.27062 c 0.47621,-0.29703 0.76536,-0.34183 0.89127,-0.1381 0.045,0.0729 0.009,0.13251 -0.0805,0.13251 -0.0893,0 -0.12763,0.0348 -0.0851,0.0773 0.0701,0.0701 -0.35647,0.58527 -0.48452,0.58527 -0.0296,0 -0.0204,-0.12805 0.0206,-0.28455 z m -2.08695,0.0195 c 0,-0.0729 0.0632,-0.13251 0.14034,-0.13251 0.0772,0 0.10348,0.0596 0.0584,0.13251 -0.045,0.0729 -0.1082,0.13252 -0.14034,0.13252 -0.0321,0 -0.0584,-0.0596 -0.0584,-0.13252 z M 73.59355,191.09027 c 0.13463,-0.102 0.33343,-0.15144 0.44178,-0.10986 0.16057,0.0616 0.16431,0.0963 0.0203,0.18764 -0.0972,0.0616 -0.29601,0.11106 -0.44178,0.10986 -0.25541,-0.002 -0.25614,-0.009 -0.0203,-0.18764 z m 1.12443,-2.30008 c -0.30398,-0.12391 -0.80742,-0.78835 -0.71303,-0.94107 0.0424,-0.0686 -0.0486,-0.21276 -0.20223,-0.32036 -0.29756,-0.20842 -0.2987,-0.71145 -10e-4,-0.64606 0.0944,0.0208 0.23998,-0.0189 0.32342,-0.0881 0.0834,-0.0692 0.58555,-0.16863 1.11583,-0.22088 0.77138,-0.076 1.00981,-0.0549 1.19263,0.10556 0.12567,0.11031 0.36267,0.24144 0.52665,0.29142 0.49166,0.14983 0.33661,0.31797 -0.22389,0.24279 -0.28713,-0.0385 -0.68965,-0.0274 -0.89448,0.0246 -0.3626,0.0922 -0.35496,0.10126 0.29016,0.34542 0.57525,0.21772 1.22203,0.73382 1.08782,0.86803 -0.0249,0.0248 -0.22876,-0.0241 -0.45313,-0.1088 -0.32786,-0.12375 -0.53424,-0.11278 -1.05137,0.0559 -0.6202,0.20231 -0.63148,0.21483 -0.31215,0.34666 l 0.33128,0.13677 -0.39754,-9.2e-4 c -0.21865,-5.3e-4 -0.49698,-0.0414 -0.61851,-0.091 z m 6.68536,-0.7459 c -0.16949,-0.54974 -0.12828,-0.7469 0.10694,-0.51169 0.077,0.077 0.12071,0.34135 0.0972,0.58748 l -0.0428,0.44753 z"
       id="path209"
       inkscape:connector-curvature="0" />
  </g>
</svg>
