<?xml version="1.0"?>
<svg xmlns:rdf="http://www.w3.org/1999/02/22-rdf-syntax-ns#" xmlns="http://www.w3.org/2000/svg" xmlns:cc="http://creativecommons.org/ns#" xmlns:dc="http://purl.org/dc/elements/1.1/" xmlns:svg="http://www.w3.org/2000/svg" id="svg2" viewBox="0 0 455.55 508.5" version="1.0">
  <path id="path2311" d="m131.53 499.88c0.4-4.73 1.19-9.8 1.75-11.27 0.78-2.01 0.5-2.35-1.13-1.39-1.19 0.7-0.88-0.18 0.68-1.97 1.57-1.78 2.44-4.3 1.95-5.58-0.49-1.29-0.29-2.34 0.45-2.34 1.48 0 7.03-14.79 6.7-17.86-0.11-1.05 0.4-1.9 1.15-1.9 1.85 0 1.71-5.68-0.17-6.84-0.84-0.52-1.52-1.67-1.52-2.56 0-1.03 0.8-0.95 2.23 0.24 1.86 1.54 2.69 0.92 4.89-3.7 2.3-4.83 2.35-5.75 0.42-6.97-1.85-1.17-1.78-1.41 0.44-1.43 2.57-0.02 3.4-2.34 2.9-8.09-0.13-1.51 0.37-2.38 1.11-1.92 1.91 1.18 3.42-5.62 1.64-7.39-2.06-2.07-1.83-3.98 0.43-3.52 1.07 0.21 1.78-0.94 1.63-2.64-0.15-1.66 0.2-3.37 0.79-3.8 2.22-1.65 4.38-13.52 2.75-15.15-1.11-1.11-0.72-1.6 1.29-1.6 2.2 0 2.47-0.42 1.12-1.77s-1.25-2.16 0.43-3.42c1.22-0.91 2.65-3.87 3.18-6.59 0.89-4.54 0.66-4.94-2.93-4.94-2.14 0-4.32-0.68-4.84-1.52-1.15-1.86-1.17-1.86 5.12-0.06 5.02 1.44 5.08 1.41 4.43-3-0.36-2.46-0.06-4.66 0.67-4.91 1.72-0.57 1.92-5.69 0.37-9.38-0.83-1.98-0.69-2.58 0.45-1.88 0.92 0.57 2.07 0.39 2.56-0.4s0.15-1.9-0.76-2.47c-1.06-0.65-0.49-1.84 1.56-3.28 2.48-1.73 2.83-2.73 1.52-4.31-0.93-1.13-2.79-1.63-4.12-1.12-1.64 0.63-2.05 0.33-1.28-0.92 0.63-1.01 2.36-1.45 3.86-0.97 3.67 1.16 5.35-5.02 2.29-8.41-2.92-3.21-2.87-5.4 0.05-2.97 1.26 1.04 2.28 1.46 2.28 0.94 0-1.78 0.37-3.23 1.71-6.75 1.83-4.82 0.17-10.47-3.36-11.39-2.17-0.57-2.96 0.07-3.11 2.52-0.11 1.9-0.59 1.09-1.14-1.93-1.09-6.05-4.71-8.25-4.78-2.9-0.05 3.16-0.22 3.26-1.62 0.85-0.86-1.48-1.13-4.04-0.61-5.7 0.77-2.43 0.25-3.01-2.73-3.01-2.83 0-4.03-1.14-5.19-4.94l-1.51-4.94-1.69 5.32c-1.69 5.3-1.69 5.3-1.54 0.76 0.09-2.51-0.55-6.27-1.43-8.36l-1.58-3.8-1.66 3.8-1.65 3.8 0.22-3.8c0.28-4.87-1.73-12.16-3.35-12.16-0.69 0-1.55 1.54-1.91 3.42s-0.75-0.51-0.86-5.32c-0.2-8.06-2-11.39-3.71-6.84-0.4 1.04-0.36-1.02 0.07-4.59 0.67-5.47 0.42-6.35-1.6-5.57-1.32 0.5-2.65 2.4-2.97 4.21-0.65 3.74-1.42-7.44-1.44-21.03-0.01-7.16-0.31-8.34-1.4-5.48-2.68 7.02-2.53 2.33 0.29-8.97 3.09-12.43 12.97-33.71 18.95-40.81 2.69-3.2 3.76-6.28 3.76-10.85v-6.38l-4.94 2.88c-2.72 1.59-5.04 4.22-5.15 5.84-0.5 7.06-13.22 29.31-16.85 29.48-2.5 0.11-1.05-3.34 5.95-14.21 3.19-4.94 5.79-9.96 5.79-11.15 0-4.66-3.88-0.48-9.09 9.79-3 5.91-6.23 11.69-7.18 12.83-1.29 1.55-1.22 2.75 0.28 4.81 1.1 1.5 2.3 2.19 2.66 1.51 0.36-0.67 0.6-0.7 0.53-0.08-0.07 0.63-0.81 1.23-1.64 1.33-0.84 0.1-3.03 1.81-4.87 3.8s-4.38 3.61-5.65 3.61c-1.26 0-3.03 1.37-3.92 3.04-0.9 1.68-2.63 3.04-3.86 3.04-2.54 0-2.98-2.39-0.71-3.8 0.84-0.51 1.54-0.04 1.55 1.05 0.01 1.1 1.45-0.23 3.19-2.95 1.74-2.71 4.44-4.94 6-4.94s3.61-1.43 4.54-3.18c1.51-2.82 1.36-3.07-1.34-2.22-4.8 1.52-5.23-1.59-0.88-6.27 4-4.31 11.95-18.55 10.92-19.58-0.3-0.3-1.88-0.19-3.52 0.25-1.9 0.51-5.07 5.22-8.77 13.06-4.12 8.7-6.28 11.8-7.43 10.65s-0.23-4.08 3.14-10.06c5.26-9.33 5.88-11.86 2.56-10.59-3.14 1.21-8.43 10.7-8.43 15.11 0 2.08-0.9 3.71-2.03 3.71-3.671 0-3.864-1.71-0.96-8.5 2.11-4.9 2.36-6.7 0.95-6.7-2.907 0-5.566 3.27-5.566 6.84 0 3.95-2.729 6.87-5.448 5.82-1.651-0.63-1.577-1.48 0.391-4.49 3.7-5.64 1.156-6.16-3.869-0.78-5.139 5.5-6.887 6.05-5.515 1.73 1.336-4.21-2.434-3.98-14.56 0.87-17.505 7.01-24.096 10.24-23.35 11.45 0.402 0.65-1.677 3.1-4.622 5.45-2.944 2.35-5.354 4.97-5.354 5.81 0 0.85-1.273 2.22-2.828 3.04-5.37 2.85-16.177 10.33-17.198 11.9-0.688 1.05-1.756 0.96-3.254-0.28-1.226-1.02-4.3555-2-6.9536-2.18-5.1526-0.36-5.6787-1.06-2.9056-3.83 1.0033-1 1.3213-1.82 0.7066-1.82s-0.2974-1.54 0.7049-3.43c1.7178-3.22 1.6554-3.29-1.0866-1.16-2.7504 2.13-2.7847 2.09-0.6289-0.76 2.7679-3.66 6.0806-9.49 6.0806-10.7 0-0.49-2.2232 0.65-4.9405 2.52-3.8985 2.68-3.5502 2.09 1.6515-2.83 3.6257-3.42 7.5596-6.59 8.7406-7.05 1.182-0.45 2.149-1.77 2.149-2.92s1.539-2.9 3.421-3.89l3.42-1.79-3.422 0.66c-1.883 0.36-3.04 0.04-2.571-0.72s1.838-1.38 3.042-1.38c1.205 0 2.191-0.62 2.191-1.37s2.052-2.09 4.56-2.96c4.813-1.68 6.453-3.74 1.901-2.38-1.464 0.43 0.297-0.72 3.912-2.55 4.716-2.4 6.004-3.7 4.56-4.62-1.381-0.87-0.76-1.28 1.983-1.3 2.197-0.01 4.933-1.16 6.08-2.56 1.859-2.27 1.713-2.45-1.336-1.67-2.094 0.54-3.057 0.29-2.48-0.64 0.518-0.84 2.943-1.23 5.388-0.87 3.298 0.48 4.241 0.12 3.651-1.42-0.529-1.38 0.789-2.39 3.938-3.02 2.799-0.56 5.032-2.09 5.467-3.75 0.404-1.55 1.991-2.81 3.526-2.81 3.778 0 10.536-3.19 10.536-4.97 0-0.79-1.768-1-3.928-0.46-2.49 0.63-3.579 0.42-2.975-0.55 0.524-0.85 3.488-1.48 6.588-1.41 3.099 0.07 8.964-0.63 13.032-1.55 12.282-2.79 34.431 0.27 46.761 6.45 9.51 4.77 10.31 4.93 14.44 2.79 2.4-1.25 6.3-3.87 8.67-5.84l4.29-3.58-8.09-0.31c-12.37-0.47-15.33-0.32-20.11 1.03-3.1 0.87-4.1 0.74-3.37-0.44 0.58-0.93 3.47-2.14 6.44-2.7 3.03-0.57 8.45-3.65 12.35-7.03 8.76-7.58 12.71-9.11 18.38-7.14 3.58 1.25 5.6 0.93 10.69-1.73 3.46-1.8 6.28-3.53 6.28-3.85s-3.29-2.25-7.31-4.29c-8.51-4.31-11.62-7.54-10.39-10.77 1.21-3.14 4.39-2.88 9 0.74 2.12 1.68 5.22 3.04 6.88 3.04 2.98 0 2.98-0.06 0.16-5.6-3.44-6.75-5.88-9.49-5.37-6.04 0.2 1.34 0.83 2.91 1.42 3.49 3.15 3.15 0.3 2.99-4.48-0.25-3.04-2.07-6.36-3.76-7.36-3.76-2.56 0-7.6-5.85-6.23-7.23 0.62-0.62 1.93-0.04 2.91 1.29 1.85 2.51 7.52 5.98 9.65 5.9 0.68-0.03-0.04-0.79-1.6-1.7-2.06-1.2-2.33-1.97-1-2.79 1.2-0.75 0.36-1.52-2.38-2.21-5.11-1.28-18.86-12.476-18.86-15.352 0-3.386 2.83-4.072 6.42-1.557 1.86 1.303 4.95 2.369 6.88 2.369 3.4 0 3.43-0.131 1.14-4.561-1.3-2.508-3.06-4.56-3.93-4.56-0.86 0-1.1 0.752-0.54 1.672 2.12 3.42-5.08-1.603-9.05-6.315-4.41-5.247-5.03-9.297-1.83-11.953 1.71-1.418 3.21-0.448 7.6 4.911 7.29 8.894 6.96 10.711-0.61 3.324-6.55-6.399-7.62-6.111-3.45 0.935 1.44 2.445 3.47 4.12 4.51 3.722 1.03-0.398 2.32-0.023 2.85 0.833 0.53 0.857 1.88 1.203 3.01 0.769 1.32-0.504 2.75 1.113 3.97 4.49 2.02 5.601 8.87 11.635 8.87 7.818 0-1.113-1-3.352-2.23-4.975-2.72-3.602-2.98-5.814-0.5-4.279 1.01 0.623 3.72 1.339 6.03 1.591 3.41 0.374 4.02-0.033 3.28-2.182-0.74-2.155-0.48-2.093 1.41 0.335 1.27 1.637 1.99 3.829 1.59 4.872-0.4 1.042 0.84 4.678 2.75 8.08 2.77 4.926 3.74 5.707 4.79 3.837 0.72-1.291 1.99-1.925 2.83-1.41 0.89 0.55 0.43 1.731-1.1 2.853-1.7 1.243-2.26 2.923-1.61 4.793 0.94 2.67 0.83 2.65-1.41-0.16-1.33-1.67-4.58-6.801-7.23-11.4-4.14-7.214-4.87-7.864-5.31-4.741-0.28 1.99 0.01 6.095 0.64 9.121 0.63 3.03 1.01 6.07 0.85 6.75-0.16 0.69 0.38 0.84 1.2 0.34 0.82-0.51 1.12-2.1 0.67-3.54-0.76-2.442-0.68-2.44 1.36 0.03 1.2 1.45 2.5 2.31 2.89 1.92 0.4-0.4 1.86 1.66 3.25 4.58 2.86 6.01 2.52 6.33-2.91 2.77l-3.87-2.53 0.5 5.19c0.33 3.44 1.2 5.04 2.58 4.75 1.15-0.24 3.38 0.72 4.94 2.14 2.97 2.68 3.99 6.02 1.33 4.38-0.83-0.51-1.52-0.14-1.52 0.84 0 0.97 0.98 1.4 2.17 0.94 1.24-0.48 3.16 0.69 4.51 2.74 1.28 1.97 4.93 4.4 8.09 5.41 3.17 1.01 6.44 2.54 7.28 3.4 1.47 1.52 0.33 1.27-6.08-1.33-1.26-0.51-2.28-0.21-2.28 0.66s1.45 2.04 3.24 2.61c2.54 0.81 2.79 1.31 1.14 2.36-1.7 1.08-1.63 1.33 0.37 1.35 1.35 0.02 4.78 0.42 7.6 0.91l5.13 0.89-3.8-3.14c-2.09-1.72-2.92-3.14-1.85-3.16 1.46-0.03 1.56-0.78 0.38-2.98-0.99-1.84-1.04-3.29-0.13-3.85 0.79-0.49 2.25 0.61 3.22 2.44 1.57 2.92 1.95 3.02 3.16 0.86 1.8-3.22-0.06-11.37-1.92-8.43-1.02 1.61-1.3 1.52-1.32-0.44-0.01-1.36 1.31-2.83 2.93-3.25 2.14-0.56 3.13 0.12 3.6 2.48 0.35 1.79 0.53 1.03 0.39-1.69-0.14-2.71 0.3-4.94 0.96-4.94 0.67 0 1.22 2.78 1.22 6.17 0 3.78 0.6 5.8 1.54 5.22 1.51-0.93 1.19 12.65-0.37 15.44-0.4 0.71-0.86 5.4-1.01 10.42-0.15 5.01-0.62 10.49-1.03 12.16-0.42 1.67 0.61 0.64 2.27-2.28 1.67-2.93 3.06-6.86 3.1-8.74 0.03-1.88 0.74-3.42 1.58-3.42s1.52 4.03 1.52 9.04c0 13.96-11.17 44.14-14.94 40.37-1.14-1.14-6.34 3.95-6.34 6.21 0 4.19 6.13 3.98 11.68-0.39 12.06-9.53 26.46-18.3 34.52-21.04 4.91-1.67 8.52-3.8 8.52-5.03 0-1.32-0.91-1.77-2.42-1.2-1.33 0.51-4.24 1.38-6.46 1.94-4.03 1-12.01 5.08-17.68 9.04-1.65 1.16-3.36 2.09-3.8 2.09-0.44-0.01-0.96-4.86-1.14-10.78-0.27-8.32 0.36-12.13 2.76-16.85 1.71-3.35 3.35-5.86 3.64-5.57 0.69 0.69-1.87 23.52-3.06 27.27-1.82 5.71 5.13 1.25 7.32-4.7 0.51-1.38 0.89-1.53 0.96-0.38 0.22 3.4 3.16 2 3.18-1.52 0.02-2.45 0.39-2.84 1.31-1.4 1.06 1.67 2.7 1.6 9.37-0.38 4.45-1.32 10.23-2.4 12.84-2.4 2.6 0 5.56-0.82 6.56-1.82 2.72-2.72 2.21-7.85-0.98-9.84-3.59-2.25-6.92-14.04-5.63-19.95 0.55-2.5 3.03-7.75 5.52-11.66 3.63-5.74 6.41-7.98 14.32-11.57 11.65-5.28 11.98-5.33 9.87-1.39-0.9 1.68-1.53 3.91-1.4 4.94 0.14 1.04 0.11 3.59-0.06 5.68-0.3 3.65-0.37 3.62-1.68-0.76-0.75-2.5-0.99-5.75-0.53-7.21 0.61-1.94 0.2-2.4-1.54-1.73-1.31 0.5-2.38 2.55-2.38 4.55 0 2.32-0.88 3.63-2.45 3.63-1.6 0-2.12-0.82-1.52-2.4 0.59-1.53 0.23-2.18-0.97-1.78-1.05 0.34-2.13 2.17-2.41 4.07-0.38 2.57-1.26 3.25-3.46 2.67-2.25-0.59-3.66 0.62-5.95 5.12-3.52 6.89-3.84 14.32-0.92 21.25 2.07 4.93 2.08 4.9 3.34-7.05l1.27-11.99 0.93 10.99c0.97 11.49 1.64 13.28 4.64 12.28 1.29-0.43 1.13-1.3-0.56-2.99-1.33-1.33-1.82-2.99-1.1-3.74 0.71-0.74 1.96-4.42 2.78-8.18l1.49-6.84 0.34 6.08c0.18 3.34 0.5 6.76 0.69 7.6 0.19 0.83 0.46 2.75 0.58 4.27 0.13 1.51 0.92 2.32 1.76 1.81 1.98-1.23 1.97-8.36-0.02-8.36-1.02 0-1.01-0.89 0.03-2.66 0.86-1.47 2.59-5.4 3.84-8.74l2.28-6.09-0.84 6.69c-0.83 6.62-0.81 6.66 2.53 4.44 1.85-1.23 4.2-4.92 5.21-8.2 1.38-4.45 1.89-5.05 2.01-2.38 0.11 2.58 0.82 3.33 2.52 2.68 1.35-0.52 1.96-0.27 1.43 0.59-0.51 0.83-0.27 1.51 0.54 1.51 2.19 0 4.05-15.71 1.93-16.41-2.12-0.71-2.24-5.88-0.16-7.17 0.85-0.53 1.15-1.6 0.67-2.38-1-1.61 3.5-3.8 4.91-2.39 0.5 0.5 0.08 1.91-0.94 3.14s-1.61 3.81-1.31 5.74c0.51 3.32 0.68 3.24 3.14-1.34 1.43-2.66 2.23-5.83 1.76-7.04-0.7-1.83 0.32-1.98 6.12-0.9 3.82 0.71 8.34 2.04 10.03 2.95 2.52 1.34 3.92 0.94 7.7-2.24 8.52-7.17 21.87-4.33 24.92 5.3 0.56 1.76 0.73 3.49 0.38 3.84s-5.14 0.76-10.64 0.91c-9.74 0.27-10.03 0.4-10.64 4.57-0.35 2.36 0.01 4.29 0.79 4.29 0.79 0-0.19 1.35-2.16 2.99-3.4 2.83-3.42 3-0.55 3.17 2.3 0.13 1.84 0.7-1.9 2.33-5.46 2.39-6.35 4.6-2.28 5.67 1.72 0.45 1.24 0.76-1.33 0.87-5.25 0.23-8.91 4.32-5.79 6.47 1.65 1.14 1.4 1.29-1.02 0.61-1.95-0.54-3.97 0.02-5.13 1.42-1.63 1.96-1.37 2.32 1.68 2.34 2.61 0.02 3.04 0.39 1.54 1.33-1.14 0.73-3.29 1-4.78 0.6-3.22-0.84-9.54 2.2-8.41 4.04 0.44 0.7-1.42 1.63-4.13 2.06s-7.81 1.53-11.32 2.44c-4.41 1.14-7.65 1.17-10.47 0.1-3.43-1.31-4.43-1.06-6.26 1.55-1.19 1.71-2.92 2.65-3.82 2.09-0.98-0.6-1.22-0.32-0.59 0.7 0.59 0.95 0.35 3.06-0.52 4.7-1.53 2.85-1.05 2.95 12.14 2.69 9.58-0.2 14.12-0.9 14.99-2.31 0.69-1.12 2.55-1.87 4.13-1.67s3.89-0.08 5.15-0.62c3.97-1.71 21.69-3.65 27.29-2.98 9.68 1.16 23.88 6.56 27.58 10.49 5.64 6.01 12.67 8.72 20.03 7.72 3.54-0.48 5.57-0.51 4.53-0.06-3.38 1.43-2.02 3.59 2.28 3.62 2.3 0.02 6.91 1.4 10.26 3.06 7.07 3.51 17.04 10.56 15.05 10.65-0.76 0.04 1.02 2.18 3.95 4.77 2.93 2.58 4.4 4.18 3.26 3.55-1.46-0.82-1.35-0.07 0.4 2.6 1.36 2.07 4.25 4.57 6.44 5.57 2.19 0.99 3.56 2.22 3.06 2.73-0.51 0.5-2.09-0.03-3.52-1.2-2.22-1.8-2.17-1.37 0.34 2.96 1.62 2.79 4.23 5.77 5.81 6.62 2.14 1.16 2.38 1.85 0.94 2.74-1.52 0.94-1.43 2.16 0.42 5.88 1.29 2.59 2 6.01 1.58 7.62-0.42 1.6 0.5 4.84 2.04 7.19 1.53 2.36 1.99 3.78 1 3.17-0.99-0.6-2.23-0.41-2.75 0.44-0.53 0.85-0.23 1.55 0.65 1.55 0.89 0 1.61 0.66 1.61 1.47s-0.97 1.1-2.16 0.64c-1.19-0.45-3.67-0.01-5.52 0.98-2.73 1.45-2.97 2.08-1.26 3.3 1.55 1.1 1.31 1.23-0.94 0.46-1.67-0.56-5.43-1.37-8.36-1.79-4.04-0.57-4.77-0.36-3.04 0.87 1.25 0.89 1.65 1.63 0.88 1.65-0.77 0.01-2.48-0.95-3.8-2.14s-4.45-2.67-6.96-3.29c-4.13-1.03-4.36-0.9-2.47 1.4 1.14 1.39 1.43 2.53 0.63 2.53-0.79 0-2.36-1.71-3.48-3.8-2.24-4.19-8.58-5.49-7.02-1.44 1.58 4.11-1.63 0.93-3.5-3.47-0.98-2.32-3.54-5.5-5.68-7.07l-3.89-2.85 0.98 3.61c0.77 2.87 0.45 2.67-1.55-0.94-3.79-6.86-7.09-10.21-8.22-8.37-0.54 0.88-2.67-0.96-4.78-4.15-2.09-3.15-4.55-5.57-5.46-5.39-0.91 0.19-2.35-1.52-3.19-3.8-3.15-8.51-10.95-14.57-24.58-19.1-7.1-2.36-16.34-6.5-20.52-9.21-6.18-4-30.33-15.83-40.28-19.74-1.26-0.49 0.71-0.48 4.37 0.02 4.81 0.65 6.35 0.42 5.57-0.85-0.87-1.41-17.52-1.91-17.54-0.52 0 0.18 5.64 3.03 12.54 6.33 6.89 3.29 14.2 7.76 16.22 9.92 4.27 4.56 2.22 5.27-3.1 1.08-3.69-2.9-23.48-12.35-25.88-12.35-0.72 0-1.31 1.37-1.31 3.04s0.64 3.04 1.42 3.04 8.03 3.18 16.12 7.06c10.72 5.15 15.01 6.56 15.84 5.21 1.26-2.04 9.09 6.84 12.36 14 1.01 2.22 2.42 3.68 3.13 3.24 1.94-1.2 1.57 3.06-0.45 5.07-1.31 1.32-1.13 2.69 0.75 5.56 1.99 3.03 2.16 4.68 0.87 8.06-1.84 4.79-0.67 15.13 2.08 18.45 1.53 1.84 1.27 2.02-1.58 1.12-3.79-1.21-4.17-0.04-1.93 5.86 1.18 3.09 1.02 3.9-0.76 3.9-1.26 0-2.32 1.5-2.42 3.42-0.23 4.39-0.23 4.39 0.97 7.98 0.8 2.39 0.68 2.56-0.57 0.8-1.36-1.92-1.72-1.87-2.59 0.41-0.56 1.45-0.7 4.32-0.3 6.37 0.39 2.05 0.12 3.37-0.59 2.93-0.72-0.45-1.3 2.35-1.3 6.21 0 4.3-0.59 6.66-1.52 6.08-1.57-0.97-2.21 2.03-1.7 7.96 0.2 2.39-0.36 3.14-1.91 2.55-2.94-1.13-4.81 4.92-2.41 7.81 1.18 1.42 1.26 2.21 0.21 2.21-0.89 0-2.04-0.69-2.55-1.52-1.51-2.45-3.2-1.77-4.9 1.96-1.19 2.6-1.04 4.54 0.56 7.61 2.57 4.9 1.3 5.39-2.35 0.88l-2.6-3.22-2.66 4.05c-1.7 2.6-2.27 5.25-1.6 7.39 0.93 2.93 0.77 3.1-1.37 1.32-2.73-2.27-5.6-1.17-5.6 2.14 0 1.2-0.96 2.19-2.13 2.19-2.18 0-4.21-9.19-6.28-28.51-0.71-6.68-0.5-9.5 0.72-9.5 1.17 0 1.65-4.05 1.51-12.54-0.12-6.9-0.07-13.22 0.12-14.06 0.18-0.84 0.25-7.14 0.15-14.01-0.15-10.44-0.55-12.35-2.46-11.62-3.04 1.17-2.93-1.98 0.14-3.69 2.89-1.62 2.35-8.13-0.76-9.15-1.44-0.48-1.84 0.07-1.23 1.67 0.51 1.33-0.21 3.26-1.66 4.39-2.27 1.78-2.34 1.72-0.6-0.5 1.6-2.06 1.6-2.64 0-3.18-1.58-0.53-1.56-1.15 0.11-3.17 1.14-1.38 2.63-2.16 3.31-1.74 2.02 1.24 3.26-2.09 1.77-4.75-1.2-2.14-1.73-2.01-4.27 1.13-1.6 1.97-4.27 4.6-5.94 5.86-2.06 1.55-1.68 0.57 1.18-3.04 7.71-9.76 9.06-12.13 8.18-14.41-0.65-1.68-2.61-0.42-7.65 4.92-3.74 3.95-7.22 6.75-7.74 6.23s2.5-4.22 6.73-8.22c4.34-4.11 7.67-8.62 7.67-10.37 0-2.66-0.94-2.22-6.46 3.02-9.52 9.04-16.61 14.5-17.56 13.55-0.46-0.46 4.42-5.67 10.83-11.59 7.59-6.99 11.67-11.89 11.67-14.02 0-2.57-2.62-0.57-12.29 9.37-6.77 6.95-12.68 12.25-13.15 11.78-0.48-0.47 4.72-6.67 11.53-13.77 9.48-9.88 12.39-13.9 12.37-17.12l-0.03-4.22-4.15 5.24c-2.29 2.88-7.21 8.69-10.95 12.92-3.73 4.23-7.95 9.05-9.37 10.72-1.42 1.68-3.02 6.47-3.56 10.65l-0.98 7.6 3.13-3.59c4.39-5.04 3.91-2.55-0.67 3.45-2.27 2.97-3.8 6.99-3.8 9.97 0 4.51 0.25 4.79 2.66 2.92 2.53-1.96 2.53-1.91 0 1.07-3.33 3.93-3.33 4.8 0 5.57 1.48 0.34 5.03-1.46 7.98-4.06 3.11-2.73 2.25-1.42-2.07 3.14-6.32 6.69-7.48 8.88-8.05 15.19l-0.66 7.38 2.58-5.32c1.42-2.93 2.65-6 2.73-6.84s0.84-1.81 1.67-2.17c2.86-1.23 2.54 4.62-0.63 11.36-3.29 7-4.2 14.37-1.77 14.37 1.49 0 5.37-9.81 5.41-13.68 0.04-3.13 2-3.57 4.55-1.02 1.2 1.2 1.56 2.71 0.81 3.47-2.87 2.95-7.66 17.8-6.7 20.81 0.82 2.6 1.48 1.85 3.84-4.36 1.57-4.12 2.85-8.69 2.85-10.16 0-3.12 0.92-3.34 3.58-0.86 1.54 1.45 1.26 3.47-1.46 10.26-1.86 4.66-3.61 10.17-3.89 12.26-1.13 8.43-8.52 9.52-7.94 1.17 0.4-5.84-1.92-12.31-3.97-11.05-0.88 0.55-1.52-0.93-1.52-3.53 0-2.46-0.91-6.64-2.02-9.28-2.01-4.79-2.02-4.79-3.7-1.31-1.06 2.2-1.71 2.63-1.78 1.16-0.05-1.28 0.89-3.74 2.1-5.47 1.21-1.72 1.94-5.13 1.63-7.55-0.32-2.43-0.63-5.28-0.68-6.32-0.2-3.48-2.8-1.96-3.93 2.28-0.61 2.3-1.43 3.31-1.82 2.25-0.39-1.05 0.61-4.15 2.22-6.88 3.57-6.06 5.76-13.92 3.48-12.51-0.87 0.54-1.58 0.12-1.58-0.92 0-1.05-1-0.58-2.23 1.05-1.23 1.62-2.23 2.26-2.22 1.43 0.01-0.84 2.04-3.89 4.51-6.79 4.38-5.12 5.97-10.69 3.06-10.69-0.8 0-2.15 1.19-3 2.66-1.36 2.33-1.55 2.35-1.59 0.18-0.06-3.09 3.84-6.48 5.96-5.17 0.88 0.54 1.7-0.25 1.83-1.76 0.13-1.52 0.37-4.46 0.52-6.55 0.16-2.1 0.85-6.54 1.53-9.89 1.17-5.81 1.1-5.98-1.67-3.87-1.6 1.21-3.75 3.22-4.8 4.47-1.16 1.38-1.9 1.57-1.9 0.5 0-0.97 2.05-3.28 4.56-5.14 2.51-1.85 7.79-7.52 11.72-12.58 3.94-5.07 7.53-9.57 7.98-9.99 0.45-0.43 2.43-2.59 4.39-4.82l3.56-4.04-5.84 1.5c-3.22 0.83-7.4 1.88-9.29 2.34s-3.82 1.44-4.27 2.17c-0.46 0.74-2.18 1.34-3.83 1.34s-3.39 1.03-3.87 2.28c-0.48 1.26-2.19 2.28-3.8 2.28s-3.32 1.03-3.8 2.28c-0.48 1.26-1.87 2.28-3.08 2.28-1.22 0-1.79 0.69-1.27 1.52 0.52 0.84-0.19 1.52-1.57 1.52-1.39 0-2.88 1.38-3.32 3.07-0.46 1.75-1.86 2.89-3.28 2.66-1.79-0.3-2.36 0.59-2.07 3.21 0.32 2.94-0.01 3.29-1.72 1.87-3.28-2.72-9.54 0.35-10.45 5.13-0.61 3.17-0.27 3.81 1.62 3.09 2.14-0.83 2.15-0.65 0.03 1.81-3.44 4.01-5.12 7.2-3.14 5.98 0.9-0.57 2.03-0.41 2.49 0.35 0.47 0.75-0.51 1.73-2.17 2.16-1.66 0.44-3.02 1.86-3.02 3.17 0 1.61 0.85 2.06 2.66 1.41 1.68-0.61 1.12 0.5-1.52 3.02-5.07 4.82-5.36 7.14-0.76 6.1 3.08-0.7 2.98-0.41-1.02 2.93-3.02 2.54-4.12 4.55-3.44 6.31 0.54 1.42 0.14 3.94-0.89 5.61-1.52 2.44-1.47 3.27 0.23 4.33 1.68 1.05 1.45 1.67-1.14 3.05-1.78 0.95-3.24 2.44-3.24 3.29 0 0.86 0.68 1.14 1.52 0.62 0.83-0.52 1.52-0.29 1.52 0.51 0 0.79-1.14 1.88-2.52 2.41-2.27 0.87-2.23 1.19 0.38 3.33 2.53 2.06 2.56 2.25 0.24 1.52-1.47-0.46-2.75-0.17-2.85 0.64-0.39 3-0.65 3.79-1.83 5.65-0.74 1.17-0.43 1.91 0.79 1.92 1.58 0.02 1.6 0.27 0.06 1.25-2.34 1.48-5.25 10.89-3.38 10.89 0.73 0 0.37 1.85-0.8 4.1-1.45 2.79-1.64 4.69-0.61 5.94 1.04 1.25 0.91 2.08-0.44 2.62-1.53 0.62-1.46 1.15 0.31 2.41 1.97 1.39 1.92 1.61-0.38 1.63-3.38 0.03-3.39 2.7-0.04 6.75 1.45 1.73 1.65 2.3 0.46 1.26-3.03-2.67-5.1-2.37-3.97 0.57 0.52 1.36 0.27 3.29-0.57 4.29-0.83 1.01-1.69 5.02-1.92 8.92-0.23 3.91-0.84 7.11-1.37 7.11-0.52 0-1.38 2.17-1.91 4.82-0.68 3.4-0.22 5.62 1.57 7.6 2.81 3.11 0.76 3.88-2.37 0.89-1.63-1.56-1.87-0.8-1.31 4.18 0.48 4.37-0.01 6.59-1.74 7.89-2 1.5-2.09 2.33-0.49 4.94 1.57 2.58 1.54 3.13-0.21 3.13-1.96 0-3.92 4.31-3.97 8.74-0.01 1.05 1.18 1.92 2.64 1.95 2.32 0.04 2.28 0.27-0.38 1.77-5.66 3.21-7.31 8.75-2.66 8.93 2.16 0.08 2.03 0.4-0.67 1.71-3.77 1.82-6.02 6.21-3.59 7.02 0.88 0.3 1.6 1.21 1.6 2.02 0 0.82-0.61 1.11-1.36 0.64-0.75-0.46-1.74 0.16-2.21 1.39-0.47 1.22-0.2 2.62 0.6 3.12 2.16 1.33 1.76 3.76-0.63 3.76-1.76 0-4.14 7.4-4.65 14.44-0.06 0.83-0.48 1.86-0.93 2.28-1.69 1.56-4.16 12.16-2.84 12.16 0.76 0 1.38 0.68 1.38 1.52s-1.02 1.52-2.28 1.52c-1.25 0-2.38 1.2-2.51 2.66s-0.31 3.35-0.41 4.18c-0.1 0.84-1.31 3.14-2.69 5.12-1.39 1.97-2.16 4.54-1.71 5.7 0.44 1.15-0.01 2.1-1 2.1-1 0-1.53 0.85-1.18 1.89 0.34 1.04-0.29 2.79-1.4 3.91-2.42 2.42-2.67 6.36-0.41 6.36 0.88 0 1.18 0.7 0.65 1.55-0.52 0.85-1.54 1.18-2.26 0.74-0.71-0.45-1.76 0.62-2.31 2.37-0.55 1.74-1.36 2.83-1.78 2.4-0.43-0.42-0.06-3.04 0.81-5.82 0.87-2.77 1.8-6.75 2.05-8.84 0.26-2.09 0.86-4.14 1.34-4.56 1.14-1 9.01-20.89 9.01-22.77 0-0.8-1.2-1.08-2.66-0.62-2.33 0.74-2.31 0.55 0.22-1.51 1.58-1.29 3.42-2.55 4.08-2.79 0.67-0.24 1.49-2.14 1.83-4.23s1.05-4.83 1.58-6.08c0.53-1.26 4.42-15.96 8.65-32.69 4.23-16.72 8.39-32.18 9.24-34.35 0.86-2.17 1.79-6.96 2.07-10.64 0.27-3.68 0.84-7.72 1.25-8.97 3.75-11.47 7.38-30.38 6.19-32.3-2.07-3.35-3.73 0.77-7.98 19.76-4.35 19.5-6.42 28-13.64 56.28-1.76 6.87-2.27 11.4-1.35 11.97 0.89 0.55 0.71 1.39-0.45 2.11-2.13 1.32-7.76 21.11-6.56 23.06 0.41 0.66 0.03 1.21-0.86 1.21s-1.61 1.57-1.61 3.49c0 1.93-0.6 4.15-1.33 4.94-2.65 2.88-7.7 18.92-6.74 21.42 0.67 1.74 0.41 2.21-0.79 1.47-0.98-0.6-1.78-0.37-1.78 0.51 0 0.89 0.68 1.61 1.52 1.61 2.58 0 1.68 2.65-1.16 3.39-2.97 0.77-8.87 15.85-12.06 30.81l-1.94 9.13 0.74-8.62zm160.94-156.7c1.9-1.91 1.28-15.8-1.28-28.71-0.69-3.5-0.49-5.9 0.56-6.55 0.95-0.59 1.66 0.08 1.66 1.56 0 1.42 1.42 7.36 3.15 13.18 2.89 9.71 3.33 10.35 5.23 7.65 1.79-2.56 1.57-4.33-1.64-13.17-2.04-5.61-3.66-12.4-3.6-15.08l0.11-4.87 2.07 5.63c2.62 7.13 9.07 16.71 10.38 15.41 0.54-0.55 0.43-1.74-0.25-2.66-2.54-3.38-6.52-16.08-5.54-17.67 0.58-0.94 2.32 0.85 4.06 4.14 1.67 3.19 4.07 6.82 5.33 8.07 2.03 2.03 2.16 1.7 1.18-2.99-0.61-2.9-1.81-6.4-2.68-7.78-0.86-1.38-1.05-3.79-0.43-5.37 0.96-2.42 1.49-1.98 3.44 2.84 1.27 3.14 2.92 5.7 3.67 5.7 1.86 0 1.72-5.67-0.16-6.84-0.84-0.51-1.52-2.27-1.52-3.89 0-3.67 3.01-3.95 3.11-0.29 0.09 3.81 4.44-8.8 4.47-12.96 0.01-1.91-2.04-7.55-4.56-12.54-2.52-5-4.25-9.08-3.83-9.08s2.57 3.58 4.79 7.96l4.04 7.97 2.06-8.06c1.99-7.76 1.92-8.26-1.73-13.64-2.08-3.07-3.79-6.62-3.79-7.89 0.01-1.27 1.52 0.09 3.37 3.02 3.11 4.92 3.41 5.06 3.9 1.89 0.55-3.45-4.58-11.68-6.24-10.02-0.49 0.49-8.27-3.4-17.3-8.63-9.03-5.24-16.93-9.81-17.56-10.15-0.62-0.35-1.14-0.02-1.14 0.74 0 3.14 6.25 8.16 15.61 12.54 10.06 4.71 17.84 10.62 17.84 13.55 0 2.74-2.17 1.84-16.45-6.76-7.63-4.6-14.63-8.36-15.56-8.36-4.1 0 0.49 4.34 11.61 10.99 6.62 3.95 13.06 7.82 14.32 8.58 1.67 1.02 1.83 1.86 0.6 3.15-1.25 1.31-4.04 0.18-11.1-4.51-5.18-3.44-10.76-6.52-12.39-6.83-5.29-1.02-0.91 4.12 8.93 10.48 7.13 4.61 8.74 6.33 7.36 7.81-1.83 1.98-6.47-0.39-14.14-7.24-5.8-5.16-5.5-0.08 0.38 6.43 5.94 6.58 6.02 10.39 0.1 4.82-1.94-1.82-3.99-2.85-4.56-2.28-1.45 1.45-1.28 9.64 0.2 9.64 1.33 0 1.05 9.05-0.85 28.12-0.67 6.69-0.73 13.87-0.14 15.96 2.28 8.12 3.91 23.62 2.62 25.01-3.07 3.32-0.91 5.19 2.29 1.98zm-0.51-53.5c-1.5-1.8-1.26-2.15 1.33-1.96 1.74 0.13 3.16 1.12 3.16 2.2 0 2.6-2.23 2.48-4.49-0.24zm7.11-3.54c-3.48-8.61-3.3-9.84 0.5-3.6 1.71 2.81 2.89 6.23 2.62 7.6-0.3 1.48-1.56-0.13-3.12-4zm4.9-4.36c-0.84-2.21-1.17-4.37-0.73-4.81 0.45-0.45 0.82 0.16 0.83 1.35 0.02 1.77 0.28 1.75 1.5-0.13 1.12-1.73 1.48-1.09 1.49 2.66 0.03 5.99-1.05 6.31-3.09 0.93zm7.12-0.93l-2.74-4.94 3.14 3.8c2.78 3.37 4.01 6.08 2.77 6.08-0.24 0-1.67-2.22-3.17-4.94zm5.1-1.52c-2.45-4.02-4.39-9.48-2.53-7.09 2.27 2.89 7.17 12.03 6.45 12.03-0.5 0-2.26-2.22-3.92-4.94zm-24.34-0.42c-1.05-1.27-1.53-2.7-1.06-3.17 0.46-0.47 1.61 0.58 2.55 2.32 1.99 3.72 1.25 4.15-1.49 0.85zm2.5-4.58c-1.46-3.82-1.03-4.81 0.76-1.73 0.89 1.53 1.29 3.1 0.9 3.49s-1.14-0.4-1.66-1.76zm6.08-1.52c-1.46-3.82-1.03-4.81 0.76-1.73 0.89 1.53 1.3 3.1 0.9 3.49-0.39 0.39-1.13-0.4-1.66-1.76zm3.62 0.66c0-2.21 2.72-2.87 3.49-0.84 0.43 1.11-0.18 2.01-1.36 2.01-1.17 0-2.13-0.53-2.13-1.17zm16.21-17.58c-0.56-0.55-1.01-1.72-1.01-2.58 0-0.95 0.71-0.86 1.8 0.23 0.99 0.99 1.44 2.15 1.01 2.58s-1.24 0.33-1.8-0.23zm-23.26 79.31c-0.49-1.26-1.15-2.28-1.48-2.28s-0.59 1.02-0.59 2.28c0 1.25 0.66 2.28 1.47 2.28s1.08-1.03 0.6-2.28zm8.76-14.85c-1.51-1.49-1.68-1.32-0.86 0.85 0.58 1.5 1.43 2.34 1.89 1.88 0.47-0.47 0-1.7-1.03-2.73zm-120.29-8.26c0-0.59-1.47-7.09-3.28-14.44-3.72-15.19-6.68-18-4.88-4.64 0.65 4.81 1.21 10.8 1.25 13.3 0.04 2.51 0.76 5.07 1.59 5.68 1.95 1.43 5.32 1.49 5.32 0.1zm-11.56-13.13c-1.56-9.42-2.19-11.65-3.29-11.65-1.42 0.01-2.24 11.62-1.08 15.29 1.55 4.87 5.26 1.77 4.37-3.64zm16.12-1.77c0-2.83-0.66-5.55-1.47-6.05-2.44-1.51-7.58-14.4-6.68-16.74 0.46-1.2-1.14-5.12-3.55-8.7-6.62-9.83-7.3-11.65-2.15-5.75 2.56 2.92 4.67 5.81 4.69 6.41s1.1 0.69 2.4 0.19c1.35-0.52 3.26 0.3 4.51 1.95 1.42 1.88 2.17 2.16 2.21 0.81 0.06-2.55-5.03-9.5-12.56-17.17-3.17-3.23-5.13-5.87-4.35-5.87s5.26 3.77 9.95 8.39 8.52 7.44 8.52 6.27-1.05-3.01-2.34-4.08c-1.3-1.07-2.03-2.79-1.63-3.83 0.39-1.03-2.63-4.51-6.72-7.73-4.08-3.23-7.46-6.55-7.5-7.38-0.07-1.46-6.95-5.32-9.47-5.32-3.23 0-0.7 5.56 3.34 7.35 5.17 2.29 6.02 4.81 1.61 4.81-1.62 0-3.32 0.59-3.77 1.32-1.27 2.05 2.28 25.98 4.97 33.58 2.17 6.12 2.49 6.41 3.29 3.04 1.52-6.47 5.34-5.32 8.75 2.65 1.72 4.01 3.61 9.85 4.19 12.98 1.27 6.83 3.76 6.08 3.76-1.13zm-18.07-25.25c-0.94-2.69-1.44-5.15-1.11-5.48 0.32-0.32 1.36 1.61 2.29 4.3 0.94 2.68 1.44 5.15 1.12 5.47-0.33 0.33-1.36-1.6-2.3-4.29zm-6.11 16.13c0.39-12.31-1.66-30.16-3.02-26.28-0.51 1.43-1.01-1.74-1.12-7.04s-0.87-10.83-1.68-12.28c-1.23-2.19-2.08-1.21-4.99 5.83-1.93 4.66-4.06 8.14-4.73 7.73-0.66-0.41 0.02-2.95 1.53-5.64 1.51-2.68 2.44-5.75 2.09-6.81-0.36-1.06 0.78-4.35 2.53-7.31 3.64-6.18 4.42-12.69 1.19-10.02-1.09 0.91-3.53 4.75-5.43 8.55-1.89 3.8-4.08 6.91-4.86 6.91-2.91 0-1.22-5.46 4.8-15.41 3.41-5.66 5.97-11.49 5.69-12.97-0.35-1.79-2.68 0.95-6.97 8.17-3.55 5.97-6.45 11.59-6.45 12.49s-1.03 1.64-2.28 1.64c-4.15 0-2.38-5.2 6.06-17.81 5.36-8 8-13.35 7.38-14.95-0.7-1.84-3.12 0.83-9.1 10.01-4.48 6.89-8.14 13.75-8.14 15.26s-0.69 3.17-1.52 3.69c-0.84 0.51-1.52-0.49-1.52-2.22 0-4.02 16.24-36.55 18.25-36.55 0.83 0 1.51-1.37 1.51-3.04s-0.4-3.04-0.9-3.04c-3.38 0-13.78 18.37-18.74 33.08-2.45 7.29-2.94 11.69-2.34 21.03 0.72 11.33 2.14 17.29 2.29 9.61 0.03-2.02 1.07-5.73 2.3-8.23 1.23-2.51 1.92-3.42 1.54-2.01-1.97 7.25-2.56 13.42-1.45 15.21 0.69 1.1 1.12 3.71 0.97 5.8s0.77 0.04 2.05-4.56 3.07-9.05 3.97-9.88c1.13-1.05 1.29-0.91 0.51 0.46-0.62 1.1-1.39 6.15-1.71 11.24-0.32 5.08-0.98 10.51-1.48 12.07-0.49 1.56-0.17 2.83 0.73 2.83 0.89 0 1.67-1.2 1.74-2.66 0.06-1.46 1.07-5.4 2.24-8.74 1.2-3.43 1.8-4.26 1.38-1.9-0.42 2.3-0.07 4.18 0.78 4.18s1.25 1.54 0.9 3.42-0.74 3.42-0.86 3.42c-0.19 0-1 3.78-1.68 7.93-0.45 2.68 0.24 4.99 1.48 4.99 0.73 0 1.81-3.59 2.39-7.98 0.85-6.41 1.36-7.45 2.58-5.27 0.84 1.49 1.3 6.22 1.04 10.51-0.32 5.07 0.15 8.01 1.32 8.41 1.2 0.4 1.97-1.87 2.28-6.71 0.71-11.12 3.58-7.4 3.08 3.98-0.24 5.38-0.05 10.8 0.43 12.04 1.74 4.54 3.6-0.73 3.94-11.18zm-5.98-19c0-2.09 0.35-2.95 0.77-1.9 0.42 1.04 0.42 2.75 0 3.8-0.42 1.04-0.77 0.19-0.77-1.9zm-6.06-3.8c-0.03-1.67 0.54-4.41 1.26-6.08 1.67-3.88 1.67 0.12 0 5.32-0.98 3.05-1.23 3.2-1.26 0.76zm2.9-12.04c-0.07-1.6 0.29-2.5 0.8-1.99 0.5 0.5 0.56 1.82 0.12 2.91-0.49 1.22-0.85 0.86-0.92-0.92zm37.78 35.22c-0.09-4.14-0.32-4.45-1.42-1.9-1.8 4.2-1.8 6.84 0 6.84 0.84 0 1.48-2.22 1.42-4.94zm-1.52-10.64c0.06-0.63-1.26-1.14-2.94-1.14-1.67 0-3.04-0.72-3.04-1.61s-0.67-1.2-1.49-0.69c-0.94 0.58-0.83 1.98 0.31 3.79 0.99 1.58 2.34 2.54 3.01 2.12 0.67-0.41 1.26 0.49 1.32 2 0.1 2.46 0.25 2.42 1.41-0.29 0.72-1.67 1.36-3.55 1.42-4.18zm6.05-6.62c1.56-5.77 3.3-13.22 3.87-16.56 1.33-7.77 6.64-26.32 8.82-30.82 1.88-3.88-0.01-7.02-3.1-5.11-1.97 1.22-9.91 30.55-9.71 35.88 0.06 1.65-0.61 3.44-1.5 3.99-0.89 0.56-1.86 6.31-2.15 12.79-0.29 6.47-0.2 11.44 0.2 11.04 0.41-0.41 2.01-5.45 3.57-11.21zm48.91-5.32c-1.34-3.35-1.46-3.39-1.55-0.47-0.06 1.74 0.36 3.62 0.91 4.18 1.82 1.81 2.13 0.01 0.64-3.71zm196.16-2.5c-0.8-1.46-3.66-4.71-6.38-7.22l-4.92-4.56 4.87 7.22c4.64 6.89 9.59 10.4 6.43 4.56zm-23.73-7.93c-4.44-8.77-4.51-9.17-1.73-9.17 1.16 0 2.88 1.89 3.84 4.2 2.43 5.87 8.77 13.5 10.12 12.17 0.61-0.61-0.69-3.85-2.91-7.19-2.21-3.34-4.05-6.95-4.09-8.01-0.11-3.19-30.87-22.46-35.84-22.46-0.42 0-0.33 0.69 0.19 1.52 0.51 0.84 2.22 1.52 3.8 1.52 1.57 0 3.24 0.63 3.71 1.38 0.47 0.76-0.52 1.02-2.19 0.59-4.17-1.09-3.82 1.21 1.14 7.45 2.31 2.9 5.81 8.42 7.8 12.28 4.06 7.9 8.93 11.58 5.9 4.45-0.97-2.25-2.39-4.96-3.17-6-0.97-1.31-0.67-1.9 0.94-1.9 1.29 0 3.88 2.56 5.76 5.7 7.59 12.67 12.75 15.33 6.73 3.47zm-14.53-17.76c-3.72-3.89-5.33-6.12-3.57-4.95 3.06 2.04 12.14 12.02 10.93 12.02-0.32 0-3.63-3.19-7.36-7.07zm-213.41 12.84c-1.31-1.88-2.39-4.56-2.39-5.96s-5.19-6.55-11.54-11.44-12.85-10.09-14.44-11.56c-2.8-2.56-2.9-2.5-2.9 1.65 0 2.62 0.81 4.31 2.07 4.31 3.33 0 13.13 6.64 13.13 8.9 0 1.14 3.73 5.29 8.29 9.22 4.56 3.94 8.24 7.57 8.18 8.07-0.06 0.51 0.05 1.94 0.25 3.2 0.28 1.75 0.52 1.67 1.05-0.35 0.38-1.45-0.39-4.17-1.7-6.04zm256.04 2.83c0-1.12-2.65-2.84-5.9-3.81-5.71-1.71-10.54-5.58-8.96-7.16 0.43-0.43 3.69-0.13 7.24 0.67 8.3 1.87 6.1-0.12-4.08-3.68-9-3.15-9.19-5.98-0.3-4.48 3.87 0.66 5.92 0.43 5.92-0.65 0-0.91-1.59-1.65-3.55-1.65-1.95 0-4.02-0.48-4.59-1.06-0.58-0.58-2.38-1.25-3.99-1.5-1.61-0.24-5.18-1.89-7.94-3.67-2.76-1.77-3.64-2.73-1.97-2.13 4.6 1.65 16.87 2.84 15.64 1.52-0.6-0.63-4.7-2.39-9.12-3.89-4.42-1.51-6.67-2.81-5-2.9 3-0.15 3-0.18 0.09-2.38-1.62-1.23-4.32-2.24-5.99-2.24-3 0-3-0.03-0.09-2.18 2.91-2.16 2.91-2.22-0.09-4.68-1.67-1.36-2.19-2.05-1.16-1.53 1.19 0.6 1.58 0.16 1.06-1.2-1.29-3.36-20.78-10.98-30.72-12.02-2.28-0.23-4.99-1.46-6.02-2.71-1.33-1.63-2.2-1.79-3.04-0.56-0.68 1.01-5.84 1.77-12.41 1.82-6.18 0.06-11.96 0.82-12.85 1.7-1.96 1.96-2.55 1.91 18.19 1.62 14.1-0.2 17.05 0.16 17.81 2.15 0.94 2.44-4.09 3.1-18.75 2.45-2.93-0.13-7.04 0.44-9.12 1.28-3.32 1.32-2.84 1.53 3.8 1.66 7.47 0.15 15.08 0.9 24.56 2.4 2.64 0.42 5.21 1.85 5.72 3.18 0.77 2.02 0.11 2.24-4.03 1.39-8.2-1.7-29.38-2.78-28.07-1.44 0.67 0.69 6.62 1.72 13.21 2.29 7.86 0.67 14.72 2.32 19.88 4.77 9.19 4.37 7.7 6.91-2.1 3.59-7.39-2.51-28.09-4.91-23.09-2.68 1.68 0.75 6.81 1.92 11.41 2.6 9.71 1.44 8.75 1.21 13.91 3.36 2.22 0.92 4.46 2.37 4.99 3.22 0.52 0.86 1.87 1.2 2.99 0.77 2.15-0.82 13.49 6.07 12.16 7.39-0.42 0.43 1.83 2.38 5.01 4.35 3.18 1.96 8.29 5.83 11.35 8.59 3.07 2.77 6.99 5.3 8.71 5.64 1.73 0.33 4.35 1.31 5.83 2.17 3.47 2.02 3.45 2.02 3.45-0.38zm-42.56-32.93c-2.78-1.79-0.38-1.79 3.8 0 2 0.87 2.26 1.34 0.76 1.39-1.26 0.05-3.31-0.58-4.56-1.39zm-2.66-8.64c1.46-0.39 3.85-0.39 5.32 0 1.46 0.38 0.26 0.69-2.66 0.69-2.93 0-4.13-0.31-2.66-0.69zm-0.79-7.55c1.03-0.42 3.08-0.45 4.56-0.06 1.48 0.38 0.64 0.73-1.87 0.76s-3.72-0.29-2.69-0.7zm-10.64-1.52c1.03-0.42 3.08-0.45 4.56-0.06 1.48 0.38 0.63 0.72-1.87 0.76-2.51 0.03-3.72-0.29-2.69-0.7zm-193.97 40.52c0.84 0 1.09-1.37 0.56-3.04-0.6-1.88-0.28-3.04 0.83-3.04 1.05 0 1.47-1.27 1.01-3.04-0.44-1.68-0.18-3.04 0.58-3.04 1.87 0 1.75-7.19-0.14-8.37-0.84-0.51-1.52-1.66-1.52-2.55 0-1.03 0.8-0.95 2.23 0.24 1.91 1.58 2.21 1.04 2.04-3.69-0.16-4.11-1.25-6.28-4.22-8.4-2.2-1.56-5.87-6.49-8.15-10.94-6.34-12.36-11.23-16.91-20.81-19.34-4.58-1.16-9.19-2.43-10.24-2.82-1.15-0.43-1.99 0.71-2.13 2.88-0.12 1.97-0.7 0.5-1.29-3.26l-1.06-6.84-0.23 7.22c-0.2 6.25 0.17 7.22 2.76 7.22 3.39 0 11.75 4.42 19.38 10.24 6.2 4.72 13.06 15.95 13.66 22.35 0.24 2.56 0.69 8.07 1.01 12.25 0.32 4.19 1.08 8.81 1.7 10.29 0.63 1.49 0.34 3.62-0.65 4.82-1.37 1.64-1.32 2.89 0.21 5.36 1.97 3.19 1.99 3.18 2.47-0.64 0.26-2.13 1.16-3.86 2-3.86zm196.8-5.27c-3.9-5.11-13.42-10.58-16.58-9.52-0.8 0.26 2.87 4.39 8.15 9.18 6.2 5.6 10.13 8.17 11.08 7.22s0.01-3.4-2.65-6.88zm-203.2-0.43c-1.62-4.32-15.08-17.95-23.9-24.2-5.84-4.14-6.39-4.26-6.39-1.43 0 1.16 4.1 4.75 9.11 7.98 5.01 3.22 9.11 6.52 9.12 7.33 0.01 1.25 12.08 14.5 13.21 14.5 0.23 0-0.29-1.88-1.15-4.18zm135.92-2.28c-1.32-6.95-2.87-8.43-11.63-11.03-4.24-1.26-8.09-2.85-8.56-3.53-1.09-1.61-24.41-14.4-24.41-13.39 0 5.14 3.86 8.36 16.63 13.91 8.47 3.68 16.71 8.59 21.04 12.52 3.91 3.55 7.28 6.46 7.49 6.46 0.2 0-0.05-2.23-0.56-4.94zm-308.24-5.09c3.702-2.17 6.731-4.15 6.731-4.4 0-1.22-10.549 2.13-14.15 4.49-8.3479 5.47-1.936 5.39 7.419-0.09zm0.663-7.21c2.098-0.49 4.793-0.27 5.991 0.47 1.36 0.84 3.639 0.58 6.068-0.68 4.058-2.11 12.066-9.92 10.176-9.92-1.929 0-12.89 5.99-13.873 7.58-0.524 0.85-1.68 1.54-2.569 1.54-1.02 0-0.918-0.84 0.275-2.28 1.041-1.25 1.589-2.28 1.217-2.28-2.556 0-16.151 5.41-18.318 7.29-4.3798 3.8-3.0122 4.97 2.28 1.96 2.717-1.54 6.656-3.2 8.753-3.68zm170.51 2.54c-3.53-6.58-26.26-27.87-29.76-27.87-2.68 0-0.46 5.87 2.51 6.63 4.54 1.16 17.31 11.86 23.01 19.28 4.61 6 7 7.1 4.24 1.96zm134.51-4.27c-1.23-2.63-7-6.35-19.24-12.39-9.62-4.75-18.68-9.23-20.15-9.97-2.08-1.06-2.66-0.7-2.66 1.63 0 3.36 10.96 9.92 27.37 16.4 5.43 2.14 10.88 4.84 12.1 6 3.42 3.21 4.52 2.5 2.58-1.67zm59.05 1.43c-2.51-1.15-5.59-2.06-6.85-2.03-1.25 0.03-0.22 0.99 2.28 2.14 2.51 1.15 5.59 2.06 6.85 2.03 1.25-0.03 0.22-0.99-2.28-2.14zm-117.16-14.27c10.45-12.31 13.79-18.36 10.16-18.36-0.74 0-2.58 1.88-4.08 4.18s-5.49 7.13-8.86 10.72c-3.37 3.6-7.01 8.64-8.08 11.2-3.78 8.99-2.65 8.18 10.86-7.74zm-235.04 4.91c2.011 0.38 7.298-1.13 12.176-3.5 11.897-5.75 30.351-13.24 36.745-14.91l5.321-1.39-4.18-1.98c-2.3-1.09-4.181-2.57-4.181-3.3 0-2.23 4.66-3.26 6.487-1.43 0.947 0.95 3.255 1.72 5.129 1.72 1.873 0 3.804 0.64 4.289 1.43 0.53 0.86 2.845 0.64 5.791-0.54 2.702-1.08 6.272-2.51 7.952-3.19 1.67-0.67 3.8-1.1 4.73-0.96 0.94 0.14 2.47-0.66 3.41-1.8 1.38-1.67-1.12-2.81-13.38-6.1-8.299-2.22-17.184-4.04-19.748-4.04-3.129 0-4.66-0.75-4.66-2.28 0-1.68 1.741-2.28 6.546-2.28 5.936 0 12.09 1.57 33.092 8.47 3.82 1.25 8.18 1.81 9.68 1.23 2.46-0.94 2.38-1.24-0.87-3.06-6.93-3.89-23.97-8.22-35.024-8.91-6.129-0.39-11.486-0.74-11.904-0.78-0.418-0.05 0.478-1.03 1.991-2.17 5.273-4-0.128-3.8-8.611 0.31-5.097 2.48-8.265 4.92-7.851 6.05 0.382 1.04-0.278 1.9-1.467 1.9-4.9 0-9.905 3.58-9.905 7.08 0 2.67-0.854 3.57-3.42 3.58-2.571 0.02-2.894 0.36-1.299 1.37 3.501 2.22 0.926 5.94-3.522 5.09-2.32-0.45-3.92-0.06-3.92 0.94 0 0.94 0.684 1.7 1.52 1.7s1.52 0.93 1.52 2.07c0 1.39-1.9 2.08-5.703 2.08-3.271 0-7.97 1.43-11.021 3.36-2.925 1.85-3.95 3.03-2.278 2.62 8.784-2.15 14.442-2.55 14.442-1.03 0 1.87-0.537 2.05-12.825 4.36-4.963 0.94-9.597 2.27-10.297 2.97s6.439-0.32 15.865-2.27c9.426-1.96 18.164-3.35 19.418-3.09 1.254 0.25-1.995 1.32-7.221 2.37-5.225 1.05-9.501 2.44-9.501 3.08s-4.509 2.06-10.02 3.16c-6.071 1.2-11.613 3.38-14.061 5.51l-4.0416 3.53 10.627-3.83c5.844-2.1 12.225-3.52 14.18-3.14zm33.34-19.72c1.045-0.42 2.755-0.42 3.8 0 1.045 0.43 0.19 0.77-1.9 0.77s-2.945-0.34-1.9-0.77zm0.742-7.63c1.453-0.38 4.19-0.4 6.081-0.03 1.891 0.36 0.702 0.67-2.643 0.69-3.344 0.01-4.891-0.28-3.438-0.66zm25.481-2c-2.091-0.67-6.024-1.29-8.741-1.37-2.718-0.08-4.941-0.78-4.941-1.56 0-0.77-1.197-1.72-2.66-2.1-3.859-1 12.74 0.22 21.536 1.59 8.732 1.36 11.552 5.04 3.672 4.81-2.786-0.08-6.776-0.7-8.866-1.37zm-26.952-7c0.505-0.5 1.817-0.56 2.914-0.12 1.213 0.49 0.852 0.85-0.919 0.92-1.602 0.07-2.5-0.29-1.995-0.8zm365.1 39.73c-3.86-2.92-6.12-2.95-3.71-0.05 1.04 1.26 2.97 2.28 4.28 2.28 1.91 0 1.79-0.44-0.57-2.23zm-240.69-4.99c-3.34-6.09-25.49-24.7-29.4-24.7-3.17 0-0.23 3.33 9.09 10.29 5.65 4.21 12.27 9.78 14.73 12.37 4.88 5.15 7.89 6.25 5.58 2.04zm171.61 1.14c-1.25-0.81-3.65-1.43-5.32-1.39-3.04 0.09-3.04 0.09 0 1.39 1.67 0.72 4.07 1.35 5.32 1.39 2.03 0.08 2.03-0.08 0-1.39zm-152.84-8.2c-0.58-3.09-1.93-5.48-3.09-5.48-1.13 0-2.82-1.42-3.75-3.16-1.61-3.01-1.8-3.03-3.68-0.46-2.64 3.62 0.22 8.96 3.39 6.33 1.13-0.94 1.93-1.07 1.78-0.31-0.63 3.34 0.21 6.83 1.46 6.06 0.74-0.46 1.79 0.28 2.31 1.65 1.62 4.21 2.66 1.15 1.58-4.63zm215.17 3.64c-0.9-1.67-1.97-3.04-2.39-3.04s-0.03 1.37 0.87 3.04c0.89 1.67 1.97 3.04 2.39 3.04 0.41 0 0.02-1.37-0.87-3.04zm-66.18-1.6c-0.49-0.79-5.12-1.43-10.3-1.41-5.17 0.01-8.62 0.52-7.64 1.14 2.68 1.69 18.97 1.94 17.94 0.27zm-137.48-6.49c4.41-4.58 10.55-19.8 11.45-28.39l0.72-6.84-2.95 6.08c-1.63 3.34-3.01 7.62-3.07 9.5s-0.74 3.42-1.51 3.42-1.85 2.05-2.4 4.56-1.63 4.56-2.4 4.56c-1.87 0-1.79-2.62 0.12-3.8 0.83-0.52 1.49-2.44 1.46-4.27-0.05-3.22-0.12-3.2-2.22 0.47-2.76 4.83-2.84 3.5-0.23-3.99 1.12-3.24 2.54-7.94 3.14-10.45l1.09-4.56-3.9 5.23c-2.15 2.88-3.9 7.12-3.9 9.42 0 2.29-0.61 4.54-1.35 5-1.99 1.23-5.21-7.64-4.36-12.04 0.56-2.96 0.1-3.81-2.1-3.81-2.8 0-4.03 3.83-1.55 4.81 1.33 0.53 3.72 10.39 2.51 10.39-0.38 0-2.38-3.25-4.43-7.22l-3.74-7.22 0.86 5.7c1.28 8.34-0.46 6.96-3.24-2.58-2.87-9.88-5.34-12.15-5.56-5.11l-0.16 5.03-1.51-5.7c-1.12-4.2-2.32-5.7-4.58-5.7-2.78 0-2.97 0.66-2.06 7.22l1.01 7.22-2.44-4.56c-1.34-2.51-3.47-5.59-4.72-6.84-2.03-2.03-2.11-1.82-0.71 1.91 2.92 7.76 6.62 14.03 10.33 17.49 3.8 3.56 6.51 3.35 6.51-0.49 0-1.2 0.69-2.19 1.52-2.19 0.84 0 1.52 1.37 1.52 3.04s-0.76 2.87-1.71 2.66c-2.29-0.51-3.11 2.16-1.47 4.76 1.72 2.71 4.49 0.93 6.41-4.1 1.18-3.11 1.8-3.5 2.84-1.82 0.74 1.19 0.95 4.07 0.49 6.41-0.57 2.83-0.22 4.25 1.03 4.25 1.12 0 1.58-1.2 1.12-2.94-0.44-1.7 0.12-3.28 1.34-3.75 1.6-0.62 2.12 0.76 2.12 5.65 0 5.73 0.41 6.49 3.66 6.76 2.14 0.18 5.07-1.14 7.02-3.17zm132.89 0.36c-0.47-0.76-6.12-1.37-12.55-1.34-9.51 0.04-11.24 0.39-9.27 1.9 2.82 2.15 23.18 1.63 21.82-0.56zm-6.76-6.33c0-0.63-5.81-1.14-12.92-1.14-7.7 0-12.92 0.62-12.92 1.54 0 0.95 4.96 1.38 12.92 1.14 7.11-0.22 12.92-0.91 12.92-1.54zm-9.25-4.8c-1.46-1.45-30.27-2.27-30.27-0.86 0 0.86 6.42 1.48 15.45 1.48 8.5 0 15.17-0.28 14.82-0.62zm-55.34-6.98l3.02-3.8-3.42 2.9c-1.88 1.59-3.42 3.58-3.42 4.43s0.18 1.25 0.4 0.9c0.22-0.34 1.76-2.34 3.42-4.43zm58.51 3.13c0-2.12-2.79-3.46-4.72-2.27-1.18 0.73-1.06 1.44 0.38 2.35 2.71 1.72 4.34 1.69 4.34-0.08zm34.96 0.1c0-1.67-7.58-3.23-15.69-3.23-8.65 0-5.26 2.71 4.29 3.44 4.18 0.31 8.46 0.7 9.5 0.85 1.05 0.15 1.9-0.33 1.9-1.06zm-25.84-1.71c0-0.84-1.06-1.52-2.37-1.52-1.3 0-1.95 0.68-1.43 1.52s1.58 1.52 2.37 1.52 1.43-0.68 1.43-1.52zm-19.76-5.41c0-0.37-0.68-0.67-1.52-0.67s-1.52 0.72-1.52 1.61c0 0.88 0.68 1.19 1.52 0.67s1.52-1.24 1.52-1.61zm28.76-1.64c0.34-0.3-2.39-0.54-6.08-0.53-4.81 0.02-6.07 0.43-4.45 1.46 1.97 1.25 8.69 0.65 10.53-0.93zm-219.22-5.68c-0.32-0.94-1.87-1.96-3.45-2.27s-3.58-1.48-4.43-2.6c-2.2-2.88-13.52-5.15-25.12-5.03l-9.886 0.1 12.616 2.91c6.93 1.6 15.83 4.47 19.76 6.38 7.18 3.49 11.57 3.7 10.51 0.51zm36.49 1.71c-4.62-11.63-6.12-14.82-6.95-14.79-0.54 0.02-2.59 1.27-4.56 2.79-4.81 3.7-3.74 7.96 2.83 11.24 6.24 3.12 9.74 3.43 8.68 0.76zm40.55-0.51c1.45-3.77 1.04-20.9-0.56-23.43-0.79-1.26-3.01-2.47-4.92-2.69-20.52-2.4-19.44-2.5-19.44 1.78 0 2.79 0.81 3.95 2.75 3.95 4.17 0 15.39 8.91 16.43 13.05 0.5 2.02 1.57 3.67 2.37 3.67 0.81 0 1.03 1.37 0.5 3.04-1.14 3.57 1.52 4.16 2.87 0.63zm-59.12-8.4c2.94-3.41 2.88-3.4-1.7 0.22-2.6 2.06-6.02 4.61-7.6 5.67-1.69 1.13-0.99 1.04 1.7-0.22 2.51-1.18 5.93-3.74 7.6-5.67zm47.67 3.04c-1.14-0.72-3.09-1.29-4.34-1.28-1.76 0.02-1.62 0.53 0.6 2.21 1.59 1.2 3.54 1.78 4.34 1.28 0.84-0.52 0.59-1.46-0.6-2.21zm18.36-7.43c0-2.03-0.14-2.03-1.28 0-0.71 1.25-1.75 3.99-2.3 6.08l-1.01 3.8 2.29-3.8c1.26-2.09 2.29-4.83 2.3-6.08zm83.01-0.38l3.92-7.98-6.93 7.45c-3.82 4.1-6.93 7.69-6.93 7.98s1.35 0.53 3.01 0.53c2.13 0 4.17-2.35 6.93-7.98zm7.95 5.66c3.61-1.44 5.87-3.38 6-5.15 0.12-1.57 2.31-7.33 4.88-12.83 5.35-11.44 5.65-12.81 2.15-9.91-2.73 2.26-12.68 22.05-12.68 25.22 0 1.07-0.73 1.95-1.62 1.95-2.1 0-0.61-4.98 4.06-13.5 4.39-8.02 4.42-8.31 0.73-6.34-1.6 0.86-4.11 4.82-5.57 8.8-1.47 3.98-3.24 7.89-3.93 8.68-1.37 1.55-1.75 5.4-0.54 5.4 0.4 0 3.33-1.04 6.52-2.32zm-133.15-2.57c-1.09-1.09-1.8-1.18-1.8-0.23 0 0.86 0.46 2.03 1.02 2.58 0.55 0.56 1.36 0.66 1.8 0.23 0.43-0.43-0.03-1.59-1.02-2.58zm24.81 0.34c-1.59-2.58-8.65-4.89-10.2-3.35-1.75 1.75 1.55 4.4 6.4 5.15 4.59 0.71 5.18 0.43 3.8-1.8zm-111.45-2.57c-1.098-0.44-2.409-0.39-2.914 0.12-0.505 0.5 0.393 0.86 1.995 0.8 1.771-0.08 2.131-0.44 0.919-0.92zm234.79-8.9c2.03-4.98 5.06-11.71 6.75-14.95 3.37-6.48 3.33-7.69-0.15-5.01-2.23 1.71-10.72 19.26-12.91 26.66-2.19 7.43 2.66 2.28 6.31-6.7zm-140.83 6.14c0-1.26-1.19-2.29-2.66-2.31-2.03-0.01-2.18-0.32-0.63-1.31 1.62-1.02 1.52-1.48-0.5-2.25-6.36-2.44-10.97 0.24-8.47 4.91 2.12 3.96 12.26 4.75 12.26 0.96zm-9.52-0.95c1.03-1.04 2.26-1.51 2.72-1.04 0.47 0.47-0.37 1.32-1.87 1.89-2.17 0.82-2.34 0.65-0.85-0.85zm17.79 0.35c0.46-0.75-0.18-1.76-1.43-2.24-1.38-0.53-2.28 0.01-2.28 1.36 0 2.46 2.38 3.02 3.71 0.88zm-26.94-4.76c0.56-2.12 1.35-2.62 2.57-1.6 0.98 0.81 2.67 0.9 3.82 0.19 1.45-0.9 0.67-1.57-2.73-2.31-2.63-0.58-4.42-1.63-3.98-2.34s0-1.79-0.98-2.39c-1.11-0.69-1.37-0.45-0.69 0.65 1.33 2.15 0.7 2.18-4.48 0.21-3.26-1.24-5.05-0.93-9.05 1.54-8.98 5.55-9.11 6.97-0.64 7.1 4.17 0.06 8.02 0.55 8.54 1.07 2.12 2.11 6.86 0.8 7.62-2.12zm-15.53-3.63c2.51-2.16 5.19-3.92 5.95-3.93 1.65-0.01 1.64 0.01-5.19 4.41l-5.32 3.44 4.56-3.92zm153.41 0.42c-1.38-2.24-6.68 1.56-5.71 4.1 0.79 2.04 1.23 2.01 3.71-0.23 1.55-1.4 2.45-3.14 2-3.87zm32.19-2.45c7.55-9.23 12.69-18.88 12.76-23.95 0.02-1.67 1.07-5 2.32-7.41 2.24-4.3 2.23-4.33-0.92-2.24-1.93 1.28-4.55 6.34-6.59 12.73-3.37 10.6-8.29 21.18-8.41 18.09-0.03-0.9 1.68-5.93 3.81-11.16 3.09-7.6 3.5-9.98 2.03-11.74-1.47-1.78-2.07-1.83-3.08-0.24-2.12 3.33-1.44 4.74 1.23 2.54 1.39-1.15 2.21-1.4 1.82-0.57-0.38 0.84-3.3 7-6.48 13.68-7.64 16.06-8.73 19.01-7.04 19.01 0.77 0 4.62-3.94 8.55-8.74zm-151.96-2.98c-1.22-1.21-8.56 0.93-8.56 2.5 0 0.75 1.88 2 4.18 2.77 3.55 1.2 4.26 0.97 4.69-1.52 0.27-1.61 0.13-3.3-0.31-3.75zm126.74-0.53c0-0.79-0.69-1.43-1.52-1.43-0.84 0-1.52 1.06-1.52 2.37 0 1.3 0.68 1.94 1.52 1.43 0.83-0.52 1.52-1.59 1.52-2.37zm-86.65-1.43c0-0.84-0.51-1.58-1.14-1.64s-2.84-0.42-4.91-0.8c-3.65-0.67-3.68-0.62-0.76 1.58 3.48 2.64 6.81 3.05 6.81 0.86zm-36.49-2.28c0-2.47-5.37-3.08-10.13-1.17-2.72 1.1-2.22 1.28 8.99 3.25 0.63 0.11 1.14-0.83 1.14-2.08zm10.86 0.92c-1.89-1.2-7.82-0.61-7.82 0.77 0 0.32 2.23 0.57 4.95 0.56 3.35-0.01 4.27-0.44 2.87-1.33zm121.66-2.68c1.53-1.38 2.78-3.46 2.78-4.61s1.68-5.41 3.73-9.46c3.41-6.74 3.63-9.26 0.78-9.26-1.2 0-9.07 16.97-9.07 19.57 0 0.95-0.69 1.71-1.52 1.71-0.84 0-1.52 1.03-1.52 2.28 0 2.96 1.37 2.89 4.82-0.23zm-128.02-4.41c-2.48-2.98-8.38-6.31-6.87-3.87 0.58 0.93 0.02 1.67-1.25 1.67-3.02 0-4.5-2.56-2.09-3.61 1.05-0.45 0.14-0.46-2.03-0.02-2.81 0.57-5.26-0.31-8.58-3.1-5.63-4.74-8.04-5.13-4.05-0.65 3.21 3.6 19.53 11.66 23.98 11.83 2.41 0.1 2.54-0.25 0.89-2.25zm138.46-3.81c0.56-1.2 2.19-4.41 3.61-7.13 2.05-3.92 2.16-4.94 0.51-4.94-1.71 0-4.27 4.27-8.55 14.25-0.97 2.27 3.33 0.15 4.43-2.18zm28.22-12.83c0.92-2.92 1.1-5.32 0.41-5.32-2.05 0-6.23 7.33-5.17 9.06 1.72 2.78 3.05 1.73 4.76-3.74zm5.99 1.67c1.75-1.75 1.78-2.42 0.13-3.78-1.53-1.27-2.41-0.77-3.73 2.12-1.94 4.28 0.06 5.2 3.6 1.66zm-192.06-11.85c-2.08-2.07-2.51-6.382-0.53-5.15 0.72 0.44 0.98-0.89 0.59-2.955-0.51-2.649-1.68-3.719-3.96-3.635-1.79 0.066-2.39 0.465-1.35 0.887 2.96 1.195 2.23 5.073-0.95 5.073-1.57 0-3.71-1.025-4.75-2.279s-1.33-2.281-0.64-2.281c2.62 0-1.84-2.696-6.16-3.718l-4.52-1.07 3 3.316c1.65 1.824 5.74 4.7 9.08 6.392 3.35 1.69 6.63 4.01 7.3 5.16 0.67 1.14 2 2.08 2.96 2.08 1.28 0 1.26-0.49-0.07-1.82zm-25.39 384.9c-0.52-0.83-0.26-1.52 0.58-1.52s1.94 0.69 2.46 1.52c0.52 0.84 0.26 1.52-0.58 1.52s-1.94-0.68-2.46-1.52zm133.13-138.97c-0.06-1.6 0.3-2.5 0.8-1.99 0.51 0.5 0.56 1.82 0.12 2.91-0.48 1.22-0.84 0.86-0.92-0.92zm-4.71-7.02c-0.91-1.7-1.23-4.61-0.71-6.46 0.68-2.43 0.54-2.78-0.52-1.24-0.81 1.17-2.56 1.7-3.9 1.19-1.65-0.64-2.44-0.09-2.46 1.67-0.02 2.23-0.23 2.28-1.46 0.35-0.79-1.25-1.04-3.82-0.56-5.72 0.66-2.65 0.33-3.24-1.45-2.56-1.52 0.58-2.71-0.32-3.48-2.64l-1.16-3.53-1.1 3.8-1.11 3.8-0.15-4.18c-0.08-2.3 1.07-5.4 2.55-6.88 3.09-3.09 6.4-13.08 6.47-19.52 0.04-3.92 0.26-4.11 2.02-1.79 1.86 2.44 2.13 2.44 4.74 0 2.66-2.5 2.67-2.46 0.33 1.05-3.72 5.59-8.28 26.37-5.96 27.15 1.03 0.34 1.93 1.76 2.01 3.15 0.37 6.03 2.6-5.84 2.74-14.52 0.13-7.74 0.57-9.29 2.43-8.58 1.78 0.68 2.28 3.68 2.28 13.45 0 14.89 1.34 23.28 3.24 20.29 0.91-1.45 1.28-1.05 1.3 1.4 0.03 4.3-3.85 4.51-6.09 0.32zm-104.45-22.14c0.51-0.51 1.82-0.56 2.92-0.12 1.21 0.48 0.85 0.84-0.92 0.92-1.6 0.06-2.5-0.3-2-0.8zm104.48-25.32c0-0.41 1.03-1.61 2.28-2.65 1.26-1.04 2.28-1.55 2.28-1.13s-1.02 1.61-2.28 2.65c-1.25 1.04-2.28 1.55-2.28 1.13zm-8.36-19.37c1.52-1.67 3.1-3.04 3.51-3.04 0.42 0-0.47 1.37-1.99 3.04-1.51 1.67-3.09 3.04-3.51 3.04s0.48-1.37 1.99-3.04zm8.36-9.88c2.84-2.93 5.5-5.32 5.92-5.32s-1.56 2.39-4.4 5.32c-2.83 2.93-5.49 5.32-5.91 5.32s1.56-2.39 4.39-5.32zm-13.68 0.37c0-0.42 1.03-1.61 2.28-2.65 1.26-1.04 2.28-1.55 2.28-1.13 0 0.41-1.02 1.61-2.28 2.65-1.25 1.04-2.28 1.55-2.28 1.13zm-8.36-16.33c1.51-1.67 3.1-3.04 3.51-3.04 0.42 0-0.48 1.37-1.99 3.04s-3.09 3.04-3.51 3.04 0.48-1.37 1.99-3.04zm76.17-3.93c-1.42-3.72-1.12-4.21 1.36-2.15 2.53 2.09 3.03 4.56 0.92 4.56-0.74 0-1.77-1.08-2.28-2.41zm-70.09-3.67c1.52-1.68 3.1-3.04 3.51-3.04 0.42 0-0.47 1.36-1.99 3.04-1.51 1.67-3.09 3.04-3.51 3.04s0.48-1.37 1.99-3.04zm-230.98-0.64c1.622-1.18 2.494-2.61 1.939-3.16-1.274-1.28 8.721-10.9 14.457-13.92 2.377-1.25 4.771-1.78 5.321-1.19 0.549 0.59 0.026 1.43-1.163 1.85s-6.182 4.77-11.096 9.67-9.716 8.91-10.671 8.91c-0.954 0-0.409-0.97 1.213-2.16zm-8.431-1.66c1.535-1.85 1.405-2.26-0.718-2.26-1.432 0-2.281-0.85-1.896-1.9 0.383-1.05 1.572-1.7 2.643-1.45 1.07 0.26 4.405-1.84 7.41-4.66 3.006-2.82 9.121-6.96 13.589-9.2l8.123-4.08-5.083 4.98c-2.795 2.73-5.658 4.71-6.36 4.38-2.072-0.95-13.363 10.86-11.486 12.02 0.929 0.58-0.485 1.77-3.222 2.73-4.255 1.48-4.637 1.41-3-0.56zm23.546-0.74c0.516-0.84-0.127-1.52-1.431-1.52-1.303 0-2.37-0.69-2.37-1.52 0-0.84 0.573-1.52 1.273-1.52s4.149-2.74 7.665-6.08c3.515-3.35 7.731-6.09 9.368-6.09 4.047 0 3.765 2.82-0.444 4.44-1.881 0.73-5.038 3.06-7.015 5.19-6.244 6.71 1.488 3.28 8.282-3.67 3.196-3.28 7.14-5.96 8.765-5.96 2.723 0 2.669 0.27-0.689 3.46-2.003 1.9-4.581 4.64-5.729 6.08-1.841 2.32-1.707 2.63 1.141 2.63 1.774 0 3.226-0.9 3.226-1.99 0-2.69 9.47-11.7 12.299-11.7 1.251 0 4.135-3.59 6.409-7.98 2.275-4.39 3.708-6.27 3.186-4.18-1.256 5.03-8.564 16.71-10.493 16.77-0.836 0.03-2.671 1.64-4.077 3.57-2.495 3.44-2.468 3.51 1.122 2.82 2.024-0.39 3.373-1.2 2.997-1.81s1.787-3.43 4.806-6.28c3.02-2.85 5.086-4.04 4.592-2.64-0.762 2.16 0.017 2.47 5.092 2.01 3.295-0.31 5.986 0 5.986 0.68 0 1.98-4.564 5.21-7.701 5.44-1.59 0.12-4.226 1.42-5.858 2.9s-3.68 2.24-4.551 1.7c-0.872-0.53-3.138-0.13-5.037 0.89-1.898 1.03-5.339 1.74-7.647 1.57-2.307-0.17-5.892 0.81-7.965 2.17-3.459 2.26-3.848 2.26-4.708 0.02-1.178-3.07-4.222-3.14-6.694-0.16-2.097 2.52-5.287 3.16-3.8 0.76zm196.86-8.36c1.96-2.09 3.91-3.81 4.33-3.81s-0.85 1.72-2.81 3.81-3.91 3.8-4.33 3.8 0.85-1.71 2.81-3.8zm-174.06-12.93c1.513-1.67 3.094-3.04 3.512-3.04s-0.478 1.37-1.992 3.04c-1.513 1.68-3.093 3.04-3.511 3.04s0.478-1.36 1.991-3.04zm25.083-0.43c0-2.17 3.631-8.69 4.839-8.69 0.722 0 0.135 1.88-1.304 4.18-3.415 5.46-3.535 5.62-3.535 4.51zm-28.408-10.08c1.806-3.3 3.514-5.77 3.796-5.48 0.736 0.73-3.978 9.55-5.664 10.59-0.778 0.49 0.063-1.82 1.868-5.11zm-14.157 3c0-0.78 0.676-1.85 1.503-2.36 0.862-0.53 1.117 0.08 0.597 1.43-1.01 2.64-2.1 3.12-2.1 0.93zm24.369 0.67c0-0.83 0.664-2.54 1.474-3.8 0.811-1.25 1.474-1.59 1.474-0.76 0 0.84-0.663 2.55-1.474 3.8-0.81 1.26-1.474 1.6-1.474 0.76zm142.09-5.32c1.51-1.67 3.09-3.04 3.51-3.04s-0.48 1.37-1.99 3.04c-1.52 1.67-3.1 3.04-3.51 3.04-0.42 0 0.47-1.37 1.99-3.04zm8.46-6.84c0-0.83 1.68-4.25 3.74-7.6 2.73-4.43 3.74-5.26 3.74-3.04 0 1.67-1.68 5.09-3.73 7.6-2.06 2.51-3.75 3.88-3.75 3.04zm21.23-58.03c-3.36-1.46-7.36-1.96-11.02-1.38-4.44 0.71-5.75 0.42-5.75-1.29 0-2.66 2.71-4.56 6.84-4.79 6.17-0.35 6.81-0.73 9.22-5.4 1.8-3.48 2-5.05 0.71-5.84-1.8-1.12 4.33-6.12 7.5-6.12 0.86 0 1.57-2.22 1.57-4.94l-0.01-4.94-2.91 4.78c-3.19 5.23-5.89 7.44-7.33 6-0.51-0.51 0.86-2.8 3.04-5.09 5.5-5.76 7.43-11.53 7.98-23.873 0.52-11.65-0.77-10.877-4.27 2.555-1.25 4.781-3.36 9.788-4.7 11.128s-2.44 3.11-2.44 3.94-0.53 1.18-1.17 0.78-0.91 2-0.59 5.33c0.63 6.58-2.27 19.02-4.79 20.58-1.01 0.63-1.14-0.06-0.37-1.94 2.37-5.79 3.25-12.12 2.29-16.59-0.96-4.46-1.09-4.34-5.85 5.32-3.89 7.91-4.66 8.82-3.86 4.56 0.55-2.92 0.91-7.15 0.81-9.4-0.1-2.24 0.51-4.51 1.35-5.03 0.85-0.52 1.54-0.14 1.54 0.85 0 1.35 0.55 1.34 2.24-0.06 1.22-1.02 2.14-2.99 2.03-4.37-0.37-4.73 0.29-7.83 1.67-7.83 0.76 0 1.2 1.2 0.98 2.66s-0.11 1.81 0.25 0.76c0.36-1.04 1.19-1.9 1.85-1.9s1.93-3.59 2.82-7.98c0.89-4.389 2.08-9.178 2.65-10.641s0.38-2.66-0.43-2.66c-0.8 0-2.17 2.223-3.04 4.94l-1.59 4.941-0.15-4.755c-0.22-6.721 3.37-9.39 6.54-4.86 1.33 1.898 2.48 2.785 2.54 1.972 0.66-7.893 0.54-9.484-0.69-8.724-0.83 0.513-1.02-0.647-0.45-2.778 0.54-2.011 0.99-4.171 1-4.798s0.78-1.14 1.7-1.14c0.93 0 1.28 1.062 0.78 2.359-0.57 1.479-0.28 1.975 0.76 1.33 1.15-0.707 1.38 0.576 0.74 4.102-0.76 4.175-0.66 4.493 0.55 1.71 1.63-3.77 3.52-4.786 2.12-1.14-0.48 1.254-0.38 3.477 0.23 4.941 0.94 2.255 1.43 1.967 3.27-1.901l2.16-4.56-0.63 4.262-0.63 4.262 3.61-3.387c1.98-1.863 3.6-4.187 3.6-5.166 0-2.006 6.37-9.852 8-9.852 0.58 0 0.48 1.539-0.23 3.42-0.72 1.881-2.15 6.157-3.19 9.501-1.05 3.345-3.6 8.349-5.67 11.121-6.94 9.266-2.42 6.634 7.22-4.207 5.23-5.893 10.12-10.714 10.86-10.714 2.76 0 3.15 5.035 0.72 9.145-1.38 2.335-2.51 5.869-2.51 7.853 0 4.599-3.29 9.291-9.52 13.564l-4.92 3.37 5.63-5.943c3.77-3.982 5.82-7.725 6.22-11.327 0.32-2.959 1.76-7.172 3.19-9.361 4.89-7.461-0.06-5.667-6.04 2.19-3.27 4.306-7.5 9.374-9.38 11.261-4.62 4.64-4.39 6.913 0.58 5.665 4.48-1.124 4.42-0.645-0.96 7.385-4.29 6.43-6.64 6.63-7.11 0.63-0.17-2.26 0.33-3.71 1.1-3.22 0.78 0.48 1.01-0.19 0.51-1.49-0.5-1.298-1.55-2.359-2.35-2.359s-1.02-0.695-0.49-1.545c0.52-0.85 1.53-1.191 2.23-0.758s0.93-0.512 0.51-2.1c-0.41-1.588 0.4-4.646 1.81-6.795 1.41-2.148 2.26-4.783 1.9-5.855-0.37-1.103-1.8 0.248-3.29 3.114-1.81 3.492-3.36 4.781-5 4.154-1.9-0.73-2.2-0.077-1.54 3.297 0.45 2.314-0.09 6.858-1.21 10.097-1.31 3.77-1.42 5.28-0.33 4.18 0.94-0.94 2.77-1.69 4.07-1.67 1.67 0.02 1.26 0.93-1.45 3.17-2.09 1.72-2.94 2.69-1.9 2.15 1.16-0.59 1.9 0.03 1.9 1.59 0 2.14 1.06 2.42 6.46 1.67 4.38-0.6 5.48-0.45 3.42 0.46-2.39 1.06-1.65 1.37 3.42 1.46 4.9 0.08 6.46-0.47 6.46-2.28 0-1.73-0.93-2.13-3.42-1.45-3.03 0.83-3.11 0.75-0.66-0.78 3.64-2.28 7.12-0.79 7.12 3.04 0 1.7-0.17 3.14-0.38 3.2-3.98 1.12-14.82 1.24-14.82 0.17 0-0.8-2.05-1.75-4.56-2.12-3.69-0.54-4.56-0.12-4.56 2.2 0 1.78 0.67 2.45 1.76 1.78 1.1-0.68 1.34-0.42 0.64 0.71-0.61 0.99-3.28 2.75-5.93 3.91l-4.83 2.12 8.36 0.1c6.17 0.07 7.77-0.31 6.08-1.47-1.81-1.24-1.52-1.47 1.4-1.11 2.03 0.24 3.95 1.24 4.26 2.21 0.78 2.36-6.68 3.86-13.68 2.75-4.14-0.66-5.66-0.36-5.66 1.11 0 1.11-1.71 3.3-3.8 4.87s-3.8 3.33-3.8 3.91c0 1.97 11.68 4.95 15.36 3.93 3.51-0.98 3.54-0.93 0.69 1.35-3.57 2.85-6.06 2.82-12.96-0.19zm15.7-59.021c0.48-1.254 0.21-2.28-0.6-2.28s-1.47 1.026-1.47 2.28 0.27 2.28 0.6 2.28 0.99-1.026 1.47-2.28zm-8.91 53.041c-3-2.28-3-2.33-0.09-4.49 1.62-1.2 3.68-2.16 4.56-2.14 0.89 0.03 0.41 0.74-1.05 1.6-4.06 2.36-3.17 4.43 1.9 4.43 4.59 0 6.19-2.13 2.66-3.55-1.04-0.42-0.44-0.82 1.33-0.89 2.37-0.08 3.23 0.79 3.23 3.3 0 2.75-0.93 3.49-4.75 3.74-2.61 0.17-6.12-0.73-7.79-2zm29.76 0.29c-0.06-1.6 0.3-2.5 0.8-1.99 0.51 0.5 0.56 1.81 0.12 2.91-0.48 1.21-0.84 0.85-0.92-0.92zm-76.92-7.35c-2.23-7.65-4.62-11.77-6.42-11.08-1.38 0.53-1.9-1.54-1.9-7.5 0-4.52-0.69-8.64-1.52-9.16-2.15-1.33-1.96 16.87 0.22 20.94 0.96 1.79 3.18 4.46 4.94 5.93 3.66 3.06 2.29 3.6-2.6 1.03-2.84-1.48-7.22-6.62-5.66-6.62 0.29 0-0.66-2.3-2.12-5.1-1.45-2.81-1.84-4.62-0.87-4.02 1.13 0.7 1.66 0.07 1.47-1.73-0.16-1.56-0.22-5.05-0.12-7.77 0.15-4.16 0.75-4.94 3.85-4.94 2.02 0 4.02 0.86 4.44 1.9 0.42 1.05 0.82 0.06 0.89-2.19 0.06-2.249-0.52-4.482-1.29-4.96-0.87-0.534-0.87-2.772 0-5.791 0.78-2.706 1.47-5.262 1.54-5.68 0.27-1.699 1.39-1.902 1.39-0.253 0 0.975 1.02 1.773 2.28 1.773 1.41 0 2.28 1.436 2.28 3.801 0 2.09-0.69 3.8-1.52 3.8-0.84 0-1.52-1.482-1.52-3.294 0-1.811-0.46-2.836-1.02-2.276-1.39 1.393-1.54 26.85-0.15 26.85 0.61 0 1.54 1.71 2.06 3.8 0.53 2.09 1.49 3.8 2.15 3.8s1.46 2.74 1.78 6.08c0.62 6.58-0.96 8.21-2.58 2.66zm100.75-5.22c-2.03-0.54-2.31-1.33-1.19-3.43 0.8-1.5 1.14-3.05 0.75-3.44s1.01-1.5 3.11-2.46c3.76-1.71 3.79-1.68 1.49 1.82-1.28 1.96-1.9 4.69-1.37 6.06 0.52 1.37 0.71 2.41 0.41 2.32-0.3-0.1-1.74-0.49-3.2-0.87zm-96.91-5.8c0-1.35-0.61-2.08-1.36-1.62-0.74 0.46-2.45-0.84-3.8-2.9-2.99-4.56-3.09-5.93-0.38-4.89 2.81 1.08 10.96-18.454 8.66-20.759-2.31-2.305-1.98-4.715 0.38-2.761 1.08 0.903 3.47 1.251 5.3 0.773 3.17-0.83 3.32-0.43 3.17 8.804-0.17 10.223-2.37 20.813-4.85 23.353-0.98 1-1.08 0.47-0.3-1.52 2.09-5.37 2.92-28.687 0.98-27.485-0.95 0.585-1.72 2.074-1.72 3.308 0 1.235-0.99 3.76-2.21 5.611-1.21 1.856-2.61 6.446-3.12 10.206l-0.91 6.84 2.41-4.18c1.32-2.3 3.11-4.18 3.96-4.18 0.86 0 0.49 1.52-0.81 3.38s-2.36 4.55-2.36 5.99-0.69 3.04-1.52 3.55c-0.84 0.52-1.52-0.16-1.52-1.52zm16.65-0.88c-0.93-1.73-1.31-4.13-0.86-5.32 1.5-3.89 3.21-2.26 3.32 3.17 0.14 6.18-0.16 6.44-2.46 2.15zm18.31-4.68c0-1.25 1.83-3.93 4.07-5.95l4.07-3.69-3.58 5.32c-1.96 2.93-3.8 5.61-4.07 5.96-0.27 0.34-0.49-0.39-0.49-1.64zm-13.01-6.6c1.82-4.65 1.78-7.211-0.11-7.882-0.94-0.335-2.16 1.132-2.69 3.252-0.53 2.13-1.64 3.87-2.46 3.87-2.02 0-1.89-0.9 0.88-6.26 2.06-3.983 2.95-4.453 6.84-3.599 2.56 0.561 4.47 0.348 4.47-0.497 0-0.813 1.18-1.932 2.62-2.486 2.03-0.776 1.85-0.181-0.76 2.596-1.86 1.982-3.38 4.646-3.38 5.926s-1.48 3.63-3.3 5.23c-3.25 2.85-3.28 2.85-2.11-0.15zm46.45-0.87c0-0.82 1.76-2.15 3.9-2.96 2.31-0.88 3.46-2.18 2.82-3.2-0.64-1.049-0.23-1.448 1.05-1.02 3.68 1.22 2.3 4.43-2.83 6.59-2.8 1.18-4.94 1.43-4.94 0.59zm-72.96-9.859c0-1.304 0.68-1.947 1.52-1.431 0.83 0.517 1.52 1.584 1.52 2.37 0 0.787-0.69 1.431-1.52 1.431-0.84 0-1.52-1.067-1.52-2.37zm-18.74-1.291c-0.86-2.229 0.13-3.94 2.27-3.94 1.7 0 1.62 4.161-0.1 5.222-0.74 0.463-1.72-0.114-2.17-1.282zm38.5 0.8c0-0.836 0.68-1.943 1.52-2.46 0.83-0.517 1.52-0.255 1.52 0.581s-0.69 1.943-1.52 2.46c-0.84 0.516-1.52 0.255-1.52-0.581zm50.16 0.096c0-1.837 2.89-3.979 3.94-2.925 0.38 0.383-0.34 1.561-1.62 2.619-1.44 1.199-2.32 1.314-2.32 0.306zm-0.77-4.82c2.39-2.5 4.69-4.207 5.1-3.795 1.01 1.004-5.96 8.339-7.92 8.339-0.84 0 0.42-2.045 2.82-4.544zm-40.27-0.59c0-2.193 0.57-3.987 1.28-3.987 0.7 0 1.26-3.42 1.25-7.6-0.01-4.181-0.58-7.601-1.28-7.601-0.69 0-1.25-1.026-1.25-2.28 0-2.754 3.99-3.054 5.07-0.381 0.42 1.046 0.84-0.494 0.94-3.42 0.13-4.393 0.43-4.854 1.72-2.648 0.85 1.47 1.14 3.351 0.62 4.18-0.51 0.83-0.23 1.508 0.62 1.508 0.86 0 2.3-2.771 3.21-6.158 0.91-3.388 2.65-6.539 3.86-7.004 1.21-0.464 2.17-2.652 2.14-4.862l-0.06-4.018-2.27 4.181c-2.98 5.493-3.93 5.324-1.95-0.348 0.87-2.491 1.3-5.346 0.97-6.346s-1.81 2.023-3.29 6.717c-1.8 5.72-3.34 8.284-4.67 7.773-2.28-0.874-4.33-11.293-2.94-14.916 0.51-1.331 0.3-3.267-0.46-4.301-0.76-1.035-0.93-4.275-0.37-7.202l1.02-5.32 0.25 6.081c0.2 4.934 0.54 5.577 1.8 3.408 0.85-1.47 1.12-3.374 0.59-4.232-0.6-0.972 0.51-1.292 2.96-0.849 3.47 0.629 3.92 0.208 3.92-3.65 0-4.655 2.68-13.031 3.8-11.905 0.37 0.372 0.08 3.032-0.65 5.912-2.84 11.16-3.16 13.596-1.77 13.596 0.79 0 1.75-1.197 2.13-2.66 0.39-1.464 0.82 0.76 0.97 4.94l0.28 7.601 2.24-8.345c1.55-5.766 1.79-9.29 0.77-11.401-1.98-4.085-2.99-12.938-1.48-12.938 4 0 6.32 13.542 3.64 21.157-2 5.667-1.95 6.121 0.81 6.996 1.62 0.514 2.94 1.552 2.94 2.305 0 0.754-0.85 1.042-1.9 0.64-1.98-0.761-6.1 9.591-4.71 11.843 1.06 1.711 7.64-11.708 8.81-17.976 0.71-3.777 1.78-5.203 3.9-5.203 1.6 0 3.65-1.368 4.54-3.04 0.9-1.672 2.34-3.04 3.22-3.04 1.86 0 0.25 19.197-1.91 22.802-0.87 1.453-1.01 0.151-0.38-3.586 0.93-5.509 0.79-5.803-2.31-4.819-2.97 0.945-3.19 0.641-2.25-3.101 0.7-2.807 0.5-3.82-0.61-3.132-0.9 0.559-2.75 5.977-4.1 12.04-2.87 12.933-3.43 13.992-8.15 15.465-3.13 0.976-3.44 0.719-2.56-2.075 0.59-1.834 0.35-3.191-0.55-3.191-2.03 0-4.72 5.042-4.72 8.846 0 1.631-1.67 4.064-3.72 5.405-3.01 1.97-3.92 4.196-4.76 11.551-1.07 9.525-5.2 16.335-5.2 8.588zm10.39-44.095c1.99-7.896 1.66-9.403-1.75-8.095-2.6 1-4.12 7.935-3 13.726 1.05 5.393 2.37 3.822 4.75-5.631zm-15.71 43.149c-0.52-0.836-0.3-1.52 0.49-1.52s1.79-1.369 2.23-3.041c0.86-3.294-1.22-4.252-2.47-1.14-0.61 1.488-0.8 1.478-0.89-0.048-0.18-2.834 4.52-4.179 6.04-1.728 0.8 1.297 0.45 3.009-0.92 4.525-1.21 1.341-1.75 2.896-1.19 3.455s0.26 1.017-0.67 1.017c-0.92 0-2.1-0.684-2.62-1.52zm-38.89-4.799c-1.08-2.018-1.4-6.334-0.82-11.222 0.71-6.052 0.39-8.391-1.34-9.829-1.84-1.523-2.28-1.47-2.28 0.277 0 1.189 0.82 2.983 1.83 3.986 1.42 1.419 1.41 1.825-0.05 1.825-2.72 0-4.71-6.32-2.68-8.52 0.91-0.998 1.89-1.599 2.17-1.335 1.33 1.257 6.16-5.563 5.38-7.593-0.49-1.273-0.49-2.315-0.01-2.315 1.67 0 6.07 9.884 7.1 15.962 0.57 3.345 1.48 8.133 2.02 10.641 0.86 3.965 0.59 3.767-2.02-1.52-1.66-3.344-3.03-7.489-3.05-9.21-0.03-1.722-1.11-4.458-2.41-6.081-2.2-2.741-2.31-2.411-1.44 4.65 0.52 4.18 1.29 8.798 1.71 10.261 0.44 1.485-0.02 2.66-1.04 2.66-1.23 0-1.54 1.72-0.96 5.321 0.99 6.116 0.38 6.705-2.11 2.042zm23.76-2.572c-0.49-1.545 0.14-4.795 1.41-7.221 1.26-2.425 2.3-5.265 2.31-6.311 0-1.045 0.62-1.9 1.37-1.9 0.74 0 1.31-1.539 1.26-3.42s0.47-5.404 1.15-7.828c0.82-2.951 0.71-4.084-0.35-3.429-0.87 0.538-2-0.1-2.5-1.418-1.29-3.351-1.16-3.991 0.6-2.905 0.84 0.518 2.15-0.717 2.92-2.743 1.42-3.72 5.13-6.178 6.81-4.502 0.5 0.5 0.95 2.334 1.01 4.076 0.08 2.864 0.25 2.804 1.78-0.633l1.69-3.801 0.61 3.504c0.34 1.928-0.16 4.44-1.11 5.584-1.14 1.367-1.38 5.176-0.71 11.12 0.73 6.432 0.49 9.372-0.83 10.189-1.33 0.824-1.57 0.254-0.85-2.016 0.55-1.74 0.31-5.759-0.54-8.931-0.85-3.173-1.95-8.403-2.46-11.624-1.1-7.005-2.45-6.303-3.13 1.62-0.27 3.166-0.95 8.834-1.51 12.597-0.85 5.649-0.67 6.51 0.99 4.94 3.19-3.005 4.45-2.252 4.45 2.661 0 4.932-2.39 6.231-3.5 1.9-0.37-1.463-0.41 1.102-0.08 5.7 0.41 5.744 0.17 7.41-0.76 5.321-0.75-1.672-1.07-3.539-0.72-4.149s-0.14-2.564-1.09-4.344c-2.27-4.23-4.33-2.045-4.85 5.121-0.43 6.09-1.94 7.357-3.37 2.842zm-29.72-2.51c-1.55-1.868-1.44-2.281 0.58-2.281 1.35 0 2.46 1.027 2.46 2.281s-0.25 2.28-0.57 2.28-1.43-1.026-2.47-2.28zm-21.28-0.76c0-0.836 0.3-1.521 0.67-1.521s1.1 0.685 1.61 1.521c0.52 0.836 0.22 1.52-0.67 1.52-0.88 0-1.61-0.684-1.61-1.52zm7.6-0.048c0-0.81-0.86-1.473-1.91-1.473-1.94 0-6.57-5.993-6.06-7.836 0.15-0.548-0.73-1.382-1.96-1.853-1.22-0.471-2.24-0.023-2.25 0.996-0.02 1.207-0.51 1.083-1.42-0.355-3.02-4.771 1.42-6.174 5.77-1.824 2.27 2.265 3.29 2.457 5.29 0.992 2.29-1.674 2.27-2.287-0.34-7.75-5.13-10.763-8.13-23.409-6.13-25.822 0.98-1.184 2.34-2.153 3.01-2.153 1.55 0 10.56 13.256 10.56 15.543 0 2.376-7.34-4.75-8.43-8.182-0.49-1.54-1.58-2.8-2.41-2.8-2.19 0 0.36 8.213 5.8 18.625 1.2 2.301 1.69 4.972 1.1 5.936-0.6 0.963-0.44 1.35 0.36 0.858 0.82-0.508 1.41 1.626 1.37 4.949-0.05 4.04-0.58 5.419-1.73 4.472-1.68-1.386-3.66-0.386-3.66 1.849 0 0.67 1.8 2.16 4 3.31 3.26 1.711 3.54 2.266 1.52 3.041-1.36 0.522-2.48 0.287-2.48-0.523zm108.55-7.275c2.8-5.518 3.98-10.038 3.77-14.419-0.18-3.51 0.18-7.921 0.79-9.802 2-6.185-0.49-3.577-5.08 5.321-5.18 10.046-6.16 8.703-1.53-2.104 4.41-10.293 5.93-11.872 8.29-8.645 1.26 1.728 1.47 4.05 0.62 6.997-0.69 2.427-0.88 6.347-0.4 8.713 0.9 4.502-4.14 16.671-8.34 20.163-1.21 0.998-0.36-1.803 1.88-6.224zm-102.29 2.472c-0.1-2.25-0.86-4.514-1.7-5.03-0.83-0.517-1.52-1.72-1.52-2.674 0-1.25 0.51-1.225 1.83 0.089 1 1.004 2.98 1.824 4.39 1.824 3.15 0 4.63 3.31 2.79 6.219-1.01 1.596-1.37 1.192-1.38-1.582-0.03-4.159-2.32-2.717-3.5 2.204-0.57 2.344-0.77 2.103-0.91-1.05zm54.49 0.54c1.01-1.953 2.24-3.134 2.75-2.624 0.51 0.509-0.31 2.107-1.82 3.55-2.63 2.509-2.67 2.468-0.93-0.926zm-19.6-1.86c-0.06-2.139-1.16-5.217-2.46-6.84-2.22-2.782-2.33-2.625-1.83 2.749 0.58 6.167-1 7.756-2.4 2.415-0.93-3.576 1.23-8.875 3.63-8.875 0.82 0 1.08-1.636 0.58-3.635-1.06-4.225 1.79-6.753 4.41-3.914 1.38 1.498 1.19 1.712-0.89 0.979-1.47-0.514-2.66-0.786-2.65-0.603 0.01 0.182 0.94 3.76 2.05 7.951 1.15 4.292 1.52 8.938 0.85 10.641-1.05 2.687-1.19 2.59-1.29-0.868zm50.06-2.788c0-0.746 1.02-1.747 2.26-2.222 1.28-0.493 1.86-1.873 1.35-3.203-0.49-1.286-0.14-2.338 0.79-2.338s1.68 0.628 1.68 1.396c0 0.767 0.46 2.59 1.02 4.049 0.7 1.81 0.45 2.305-0.76 1.555-0.98-0.604-1.78-0.375-1.78 0.511 0 0.885-1.02 1.61-2.28 1.61-1.25 0-2.28-0.611-2.28-1.358zm-2.99-2.443c0-0.836 0.66-2.546 1.47-3.8s1.48-1.596 1.48-0.76-0.67 2.546-1.48 3.8-1.47 1.596-1.47 0.76zm-83.39-8.204c-1.82-3.24-3.29-6.824-3.27-7.964 0.02-1.141 1.76 1.267 3.85 5.35 4.58 8.905 4.12 10.968-0.58 2.614zm59.02-0.41c0-7.502 0.75-7.26 1.97 0.633 0.49 3.158 0.24 5.701-0.55 5.701-0.78 0-1.42-2.85-1.42-6.334zm-71.45 4.144c0-0.369 0.69-1.094 1.52-1.61 0.84-0.517 1.52-0.215 1.52 0.67 0 0.886-0.68 1.61-1.52 1.61-0.83 0-1.52-0.302-1.52-0.67zm-12.14-3.102c-3-3.617-0.49-4.716 3.23-1.413 3.27 2.898 3.27 2.897 1.41-0.646-2.07-3.946-0.76-6.775 1.5-3.246 3.42 5.327-2.13 10.128-6.14 5.305zm51.84 1.236c-0.09-0.977-0.62-3.029-1.16-4.561-0.76-2.16-0.56-2.394 0.9-1.045 1.04 0.956 1.56 3.008 1.16 4.56-0.39 1.552-0.8 2.023-0.9 1.046zm-23.63-5.796c-0.56-2.989-1.51-5.13-2.11-4.759s-1.17-2.12-1.26-5.537c-0.15-5.968-0.08-6.068 1.86-2.533 2.2 4.021 4.51 16.282 3.29 17.502-0.42 0.418-1.22-1.685-1.78-4.673zm84.44 0.9c0.14-3.255 0.32-3.422 1-0.929 0.6 2.207 1.37 0.956 2.8-4.56 1.49-5.733 1.79-6.2 1.21-1.901-0.46 3.441-0.13 5.701 0.82 5.701 3.32 0 1.42 4.239-2.21 4.933-3.3 0.63-3.77 0.202-3.62-3.244zm-104.06 0.338c-1.45-1.453-1.25-3.547 0.35-3.547 0.75 0 1.75 1.026 2.23 2.28 0.89 2.317-0.73 3.113-2.58 1.267zm25.6-0.887c-0.37-1.045-0.46-5.663-0.22-10.261 0.45-8.437-0.94-13.682-3.64-13.682-0.81 0-1.48 1.882-1.49 4.181-0.02 3.258-0.35 3.677-1.5 1.9-2.63-4.079-1.81-9.121 1.49-9.121 2.59 0 2.8-0.529 1.52-3.899-2.84-7.469-1.07-15.863 3.34-15.863 1.92 0 6.05 9.116 5.38 11.883-0.44 1.775-1.5 0.696-3.48-3.522l-2.86-6.081-0.52 5.057c-0.28 2.781 0.5 8.596 1.74 12.921 1.24 4.326 2.91 11.155 3.71 15.175 1.25 6.229 1.13 7.183-0.8 6.444-1.76-0.677-2.04-0.029-1.3 2.951 0.97 3.86-0.15 5.425-1.37 1.917zm12.37-1.9c-0.49-1.254-0.22-2.28 0.59-2.28s1.48 1.026 1.48 2.28-0.27 2.28-0.6 2.28-0.99-1.026-1.47-2.28zm7.5-4.923c-1.43-6.377-3.91-7.885-3.92-2.388l-0.01 4.271-2.65-3.95c-1.46-2.173-3.42-3.684-4.36-3.359-0.94 0.326-2.06-0.633-2.49-2.13-0.43-1.498-1.32-4.032-1.97-5.632-0.89-2.161-0.69-2.601 0.75-1.71 1.49 0.922 1.71 0.013 0.96-3.932-0.97-5.066-0.95-5.083 1.21-1.369 2.18 3.727 2.2 3.7 2.92-3.041 0.4-3.74 0.71-9.065 0.69-11.832-0.07-10.277 7.08-10.118 8.64 0.193 1.44 9.486 3.32 11.549 4.55 4.988 0.56-3.009 1.68-5.471 2.48-5.471 0.79 0 1.45-1.946 1.45-4.3244 0-4.3106 3.96-9.3566 7.34-9.3566 2.23-4.3299e-15 2.48 20.672 0.26 22.042-0.96 0.591-1.52-2.872-1.52-9.335 0-7.7037-0.44-9.8402-1.74-8.5381-2.56 2.5649-1.93 19.736 0.89 24.039 1.3 1.985 2.34 5.514 2.31 7.842l-0.05 4.234-2.11-3.8c-2.1-3.796-2.11-3.794-2.73 2.28-0.34 3.345-0.74-0.629-0.88-8.83-0.16-9.513-0.8-14.571-1.78-13.97-0.83 0.517-1.26 4.662-0.94 9.21 0.56 8.118-1.25 11.57-2.54 4.849-0.47-2.427-0.72-1.959-0.87 1.61-0.26 6.52-2.69 4.995-3.74-2.36-1.3-9.03-4.63-20.152-6.04-20.152-0.7 0-0.85 6.157-0.33 13.681 0.52 7.573 0.35 13.682-0.39 13.682s-0.99 2.223-0.55 4.941c0.73 4.648 0.89 4.445 2.6-3.421 1-4.598 1.9-7.121 2-5.606 0.09 1.515 1.26 6.1 2.6 10.188 1.33 4.088 2.12 8.321 1.75 9.407-0.38 1.085-1.18-0.243-1.79-2.95zm-48.09-0.561c-2.19-4.103 0.3-7.049 3.11-3.667 1.68 2.031 1.58 2.23-0.7 1.354-2.33-0.893-2.45-0.604-0.92 2.246 0.96 1.799 1.41 3.271 0.99 3.271s-1.53-1.442-2.48-3.204zm54.02-1.471c-1.43-4.522-0.38-4.711 2.77-0.497 2.25 3.006 2.33 3.651 0.48 3.651-1.24 0-2.7-1.419-3.25-3.154zm-28.59-0.899c-0.56-0.558-0.97-2.439-0.92-4.181 0.09-2.912 0.21-2.874 1.55 0.474 1.49 3.722 1.18 5.522-0.63 3.707zm-12.57-13.499c-1.41-5.625 0.28-6.22 2.18-0.767 0.94 2.708 1.03 4.638 0.2 4.638-0.77 0-1.85-1.742-2.38-3.871zm56.04 1.211c1.41-4.996 1.48-5.706 1.08-11.022l-0.39-5.32-1.19 6.081c-0.95 4.902-1.12 3.945-0.87-4.936 0.35-12.424 3.3-17.812 7.73-14.13 2.65 2.1935 3.45 16.118 0.84 14.505-0.84-0.517-1.52-3.635-1.52-6.93 0-3.2954-0.63-5.9913-1.4-5.9913-2.46 0-3.28 8.1033-1.68 16.549 2.14 11.259 1.97 13.854-0.9 13.854-1.61 0-2.2-0.914-1.7-2.66zm6.43-0.831c-1.27-4.848-0.01-7.021 2.57-4.438 1.26 1.26 1.3 2.719 0.15 5.219l-1.61 3.47-1.11-4.251zm-45.88-5.25c-0.52-1.463-1.23-3.344-1.58-4.18-0.35-0.837 0.44-0.193 1.75 1.43 2.39 2.947 3.11 5.41 1.59 5.41-0.45 0-1.24-1.197-1.76-2.66zm51.21-11.021c0-3.345 0.68-6.081 1.52-6.081s1.52 2.093 1.52 4.65c0 2.677 0.64 4.257 1.5 3.722 0.86-0.533 1.12 0.077 0.6 1.43-1.88 4.89-5.14 2.527-5.14-3.721z"/>
  <metadata>
    <rdf:RDF>
      <cc:Work>
        <dc:format>image/svg+xml</dc:format>
        <dc:type rdf:resource="http://purl.org/dc/dcmitype/StillImage"/>
        <cc:license rdf:resource="http://creativecommons.org/licenses/publicdomain/"/>
        <dc:publisher>
          <cc:Agent rdf:about="http://openclipart.org/">
            <dc:title>Openclipart</dc:title>
          </cc:Agent>
        </dc:publisher>
        <dc:title>Clover</dc:title>
        <dc:date>2009-04-02T11:18:30</dc:date>
        <dc:description>Source: http://commons.wikimedia.org/wiki/File:Clover_(PSF).jpg&#xD;\n&#xD;\nInfo: http://en.wikipedia.org/wiki/Clover</dc:description>
        <dc:source>http://openclipart.org/detail/23776/clover-by-warszawianka-23776</dc:source>
        <dc:creator>
          <cc:Agent>
            <dc:title>warszawianka</dc:title>
          </cc:Agent>
        </dc:creator>
        <dc:subject>
          <rdf:Bag>
            <rdf:li>biology</rdf:li>
            <rdf:li>black and white</rdf:li>
            <rdf:li>botany</rdf:li>
            <rdf:li>clip art</rdf:li>
            <rdf:li>clipart</rdf:li>
            <rdf:li>clover</rdf:li>
            <rdf:li>contour</rdf:li>
            <rdf:li>externalsource</rdf:li>
            <rdf:li>flower</rdf:li>
            <rdf:li>image</rdf:li>
            <rdf:li>leaf</rdf:li>
            <rdf:li>line art</rdf:li>
            <rdf:li>luck</rdf:li>
            <rdf:li>media</rdf:li>
            <rdf:li>nature</rdf:li>
            <rdf:li>outline</rdf:li>
            <rdf:li>plant</rdf:li>
            <rdf:li>png</rdf:li>
            <rdf:li>psf</rdf:li>
            <rdf:li>public domain</rdf:li>
            <rdf:li>season</rdf:li>
            <rdf:li>spring</rdf:li>
            <rdf:li>summer</rdf:li>
            <rdf:li>svg</rdf:li>
            <rdf:li>wikimedia commons</rdf:li>
          </rdf:Bag>
        </dc:subject>
      </cc:Work>
      <cc:License rdf:about="http://creativecommons.org/licenses/publicdomain/">
        <cc:permits rdf:resource="http://creativecommons.org/ns#Reproduction"/>
        <cc:permits rdf:resource="http://creativecommons.org/ns#Distribution"/>
        <cc:permits rdf:resource="http://creativecommons.org/ns#DerivativeWorks"/>
      </cc:License>
    </rdf:RDF>
  </metadata>
</svg>
